G04 #@! TF.GenerationSoftware,KiCad,Pcbnew,(5.1.5)-3*
G04 #@! TF.CreationDate,2020-11-13T22:42:07+09:00*
G04 #@! TF.ProjectId,shield_servo_adc_sw_gpio_led,73686965-6c64-45f7-9365-72766f5f6164,rev?*
G04 #@! TF.SameCoordinates,PXb532b80PY717cbc0*
G04 #@! TF.FileFunction,Legend,Top*
G04 #@! TF.FilePolarity,Positive*
%FSLAX46Y46*%
G04 Gerber Fmt 4.6, Leading zero omitted, Abs format (unit mm)*
G04 Created by KiCad (PCBNEW (5.1.5)-3) date 2020-11-13 22:42:07*
%MOMM*%
%LPD*%
G04 APERTURE LIST*
%ADD10C,0.100000*%
%ADD11C,2.000000*%
%ADD12C,2.500000*%
%ADD13C,0.150000*%
%ADD14C,0.120000*%
%ADD15C,3.302000*%
%ADD16C,2.112000*%
%ADD17C,1.102000*%
%ADD18C,3.602000*%
%ADD19R,3.602000X3.602000*%
%ADD20C,1.502000*%
%ADD21O,1.852000X1.302000*%
%ADD22O,1.302000X1.852000*%
%ADD23C,2.102000*%
%ADD24R,2.102000X2.102000*%
G04 APERTURE END LIST*
D10*
G36*
X70000000Y-25000000D02*
G01*
X47300000Y-25000000D01*
X47300000Y-15000000D01*
X70000000Y-15000000D01*
X70000000Y-25000000D01*
G37*
X70000000Y-25000000D02*
X47300000Y-25000000D01*
X47300000Y-15000000D01*
X70000000Y-15000000D01*
X70000000Y-25000000D01*
D11*
D12*
D13*
X12904761Y-8128571D02*
X12142857Y-8128571D01*
X11666666Y-8128571D02*
X10904761Y-8128571D01*
X11285714Y-7747619D02*
X11285714Y-8509523D01*
X10476190Y-7795238D02*
X10380952Y-7747619D01*
X10190476Y-7747619D01*
X10095238Y-7795238D01*
X10047619Y-7890476D01*
X10047619Y-7938095D01*
X10095238Y-8033333D01*
X10190476Y-8080952D01*
X10333333Y-8080952D01*
X10428571Y-8128571D01*
X10476190Y-8223809D01*
X10476190Y-8271428D01*
X10428571Y-8366666D01*
X10333333Y-8414285D01*
X10190476Y-8414285D01*
X10095238Y-8366666D01*
X22904761Y-8128571D02*
X22142857Y-8128571D01*
X21666666Y-8128571D02*
X20904761Y-8128571D01*
X21285714Y-7747619D02*
X21285714Y-8509523D01*
X20476190Y-7795238D02*
X20380952Y-7747619D01*
X20190476Y-7747619D01*
X20095238Y-7795238D01*
X20047619Y-7890476D01*
X20047619Y-7938095D01*
X20095238Y-8033333D01*
X20190476Y-8080952D01*
X20333333Y-8080952D01*
X20428571Y-8128571D01*
X20476190Y-8223809D01*
X20476190Y-8271428D01*
X20428571Y-8366666D01*
X20333333Y-8414285D01*
X20190476Y-8414285D01*
X20095238Y-8366666D01*
X32904761Y-8128571D02*
X32142857Y-8128571D01*
X31666666Y-8128571D02*
X30904761Y-8128571D01*
X31285714Y-7747619D02*
X31285714Y-8509523D01*
X30476190Y-7795238D02*
X30380952Y-7747619D01*
X30190476Y-7747619D01*
X30095238Y-7795238D01*
X30047619Y-7890476D01*
X30047619Y-7938095D01*
X30095238Y-8033333D01*
X30190476Y-8080952D01*
X30333333Y-8080952D01*
X30428571Y-8128571D01*
X30476190Y-8223809D01*
X30476190Y-8271428D01*
X30428571Y-8366666D01*
X30333333Y-8414285D01*
X30190476Y-8414285D01*
X30095238Y-8366666D01*
X42904761Y-8128571D02*
X42142857Y-8128571D01*
X41666666Y-8128571D02*
X40904761Y-8128571D01*
X41285714Y-7747619D02*
X41285714Y-8509523D01*
X40476190Y-7795238D02*
X40380952Y-7747619D01*
X40190476Y-7747619D01*
X40095238Y-7795238D01*
X40047619Y-7890476D01*
X40047619Y-7938095D01*
X40095238Y-8033333D01*
X40190476Y-8080952D01*
X40333333Y-8080952D01*
X40428571Y-8128571D01*
X40476190Y-8223809D01*
X40476190Y-8271428D01*
X40428571Y-8366666D01*
X40333333Y-8414285D01*
X40190476Y-8414285D01*
X40095238Y-8366666D01*
X39395238Y-31871428D02*
X40157142Y-31871428D01*
X40633333Y-31871428D02*
X41395238Y-31871428D01*
X41014285Y-32252380D02*
X41014285Y-31490476D01*
X41823809Y-32204761D02*
X41919047Y-32252380D01*
X42109523Y-32252380D01*
X42204761Y-32204761D01*
X42252380Y-32109523D01*
X42252380Y-32061904D01*
X42204761Y-31966666D01*
X42109523Y-31919047D01*
X41966666Y-31919047D01*
X41871428Y-31871428D01*
X41823809Y-31776190D01*
X41823809Y-31728571D01*
X41871428Y-31633333D01*
X41966666Y-31585714D01*
X42109523Y-31585714D01*
X42204761Y-31633333D01*
X29395238Y-31871428D02*
X30157142Y-31871428D01*
X30633333Y-31871428D02*
X31395238Y-31871428D01*
X31014285Y-32252380D02*
X31014285Y-31490476D01*
X31823809Y-32204761D02*
X31919047Y-32252380D01*
X32109523Y-32252380D01*
X32204761Y-32204761D01*
X32252380Y-32109523D01*
X32252380Y-32061904D01*
X32204761Y-31966666D01*
X32109523Y-31919047D01*
X31966666Y-31919047D01*
X31871428Y-31871428D01*
X31823809Y-31776190D01*
X31823809Y-31728571D01*
X31871428Y-31633333D01*
X31966666Y-31585714D01*
X32109523Y-31585714D01*
X32204761Y-31633333D01*
X19395238Y-31871428D02*
X20157142Y-31871428D01*
X20633333Y-31871428D02*
X21395238Y-31871428D01*
X21014285Y-32252380D02*
X21014285Y-31490476D01*
X21823809Y-32204761D02*
X21919047Y-32252380D01*
X22109523Y-32252380D01*
X22204761Y-32204761D01*
X22252380Y-32109523D01*
X22252380Y-32061904D01*
X22204761Y-31966666D01*
X22109523Y-31919047D01*
X21966666Y-31919047D01*
X21871428Y-31871428D01*
X21823809Y-31776190D01*
X21823809Y-31728571D01*
X21871428Y-31633333D01*
X21966666Y-31585714D01*
X22109523Y-31585714D01*
X22204761Y-31633333D01*
X9395238Y-31871428D02*
X10157142Y-31871428D01*
X10633333Y-31871428D02*
X11395238Y-31871428D01*
X11014285Y-32252380D02*
X11014285Y-31490476D01*
X11823809Y-32204761D02*
X11919047Y-32252380D01*
X12109523Y-32252380D01*
X12204761Y-32204761D01*
X12252380Y-32109523D01*
X12252380Y-32061904D01*
X12204761Y-31966666D01*
X12109523Y-31919047D01*
X11966666Y-31919047D01*
X11871428Y-31871428D01*
X11823809Y-31776190D01*
X11823809Y-31728571D01*
X11871428Y-31633333D01*
X11966666Y-31585714D01*
X12109523Y-31585714D01*
X12204761Y-31633333D01*
X3838095Y-25725000D02*
X3742857Y-25677380D01*
X3600000Y-25677380D01*
X3457142Y-25725000D01*
X3361904Y-25820238D01*
X3314285Y-25915476D01*
X3266666Y-26105952D01*
X3266666Y-26248809D01*
X3314285Y-26439285D01*
X3361904Y-26534523D01*
X3457142Y-26629761D01*
X3600000Y-26677380D01*
X3695238Y-26677380D01*
X3838095Y-26629761D01*
X3885714Y-26582142D01*
X3885714Y-26248809D01*
X3695238Y-26248809D01*
X4314285Y-26677380D02*
X4314285Y-25677380D01*
X4885714Y-26677380D01*
X4885714Y-25677380D01*
X5361904Y-26677380D02*
X5361904Y-25677380D01*
X5600000Y-25677380D01*
X5742857Y-25725000D01*
X5838095Y-25820238D01*
X5885714Y-25915476D01*
X5933333Y-26105952D01*
X5933333Y-26248809D01*
X5885714Y-26439285D01*
X5838095Y-26534523D01*
X5742857Y-26629761D01*
X5600000Y-26677380D01*
X5361904Y-26677380D01*
X2790476Y-28327380D02*
X2457142Y-27851190D01*
X2219047Y-28327380D02*
X2219047Y-27327380D01*
X2600000Y-27327380D01*
X2695238Y-27375000D01*
X2742857Y-27422619D01*
X2790476Y-27517857D01*
X2790476Y-27660714D01*
X2742857Y-27755952D01*
X2695238Y-27803571D01*
X2600000Y-27851190D01*
X2219047Y-27851190D01*
X3123809Y-27327380D02*
X3790476Y-28327380D01*
X3790476Y-27327380D02*
X3123809Y-28327380D01*
X4219047Y-28279761D02*
X4219047Y-28327380D01*
X4171428Y-28422619D01*
X4123809Y-28470238D01*
X4600000Y-28279761D02*
X4742857Y-28327380D01*
X4980952Y-28327380D01*
X5076190Y-28279761D01*
X5123809Y-28232142D01*
X5171428Y-28136904D01*
X5171428Y-28041666D01*
X5123809Y-27946428D01*
X5076190Y-27898809D01*
X4980952Y-27851190D01*
X4790476Y-27803571D01*
X4695238Y-27755952D01*
X4647619Y-27708333D01*
X4600000Y-27613095D01*
X4600000Y-27517857D01*
X4647619Y-27422619D01*
X4695238Y-27375000D01*
X4790476Y-27327380D01*
X5028571Y-27327380D01*
X5171428Y-27375000D01*
X5600000Y-28327380D02*
X5600000Y-27327380D01*
X5838095Y-27327380D01*
X5980952Y-27375000D01*
X6076190Y-27470238D01*
X6123809Y-27565476D01*
X6171428Y-27755952D01*
X6171428Y-27898809D01*
X6123809Y-28089285D01*
X6076190Y-28184523D01*
X5980952Y-28279761D01*
X5838095Y-28327380D01*
X5600000Y-28327380D01*
X6552380Y-28041666D02*
X7028571Y-28041666D01*
X6457142Y-28327380D02*
X6790476Y-27327380D01*
X7123809Y-28327380D01*
X2219047Y-28977380D02*
X2790476Y-28977380D01*
X2504761Y-29977380D02*
X2504761Y-28977380D01*
X3028571Y-28977380D02*
X3695238Y-29977380D01*
X3695238Y-28977380D02*
X3028571Y-29977380D01*
X4123809Y-29929761D02*
X4123809Y-29977380D01*
X4076190Y-30072619D01*
X4028571Y-30120238D01*
X4504761Y-29929761D02*
X4647619Y-29977380D01*
X4885714Y-29977380D01*
X4980952Y-29929761D01*
X5028571Y-29882142D01*
X5076190Y-29786904D01*
X5076190Y-29691666D01*
X5028571Y-29596428D01*
X4980952Y-29548809D01*
X4885714Y-29501190D01*
X4695238Y-29453571D01*
X4600000Y-29405952D01*
X4552380Y-29358333D01*
X4504761Y-29263095D01*
X4504761Y-29167857D01*
X4552380Y-29072619D01*
X4600000Y-29025000D01*
X4695238Y-28977380D01*
X4933333Y-28977380D01*
X5076190Y-29025000D01*
X6076190Y-29882142D02*
X6028571Y-29929761D01*
X5885714Y-29977380D01*
X5790476Y-29977380D01*
X5647619Y-29929761D01*
X5552380Y-29834523D01*
X5504761Y-29739285D01*
X5457142Y-29548809D01*
X5457142Y-29405952D01*
X5504761Y-29215476D01*
X5552380Y-29120238D01*
X5647619Y-29025000D01*
X5790476Y-28977380D01*
X5885714Y-28977380D01*
X6028571Y-29025000D01*
X6076190Y-29072619D01*
X6980952Y-29977380D02*
X6504761Y-29977380D01*
X6504761Y-28977380D01*
X3361904Y-30627380D02*
X3980952Y-30627380D01*
X3647619Y-31008333D01*
X3790476Y-31008333D01*
X3885714Y-31055952D01*
X3933333Y-31103571D01*
X3980952Y-31198809D01*
X3980952Y-31436904D01*
X3933333Y-31532142D01*
X3885714Y-31579761D01*
X3790476Y-31627380D01*
X3504761Y-31627380D01*
X3409523Y-31579761D01*
X3361904Y-31532142D01*
X4266666Y-30627380D02*
X4600000Y-31627380D01*
X4933333Y-30627380D01*
X5171428Y-30627380D02*
X5790476Y-30627380D01*
X5457142Y-31008333D01*
X5600000Y-31008333D01*
X5695238Y-31055952D01*
X5742857Y-31103571D01*
X5790476Y-31198809D01*
X5790476Y-31436904D01*
X5742857Y-31532142D01*
X5695238Y-31579761D01*
X5600000Y-31627380D01*
X5314285Y-31627380D01*
X5219047Y-31579761D01*
X5171428Y-31532142D01*
D14*
X42850000Y-25000000D02*
X47300000Y-25000000D01*
X42850000Y-15000000D02*
X42850000Y-25080000D01*
X47300000Y-15000000D02*
X42850000Y-15000000D01*
X10300000Y-11500000D02*
X8800000Y-13000000D01*
X46300000Y-11500000D02*
X10300000Y-11500000D01*
X47300000Y-12500000D02*
X46300000Y-11500000D01*
X47300000Y-27500000D02*
X47300000Y-12500000D01*
X46300000Y-28500000D02*
X47300000Y-27500000D01*
X10300000Y-28500000D02*
X46300000Y-28500000D01*
X8800000Y-27000000D02*
X10300000Y-28500000D01*
X8800000Y-13000000D02*
X8800000Y-27000000D01*
X60950000Y-2190000D02*
G75*
G02X60950000Y-4410000I0J-1110000D01*
G01*
X49650000Y-4410000D02*
G75*
G02X49650000Y-2190000I0J1110000D01*
G01*
X60360000Y-90000D02*
X60360000Y-2190000D01*
X49650000Y-4410000D02*
X50240000Y-4410000D01*
X49650000Y-2190000D02*
X50240000Y-2190000D01*
X60360000Y-2190000D02*
X60950000Y-2190000D01*
X60360000Y-4410000D02*
X60950000Y-4410000D01*
X60360000Y-4410000D02*
X60360000Y-9310000D01*
X50240000Y-90000D02*
X50240000Y-2190000D01*
X50240000Y-4410000D02*
X50240000Y-9310000D01*
X50240000Y-9310000D02*
X60360000Y-9310000D01*
X50240000Y-90000D02*
X60360000Y-90000D01*
X6360000Y-16140000D02*
X7575000Y-16140000D01*
X2400000Y-16200000D02*
X140000Y-16200000D01*
X2400000Y-16700000D02*
X140000Y-16700000D01*
X4000000Y-23300000D02*
X4000000Y-24300000D01*
X2400000Y-23300000D02*
X4000000Y-23300000D01*
X2400000Y-24300000D02*
X2400000Y-23300000D01*
X4000000Y-24300000D02*
X2400000Y-24300000D01*
X4000000Y-16700000D02*
X4000000Y-15700000D01*
X2400000Y-16700000D02*
X4000000Y-16700000D01*
X2400000Y-15700000D02*
X2400000Y-16700000D01*
X4000000Y-15700000D02*
X2400000Y-15700000D01*
X6360000Y-25060000D02*
X6360000Y-24140000D01*
X6360000Y-14940000D02*
X6360000Y-15860000D01*
X4500000Y-22500000D02*
X140000Y-22500000D01*
X4500000Y-17500000D02*
X4500000Y-22500000D01*
X140000Y-17500000D02*
X4500000Y-17500000D01*
X6360000Y-24140000D02*
X6360000Y-23860000D01*
X7960000Y-24140000D02*
X6360000Y-24140000D01*
X7960000Y-25060000D02*
X7960000Y-24140000D01*
X140000Y-25060000D02*
X7960000Y-25060000D01*
X140000Y-14940000D02*
X140000Y-25060000D01*
X7960000Y-14940000D02*
X140000Y-14940000D01*
X7960000Y-15860000D02*
X7960000Y-14940000D01*
X6360000Y-15860000D02*
X7960000Y-15860000D01*
X6360000Y-16140000D02*
X6360000Y-15860000D01*
X38140000Y-33740000D02*
X38140000Y-32525000D01*
X38200000Y-37700000D02*
X38200000Y-39960000D01*
X38700000Y-37700000D02*
X38700000Y-39960000D01*
X43300000Y-36100000D02*
X44300000Y-36100000D01*
X43300000Y-37700000D02*
X43300000Y-36100000D01*
X44300000Y-37700000D02*
X43300000Y-37700000D01*
X44300000Y-36100000D02*
X44300000Y-37700000D01*
X38700000Y-36100000D02*
X37700000Y-36100000D01*
X38700000Y-37700000D02*
X38700000Y-36100000D01*
X37700000Y-37700000D02*
X38700000Y-37700000D01*
X37700000Y-36100000D02*
X37700000Y-37700000D01*
X45060000Y-33740000D02*
X44140000Y-33740000D01*
X36940000Y-33740000D02*
X37860000Y-33740000D01*
X42500000Y-35600000D02*
X42500000Y-39960000D01*
X39500000Y-35600000D02*
X42500000Y-35600000D01*
X39500000Y-39960000D02*
X39500000Y-35600000D01*
X44140000Y-33740000D02*
X43860000Y-33740000D01*
X44140000Y-32140000D02*
X44140000Y-33740000D01*
X45060000Y-32140000D02*
X44140000Y-32140000D01*
X45060000Y-39960000D02*
X45060000Y-32140000D01*
X36940000Y-39960000D02*
X45060000Y-39960000D01*
X36940000Y-32140000D02*
X36940000Y-39960000D01*
X37860000Y-32140000D02*
X36940000Y-32140000D01*
X37860000Y-33740000D02*
X37860000Y-32140000D01*
X38140000Y-33740000D02*
X37860000Y-33740000D01*
X28140000Y-33740000D02*
X28140000Y-32525000D01*
X28200000Y-37700000D02*
X28200000Y-39960000D01*
X28700000Y-37700000D02*
X28700000Y-39960000D01*
X33300000Y-36100000D02*
X34300000Y-36100000D01*
X33300000Y-37700000D02*
X33300000Y-36100000D01*
X34300000Y-37700000D02*
X33300000Y-37700000D01*
X34300000Y-36100000D02*
X34300000Y-37700000D01*
X28700000Y-36100000D02*
X27700000Y-36100000D01*
X28700000Y-37700000D02*
X28700000Y-36100000D01*
X27700000Y-37700000D02*
X28700000Y-37700000D01*
X27700000Y-36100000D02*
X27700000Y-37700000D01*
X35060000Y-33740000D02*
X34140000Y-33740000D01*
X26940000Y-33740000D02*
X27860000Y-33740000D01*
X32500000Y-35600000D02*
X32500000Y-39960000D01*
X29500000Y-35600000D02*
X32500000Y-35600000D01*
X29500000Y-39960000D02*
X29500000Y-35600000D01*
X34140000Y-33740000D02*
X33860000Y-33740000D01*
X34140000Y-32140000D02*
X34140000Y-33740000D01*
X35060000Y-32140000D02*
X34140000Y-32140000D01*
X35060000Y-39960000D02*
X35060000Y-32140000D01*
X26940000Y-39960000D02*
X35060000Y-39960000D01*
X26940000Y-32140000D02*
X26940000Y-39960000D01*
X27860000Y-32140000D02*
X26940000Y-32140000D01*
X27860000Y-33740000D02*
X27860000Y-32140000D01*
X28140000Y-33740000D02*
X27860000Y-33740000D01*
X18140000Y-33740000D02*
X18140000Y-32525000D01*
X18200000Y-37700000D02*
X18200000Y-39960000D01*
X18700000Y-37700000D02*
X18700000Y-39960000D01*
X23300000Y-36100000D02*
X24300000Y-36100000D01*
X23300000Y-37700000D02*
X23300000Y-36100000D01*
X24300000Y-37700000D02*
X23300000Y-37700000D01*
X24300000Y-36100000D02*
X24300000Y-37700000D01*
X18700000Y-36100000D02*
X17700000Y-36100000D01*
X18700000Y-37700000D02*
X18700000Y-36100000D01*
X17700000Y-37700000D02*
X18700000Y-37700000D01*
X17700000Y-36100000D02*
X17700000Y-37700000D01*
X25060000Y-33740000D02*
X24140000Y-33740000D01*
X16940000Y-33740000D02*
X17860000Y-33740000D01*
X22500000Y-35600000D02*
X22500000Y-39960000D01*
X19500000Y-35600000D02*
X22500000Y-35600000D01*
X19500000Y-39960000D02*
X19500000Y-35600000D01*
X24140000Y-33740000D02*
X23860000Y-33740000D01*
X24140000Y-32140000D02*
X24140000Y-33740000D01*
X25060000Y-32140000D02*
X24140000Y-32140000D01*
X25060000Y-39960000D02*
X25060000Y-32140000D01*
X16940000Y-39960000D02*
X25060000Y-39960000D01*
X16940000Y-32140000D02*
X16940000Y-39960000D01*
X17860000Y-32140000D02*
X16940000Y-32140000D01*
X17860000Y-33740000D02*
X17860000Y-32140000D01*
X18140000Y-33740000D02*
X17860000Y-33740000D01*
X8140000Y-33740000D02*
X8140000Y-32525000D01*
X8200000Y-37700000D02*
X8200000Y-39960000D01*
X8700000Y-37700000D02*
X8700000Y-39960000D01*
X13300000Y-36100000D02*
X14300000Y-36100000D01*
X13300000Y-37700000D02*
X13300000Y-36100000D01*
X14300000Y-37700000D02*
X13300000Y-37700000D01*
X14300000Y-36100000D02*
X14300000Y-37700000D01*
X8700000Y-36100000D02*
X7700000Y-36100000D01*
X8700000Y-37700000D02*
X8700000Y-36100000D01*
X7700000Y-37700000D02*
X8700000Y-37700000D01*
X7700000Y-36100000D02*
X7700000Y-37700000D01*
X15060000Y-33740000D02*
X14140000Y-33740000D01*
X6940000Y-33740000D02*
X7860000Y-33740000D01*
X12500000Y-35600000D02*
X12500000Y-39960000D01*
X9500000Y-35600000D02*
X12500000Y-35600000D01*
X9500000Y-39960000D02*
X9500000Y-35600000D01*
X14140000Y-33740000D02*
X13860000Y-33740000D01*
X14140000Y-32140000D02*
X14140000Y-33740000D01*
X15060000Y-32140000D02*
X14140000Y-32140000D01*
X15060000Y-39960000D02*
X15060000Y-32140000D01*
X6940000Y-39960000D02*
X15060000Y-39960000D01*
X6940000Y-32140000D02*
X6940000Y-39960000D01*
X7860000Y-32140000D02*
X6940000Y-32140000D01*
X7860000Y-33740000D02*
X7860000Y-32140000D01*
X8140000Y-33740000D02*
X7860000Y-33740000D01*
X44160000Y-6260000D02*
X44440000Y-6260000D01*
X44440000Y-6260000D02*
X44440000Y-7860000D01*
X44440000Y-7860000D02*
X45360000Y-7860000D01*
X45360000Y-7860000D02*
X45360000Y-40000D01*
X45360000Y-40000D02*
X37240000Y-40000D01*
X37240000Y-40000D02*
X37240000Y-7860000D01*
X37240000Y-7860000D02*
X38160000Y-7860000D01*
X38160000Y-7860000D02*
X38160000Y-6260000D01*
X38160000Y-6260000D02*
X38440000Y-6260000D01*
X42800000Y-40000D02*
X42800000Y-4400000D01*
X42800000Y-4400000D02*
X39800000Y-4400000D01*
X39800000Y-4400000D02*
X39800000Y-40000D01*
X45360000Y-6260000D02*
X44440000Y-6260000D01*
X37240000Y-6260000D02*
X38160000Y-6260000D01*
X44600000Y-3900000D02*
X44600000Y-2300000D01*
X44600000Y-2300000D02*
X43600000Y-2300000D01*
X43600000Y-2300000D02*
X43600000Y-3900000D01*
X43600000Y-3900000D02*
X44600000Y-3900000D01*
X38000000Y-3900000D02*
X38000000Y-2300000D01*
X38000000Y-2300000D02*
X39000000Y-2300000D01*
X39000000Y-2300000D02*
X39000000Y-3900000D01*
X39000000Y-3900000D02*
X38000000Y-3900000D01*
X43600000Y-2300000D02*
X43600000Y-40000D01*
X44100000Y-2300000D02*
X44100000Y-40000D01*
X44160000Y-6260000D02*
X44160000Y-7475000D01*
X34160000Y-6260000D02*
X34160000Y-7475000D01*
X34100000Y-2300000D02*
X34100000Y-40000D01*
X33600000Y-2300000D02*
X33600000Y-40000D01*
X29000000Y-3900000D02*
X28000000Y-3900000D01*
X29000000Y-2300000D02*
X29000000Y-3900000D01*
X28000000Y-2300000D02*
X29000000Y-2300000D01*
X28000000Y-3900000D02*
X28000000Y-2300000D01*
X33600000Y-3900000D02*
X34600000Y-3900000D01*
X33600000Y-2300000D02*
X33600000Y-3900000D01*
X34600000Y-2300000D02*
X33600000Y-2300000D01*
X34600000Y-3900000D02*
X34600000Y-2300000D01*
X27240000Y-6260000D02*
X28160000Y-6260000D01*
X35360000Y-6260000D02*
X34440000Y-6260000D01*
X29800000Y-4400000D02*
X29800000Y-40000D01*
X32800000Y-4400000D02*
X29800000Y-4400000D01*
X32800000Y-40000D02*
X32800000Y-4400000D01*
X28160000Y-6260000D02*
X28440000Y-6260000D01*
X28160000Y-7860000D02*
X28160000Y-6260000D01*
X27240000Y-7860000D02*
X28160000Y-7860000D01*
X27240000Y-40000D02*
X27240000Y-7860000D01*
X35360000Y-40000D02*
X27240000Y-40000D01*
X35360000Y-7860000D02*
X35360000Y-40000D01*
X34440000Y-7860000D02*
X35360000Y-7860000D01*
X34440000Y-6260000D02*
X34440000Y-7860000D01*
X34160000Y-6260000D02*
X34440000Y-6260000D01*
X24160000Y-6260000D02*
X24160000Y-7475000D01*
X24100000Y-2300000D02*
X24100000Y-40000D01*
X23600000Y-2300000D02*
X23600000Y-40000D01*
X19000000Y-3900000D02*
X18000000Y-3900000D01*
X19000000Y-2300000D02*
X19000000Y-3900000D01*
X18000000Y-2300000D02*
X19000000Y-2300000D01*
X18000000Y-3900000D02*
X18000000Y-2300000D01*
X23600000Y-3900000D02*
X24600000Y-3900000D01*
X23600000Y-2300000D02*
X23600000Y-3900000D01*
X24600000Y-2300000D02*
X23600000Y-2300000D01*
X24600000Y-3900000D02*
X24600000Y-2300000D01*
X17240000Y-6260000D02*
X18160000Y-6260000D01*
X25360000Y-6260000D02*
X24440000Y-6260000D01*
X19800000Y-4400000D02*
X19800000Y-40000D01*
X22800000Y-4400000D02*
X19800000Y-4400000D01*
X22800000Y-40000D02*
X22800000Y-4400000D01*
X18160000Y-6260000D02*
X18440000Y-6260000D01*
X18160000Y-7860000D02*
X18160000Y-6260000D01*
X17240000Y-7860000D02*
X18160000Y-7860000D01*
X17240000Y-40000D02*
X17240000Y-7860000D01*
X25360000Y-40000D02*
X17240000Y-40000D01*
X25360000Y-7860000D02*
X25360000Y-40000D01*
X24440000Y-7860000D02*
X25360000Y-7860000D01*
X24440000Y-6260000D02*
X24440000Y-7860000D01*
X24160000Y-6260000D02*
X24440000Y-6260000D01*
X14160000Y-6260000D02*
X14160000Y-7475000D01*
X14100000Y-2300000D02*
X14100000Y-40000D01*
X13600000Y-2300000D02*
X13600000Y-40000D01*
X9000000Y-3900000D02*
X8000000Y-3900000D01*
X9000000Y-2300000D02*
X9000000Y-3900000D01*
X8000000Y-2300000D02*
X9000000Y-2300000D01*
X8000000Y-3900000D02*
X8000000Y-2300000D01*
X13600000Y-3900000D02*
X14600000Y-3900000D01*
X13600000Y-2300000D02*
X13600000Y-3900000D01*
X14600000Y-2300000D02*
X13600000Y-2300000D01*
X14600000Y-3900000D02*
X14600000Y-2300000D01*
X7240000Y-6260000D02*
X8160000Y-6260000D01*
X15360000Y-6260000D02*
X14440000Y-6260000D01*
X9800000Y-4400000D02*
X9800000Y-40000D01*
X12800000Y-4400000D02*
X9800000Y-4400000D01*
X12800000Y-40000D02*
X12800000Y-4400000D01*
X8160000Y-6260000D02*
X8440000Y-6260000D01*
X8160000Y-7860000D02*
X8160000Y-6260000D01*
X7240000Y-7860000D02*
X8160000Y-7860000D01*
X7240000Y-40000D02*
X7240000Y-7860000D01*
X15360000Y-40000D02*
X7240000Y-40000D01*
X15360000Y-7860000D02*
X15360000Y-40000D01*
X14440000Y-7860000D02*
X15360000Y-7860000D01*
X14440000Y-6260000D02*
X14440000Y-7860000D01*
X14160000Y-6260000D02*
X14440000Y-6260000D01*
X50120354Y-30025000D02*
X50120354Y-31025000D01*
X49620354Y-30525000D02*
X50620354Y-30525000D01*
X60181000Y-32801000D02*
X60181000Y-33999000D01*
X60141000Y-32538000D02*
X60141000Y-34262000D01*
X60101000Y-32338000D02*
X60101000Y-34462000D01*
X60061000Y-32170000D02*
X60061000Y-34630000D01*
X60021000Y-32022000D02*
X60021000Y-34778000D01*
X59981000Y-31890000D02*
X59981000Y-34910000D01*
X59941000Y-31770000D02*
X59941000Y-35030000D01*
X59901000Y-31658000D02*
X59901000Y-35142000D01*
X59861000Y-31554000D02*
X59861000Y-35246000D01*
X59821000Y-31456000D02*
X59821000Y-35344000D01*
X59781000Y-31363000D02*
X59781000Y-35437000D01*
X59741000Y-31275000D02*
X59741000Y-35525000D01*
X59701000Y-31191000D02*
X59701000Y-35609000D01*
X59661000Y-31111000D02*
X59661000Y-35689000D01*
X59621000Y-31035000D02*
X59621000Y-35765000D01*
X59581000Y-30961000D02*
X59581000Y-35839000D01*
X59541000Y-30890000D02*
X59541000Y-35910000D01*
X59501000Y-30821000D02*
X59501000Y-34160000D01*
X59461000Y-30755000D02*
X59461000Y-34160000D01*
X59421000Y-30691000D02*
X59421000Y-34160000D01*
X59381000Y-30630000D02*
X59381000Y-34160000D01*
X59341000Y-30570000D02*
X59341000Y-34160000D01*
X59301000Y-30511000D02*
X59301000Y-34160000D01*
X59261000Y-30455000D02*
X59261000Y-34160000D01*
X59221000Y-30400000D02*
X59221000Y-34160000D01*
X59181000Y-30346000D02*
X59181000Y-34160000D01*
X59141000Y-30294000D02*
X59141000Y-34160000D01*
X59101000Y-30244000D02*
X59101000Y-34160000D01*
X59061000Y-30194000D02*
X59061000Y-34160000D01*
X59021000Y-36640000D02*
X59021000Y-36654000D01*
X59021000Y-30146000D02*
X59021000Y-34160000D01*
X58981000Y-36640000D02*
X58981000Y-36701000D01*
X58981000Y-30099000D02*
X58981000Y-34160000D01*
X58941000Y-36640000D02*
X58941000Y-36747000D01*
X58941000Y-30053000D02*
X58941000Y-34160000D01*
X58901000Y-36640000D02*
X58901000Y-36792000D01*
X58901000Y-30008000D02*
X58901000Y-34160000D01*
X58861000Y-36640000D02*
X58861000Y-36836000D01*
X58861000Y-29964000D02*
X58861000Y-34160000D01*
X58821000Y-36640000D02*
X58821000Y-36878000D01*
X58821000Y-29922000D02*
X58821000Y-32159000D01*
X58781000Y-36640000D02*
X58781000Y-36920000D01*
X58781000Y-29880000D02*
X58781000Y-32159000D01*
X58741000Y-36640000D02*
X58741000Y-36961000D01*
X58741000Y-29839000D02*
X58741000Y-32159000D01*
X58701000Y-36640000D02*
X58701000Y-37001000D01*
X58701000Y-29799000D02*
X58701000Y-32159000D01*
X58661000Y-36640000D02*
X58661000Y-37040000D01*
X58661000Y-29760000D02*
X58661000Y-32159000D01*
X58621000Y-36640000D02*
X58621000Y-37079000D01*
X58621000Y-29721000D02*
X58621000Y-32159000D01*
X58581000Y-36640000D02*
X58581000Y-37116000D01*
X58581000Y-29684000D02*
X58581000Y-32159000D01*
X58541000Y-36640000D02*
X58541000Y-37153000D01*
X58541000Y-29647000D02*
X58541000Y-32159000D01*
X58501000Y-36640000D02*
X58501000Y-37189000D01*
X58501000Y-29611000D02*
X58501000Y-32159000D01*
X58461000Y-36640000D02*
X58461000Y-37224000D01*
X58461000Y-29576000D02*
X58461000Y-32159000D01*
X58421000Y-36640000D02*
X58421000Y-37258000D01*
X58421000Y-29542000D02*
X58421000Y-32159000D01*
X58381000Y-36640000D02*
X58381000Y-37292000D01*
X58381000Y-29508000D02*
X58381000Y-32159000D01*
X58341000Y-36640000D02*
X58341000Y-37325000D01*
X58341000Y-29475000D02*
X58341000Y-32159000D01*
X58301000Y-36640000D02*
X58301000Y-37357000D01*
X58301000Y-29443000D02*
X58301000Y-32159000D01*
X58261000Y-36640000D02*
X58261000Y-37389000D01*
X58261000Y-29411000D02*
X58261000Y-32159000D01*
X58221000Y-36640000D02*
X58221000Y-37420000D01*
X58221000Y-29380000D02*
X58221000Y-32159000D01*
X58181000Y-36640000D02*
X58181000Y-37450000D01*
X58181000Y-29350000D02*
X58181000Y-32159000D01*
X58141000Y-36640000D02*
X58141000Y-37480000D01*
X58141000Y-29320000D02*
X58141000Y-32159000D01*
X58101000Y-36640000D02*
X58101000Y-37510000D01*
X58101000Y-29290000D02*
X58101000Y-32159000D01*
X58061000Y-36640000D02*
X58061000Y-37538000D01*
X58061000Y-29262000D02*
X58061000Y-32159000D01*
X58021000Y-36640000D02*
X58021000Y-37566000D01*
X58021000Y-29234000D02*
X58021000Y-32159000D01*
X57981000Y-36640000D02*
X57981000Y-37594000D01*
X57981000Y-29206000D02*
X57981000Y-32159000D01*
X57941000Y-36640000D02*
X57941000Y-37621000D01*
X57941000Y-29179000D02*
X57941000Y-32159000D01*
X57901000Y-36640000D02*
X57901000Y-37647000D01*
X57901000Y-29153000D02*
X57901000Y-32159000D01*
X57861000Y-36640000D02*
X57861000Y-37673000D01*
X57861000Y-29127000D02*
X57861000Y-32159000D01*
X57821000Y-36640000D02*
X57821000Y-37698000D01*
X57821000Y-29102000D02*
X57821000Y-32159000D01*
X57781000Y-36640000D02*
X57781000Y-37723000D01*
X57781000Y-29077000D02*
X57781000Y-32159000D01*
X57741000Y-36640000D02*
X57741000Y-37747000D01*
X57741000Y-29053000D02*
X57741000Y-32159000D01*
X57701000Y-36640000D02*
X57701000Y-37771000D01*
X57701000Y-29029000D02*
X57701000Y-32159000D01*
X57661000Y-36640000D02*
X57661000Y-37795000D01*
X57661000Y-29005000D02*
X57661000Y-32159000D01*
X57621000Y-36640000D02*
X57621000Y-37817000D01*
X57621000Y-28983000D02*
X57621000Y-32159000D01*
X57581000Y-36640000D02*
X57581000Y-37840000D01*
X57581000Y-28960000D02*
X57581000Y-32159000D01*
X57541000Y-36640000D02*
X57541000Y-37862000D01*
X57541000Y-28938000D02*
X57541000Y-32159000D01*
X57501000Y-36640000D02*
X57501000Y-37883000D01*
X57501000Y-28917000D02*
X57501000Y-32159000D01*
X57461000Y-36640000D02*
X57461000Y-37904000D01*
X57461000Y-28896000D02*
X57461000Y-32159000D01*
X57421000Y-36640000D02*
X57421000Y-37925000D01*
X57421000Y-28875000D02*
X57421000Y-32159000D01*
X57381000Y-36640000D02*
X57381000Y-37945000D01*
X57381000Y-28855000D02*
X57381000Y-32159000D01*
X57341000Y-36640000D02*
X57341000Y-37964000D01*
X57341000Y-28836000D02*
X57341000Y-32159000D01*
X57301000Y-36640000D02*
X57301000Y-37984000D01*
X57301000Y-28816000D02*
X57301000Y-32159000D01*
X57261000Y-36640000D02*
X57261000Y-38003000D01*
X57261000Y-28797000D02*
X57261000Y-32159000D01*
X57221000Y-36640000D02*
X57221000Y-38021000D01*
X57221000Y-28779000D02*
X57221000Y-32159000D01*
X57181000Y-36640000D02*
X57181000Y-38039000D01*
X57181000Y-28761000D02*
X57181000Y-32159000D01*
X57141000Y-36640000D02*
X57141000Y-38057000D01*
X57141000Y-28743000D02*
X57141000Y-32159000D01*
X57101000Y-36640000D02*
X57101000Y-38074000D01*
X57101000Y-28726000D02*
X57101000Y-32159000D01*
X57061000Y-36640000D02*
X57061000Y-38090000D01*
X57061000Y-28710000D02*
X57061000Y-32159000D01*
X57021000Y-34641000D02*
X57021000Y-38107000D01*
X57021000Y-28693000D02*
X57021000Y-32159000D01*
X56981000Y-34641000D02*
X56981000Y-38123000D01*
X56981000Y-28677000D02*
X56981000Y-32159000D01*
X56941000Y-34641000D02*
X56941000Y-38138000D01*
X56941000Y-28662000D02*
X56941000Y-32159000D01*
X56901000Y-34641000D02*
X56901000Y-38154000D01*
X56901000Y-28646000D02*
X56901000Y-32159000D01*
X56861000Y-34641000D02*
X56861000Y-38168000D01*
X56861000Y-28632000D02*
X56861000Y-32159000D01*
X56821000Y-34641000D02*
X56821000Y-38183000D01*
X56821000Y-28617000D02*
X56821000Y-32159000D01*
X56781000Y-34641000D02*
X56781000Y-38197000D01*
X56781000Y-28603000D02*
X56781000Y-32159000D01*
X56741000Y-34641000D02*
X56741000Y-38211000D01*
X56741000Y-28589000D02*
X56741000Y-32159000D01*
X56701000Y-34641000D02*
X56701000Y-38224000D01*
X56701000Y-28576000D02*
X56701000Y-32159000D01*
X56661000Y-34641000D02*
X56661000Y-38237000D01*
X56661000Y-28563000D02*
X56661000Y-32159000D01*
X56621000Y-34641000D02*
X56621000Y-38250000D01*
X56621000Y-28550000D02*
X56621000Y-32159000D01*
X56581000Y-34641000D02*
X56581000Y-38262000D01*
X56581000Y-28538000D02*
X56581000Y-32159000D01*
X56541000Y-34641000D02*
X56541000Y-38274000D01*
X56541000Y-28526000D02*
X56541000Y-32159000D01*
X56501000Y-34641000D02*
X56501000Y-38285000D01*
X56501000Y-28515000D02*
X56501000Y-32159000D01*
X56461000Y-34641000D02*
X56461000Y-38297000D01*
X56461000Y-28503000D02*
X56461000Y-32159000D01*
X56421000Y-34641000D02*
X56421000Y-38307000D01*
X56421000Y-28493000D02*
X56421000Y-32159000D01*
X56381000Y-34641000D02*
X56381000Y-38318000D01*
X56381000Y-28482000D02*
X56381000Y-32159000D01*
X56341000Y-28472000D02*
X56341000Y-38328000D01*
X56301000Y-28462000D02*
X56301000Y-38338000D01*
X56261000Y-28453000D02*
X56261000Y-38347000D01*
X56221000Y-28444000D02*
X56221000Y-38356000D01*
X56181000Y-28435000D02*
X56181000Y-38365000D01*
X56141000Y-28426000D02*
X56141000Y-38374000D01*
X56101000Y-28418000D02*
X56101000Y-38382000D01*
X56061000Y-28410000D02*
X56061000Y-38390000D01*
X56021000Y-28403000D02*
X56021000Y-38397000D01*
X55981000Y-28396000D02*
X55981000Y-38404000D01*
X55941000Y-28389000D02*
X55941000Y-38411000D01*
X55901000Y-28382000D02*
X55901000Y-38418000D01*
X55861000Y-28376000D02*
X55861000Y-38424000D01*
X55821000Y-28370000D02*
X55821000Y-38430000D01*
X55780000Y-28365000D02*
X55780000Y-38435000D01*
X55740000Y-28360000D02*
X55740000Y-38440000D01*
X55700000Y-28355000D02*
X55700000Y-38445000D01*
X55660000Y-28350000D02*
X55660000Y-38450000D01*
X55620000Y-28346000D02*
X55620000Y-38454000D01*
X55580000Y-28342000D02*
X55580000Y-38458000D01*
X55540000Y-28338000D02*
X55540000Y-38462000D01*
X55500000Y-28335000D02*
X55500000Y-38465000D01*
X55460000Y-28332000D02*
X55460000Y-38468000D01*
X55420000Y-28330000D02*
X55420000Y-38470000D01*
X55380000Y-28327000D02*
X55380000Y-38473000D01*
X55340000Y-28325000D02*
X55340000Y-38475000D01*
X55300000Y-28323000D02*
X55300000Y-38477000D01*
X55260000Y-28322000D02*
X55260000Y-38478000D01*
X55220000Y-28321000D02*
X55220000Y-38479000D01*
X55180000Y-28320000D02*
X55180000Y-38480000D01*
X55140000Y-28320000D02*
X55140000Y-38480000D01*
X55100000Y-28320000D02*
X55100000Y-38480000D01*
X50275096Y-31686902D02*
G75*
G03X51151988Y-30140000I4824904J-1713098D01*
G01*
D13*
X44452380Y-20661904D02*
X45261904Y-20661904D01*
X45357142Y-20614285D01*
X45404761Y-20566666D01*
X45452380Y-20471428D01*
X45452380Y-20280952D01*
X45404761Y-20185714D01*
X45357142Y-20138095D01*
X45261904Y-20090476D01*
X44452380Y-20090476D01*
X45452380Y-19090476D02*
X45452380Y-19661904D01*
X45452380Y-19376190D02*
X44452380Y-19376190D01*
X44595238Y-19471428D01*
X44690476Y-19566666D01*
X44738095Y-19661904D01*
X44628095Y-25215000D02*
X44532857Y-25167380D01*
X44390000Y-25167380D01*
X44247142Y-25215000D01*
X44151904Y-25310238D01*
X44104285Y-25405476D01*
X44056666Y-25595952D01*
X44056666Y-25738809D01*
X44104285Y-25929285D01*
X44151904Y-26024523D01*
X44247142Y-26119761D01*
X44390000Y-26167380D01*
X44485238Y-26167380D01*
X44628095Y-26119761D01*
X44675714Y-26072142D01*
X44675714Y-25738809D01*
X44485238Y-25738809D01*
X45104285Y-26167380D02*
X45104285Y-25167380D01*
X45675714Y-26167380D01*
X45675714Y-25167380D01*
X46151904Y-26167380D02*
X46151904Y-25167380D01*
X46390000Y-25167380D01*
X46532857Y-25215000D01*
X46628095Y-25310238D01*
X46675714Y-25405476D01*
X46723333Y-25595952D01*
X46723333Y-25738809D01*
X46675714Y-25929285D01*
X46628095Y-26024523D01*
X46532857Y-26119761D01*
X46390000Y-26167380D01*
X46151904Y-26167380D01*
D14*
X43875714Y-13956428D02*
X44247142Y-13956428D01*
X44047142Y-14185000D01*
X44132857Y-14185000D01*
X44190000Y-14213571D01*
X44218571Y-14242142D01*
X44247142Y-14299285D01*
X44247142Y-14442142D01*
X44218571Y-14499285D01*
X44190000Y-14527857D01*
X44132857Y-14556428D01*
X43961428Y-14556428D01*
X43904285Y-14527857D01*
X43875714Y-14499285D01*
X44418571Y-13956428D02*
X44618571Y-14556428D01*
X44818571Y-13956428D01*
X44961428Y-13956428D02*
X45332857Y-13956428D01*
X45132857Y-14185000D01*
X45218571Y-14185000D01*
X45275714Y-14213571D01*
X45304285Y-14242142D01*
X45332857Y-14299285D01*
X45332857Y-14442142D01*
X45304285Y-14499285D01*
X45275714Y-14527857D01*
X45218571Y-14556428D01*
X45047142Y-14556428D01*
X44990000Y-14527857D01*
X44961428Y-14499285D01*
X46332857Y-13956428D02*
X46047142Y-13956428D01*
X46018571Y-14242142D01*
X46047142Y-14213571D01*
X46104285Y-14185000D01*
X46247142Y-14185000D01*
X46304285Y-14213571D01*
X46332857Y-14242142D01*
X46361428Y-14299285D01*
X46361428Y-14442142D01*
X46332857Y-14499285D01*
X46304285Y-14527857D01*
X46247142Y-14556428D01*
X46104285Y-14556428D01*
X46047142Y-14527857D01*
X46018571Y-14499285D01*
X46532857Y-13956428D02*
X46732857Y-14556428D01*
X46932857Y-13956428D01*
D13*
X16632380Y-16461785D02*
X15632380Y-16461785D01*
X15632380Y-16080833D01*
X15680000Y-15985595D01*
X15727619Y-15937976D01*
X15822857Y-15890357D01*
X15965714Y-15890357D01*
X16060952Y-15937976D01*
X16108571Y-15985595D01*
X16156190Y-16080833D01*
X16156190Y-16461785D01*
X16108571Y-15128452D02*
X16156190Y-14985595D01*
X16203809Y-14937976D01*
X16299047Y-14890357D01*
X16441904Y-14890357D01*
X16537142Y-14937976D01*
X16584761Y-14985595D01*
X16632380Y-15080833D01*
X16632380Y-15461785D01*
X15632380Y-15461785D01*
X15632380Y-15128452D01*
X15680000Y-15033214D01*
X15727619Y-14985595D01*
X15822857Y-14937976D01*
X15918095Y-14937976D01*
X16013333Y-14985595D01*
X16060952Y-15033214D01*
X16108571Y-15128452D01*
X16108571Y-15461785D01*
X16060952Y-14318928D02*
X16013333Y-14414166D01*
X15965714Y-14461785D01*
X15870476Y-14509404D01*
X15822857Y-14509404D01*
X15727619Y-14461785D01*
X15680000Y-14414166D01*
X15632380Y-14318928D01*
X15632380Y-14128452D01*
X15680000Y-14033214D01*
X15727619Y-13985595D01*
X15822857Y-13937976D01*
X15870476Y-13937976D01*
X15965714Y-13985595D01*
X16013333Y-14033214D01*
X16060952Y-14128452D01*
X16060952Y-14318928D01*
X16108571Y-14414166D01*
X16156190Y-14461785D01*
X16251428Y-14509404D01*
X16441904Y-14509404D01*
X16537142Y-14461785D01*
X16584761Y-14414166D01*
X16632380Y-14318928D01*
X16632380Y-14128452D01*
X16584761Y-14033214D01*
X16537142Y-13985595D01*
X16441904Y-13937976D01*
X16251428Y-13937976D01*
X16156190Y-13985595D01*
X16108571Y-14033214D01*
X16060952Y-14128452D01*
X17902380Y-16461785D02*
X16902380Y-16461785D01*
X16902380Y-16080833D01*
X16950000Y-15985595D01*
X16997619Y-15937976D01*
X17092857Y-15890357D01*
X17235714Y-15890357D01*
X17330952Y-15937976D01*
X17378571Y-15985595D01*
X17426190Y-16080833D01*
X17426190Y-16461785D01*
X17378571Y-15128452D02*
X17426190Y-14985595D01*
X17473809Y-14937976D01*
X17569047Y-14890357D01*
X17711904Y-14890357D01*
X17807142Y-14937976D01*
X17854761Y-14985595D01*
X17902380Y-15080833D01*
X17902380Y-15461785D01*
X16902380Y-15461785D01*
X16902380Y-15128452D01*
X16950000Y-15033214D01*
X16997619Y-14985595D01*
X17092857Y-14937976D01*
X17188095Y-14937976D01*
X17283333Y-14985595D01*
X17330952Y-15033214D01*
X17378571Y-15128452D01*
X17378571Y-15461785D01*
X16902380Y-14557023D02*
X16902380Y-13890357D01*
X17902380Y-14318928D01*
X19172380Y-16461785D02*
X18172380Y-16461785D01*
X18172380Y-16080833D01*
X18220000Y-15985595D01*
X18267619Y-15937976D01*
X18362857Y-15890357D01*
X18505714Y-15890357D01*
X18600952Y-15937976D01*
X18648571Y-15985595D01*
X18696190Y-16080833D01*
X18696190Y-16461785D01*
X18648571Y-15128452D02*
X18696190Y-14985595D01*
X18743809Y-14937976D01*
X18839047Y-14890357D01*
X18981904Y-14890357D01*
X19077142Y-14937976D01*
X19124761Y-14985595D01*
X19172380Y-15080833D01*
X19172380Y-15461785D01*
X18172380Y-15461785D01*
X18172380Y-15128452D01*
X18220000Y-15033214D01*
X18267619Y-14985595D01*
X18362857Y-14937976D01*
X18458095Y-14937976D01*
X18553333Y-14985595D01*
X18600952Y-15033214D01*
X18648571Y-15128452D01*
X18648571Y-15461785D01*
X18172380Y-14033214D02*
X18172380Y-14223690D01*
X18220000Y-14318928D01*
X18267619Y-14366547D01*
X18410476Y-14461785D01*
X18600952Y-14509404D01*
X18981904Y-14509404D01*
X19077142Y-14461785D01*
X19124761Y-14414166D01*
X19172380Y-14318928D01*
X19172380Y-14128452D01*
X19124761Y-14033214D01*
X19077142Y-13985595D01*
X18981904Y-13937976D01*
X18743809Y-13937976D01*
X18648571Y-13985595D01*
X18600952Y-14033214D01*
X18553333Y-14128452D01*
X18553333Y-14318928D01*
X18600952Y-14414166D01*
X18648571Y-14461785D01*
X18743809Y-14509404D01*
X20442380Y-16461785D02*
X19442380Y-16461785D01*
X19442380Y-16080833D01*
X19490000Y-15985595D01*
X19537619Y-15937976D01*
X19632857Y-15890357D01*
X19775714Y-15890357D01*
X19870952Y-15937976D01*
X19918571Y-15985595D01*
X19966190Y-16080833D01*
X19966190Y-16461785D01*
X19918571Y-15128452D02*
X19966190Y-14985595D01*
X20013809Y-14937976D01*
X20109047Y-14890357D01*
X20251904Y-14890357D01*
X20347142Y-14937976D01*
X20394761Y-14985595D01*
X20442380Y-15080833D01*
X20442380Y-15461785D01*
X19442380Y-15461785D01*
X19442380Y-15128452D01*
X19490000Y-15033214D01*
X19537619Y-14985595D01*
X19632857Y-14937976D01*
X19728095Y-14937976D01*
X19823333Y-14985595D01*
X19870952Y-15033214D01*
X19918571Y-15128452D01*
X19918571Y-15461785D01*
X19442380Y-13985595D02*
X19442380Y-14461785D01*
X19918571Y-14509404D01*
X19870952Y-14461785D01*
X19823333Y-14366547D01*
X19823333Y-14128452D01*
X19870952Y-14033214D01*
X19918571Y-13985595D01*
X20013809Y-13937976D01*
X20251904Y-13937976D01*
X20347142Y-13985595D01*
X20394761Y-14033214D01*
X20442380Y-14128452D01*
X20442380Y-14366547D01*
X20394761Y-14461785D01*
X20347142Y-14509404D01*
X21712380Y-16461785D02*
X20712380Y-16461785D01*
X20712380Y-16080833D01*
X20760000Y-15985595D01*
X20807619Y-15937976D01*
X20902857Y-15890357D01*
X21045714Y-15890357D01*
X21140952Y-15937976D01*
X21188571Y-15985595D01*
X21236190Y-16080833D01*
X21236190Y-16461785D01*
X21188571Y-15128452D02*
X21236190Y-14985595D01*
X21283809Y-14937976D01*
X21379047Y-14890357D01*
X21521904Y-14890357D01*
X21617142Y-14937976D01*
X21664761Y-14985595D01*
X21712380Y-15080833D01*
X21712380Y-15461785D01*
X20712380Y-15461785D01*
X20712380Y-15128452D01*
X20760000Y-15033214D01*
X20807619Y-14985595D01*
X20902857Y-14937976D01*
X20998095Y-14937976D01*
X21093333Y-14985595D01*
X21140952Y-15033214D01*
X21188571Y-15128452D01*
X21188571Y-15461785D01*
X21045714Y-14033214D02*
X21712380Y-14033214D01*
X20664761Y-14271309D02*
X21379047Y-14509404D01*
X21379047Y-13890357D01*
X22982380Y-16461785D02*
X21982380Y-16461785D01*
X21982380Y-16080833D01*
X22030000Y-15985595D01*
X22077619Y-15937976D01*
X22172857Y-15890357D01*
X22315714Y-15890357D01*
X22410952Y-15937976D01*
X22458571Y-15985595D01*
X22506190Y-16080833D01*
X22506190Y-16461785D01*
X22458571Y-15128452D02*
X22506190Y-14985595D01*
X22553809Y-14937976D01*
X22649047Y-14890357D01*
X22791904Y-14890357D01*
X22887142Y-14937976D01*
X22934761Y-14985595D01*
X22982380Y-15080833D01*
X22982380Y-15461785D01*
X21982380Y-15461785D01*
X21982380Y-15128452D01*
X22030000Y-15033214D01*
X22077619Y-14985595D01*
X22172857Y-14937976D01*
X22268095Y-14937976D01*
X22363333Y-14985595D01*
X22410952Y-15033214D01*
X22458571Y-15128452D01*
X22458571Y-15461785D01*
X21982380Y-14557023D02*
X21982380Y-13937976D01*
X22363333Y-14271309D01*
X22363333Y-14128452D01*
X22410952Y-14033214D01*
X22458571Y-13985595D01*
X22553809Y-13937976D01*
X22791904Y-13937976D01*
X22887142Y-13985595D01*
X22934761Y-14033214D01*
X22982380Y-14128452D01*
X22982380Y-14414166D01*
X22934761Y-14509404D01*
X22887142Y-14557023D01*
X24252380Y-17271309D02*
X23252380Y-17271309D01*
X23252380Y-16890357D01*
X23300000Y-16795119D01*
X23347619Y-16747500D01*
X23442857Y-16699880D01*
X23585714Y-16699880D01*
X23680952Y-16747500D01*
X23728571Y-16795119D01*
X23776190Y-16890357D01*
X23776190Y-17271309D01*
X23966666Y-16318928D02*
X23966666Y-15842738D01*
X24252380Y-16414166D02*
X23252380Y-16080833D01*
X24252380Y-15747500D01*
X24252380Y-14890357D02*
X24252380Y-15461785D01*
X24252380Y-15176071D02*
X23252380Y-15176071D01*
X23395238Y-15271309D01*
X23490476Y-15366547D01*
X23538095Y-15461785D01*
X23252380Y-13985595D02*
X23252380Y-14461785D01*
X23728571Y-14509404D01*
X23680952Y-14461785D01*
X23633333Y-14366547D01*
X23633333Y-14128452D01*
X23680952Y-14033214D01*
X23728571Y-13985595D01*
X23823809Y-13937976D01*
X24061904Y-13937976D01*
X24157142Y-13985595D01*
X24204761Y-14033214D01*
X24252380Y-14128452D01*
X24252380Y-14366547D01*
X24204761Y-14461785D01*
X24157142Y-14509404D01*
X30602380Y-25584404D02*
X29602380Y-25584404D01*
X29602380Y-25203452D01*
X29650000Y-25108214D01*
X29697619Y-25060595D01*
X29792857Y-25012976D01*
X29935714Y-25012976D01*
X30030952Y-25060595D01*
X30078571Y-25108214D01*
X30126190Y-25203452D01*
X30126190Y-25584404D01*
X30316666Y-24632023D02*
X30316666Y-24155833D01*
X30602380Y-24727261D02*
X29602380Y-24393928D01*
X30602380Y-24060595D01*
X30602380Y-23203452D02*
X30602380Y-23774880D01*
X30602380Y-23489166D02*
X29602380Y-23489166D01*
X29745238Y-23584404D01*
X29840476Y-23679642D01*
X29888095Y-23774880D01*
X29602380Y-22584404D02*
X29602380Y-22489166D01*
X29650000Y-22393928D01*
X29697619Y-22346309D01*
X29792857Y-22298690D01*
X29983333Y-22251071D01*
X30221428Y-22251071D01*
X30411904Y-22298690D01*
X30507142Y-22346309D01*
X30554761Y-22393928D01*
X30602380Y-22489166D01*
X30602380Y-22584404D01*
X30554761Y-22679642D01*
X30507142Y-22727261D01*
X30411904Y-22774880D01*
X30221428Y-22822500D01*
X29983333Y-22822500D01*
X29792857Y-22774880D01*
X29697619Y-22727261D01*
X29650000Y-22679642D01*
X29602380Y-22584404D01*
X29332380Y-25611666D02*
X28332380Y-25611666D01*
X28332380Y-25230714D01*
X28380000Y-25135476D01*
X28427619Y-25087857D01*
X28522857Y-25040238D01*
X28665714Y-25040238D01*
X28760952Y-25087857D01*
X28808571Y-25135476D01*
X28856190Y-25230714D01*
X28856190Y-25611666D01*
X29046666Y-24659285D02*
X29046666Y-24183095D01*
X29332380Y-24754523D02*
X28332380Y-24421190D01*
X29332380Y-24087857D01*
X29332380Y-23706904D02*
X29332380Y-23516428D01*
X29284761Y-23421190D01*
X29237142Y-23373571D01*
X29094285Y-23278333D01*
X28903809Y-23230714D01*
X28522857Y-23230714D01*
X28427619Y-23278333D01*
X28380000Y-23325952D01*
X28332380Y-23421190D01*
X28332380Y-23611666D01*
X28380000Y-23706904D01*
X28427619Y-23754523D01*
X28522857Y-23802142D01*
X28760952Y-23802142D01*
X28856190Y-23754523D01*
X28903809Y-23706904D01*
X28951428Y-23611666D01*
X28951428Y-23421190D01*
X28903809Y-23325952D01*
X28856190Y-23278333D01*
X28760952Y-23230714D01*
X28062380Y-25611666D02*
X27062380Y-25611666D01*
X27062380Y-25230714D01*
X27110000Y-25135476D01*
X27157619Y-25087857D01*
X27252857Y-25040238D01*
X27395714Y-25040238D01*
X27490952Y-25087857D01*
X27538571Y-25135476D01*
X27586190Y-25230714D01*
X27586190Y-25611666D01*
X27776666Y-24659285D02*
X27776666Y-24183095D01*
X28062380Y-24754523D02*
X27062380Y-24421190D01*
X28062380Y-24087857D01*
X27490952Y-23611666D02*
X27443333Y-23706904D01*
X27395714Y-23754523D01*
X27300476Y-23802142D01*
X27252857Y-23802142D01*
X27157619Y-23754523D01*
X27110000Y-23706904D01*
X27062380Y-23611666D01*
X27062380Y-23421190D01*
X27110000Y-23325952D01*
X27157619Y-23278333D01*
X27252857Y-23230714D01*
X27300476Y-23230714D01*
X27395714Y-23278333D01*
X27443333Y-23325952D01*
X27490952Y-23421190D01*
X27490952Y-23611666D01*
X27538571Y-23706904D01*
X27586190Y-23754523D01*
X27681428Y-23802142D01*
X27871904Y-23802142D01*
X27967142Y-23754523D01*
X28014761Y-23706904D01*
X28062380Y-23611666D01*
X28062380Y-23421190D01*
X28014761Y-23325952D01*
X27967142Y-23278333D01*
X27871904Y-23230714D01*
X27681428Y-23230714D01*
X27586190Y-23278333D01*
X27538571Y-23325952D01*
X27490952Y-23421190D01*
X26792380Y-25683095D02*
X25792380Y-25683095D01*
X25792380Y-25302142D01*
X25840000Y-25206904D01*
X25887619Y-25159285D01*
X25982857Y-25111666D01*
X26125714Y-25111666D01*
X26220952Y-25159285D01*
X26268571Y-25206904D01*
X26316190Y-25302142D01*
X26316190Y-25683095D01*
X26268571Y-24349761D02*
X26316190Y-24206904D01*
X26363809Y-24159285D01*
X26459047Y-24111666D01*
X26601904Y-24111666D01*
X26697142Y-24159285D01*
X26744761Y-24206904D01*
X26792380Y-24302142D01*
X26792380Y-24683095D01*
X25792380Y-24683095D01*
X25792380Y-24349761D01*
X25840000Y-24254523D01*
X25887619Y-24206904D01*
X25982857Y-24159285D01*
X26078095Y-24159285D01*
X26173333Y-24206904D01*
X26220952Y-24254523D01*
X26268571Y-24349761D01*
X26268571Y-24683095D01*
X26792380Y-23159285D02*
X26792380Y-23730714D01*
X26792380Y-23445000D02*
X25792380Y-23445000D01*
X25935238Y-23540238D01*
X26030476Y-23635476D01*
X26078095Y-23730714D01*
X25522380Y-25683095D02*
X24522380Y-25683095D01*
X24522380Y-25302142D01*
X24570000Y-25206904D01*
X24617619Y-25159285D01*
X24712857Y-25111666D01*
X24855714Y-25111666D01*
X24950952Y-25159285D01*
X24998571Y-25206904D01*
X25046190Y-25302142D01*
X25046190Y-25683095D01*
X24998571Y-24349761D02*
X25046190Y-24206904D01*
X25093809Y-24159285D01*
X25189047Y-24111666D01*
X25331904Y-24111666D01*
X25427142Y-24159285D01*
X25474761Y-24206904D01*
X25522380Y-24302142D01*
X25522380Y-24683095D01*
X24522380Y-24683095D01*
X24522380Y-24349761D01*
X24570000Y-24254523D01*
X24617619Y-24206904D01*
X24712857Y-24159285D01*
X24808095Y-24159285D01*
X24903333Y-24206904D01*
X24950952Y-24254523D01*
X24998571Y-24349761D01*
X24998571Y-24683095D01*
X24522380Y-23492619D02*
X24522380Y-23397380D01*
X24570000Y-23302142D01*
X24617619Y-23254523D01*
X24712857Y-23206904D01*
X24903333Y-23159285D01*
X25141428Y-23159285D01*
X25331904Y-23206904D01*
X25427142Y-23254523D01*
X25474761Y-23302142D01*
X25522380Y-23397380D01*
X25522380Y-23492619D01*
X25474761Y-23587857D01*
X25427142Y-23635476D01*
X25331904Y-23683095D01*
X25141428Y-23730714D01*
X24903333Y-23730714D01*
X24712857Y-23683095D01*
X24617619Y-23635476D01*
X24570000Y-23587857D01*
X24522380Y-23492619D01*
X24252380Y-25611666D02*
X23252380Y-25611666D01*
X23252380Y-25230714D01*
X23300000Y-25135476D01*
X23347619Y-25087857D01*
X23442857Y-25040238D01*
X23585714Y-25040238D01*
X23680952Y-25087857D01*
X23728571Y-25135476D01*
X23776190Y-25230714D01*
X23776190Y-25611666D01*
X23966666Y-24659285D02*
X23966666Y-24183095D01*
X24252380Y-24754523D02*
X23252380Y-24421190D01*
X24252380Y-24087857D01*
X23252380Y-23849761D02*
X23252380Y-23183095D01*
X24252380Y-23611666D01*
X22982380Y-25611666D02*
X21982380Y-25611666D01*
X21982380Y-25230714D01*
X22030000Y-25135476D01*
X22077619Y-25087857D01*
X22172857Y-25040238D01*
X22315714Y-25040238D01*
X22410952Y-25087857D01*
X22458571Y-25135476D01*
X22506190Y-25230714D01*
X22506190Y-25611666D01*
X22696666Y-24659285D02*
X22696666Y-24183095D01*
X22982380Y-24754523D02*
X21982380Y-24421190D01*
X22982380Y-24087857D01*
X21982380Y-23325952D02*
X21982380Y-23516428D01*
X22030000Y-23611666D01*
X22077619Y-23659285D01*
X22220476Y-23754523D01*
X22410952Y-23802142D01*
X22791904Y-23802142D01*
X22887142Y-23754523D01*
X22934761Y-23706904D01*
X22982380Y-23611666D01*
X22982380Y-23421190D01*
X22934761Y-23325952D01*
X22887142Y-23278333D01*
X22791904Y-23230714D01*
X22553809Y-23230714D01*
X22458571Y-23278333D01*
X22410952Y-23325952D01*
X22363333Y-23421190D01*
X22363333Y-23611666D01*
X22410952Y-23706904D01*
X22458571Y-23754523D01*
X22553809Y-23802142D01*
X21712380Y-25611666D02*
X20712380Y-25611666D01*
X20712380Y-25230714D01*
X20760000Y-25135476D01*
X20807619Y-25087857D01*
X20902857Y-25040238D01*
X21045714Y-25040238D01*
X21140952Y-25087857D01*
X21188571Y-25135476D01*
X21236190Y-25230714D01*
X21236190Y-25611666D01*
X21426666Y-24659285D02*
X21426666Y-24183095D01*
X21712380Y-24754523D02*
X20712380Y-24421190D01*
X21712380Y-24087857D01*
X20712380Y-23278333D02*
X20712380Y-23754523D01*
X21188571Y-23802142D01*
X21140952Y-23754523D01*
X21093333Y-23659285D01*
X21093333Y-23421190D01*
X21140952Y-23325952D01*
X21188571Y-23278333D01*
X21283809Y-23230714D01*
X21521904Y-23230714D01*
X21617142Y-23278333D01*
X21664761Y-23325952D01*
X21712380Y-23421190D01*
X21712380Y-23659285D01*
X21664761Y-23754523D01*
X21617142Y-23802142D01*
X20442380Y-25611666D02*
X19442380Y-25611666D01*
X19442380Y-25230714D01*
X19490000Y-25135476D01*
X19537619Y-25087857D01*
X19632857Y-25040238D01*
X19775714Y-25040238D01*
X19870952Y-25087857D01*
X19918571Y-25135476D01*
X19966190Y-25230714D01*
X19966190Y-25611666D01*
X20156666Y-24659285D02*
X20156666Y-24183095D01*
X20442380Y-24754523D02*
X19442380Y-24421190D01*
X20442380Y-24087857D01*
X19775714Y-23325952D02*
X20442380Y-23325952D01*
X19394761Y-23564047D02*
X20109047Y-23802142D01*
X20109047Y-23183095D01*
X19172380Y-25611666D02*
X18172380Y-25611666D01*
X18172380Y-25230714D01*
X18220000Y-25135476D01*
X18267619Y-25087857D01*
X18362857Y-25040238D01*
X18505714Y-25040238D01*
X18600952Y-25087857D01*
X18648571Y-25135476D01*
X18696190Y-25230714D01*
X18696190Y-25611666D01*
X18886666Y-24659285D02*
X18886666Y-24183095D01*
X19172380Y-24754523D02*
X18172380Y-24421190D01*
X19172380Y-24087857D01*
X18172380Y-23849761D02*
X18172380Y-23230714D01*
X18553333Y-23564047D01*
X18553333Y-23421190D01*
X18600952Y-23325952D01*
X18648571Y-23278333D01*
X18743809Y-23230714D01*
X18981904Y-23230714D01*
X19077142Y-23278333D01*
X19124761Y-23325952D01*
X19172380Y-23421190D01*
X19172380Y-23706904D01*
X19124761Y-23802142D01*
X19077142Y-23849761D01*
X17902380Y-25611666D02*
X16902380Y-25611666D01*
X16902380Y-25230714D01*
X16950000Y-25135476D01*
X16997619Y-25087857D01*
X17092857Y-25040238D01*
X17235714Y-25040238D01*
X17330952Y-25087857D01*
X17378571Y-25135476D01*
X17426190Y-25230714D01*
X17426190Y-25611666D01*
X17616666Y-24659285D02*
X17616666Y-24183095D01*
X17902380Y-24754523D02*
X16902380Y-24421190D01*
X17902380Y-24087857D01*
X16997619Y-23802142D02*
X16950000Y-23754523D01*
X16902380Y-23659285D01*
X16902380Y-23421190D01*
X16950000Y-23325952D01*
X16997619Y-23278333D01*
X17092857Y-23230714D01*
X17188095Y-23230714D01*
X17330952Y-23278333D01*
X17902380Y-23849761D01*
X17902380Y-23230714D01*
X16632380Y-25611666D02*
X15632380Y-25611666D01*
X15632380Y-25230714D01*
X15680000Y-25135476D01*
X15727619Y-25087857D01*
X15822857Y-25040238D01*
X15965714Y-25040238D01*
X16060952Y-25087857D01*
X16108571Y-25135476D01*
X16156190Y-25230714D01*
X16156190Y-25611666D01*
X16346666Y-24659285D02*
X16346666Y-24183095D01*
X16632380Y-24754523D02*
X15632380Y-24421190D01*
X16632380Y-24087857D01*
X16632380Y-23230714D02*
X16632380Y-23802142D01*
X16632380Y-23516428D02*
X15632380Y-23516428D01*
X15775238Y-23611666D01*
X15870476Y-23706904D01*
X15918095Y-23802142D01*
X15362380Y-25611666D02*
X14362380Y-25611666D01*
X14362380Y-25230714D01*
X14410000Y-25135476D01*
X14457619Y-25087857D01*
X14552857Y-25040238D01*
X14695714Y-25040238D01*
X14790952Y-25087857D01*
X14838571Y-25135476D01*
X14886190Y-25230714D01*
X14886190Y-25611666D01*
X15076666Y-24659285D02*
X15076666Y-24183095D01*
X15362380Y-24754523D02*
X14362380Y-24421190D01*
X15362380Y-24087857D01*
X14362380Y-23564047D02*
X14362380Y-23468809D01*
X14410000Y-23373571D01*
X14457619Y-23325952D01*
X14552857Y-23278333D01*
X14743333Y-23230714D01*
X14981428Y-23230714D01*
X15171904Y-23278333D01*
X15267142Y-23325952D01*
X15314761Y-23373571D01*
X15362380Y-23468809D01*
X15362380Y-23564047D01*
X15314761Y-23659285D01*
X15267142Y-23706904D01*
X15171904Y-23754523D01*
X14981428Y-23802142D01*
X14743333Y-23802142D01*
X14552857Y-23754523D01*
X14457619Y-23706904D01*
X14410000Y-23659285D01*
X14362380Y-23564047D01*
X48590476Y-11152380D02*
X48590476Y-11866666D01*
X48542857Y-12009523D01*
X48447619Y-12104761D01*
X48304761Y-12152380D01*
X48209523Y-12152380D01*
X49590476Y-12152380D02*
X49019047Y-12152380D01*
X49304761Y-12152380D02*
X49304761Y-11152380D01*
X49209523Y-11295238D01*
X49114285Y-11390476D01*
X49019047Y-11438095D01*
X50209523Y-11152380D02*
X50304761Y-11152380D01*
X50400000Y-11200000D01*
X50447619Y-11247619D01*
X50495238Y-11342857D01*
X50542857Y-11533333D01*
X50542857Y-11771428D01*
X50495238Y-11961904D01*
X50447619Y-12057142D01*
X50400000Y-12104761D01*
X50304761Y-12152380D01*
X50209523Y-12152380D01*
X50114285Y-12104761D01*
X50066666Y-12057142D01*
X50019047Y-11961904D01*
X49971428Y-11771428D01*
X49971428Y-11533333D01*
X50019047Y-11342857D01*
X50066666Y-11247619D01*
X50114285Y-11200000D01*
X50209523Y-11152380D01*
X49228571Y-13407142D02*
X50371428Y-13407142D01*
X49800000Y-13978571D02*
X49800000Y-12835714D01*
X60228571Y-13407142D02*
X61371428Y-13407142D01*
X5452380Y-13833333D02*
X6166666Y-13833333D01*
X6309523Y-13880952D01*
X6404761Y-13976190D01*
X6452380Y-14119047D01*
X6452380Y-14214285D01*
X6452380Y-13309523D02*
X6452380Y-13119047D01*
X6404761Y-13023809D01*
X6357142Y-12976190D01*
X6214285Y-12880952D01*
X6023809Y-12833333D01*
X5642857Y-12833333D01*
X5547619Y-12880952D01*
X5500000Y-12928571D01*
X5452380Y-13023809D01*
X5452380Y-13214285D01*
X5500000Y-13309523D01*
X5547619Y-13357142D01*
X5642857Y-13404761D01*
X5880952Y-13404761D01*
X5976190Y-13357142D01*
X6023809Y-13309523D01*
X6071428Y-13214285D01*
X6071428Y-13023809D01*
X6023809Y-12928571D01*
X5976190Y-12880952D01*
X5880952Y-12833333D01*
X45666666Y-32952380D02*
X45666666Y-33666666D01*
X45619047Y-33809523D01*
X45523809Y-33904761D01*
X45380952Y-33952380D01*
X45285714Y-33952380D01*
X46285714Y-33380952D02*
X46190476Y-33333333D01*
X46142857Y-33285714D01*
X46095238Y-33190476D01*
X46095238Y-33142857D01*
X46142857Y-33047619D01*
X46190476Y-33000000D01*
X46285714Y-32952380D01*
X46476190Y-32952380D01*
X46571428Y-33000000D01*
X46619047Y-33047619D01*
X46666666Y-33142857D01*
X46666666Y-33190476D01*
X46619047Y-33285714D01*
X46571428Y-33333333D01*
X46476190Y-33380952D01*
X46285714Y-33380952D01*
X46190476Y-33428571D01*
X46142857Y-33476190D01*
X46095238Y-33571428D01*
X46095238Y-33761904D01*
X46142857Y-33857142D01*
X46190476Y-33904761D01*
X46285714Y-33952380D01*
X46476190Y-33952380D01*
X46571428Y-33904761D01*
X46619047Y-33857142D01*
X46666666Y-33761904D01*
X46666666Y-33571428D01*
X46619047Y-33476190D01*
X46571428Y-33428571D01*
X46476190Y-33380952D01*
X35666666Y-32952380D02*
X35666666Y-33666666D01*
X35619047Y-33809523D01*
X35523809Y-33904761D01*
X35380952Y-33952380D01*
X35285714Y-33952380D01*
X36047619Y-32952380D02*
X36714285Y-32952380D01*
X36285714Y-33952380D01*
X25666666Y-32952380D02*
X25666666Y-33666666D01*
X25619047Y-33809523D01*
X25523809Y-33904761D01*
X25380952Y-33952380D01*
X25285714Y-33952380D01*
X26571428Y-32952380D02*
X26380952Y-32952380D01*
X26285714Y-33000000D01*
X26238095Y-33047619D01*
X26142857Y-33190476D01*
X26095238Y-33380952D01*
X26095238Y-33761904D01*
X26142857Y-33857142D01*
X26190476Y-33904761D01*
X26285714Y-33952380D01*
X26476190Y-33952380D01*
X26571428Y-33904761D01*
X26619047Y-33857142D01*
X26666666Y-33761904D01*
X26666666Y-33523809D01*
X26619047Y-33428571D01*
X26571428Y-33380952D01*
X26476190Y-33333333D01*
X26285714Y-33333333D01*
X26190476Y-33380952D01*
X26142857Y-33428571D01*
X26095238Y-33523809D01*
X15566666Y-32952380D02*
X15566666Y-33666666D01*
X15519047Y-33809523D01*
X15423809Y-33904761D01*
X15280952Y-33952380D01*
X15185714Y-33952380D01*
X16519047Y-32952380D02*
X16042857Y-32952380D01*
X15995238Y-33428571D01*
X16042857Y-33380952D01*
X16138095Y-33333333D01*
X16376190Y-33333333D01*
X16471428Y-33380952D01*
X16519047Y-33428571D01*
X16566666Y-33523809D01*
X16566666Y-33761904D01*
X16519047Y-33857142D01*
X16471428Y-33904761D01*
X16376190Y-33952380D01*
X16138095Y-33952380D01*
X16042857Y-33904761D01*
X15995238Y-33857142D01*
X35966666Y-5452380D02*
X35966666Y-6166666D01*
X35919047Y-6309523D01*
X35823809Y-6404761D01*
X35680952Y-6452380D01*
X35585714Y-6452380D01*
X36871428Y-5785714D02*
X36871428Y-6452380D01*
X36633333Y-5404761D02*
X36395238Y-6119047D01*
X37014285Y-6119047D01*
X26066666Y-5452380D02*
X26066666Y-6166666D01*
X26019047Y-6309523D01*
X25923809Y-6404761D01*
X25780952Y-6452380D01*
X25685714Y-6452380D01*
X26447619Y-5452380D02*
X27066666Y-5452380D01*
X26733333Y-5833333D01*
X26876190Y-5833333D01*
X26971428Y-5880952D01*
X27019047Y-5928571D01*
X27066666Y-6023809D01*
X27066666Y-6261904D01*
X27019047Y-6357142D01*
X26971428Y-6404761D01*
X26876190Y-6452380D01*
X26590476Y-6452380D01*
X26495238Y-6404761D01*
X26447619Y-6357142D01*
X15966666Y-5452380D02*
X15966666Y-6166666D01*
X15919047Y-6309523D01*
X15823809Y-6404761D01*
X15680952Y-6452380D01*
X15585714Y-6452380D01*
X16395238Y-5547619D02*
X16442857Y-5500000D01*
X16538095Y-5452380D01*
X16776190Y-5452380D01*
X16871428Y-5500000D01*
X16919047Y-5547619D01*
X16966666Y-5642857D01*
X16966666Y-5738095D01*
X16919047Y-5880952D01*
X16347619Y-6452380D01*
X16966666Y-6452380D01*
X6066666Y-5452380D02*
X6066666Y-6166666D01*
X6019047Y-6309523D01*
X5923809Y-6404761D01*
X5780952Y-6452380D01*
X5685714Y-6452380D01*
X7066666Y-6452380D02*
X6495238Y-6452380D01*
X6780952Y-6452380D02*
X6780952Y-5452380D01*
X6685714Y-5595238D01*
X6590476Y-5690476D01*
X6495238Y-5738095D01*
X49433333Y-37257142D02*
X49385714Y-37304761D01*
X49242857Y-37352380D01*
X49147619Y-37352380D01*
X49004761Y-37304761D01*
X48909523Y-37209523D01*
X48861904Y-37114285D01*
X48814285Y-36923809D01*
X48814285Y-36780952D01*
X48861904Y-36590476D01*
X48909523Y-36495238D01*
X49004761Y-36400000D01*
X49147619Y-36352380D01*
X49242857Y-36352380D01*
X49385714Y-36400000D01*
X49433333Y-36447619D01*
X49909523Y-37352380D02*
X50100000Y-37352380D01*
X50195238Y-37304761D01*
X50242857Y-37257142D01*
X50338095Y-37114285D01*
X50385714Y-36923809D01*
X50385714Y-36542857D01*
X50338095Y-36447619D01*
X50290476Y-36400000D01*
X50195238Y-36352380D01*
X50004761Y-36352380D01*
X49909523Y-36400000D01*
X49861904Y-36447619D01*
X49814285Y-36542857D01*
X49814285Y-36780952D01*
X49861904Y-36876190D01*
X49909523Y-36923809D01*
X50004761Y-36971428D01*
X50195238Y-36971428D01*
X50290476Y-36923809D01*
X50338095Y-36876190D01*
X50385714Y-36780952D01*
%LPC*%
D15*
X3000000Y-3000000D03*
X3000000Y-37000000D03*
X67000000Y-37000000D03*
X67000000Y-3000000D03*
D16*
X52750000Y-19000000D03*
X53950000Y-24100000D03*
X57300000Y-19000000D03*
X58500000Y-24100000D03*
D17*
X16180000Y-13015000D03*
X17450000Y-13015000D03*
X18720000Y-13015000D03*
X19990000Y-13015000D03*
X46025000Y-13015000D03*
X44755000Y-13015000D03*
X44755000Y-26985000D03*
X46025000Y-26985000D03*
X21260000Y-13015000D03*
X22530000Y-13015000D03*
X23800000Y-13015000D03*
X30150000Y-26985000D03*
X28880000Y-26985000D03*
X27610000Y-26985000D03*
X26340000Y-26985000D03*
X25070000Y-26985000D03*
X23800000Y-26985000D03*
X22530000Y-26985000D03*
X21260000Y-26985000D03*
X19990000Y-26985000D03*
X18720000Y-26985000D03*
X17450000Y-26985000D03*
X16180000Y-26985000D03*
X14910000Y-26985000D03*
D18*
X52800000Y-13300000D03*
D19*
X57800000Y-13300000D03*
D20*
X49800000Y-3300000D03*
X60800000Y-3300000D03*
D21*
X6500000Y-23000000D03*
X6500000Y-21000000D03*
X6500000Y-19000000D03*
D10*
G36*
X7181338Y-16350306D02*
G01*
X7207669Y-16354212D01*
X7233490Y-16360680D01*
X7258553Y-16369648D01*
X7282617Y-16381029D01*
X7305449Y-16394714D01*
X7326830Y-16410571D01*
X7346553Y-16428447D01*
X7364429Y-16448170D01*
X7380286Y-16469551D01*
X7393971Y-16492383D01*
X7405352Y-16516447D01*
X7414320Y-16541510D01*
X7420788Y-16567331D01*
X7424694Y-16593662D01*
X7426000Y-16620249D01*
X7426000Y-17379751D01*
X7424694Y-17406338D01*
X7420788Y-17432669D01*
X7414320Y-17458490D01*
X7405352Y-17483553D01*
X7393971Y-17507617D01*
X7380286Y-17530449D01*
X7364429Y-17551830D01*
X7346553Y-17571553D01*
X7326830Y-17589429D01*
X7305449Y-17605286D01*
X7282617Y-17618971D01*
X7258553Y-17630352D01*
X7233490Y-17639320D01*
X7207669Y-17645788D01*
X7181338Y-17649694D01*
X7154751Y-17651000D01*
X5845249Y-17651000D01*
X5818662Y-17649694D01*
X5792331Y-17645788D01*
X5766510Y-17639320D01*
X5741447Y-17630352D01*
X5717383Y-17618971D01*
X5694551Y-17605286D01*
X5673170Y-17589429D01*
X5653447Y-17571553D01*
X5635571Y-17551830D01*
X5619714Y-17530449D01*
X5606029Y-17507617D01*
X5594648Y-17483553D01*
X5585680Y-17458490D01*
X5579212Y-17432669D01*
X5575306Y-17406338D01*
X5574000Y-17379751D01*
X5574000Y-16620249D01*
X5575306Y-16593662D01*
X5579212Y-16567331D01*
X5585680Y-16541510D01*
X5594648Y-16516447D01*
X5606029Y-16492383D01*
X5619714Y-16469551D01*
X5635571Y-16448170D01*
X5653447Y-16428447D01*
X5673170Y-16410571D01*
X5694551Y-16394714D01*
X5717383Y-16381029D01*
X5741447Y-16369648D01*
X5766510Y-16360680D01*
X5792331Y-16354212D01*
X5818662Y-16350306D01*
X5845249Y-16349000D01*
X7154751Y-16349000D01*
X7181338Y-16350306D01*
G37*
D22*
X43000000Y-33600000D03*
X41000000Y-33600000D03*
D10*
G36*
X39406338Y-32675306D02*
G01*
X39432669Y-32679212D01*
X39458490Y-32685680D01*
X39483553Y-32694648D01*
X39507617Y-32706029D01*
X39530449Y-32719714D01*
X39551830Y-32735571D01*
X39571553Y-32753447D01*
X39589429Y-32773170D01*
X39605286Y-32794551D01*
X39618971Y-32817383D01*
X39630352Y-32841447D01*
X39639320Y-32866510D01*
X39645788Y-32892331D01*
X39649694Y-32918662D01*
X39651000Y-32945249D01*
X39651000Y-34254751D01*
X39649694Y-34281338D01*
X39645788Y-34307669D01*
X39639320Y-34333490D01*
X39630352Y-34358553D01*
X39618971Y-34382617D01*
X39605286Y-34405449D01*
X39589429Y-34426830D01*
X39571553Y-34446553D01*
X39551830Y-34464429D01*
X39530449Y-34480286D01*
X39507617Y-34493971D01*
X39483553Y-34505352D01*
X39458490Y-34514320D01*
X39432669Y-34520788D01*
X39406338Y-34524694D01*
X39379751Y-34526000D01*
X38620249Y-34526000D01*
X38593662Y-34524694D01*
X38567331Y-34520788D01*
X38541510Y-34514320D01*
X38516447Y-34505352D01*
X38492383Y-34493971D01*
X38469551Y-34480286D01*
X38448170Y-34464429D01*
X38428447Y-34446553D01*
X38410571Y-34426830D01*
X38394714Y-34405449D01*
X38381029Y-34382617D01*
X38369648Y-34358553D01*
X38360680Y-34333490D01*
X38354212Y-34307669D01*
X38350306Y-34281338D01*
X38349000Y-34254751D01*
X38349000Y-32945249D01*
X38350306Y-32918662D01*
X38354212Y-32892331D01*
X38360680Y-32866510D01*
X38369648Y-32841447D01*
X38381029Y-32817383D01*
X38394714Y-32794551D01*
X38410571Y-32773170D01*
X38428447Y-32753447D01*
X38448170Y-32735571D01*
X38469551Y-32719714D01*
X38492383Y-32706029D01*
X38516447Y-32694648D01*
X38541510Y-32685680D01*
X38567331Y-32679212D01*
X38593662Y-32675306D01*
X38620249Y-32674000D01*
X39379751Y-32674000D01*
X39406338Y-32675306D01*
G37*
D22*
X33000000Y-33600000D03*
X31000000Y-33600000D03*
D10*
G36*
X29406338Y-32675306D02*
G01*
X29432669Y-32679212D01*
X29458490Y-32685680D01*
X29483553Y-32694648D01*
X29507617Y-32706029D01*
X29530449Y-32719714D01*
X29551830Y-32735571D01*
X29571553Y-32753447D01*
X29589429Y-32773170D01*
X29605286Y-32794551D01*
X29618971Y-32817383D01*
X29630352Y-32841447D01*
X29639320Y-32866510D01*
X29645788Y-32892331D01*
X29649694Y-32918662D01*
X29651000Y-32945249D01*
X29651000Y-34254751D01*
X29649694Y-34281338D01*
X29645788Y-34307669D01*
X29639320Y-34333490D01*
X29630352Y-34358553D01*
X29618971Y-34382617D01*
X29605286Y-34405449D01*
X29589429Y-34426830D01*
X29571553Y-34446553D01*
X29551830Y-34464429D01*
X29530449Y-34480286D01*
X29507617Y-34493971D01*
X29483553Y-34505352D01*
X29458490Y-34514320D01*
X29432669Y-34520788D01*
X29406338Y-34524694D01*
X29379751Y-34526000D01*
X28620249Y-34526000D01*
X28593662Y-34524694D01*
X28567331Y-34520788D01*
X28541510Y-34514320D01*
X28516447Y-34505352D01*
X28492383Y-34493971D01*
X28469551Y-34480286D01*
X28448170Y-34464429D01*
X28428447Y-34446553D01*
X28410571Y-34426830D01*
X28394714Y-34405449D01*
X28381029Y-34382617D01*
X28369648Y-34358553D01*
X28360680Y-34333490D01*
X28354212Y-34307669D01*
X28350306Y-34281338D01*
X28349000Y-34254751D01*
X28349000Y-32945249D01*
X28350306Y-32918662D01*
X28354212Y-32892331D01*
X28360680Y-32866510D01*
X28369648Y-32841447D01*
X28381029Y-32817383D01*
X28394714Y-32794551D01*
X28410571Y-32773170D01*
X28428447Y-32753447D01*
X28448170Y-32735571D01*
X28469551Y-32719714D01*
X28492383Y-32706029D01*
X28516447Y-32694648D01*
X28541510Y-32685680D01*
X28567331Y-32679212D01*
X28593662Y-32675306D01*
X28620249Y-32674000D01*
X29379751Y-32674000D01*
X29406338Y-32675306D01*
G37*
D22*
X23000000Y-33600000D03*
X21000000Y-33600000D03*
D10*
G36*
X19406338Y-32675306D02*
G01*
X19432669Y-32679212D01*
X19458490Y-32685680D01*
X19483553Y-32694648D01*
X19507617Y-32706029D01*
X19530449Y-32719714D01*
X19551830Y-32735571D01*
X19571553Y-32753447D01*
X19589429Y-32773170D01*
X19605286Y-32794551D01*
X19618971Y-32817383D01*
X19630352Y-32841447D01*
X19639320Y-32866510D01*
X19645788Y-32892331D01*
X19649694Y-32918662D01*
X19651000Y-32945249D01*
X19651000Y-34254751D01*
X19649694Y-34281338D01*
X19645788Y-34307669D01*
X19639320Y-34333490D01*
X19630352Y-34358553D01*
X19618971Y-34382617D01*
X19605286Y-34405449D01*
X19589429Y-34426830D01*
X19571553Y-34446553D01*
X19551830Y-34464429D01*
X19530449Y-34480286D01*
X19507617Y-34493971D01*
X19483553Y-34505352D01*
X19458490Y-34514320D01*
X19432669Y-34520788D01*
X19406338Y-34524694D01*
X19379751Y-34526000D01*
X18620249Y-34526000D01*
X18593662Y-34524694D01*
X18567331Y-34520788D01*
X18541510Y-34514320D01*
X18516447Y-34505352D01*
X18492383Y-34493971D01*
X18469551Y-34480286D01*
X18448170Y-34464429D01*
X18428447Y-34446553D01*
X18410571Y-34426830D01*
X18394714Y-34405449D01*
X18381029Y-34382617D01*
X18369648Y-34358553D01*
X18360680Y-34333490D01*
X18354212Y-34307669D01*
X18350306Y-34281338D01*
X18349000Y-34254751D01*
X18349000Y-32945249D01*
X18350306Y-32918662D01*
X18354212Y-32892331D01*
X18360680Y-32866510D01*
X18369648Y-32841447D01*
X18381029Y-32817383D01*
X18394714Y-32794551D01*
X18410571Y-32773170D01*
X18428447Y-32753447D01*
X18448170Y-32735571D01*
X18469551Y-32719714D01*
X18492383Y-32706029D01*
X18516447Y-32694648D01*
X18541510Y-32685680D01*
X18567331Y-32679212D01*
X18593662Y-32675306D01*
X18620249Y-32674000D01*
X19379751Y-32674000D01*
X19406338Y-32675306D01*
G37*
D22*
X13000000Y-33600000D03*
X11000000Y-33600000D03*
D10*
G36*
X9406338Y-32675306D02*
G01*
X9432669Y-32679212D01*
X9458490Y-32685680D01*
X9483553Y-32694648D01*
X9507617Y-32706029D01*
X9530449Y-32719714D01*
X9551830Y-32735571D01*
X9571553Y-32753447D01*
X9589429Y-32773170D01*
X9605286Y-32794551D01*
X9618971Y-32817383D01*
X9630352Y-32841447D01*
X9639320Y-32866510D01*
X9645788Y-32892331D01*
X9649694Y-32918662D01*
X9651000Y-32945249D01*
X9651000Y-34254751D01*
X9649694Y-34281338D01*
X9645788Y-34307669D01*
X9639320Y-34333490D01*
X9630352Y-34358553D01*
X9618971Y-34382617D01*
X9605286Y-34405449D01*
X9589429Y-34426830D01*
X9571553Y-34446553D01*
X9551830Y-34464429D01*
X9530449Y-34480286D01*
X9507617Y-34493971D01*
X9483553Y-34505352D01*
X9458490Y-34514320D01*
X9432669Y-34520788D01*
X9406338Y-34524694D01*
X9379751Y-34526000D01*
X8620249Y-34526000D01*
X8593662Y-34524694D01*
X8567331Y-34520788D01*
X8541510Y-34514320D01*
X8516447Y-34505352D01*
X8492383Y-34493971D01*
X8469551Y-34480286D01*
X8448170Y-34464429D01*
X8428447Y-34446553D01*
X8410571Y-34426830D01*
X8394714Y-34405449D01*
X8381029Y-34382617D01*
X8369648Y-34358553D01*
X8360680Y-34333490D01*
X8354212Y-34307669D01*
X8350306Y-34281338D01*
X8349000Y-34254751D01*
X8349000Y-32945249D01*
X8350306Y-32918662D01*
X8354212Y-32892331D01*
X8360680Y-32866510D01*
X8369648Y-32841447D01*
X8381029Y-32817383D01*
X8394714Y-32794551D01*
X8410571Y-32773170D01*
X8428447Y-32753447D01*
X8448170Y-32735571D01*
X8469551Y-32719714D01*
X8492383Y-32706029D01*
X8516447Y-32694648D01*
X8541510Y-32685680D01*
X8567331Y-32679212D01*
X8593662Y-32675306D01*
X8620249Y-32674000D01*
X9379751Y-32674000D01*
X9406338Y-32675306D01*
G37*
G36*
X43706338Y-5475306D02*
G01*
X43732669Y-5479212D01*
X43758490Y-5485680D01*
X43783553Y-5494648D01*
X43807617Y-5506029D01*
X43830449Y-5519714D01*
X43851830Y-5535571D01*
X43871553Y-5553447D01*
X43889429Y-5573170D01*
X43905286Y-5594551D01*
X43918971Y-5617383D01*
X43930352Y-5641447D01*
X43939320Y-5666510D01*
X43945788Y-5692331D01*
X43949694Y-5718662D01*
X43951000Y-5745249D01*
X43951000Y-7054751D01*
X43949694Y-7081338D01*
X43945788Y-7107669D01*
X43939320Y-7133490D01*
X43930352Y-7158553D01*
X43918971Y-7182617D01*
X43905286Y-7205449D01*
X43889429Y-7226830D01*
X43871553Y-7246553D01*
X43851830Y-7264429D01*
X43830449Y-7280286D01*
X43807617Y-7293971D01*
X43783553Y-7305352D01*
X43758490Y-7314320D01*
X43732669Y-7320788D01*
X43706338Y-7324694D01*
X43679751Y-7326000D01*
X42920249Y-7326000D01*
X42893662Y-7324694D01*
X42867331Y-7320788D01*
X42841510Y-7314320D01*
X42816447Y-7305352D01*
X42792383Y-7293971D01*
X42769551Y-7280286D01*
X42748170Y-7264429D01*
X42728447Y-7246553D01*
X42710571Y-7226830D01*
X42694714Y-7205449D01*
X42681029Y-7182617D01*
X42669648Y-7158553D01*
X42660680Y-7133490D01*
X42654212Y-7107669D01*
X42650306Y-7081338D01*
X42649000Y-7054751D01*
X42649000Y-5745249D01*
X42650306Y-5718662D01*
X42654212Y-5692331D01*
X42660680Y-5666510D01*
X42669648Y-5641447D01*
X42681029Y-5617383D01*
X42694714Y-5594551D01*
X42710571Y-5573170D01*
X42728447Y-5553447D01*
X42748170Y-5535571D01*
X42769551Y-5519714D01*
X42792383Y-5506029D01*
X42816447Y-5494648D01*
X42841510Y-5485680D01*
X42867331Y-5479212D01*
X42893662Y-5475306D01*
X42920249Y-5474000D01*
X43679751Y-5474000D01*
X43706338Y-5475306D01*
G37*
D22*
X41300000Y-6400000D03*
X39300000Y-6400000D03*
X29300000Y-6400000D03*
X31300000Y-6400000D03*
D10*
G36*
X33706338Y-5475306D02*
G01*
X33732669Y-5479212D01*
X33758490Y-5485680D01*
X33783553Y-5494648D01*
X33807617Y-5506029D01*
X33830449Y-5519714D01*
X33851830Y-5535571D01*
X33871553Y-5553447D01*
X33889429Y-5573170D01*
X33905286Y-5594551D01*
X33918971Y-5617383D01*
X33930352Y-5641447D01*
X33939320Y-5666510D01*
X33945788Y-5692331D01*
X33949694Y-5718662D01*
X33951000Y-5745249D01*
X33951000Y-7054751D01*
X33949694Y-7081338D01*
X33945788Y-7107669D01*
X33939320Y-7133490D01*
X33930352Y-7158553D01*
X33918971Y-7182617D01*
X33905286Y-7205449D01*
X33889429Y-7226830D01*
X33871553Y-7246553D01*
X33851830Y-7264429D01*
X33830449Y-7280286D01*
X33807617Y-7293971D01*
X33783553Y-7305352D01*
X33758490Y-7314320D01*
X33732669Y-7320788D01*
X33706338Y-7324694D01*
X33679751Y-7326000D01*
X32920249Y-7326000D01*
X32893662Y-7324694D01*
X32867331Y-7320788D01*
X32841510Y-7314320D01*
X32816447Y-7305352D01*
X32792383Y-7293971D01*
X32769551Y-7280286D01*
X32748170Y-7264429D01*
X32728447Y-7246553D01*
X32710571Y-7226830D01*
X32694714Y-7205449D01*
X32681029Y-7182617D01*
X32669648Y-7158553D01*
X32660680Y-7133490D01*
X32654212Y-7107669D01*
X32650306Y-7081338D01*
X32649000Y-7054751D01*
X32649000Y-5745249D01*
X32650306Y-5718662D01*
X32654212Y-5692331D01*
X32660680Y-5666510D01*
X32669648Y-5641447D01*
X32681029Y-5617383D01*
X32694714Y-5594551D01*
X32710571Y-5573170D01*
X32728447Y-5553447D01*
X32748170Y-5535571D01*
X32769551Y-5519714D01*
X32792383Y-5506029D01*
X32816447Y-5494648D01*
X32841510Y-5485680D01*
X32867331Y-5479212D01*
X32893662Y-5475306D01*
X32920249Y-5474000D01*
X33679751Y-5474000D01*
X33706338Y-5475306D01*
G37*
D22*
X19300000Y-6400000D03*
X21300000Y-6400000D03*
D10*
G36*
X23706338Y-5475306D02*
G01*
X23732669Y-5479212D01*
X23758490Y-5485680D01*
X23783553Y-5494648D01*
X23807617Y-5506029D01*
X23830449Y-5519714D01*
X23851830Y-5535571D01*
X23871553Y-5553447D01*
X23889429Y-5573170D01*
X23905286Y-5594551D01*
X23918971Y-5617383D01*
X23930352Y-5641447D01*
X23939320Y-5666510D01*
X23945788Y-5692331D01*
X23949694Y-5718662D01*
X23951000Y-5745249D01*
X23951000Y-7054751D01*
X23949694Y-7081338D01*
X23945788Y-7107669D01*
X23939320Y-7133490D01*
X23930352Y-7158553D01*
X23918971Y-7182617D01*
X23905286Y-7205449D01*
X23889429Y-7226830D01*
X23871553Y-7246553D01*
X23851830Y-7264429D01*
X23830449Y-7280286D01*
X23807617Y-7293971D01*
X23783553Y-7305352D01*
X23758490Y-7314320D01*
X23732669Y-7320788D01*
X23706338Y-7324694D01*
X23679751Y-7326000D01*
X22920249Y-7326000D01*
X22893662Y-7324694D01*
X22867331Y-7320788D01*
X22841510Y-7314320D01*
X22816447Y-7305352D01*
X22792383Y-7293971D01*
X22769551Y-7280286D01*
X22748170Y-7264429D01*
X22728447Y-7246553D01*
X22710571Y-7226830D01*
X22694714Y-7205449D01*
X22681029Y-7182617D01*
X22669648Y-7158553D01*
X22660680Y-7133490D01*
X22654212Y-7107669D01*
X22650306Y-7081338D01*
X22649000Y-7054751D01*
X22649000Y-5745249D01*
X22650306Y-5718662D01*
X22654212Y-5692331D01*
X22660680Y-5666510D01*
X22669648Y-5641447D01*
X22681029Y-5617383D01*
X22694714Y-5594551D01*
X22710571Y-5573170D01*
X22728447Y-5553447D01*
X22748170Y-5535571D01*
X22769551Y-5519714D01*
X22792383Y-5506029D01*
X22816447Y-5494648D01*
X22841510Y-5485680D01*
X22867331Y-5479212D01*
X22893662Y-5475306D01*
X22920249Y-5474000D01*
X23679751Y-5474000D01*
X23706338Y-5475306D01*
G37*
D22*
X9300000Y-6400000D03*
X11300000Y-6400000D03*
D10*
G36*
X13706338Y-5475306D02*
G01*
X13732669Y-5479212D01*
X13758490Y-5485680D01*
X13783553Y-5494648D01*
X13807617Y-5506029D01*
X13830449Y-5519714D01*
X13851830Y-5535571D01*
X13871553Y-5553447D01*
X13889429Y-5573170D01*
X13905286Y-5594551D01*
X13918971Y-5617383D01*
X13930352Y-5641447D01*
X13939320Y-5666510D01*
X13945788Y-5692331D01*
X13949694Y-5718662D01*
X13951000Y-5745249D01*
X13951000Y-7054751D01*
X13949694Y-7081338D01*
X13945788Y-7107669D01*
X13939320Y-7133490D01*
X13930352Y-7158553D01*
X13918971Y-7182617D01*
X13905286Y-7205449D01*
X13889429Y-7226830D01*
X13871553Y-7246553D01*
X13851830Y-7264429D01*
X13830449Y-7280286D01*
X13807617Y-7293971D01*
X13783553Y-7305352D01*
X13758490Y-7314320D01*
X13732669Y-7320788D01*
X13706338Y-7324694D01*
X13679751Y-7326000D01*
X12920249Y-7326000D01*
X12893662Y-7324694D01*
X12867331Y-7320788D01*
X12841510Y-7314320D01*
X12816447Y-7305352D01*
X12792383Y-7293971D01*
X12769551Y-7280286D01*
X12748170Y-7264429D01*
X12728447Y-7246553D01*
X12710571Y-7226830D01*
X12694714Y-7205449D01*
X12681029Y-7182617D01*
X12669648Y-7158553D01*
X12660680Y-7133490D01*
X12654212Y-7107669D01*
X12650306Y-7081338D01*
X12649000Y-7054751D01*
X12649000Y-5745249D01*
X12650306Y-5718662D01*
X12654212Y-5692331D01*
X12660680Y-5666510D01*
X12669648Y-5641447D01*
X12681029Y-5617383D01*
X12694714Y-5594551D01*
X12710571Y-5573170D01*
X12728447Y-5553447D01*
X12748170Y-5535571D01*
X12769551Y-5519714D01*
X12792383Y-5506029D01*
X12816447Y-5494648D01*
X12841510Y-5485680D01*
X12867331Y-5479212D01*
X12893662Y-5475306D01*
X12920249Y-5474000D01*
X13679751Y-5474000D01*
X13706338Y-5475306D01*
G37*
D23*
X58272144Y-35400000D03*
D24*
X51927856Y-31400000D03*
D23*
X57600000Y-33400000D03*
D24*
X52600000Y-33400000D03*
M02*
