M48
; DRILL file {KiCad (5.1.5)-3} date 2020/11/13 22:42:11
; FORMAT={-:-/ absolute / metric / decimal}
; #@! TF.CreationDate,2020-11-13T22:42:11+09:00
; #@! TF.GenerationSoftware,Kicad,Pcbnew,(5.1.5)-3
; #@! TF.FileFunction,Plated,1,2,PTH
FMAT,2
METRIC
T1C0.400
T2C0.600
T3C0.650
T4C0.750
T5C1.000
T6C1.010
T7C1.900
%
G90
G05
T1
X2.568Y-6.942
X2.568Y-13.942
X2.568Y-17.942
X2.568Y-21.942
X2.568Y-25.942
X3.568Y-32.942
X4.1Y-11.5
X5.568Y-14.942
X5.7Y-7.1
X6.3Y-9.5
X6.568Y-1.942
X6.568Y-25.942
X6.568Y-33.942
X6.568Y-37.942
X7.6Y-9.5
X8.568Y-3.942
X8.9Y-28.7
X9.568Y-14.942
X9.568Y-24.942
X9.568Y-36.942
X10.568Y-1.942
X10.568Y-17.942
X11.5Y-15.0
X11.568Y-26.942
X12.568Y-35.942
X13.5Y-26.9
X13.568Y-2.942
X13.8Y-17.9
X13.8Y-24.2
X14.4Y-12.1
X14.568Y-37.942
X14.7Y-30.5
X15.0Y-9.5
X15.568Y-4.942
X15.568Y-34.942
X16.3Y-9.5
X16.568Y-1.942
X17.0Y-17.9
X17.0Y-20.0
X17.3Y-30.5
X17.4Y-21.5
X17.5Y-25.1
X17.568Y-36.942
X17.6Y-9.5
X18.568Y-3.942
X19.568Y-19.942
X20.568Y-1.942
X20.568Y-15.942
X20.568Y-37.942
X20.606Y-27.896
X22.568Y-17.942
X22.568Y-35.942
X23.5Y-25.2
X23.568Y-2.942
X24.568Y-15.942
X24.568Y-37.942
X24.7Y-30.5
X25.1Y-9.5
X25.568Y-4.942
X25.568Y-24.942
X25.568Y-34.942
X26.4Y-9.5
X26.568Y-1.942
X27.1Y-21.7
X27.3Y-30.5
X27.568Y-36.942
X27.7Y-9.5
X28.568Y-3.942
X29.2Y-15.5
X29.568Y-19.942
X29.568Y-24.942
X30.568Y-1.942
X30.568Y-37.942
X31.568Y-17.942
X32.0Y-13.0
X32.568Y-35.942
X32.7Y-27.8
X33.568Y-2.942
X33.568Y-15.942
X33.8Y-24.9
X34.2Y-21.6
X34.568Y-18.942
X34.568Y-37.942
X34.7Y-30.5
X35.0Y-9.5
X35.4Y-13.4
X35.568Y-4.942
X35.568Y-34.942
X36.3Y-9.5
X36.568Y-1.942
X36.568Y-16.942
X36.568Y-23.942
X37.3Y-30.5
X37.568Y-13.942
X37.568Y-36.942
X37.6Y-9.5
X38.568Y-3.942
X38.568Y-21.942
X40.0Y-27.4
X40.568Y-1.942
X40.568Y-19.942
X40.568Y-37.942
X41.568Y-22.942
X41.7Y-25.3
X42.568Y-17.942
X42.568Y-35.942
X42.6Y-13.3
X43.4Y-16.2
X43.568Y-2.942
X44.568Y-37.942
X44.7Y-30.5
X45.568Y-4.942
X45.568Y-34.942
X46.568Y-1.942
X46.568Y-7.942
X46.568Y-16.942
X46.568Y-20.942
X46.568Y-24.942
X47.0Y-14.4
X47.3Y-30.5
X47.568Y-36.942
X47.6Y-28.1
X48.568Y-5.942
X48.568Y-9.942
X48.568Y-18.942
X48.568Y-22.942
X49.5Y-16.7
X49.5Y-30.5
X49.568Y-25.942
X49.568Y-34.942
X50.568Y-7.942
X50.568Y-37.942
X52.568Y-1.942
X52.568Y-5.942
X52.568Y-9.942
X53.568Y-36.942
X54.568Y-3.942
X54.568Y-7.942
X56.568Y-1.942
X56.568Y-5.942
X56.568Y-9.942
X56.568Y-26.942
X56.568Y-37.942
X57.568Y-29.942
X58.568Y-3.942
X58.568Y-7.942
X59.568Y-16.942
X59.568Y-20.942
X59.568Y-27.942
X60.568Y-5.942
X60.568Y-9.942
X60.568Y-30.942
X60.568Y-37.942
X61.568Y-12.942
X61.568Y-18.942
X61.568Y-22.942
X61.568Y-33.942
X62.568Y-7.942
X62.568Y-15.942
X62.568Y-25.942
X63.568Y-1.942
X63.568Y-10.942
X63.568Y-20.942
X63.568Y-28.942
X63.568Y-35.942
X64.568Y-5.942
X64.568Y-13.942
X64.568Y-17.942
X64.568Y-23.942
X64.568Y-31.942
X65.568Y-8.942
X65.568Y-26.942
X66.568Y-11.942
X66.568Y-15.942
X66.568Y-19.942
X66.568Y-29.942
X67.568Y-6.942
X67.568Y-22.942
X67.568Y-32.942
T2
X11.0Y-30.5
X11.3Y-9.5
X16.0Y-30.5
X21.0Y-30.5
X21.3Y-9.5
X26.0Y-30.5
X31.0Y-30.5
X31.3Y-9.5
X36.0Y-30.5
X41.0Y-30.5
X41.3Y-9.5
X46.0Y-30.5
T3
X14.91Y-26.985
X16.18Y-13.015
X16.18Y-26.985
X17.45Y-13.015
X17.45Y-26.985
X18.72Y-13.015
X18.72Y-26.985
X19.99Y-13.015
X19.99Y-26.985
X21.26Y-13.015
X21.26Y-26.985
X22.53Y-13.015
X22.53Y-26.985
X23.8Y-13.015
X23.8Y-26.985
X25.07Y-26.985
X26.34Y-26.985
X27.61Y-26.985
X28.88Y-26.985
X30.15Y-26.985
X44.755Y-13.015
X44.755Y-26.985
X46.025Y-13.015
X46.025Y-26.985
T4
X9.3Y-6.4
X11.3Y-6.4
X13.3Y-6.4
X6.5Y-17.0
X6.5Y-19.0
X6.5Y-21.0
X6.5Y-23.0
X19.3Y-6.4
X21.3Y-6.4
X23.3Y-6.4
X29.0Y-33.6
X31.0Y-33.6
X33.0Y-33.6
X19.0Y-33.6
X21.0Y-33.6
X23.0Y-33.6
X39.0Y-33.6
X41.0Y-33.6
X43.0Y-33.6
X9.0Y-33.6
X11.0Y-33.6
X13.0Y-33.6
X29.3Y-6.4
X31.3Y-6.4
X33.3Y-6.4
X39.3Y-6.4
X41.3Y-6.4
X43.3Y-6.4
T5
X51.928Y-31.4
X52.6Y-33.4
X57.6Y-33.4
X58.272Y-35.4
X49.8Y-3.3
X60.8Y-3.3
T6
X52.75Y-19.0
X53.95Y-24.1
X57.3Y-19.0
X58.5Y-24.1
T7
X52.8Y-13.3
X57.8Y-13.3
T0
M30
