G04 #@! TF.GenerationSoftware,KiCad,Pcbnew,(5.1.5)-3*
G04 #@! TF.CreationDate,2020-11-13T22:42:07+09:00*
G04 #@! TF.ProjectId,shield_servo_adc_sw_gpio_led,73686965-6c64-45f7-9365-72766f5f6164,rev?*
G04 #@! TF.SameCoordinates,PXb532b80PY717cbc0*
G04 #@! TF.FileFunction,Copper,L1,Top*
G04 #@! TF.FilePolarity,Positive*
%FSLAX46Y46*%
G04 Gerber Fmt 4.6, Leading zero omitted, Abs format (unit mm)*
G04 Created by KiCad (PCBNEW (5.1.5)-3) date 2020-11-13 22:42:07*
%MOMM*%
%LPD*%
G04 APERTURE LIST*
%ADD10C,2.010000*%
%ADD11C,1.000000*%
%ADD12C,3.500000*%
%ADD13R,3.500000X3.500000*%
%ADD14C,1.400000*%
%ADD15O,1.750000X1.200000*%
%ADD16C,0.100000*%
%ADD17O,1.200000X1.750000*%
%ADD18C,2.000000*%
%ADD19R,2.000000X2.000000*%
%ADD20C,0.800000*%
%ADD21C,1.000000*%
%ADD22C,0.250000*%
%ADD23C,0.254000*%
G04 APERTURE END LIST*
D10*
X52750000Y-19000000D03*
X53950000Y-24100000D03*
X57300000Y-19000000D03*
X58500000Y-24100000D03*
D11*
X16180000Y-13015000D03*
X17450000Y-13015000D03*
X18720000Y-13015000D03*
X19990000Y-13015000D03*
X46025000Y-13015000D03*
X44755000Y-13015000D03*
X44755000Y-26985000D03*
X46025000Y-26985000D03*
X21260000Y-13015000D03*
X22530000Y-13015000D03*
X23800000Y-13015000D03*
X30150000Y-26985000D03*
X28880000Y-26985000D03*
X27610000Y-26985000D03*
X26340000Y-26985000D03*
X25070000Y-26985000D03*
X23800000Y-26985000D03*
X22530000Y-26985000D03*
X21260000Y-26985000D03*
X19990000Y-26985000D03*
X18720000Y-26985000D03*
X17450000Y-26985000D03*
X16180000Y-26985000D03*
X14910000Y-26985000D03*
D12*
X52800000Y-13300000D03*
D13*
X57800000Y-13300000D03*
D14*
X49800000Y-3300000D03*
X60800000Y-3300000D03*
D15*
X6500000Y-23000000D03*
X6500000Y-21000000D03*
X6500000Y-19000000D03*
G04 #@! TA.AperFunction,ComponentPad*
D16*
G36*
X7149505Y-16401204D02*
G01*
X7173773Y-16404804D01*
X7197572Y-16410765D01*
X7220671Y-16419030D01*
X7242850Y-16429520D01*
X7263893Y-16442132D01*
X7283599Y-16456747D01*
X7301777Y-16473223D01*
X7318253Y-16491401D01*
X7332868Y-16511107D01*
X7345480Y-16532150D01*
X7355970Y-16554329D01*
X7364235Y-16577428D01*
X7370196Y-16601227D01*
X7373796Y-16625495D01*
X7375000Y-16649999D01*
X7375000Y-17350001D01*
X7373796Y-17374505D01*
X7370196Y-17398773D01*
X7364235Y-17422572D01*
X7355970Y-17445671D01*
X7345480Y-17467850D01*
X7332868Y-17488893D01*
X7318253Y-17508599D01*
X7301777Y-17526777D01*
X7283599Y-17543253D01*
X7263893Y-17557868D01*
X7242850Y-17570480D01*
X7220671Y-17580970D01*
X7197572Y-17589235D01*
X7173773Y-17595196D01*
X7149505Y-17598796D01*
X7125001Y-17600000D01*
X5874999Y-17600000D01*
X5850495Y-17598796D01*
X5826227Y-17595196D01*
X5802428Y-17589235D01*
X5779329Y-17580970D01*
X5757150Y-17570480D01*
X5736107Y-17557868D01*
X5716401Y-17543253D01*
X5698223Y-17526777D01*
X5681747Y-17508599D01*
X5667132Y-17488893D01*
X5654520Y-17467850D01*
X5644030Y-17445671D01*
X5635765Y-17422572D01*
X5629804Y-17398773D01*
X5626204Y-17374505D01*
X5625000Y-17350001D01*
X5625000Y-16649999D01*
X5626204Y-16625495D01*
X5629804Y-16601227D01*
X5635765Y-16577428D01*
X5644030Y-16554329D01*
X5654520Y-16532150D01*
X5667132Y-16511107D01*
X5681747Y-16491401D01*
X5698223Y-16473223D01*
X5716401Y-16456747D01*
X5736107Y-16442132D01*
X5757150Y-16429520D01*
X5779329Y-16419030D01*
X5802428Y-16410765D01*
X5826227Y-16404804D01*
X5850495Y-16401204D01*
X5874999Y-16400000D01*
X7125001Y-16400000D01*
X7149505Y-16401204D01*
G37*
G04 #@! TD.AperFunction*
D17*
X43000000Y-33600000D03*
X41000000Y-33600000D03*
G04 #@! TA.AperFunction,ComponentPad*
D16*
G36*
X39374505Y-32726204D02*
G01*
X39398773Y-32729804D01*
X39422572Y-32735765D01*
X39445671Y-32744030D01*
X39467850Y-32754520D01*
X39488893Y-32767132D01*
X39508599Y-32781747D01*
X39526777Y-32798223D01*
X39543253Y-32816401D01*
X39557868Y-32836107D01*
X39570480Y-32857150D01*
X39580970Y-32879329D01*
X39589235Y-32902428D01*
X39595196Y-32926227D01*
X39598796Y-32950495D01*
X39600000Y-32974999D01*
X39600000Y-34225001D01*
X39598796Y-34249505D01*
X39595196Y-34273773D01*
X39589235Y-34297572D01*
X39580970Y-34320671D01*
X39570480Y-34342850D01*
X39557868Y-34363893D01*
X39543253Y-34383599D01*
X39526777Y-34401777D01*
X39508599Y-34418253D01*
X39488893Y-34432868D01*
X39467850Y-34445480D01*
X39445671Y-34455970D01*
X39422572Y-34464235D01*
X39398773Y-34470196D01*
X39374505Y-34473796D01*
X39350001Y-34475000D01*
X38649999Y-34475000D01*
X38625495Y-34473796D01*
X38601227Y-34470196D01*
X38577428Y-34464235D01*
X38554329Y-34455970D01*
X38532150Y-34445480D01*
X38511107Y-34432868D01*
X38491401Y-34418253D01*
X38473223Y-34401777D01*
X38456747Y-34383599D01*
X38442132Y-34363893D01*
X38429520Y-34342850D01*
X38419030Y-34320671D01*
X38410765Y-34297572D01*
X38404804Y-34273773D01*
X38401204Y-34249505D01*
X38400000Y-34225001D01*
X38400000Y-32974999D01*
X38401204Y-32950495D01*
X38404804Y-32926227D01*
X38410765Y-32902428D01*
X38419030Y-32879329D01*
X38429520Y-32857150D01*
X38442132Y-32836107D01*
X38456747Y-32816401D01*
X38473223Y-32798223D01*
X38491401Y-32781747D01*
X38511107Y-32767132D01*
X38532150Y-32754520D01*
X38554329Y-32744030D01*
X38577428Y-32735765D01*
X38601227Y-32729804D01*
X38625495Y-32726204D01*
X38649999Y-32725000D01*
X39350001Y-32725000D01*
X39374505Y-32726204D01*
G37*
G04 #@! TD.AperFunction*
D17*
X33000000Y-33600000D03*
X31000000Y-33600000D03*
G04 #@! TA.AperFunction,ComponentPad*
D16*
G36*
X29374505Y-32726204D02*
G01*
X29398773Y-32729804D01*
X29422572Y-32735765D01*
X29445671Y-32744030D01*
X29467850Y-32754520D01*
X29488893Y-32767132D01*
X29508599Y-32781747D01*
X29526777Y-32798223D01*
X29543253Y-32816401D01*
X29557868Y-32836107D01*
X29570480Y-32857150D01*
X29580970Y-32879329D01*
X29589235Y-32902428D01*
X29595196Y-32926227D01*
X29598796Y-32950495D01*
X29600000Y-32974999D01*
X29600000Y-34225001D01*
X29598796Y-34249505D01*
X29595196Y-34273773D01*
X29589235Y-34297572D01*
X29580970Y-34320671D01*
X29570480Y-34342850D01*
X29557868Y-34363893D01*
X29543253Y-34383599D01*
X29526777Y-34401777D01*
X29508599Y-34418253D01*
X29488893Y-34432868D01*
X29467850Y-34445480D01*
X29445671Y-34455970D01*
X29422572Y-34464235D01*
X29398773Y-34470196D01*
X29374505Y-34473796D01*
X29350001Y-34475000D01*
X28649999Y-34475000D01*
X28625495Y-34473796D01*
X28601227Y-34470196D01*
X28577428Y-34464235D01*
X28554329Y-34455970D01*
X28532150Y-34445480D01*
X28511107Y-34432868D01*
X28491401Y-34418253D01*
X28473223Y-34401777D01*
X28456747Y-34383599D01*
X28442132Y-34363893D01*
X28429520Y-34342850D01*
X28419030Y-34320671D01*
X28410765Y-34297572D01*
X28404804Y-34273773D01*
X28401204Y-34249505D01*
X28400000Y-34225001D01*
X28400000Y-32974999D01*
X28401204Y-32950495D01*
X28404804Y-32926227D01*
X28410765Y-32902428D01*
X28419030Y-32879329D01*
X28429520Y-32857150D01*
X28442132Y-32836107D01*
X28456747Y-32816401D01*
X28473223Y-32798223D01*
X28491401Y-32781747D01*
X28511107Y-32767132D01*
X28532150Y-32754520D01*
X28554329Y-32744030D01*
X28577428Y-32735765D01*
X28601227Y-32729804D01*
X28625495Y-32726204D01*
X28649999Y-32725000D01*
X29350001Y-32725000D01*
X29374505Y-32726204D01*
G37*
G04 #@! TD.AperFunction*
D17*
X23000000Y-33600000D03*
X21000000Y-33600000D03*
G04 #@! TA.AperFunction,ComponentPad*
D16*
G36*
X19374505Y-32726204D02*
G01*
X19398773Y-32729804D01*
X19422572Y-32735765D01*
X19445671Y-32744030D01*
X19467850Y-32754520D01*
X19488893Y-32767132D01*
X19508599Y-32781747D01*
X19526777Y-32798223D01*
X19543253Y-32816401D01*
X19557868Y-32836107D01*
X19570480Y-32857150D01*
X19580970Y-32879329D01*
X19589235Y-32902428D01*
X19595196Y-32926227D01*
X19598796Y-32950495D01*
X19600000Y-32974999D01*
X19600000Y-34225001D01*
X19598796Y-34249505D01*
X19595196Y-34273773D01*
X19589235Y-34297572D01*
X19580970Y-34320671D01*
X19570480Y-34342850D01*
X19557868Y-34363893D01*
X19543253Y-34383599D01*
X19526777Y-34401777D01*
X19508599Y-34418253D01*
X19488893Y-34432868D01*
X19467850Y-34445480D01*
X19445671Y-34455970D01*
X19422572Y-34464235D01*
X19398773Y-34470196D01*
X19374505Y-34473796D01*
X19350001Y-34475000D01*
X18649999Y-34475000D01*
X18625495Y-34473796D01*
X18601227Y-34470196D01*
X18577428Y-34464235D01*
X18554329Y-34455970D01*
X18532150Y-34445480D01*
X18511107Y-34432868D01*
X18491401Y-34418253D01*
X18473223Y-34401777D01*
X18456747Y-34383599D01*
X18442132Y-34363893D01*
X18429520Y-34342850D01*
X18419030Y-34320671D01*
X18410765Y-34297572D01*
X18404804Y-34273773D01*
X18401204Y-34249505D01*
X18400000Y-34225001D01*
X18400000Y-32974999D01*
X18401204Y-32950495D01*
X18404804Y-32926227D01*
X18410765Y-32902428D01*
X18419030Y-32879329D01*
X18429520Y-32857150D01*
X18442132Y-32836107D01*
X18456747Y-32816401D01*
X18473223Y-32798223D01*
X18491401Y-32781747D01*
X18511107Y-32767132D01*
X18532150Y-32754520D01*
X18554329Y-32744030D01*
X18577428Y-32735765D01*
X18601227Y-32729804D01*
X18625495Y-32726204D01*
X18649999Y-32725000D01*
X19350001Y-32725000D01*
X19374505Y-32726204D01*
G37*
G04 #@! TD.AperFunction*
D17*
X13000000Y-33600000D03*
X11000000Y-33600000D03*
G04 #@! TA.AperFunction,ComponentPad*
D16*
G36*
X9374505Y-32726204D02*
G01*
X9398773Y-32729804D01*
X9422572Y-32735765D01*
X9445671Y-32744030D01*
X9467850Y-32754520D01*
X9488893Y-32767132D01*
X9508599Y-32781747D01*
X9526777Y-32798223D01*
X9543253Y-32816401D01*
X9557868Y-32836107D01*
X9570480Y-32857150D01*
X9580970Y-32879329D01*
X9589235Y-32902428D01*
X9595196Y-32926227D01*
X9598796Y-32950495D01*
X9600000Y-32974999D01*
X9600000Y-34225001D01*
X9598796Y-34249505D01*
X9595196Y-34273773D01*
X9589235Y-34297572D01*
X9580970Y-34320671D01*
X9570480Y-34342850D01*
X9557868Y-34363893D01*
X9543253Y-34383599D01*
X9526777Y-34401777D01*
X9508599Y-34418253D01*
X9488893Y-34432868D01*
X9467850Y-34445480D01*
X9445671Y-34455970D01*
X9422572Y-34464235D01*
X9398773Y-34470196D01*
X9374505Y-34473796D01*
X9350001Y-34475000D01*
X8649999Y-34475000D01*
X8625495Y-34473796D01*
X8601227Y-34470196D01*
X8577428Y-34464235D01*
X8554329Y-34455970D01*
X8532150Y-34445480D01*
X8511107Y-34432868D01*
X8491401Y-34418253D01*
X8473223Y-34401777D01*
X8456747Y-34383599D01*
X8442132Y-34363893D01*
X8429520Y-34342850D01*
X8419030Y-34320671D01*
X8410765Y-34297572D01*
X8404804Y-34273773D01*
X8401204Y-34249505D01*
X8400000Y-34225001D01*
X8400000Y-32974999D01*
X8401204Y-32950495D01*
X8404804Y-32926227D01*
X8410765Y-32902428D01*
X8419030Y-32879329D01*
X8429520Y-32857150D01*
X8442132Y-32836107D01*
X8456747Y-32816401D01*
X8473223Y-32798223D01*
X8491401Y-32781747D01*
X8511107Y-32767132D01*
X8532150Y-32754520D01*
X8554329Y-32744030D01*
X8577428Y-32735765D01*
X8601227Y-32729804D01*
X8625495Y-32726204D01*
X8649999Y-32725000D01*
X9350001Y-32725000D01*
X9374505Y-32726204D01*
G37*
G04 #@! TD.AperFunction*
G04 #@! TA.AperFunction,ComponentPad*
G36*
X43674505Y-5526204D02*
G01*
X43698773Y-5529804D01*
X43722572Y-5535765D01*
X43745671Y-5544030D01*
X43767850Y-5554520D01*
X43788893Y-5567132D01*
X43808599Y-5581747D01*
X43826777Y-5598223D01*
X43843253Y-5616401D01*
X43857868Y-5636107D01*
X43870480Y-5657150D01*
X43880970Y-5679329D01*
X43889235Y-5702428D01*
X43895196Y-5726227D01*
X43898796Y-5750495D01*
X43900000Y-5774999D01*
X43900000Y-7025001D01*
X43898796Y-7049505D01*
X43895196Y-7073773D01*
X43889235Y-7097572D01*
X43880970Y-7120671D01*
X43870480Y-7142850D01*
X43857868Y-7163893D01*
X43843253Y-7183599D01*
X43826777Y-7201777D01*
X43808599Y-7218253D01*
X43788893Y-7232868D01*
X43767850Y-7245480D01*
X43745671Y-7255970D01*
X43722572Y-7264235D01*
X43698773Y-7270196D01*
X43674505Y-7273796D01*
X43650001Y-7275000D01*
X42949999Y-7275000D01*
X42925495Y-7273796D01*
X42901227Y-7270196D01*
X42877428Y-7264235D01*
X42854329Y-7255970D01*
X42832150Y-7245480D01*
X42811107Y-7232868D01*
X42791401Y-7218253D01*
X42773223Y-7201777D01*
X42756747Y-7183599D01*
X42742132Y-7163893D01*
X42729520Y-7142850D01*
X42719030Y-7120671D01*
X42710765Y-7097572D01*
X42704804Y-7073773D01*
X42701204Y-7049505D01*
X42700000Y-7025001D01*
X42700000Y-5774999D01*
X42701204Y-5750495D01*
X42704804Y-5726227D01*
X42710765Y-5702428D01*
X42719030Y-5679329D01*
X42729520Y-5657150D01*
X42742132Y-5636107D01*
X42756747Y-5616401D01*
X42773223Y-5598223D01*
X42791401Y-5581747D01*
X42811107Y-5567132D01*
X42832150Y-5554520D01*
X42854329Y-5544030D01*
X42877428Y-5535765D01*
X42901227Y-5529804D01*
X42925495Y-5526204D01*
X42949999Y-5525000D01*
X43650001Y-5525000D01*
X43674505Y-5526204D01*
G37*
G04 #@! TD.AperFunction*
D17*
X41300000Y-6400000D03*
X39300000Y-6400000D03*
X29300000Y-6400000D03*
X31300000Y-6400000D03*
G04 #@! TA.AperFunction,ComponentPad*
D16*
G36*
X33674505Y-5526204D02*
G01*
X33698773Y-5529804D01*
X33722572Y-5535765D01*
X33745671Y-5544030D01*
X33767850Y-5554520D01*
X33788893Y-5567132D01*
X33808599Y-5581747D01*
X33826777Y-5598223D01*
X33843253Y-5616401D01*
X33857868Y-5636107D01*
X33870480Y-5657150D01*
X33880970Y-5679329D01*
X33889235Y-5702428D01*
X33895196Y-5726227D01*
X33898796Y-5750495D01*
X33900000Y-5774999D01*
X33900000Y-7025001D01*
X33898796Y-7049505D01*
X33895196Y-7073773D01*
X33889235Y-7097572D01*
X33880970Y-7120671D01*
X33870480Y-7142850D01*
X33857868Y-7163893D01*
X33843253Y-7183599D01*
X33826777Y-7201777D01*
X33808599Y-7218253D01*
X33788893Y-7232868D01*
X33767850Y-7245480D01*
X33745671Y-7255970D01*
X33722572Y-7264235D01*
X33698773Y-7270196D01*
X33674505Y-7273796D01*
X33650001Y-7275000D01*
X32949999Y-7275000D01*
X32925495Y-7273796D01*
X32901227Y-7270196D01*
X32877428Y-7264235D01*
X32854329Y-7255970D01*
X32832150Y-7245480D01*
X32811107Y-7232868D01*
X32791401Y-7218253D01*
X32773223Y-7201777D01*
X32756747Y-7183599D01*
X32742132Y-7163893D01*
X32729520Y-7142850D01*
X32719030Y-7120671D01*
X32710765Y-7097572D01*
X32704804Y-7073773D01*
X32701204Y-7049505D01*
X32700000Y-7025001D01*
X32700000Y-5774999D01*
X32701204Y-5750495D01*
X32704804Y-5726227D01*
X32710765Y-5702428D01*
X32719030Y-5679329D01*
X32729520Y-5657150D01*
X32742132Y-5636107D01*
X32756747Y-5616401D01*
X32773223Y-5598223D01*
X32791401Y-5581747D01*
X32811107Y-5567132D01*
X32832150Y-5554520D01*
X32854329Y-5544030D01*
X32877428Y-5535765D01*
X32901227Y-5529804D01*
X32925495Y-5526204D01*
X32949999Y-5525000D01*
X33650001Y-5525000D01*
X33674505Y-5526204D01*
G37*
G04 #@! TD.AperFunction*
D17*
X19300000Y-6400000D03*
X21300000Y-6400000D03*
G04 #@! TA.AperFunction,ComponentPad*
D16*
G36*
X23674505Y-5526204D02*
G01*
X23698773Y-5529804D01*
X23722572Y-5535765D01*
X23745671Y-5544030D01*
X23767850Y-5554520D01*
X23788893Y-5567132D01*
X23808599Y-5581747D01*
X23826777Y-5598223D01*
X23843253Y-5616401D01*
X23857868Y-5636107D01*
X23870480Y-5657150D01*
X23880970Y-5679329D01*
X23889235Y-5702428D01*
X23895196Y-5726227D01*
X23898796Y-5750495D01*
X23900000Y-5774999D01*
X23900000Y-7025001D01*
X23898796Y-7049505D01*
X23895196Y-7073773D01*
X23889235Y-7097572D01*
X23880970Y-7120671D01*
X23870480Y-7142850D01*
X23857868Y-7163893D01*
X23843253Y-7183599D01*
X23826777Y-7201777D01*
X23808599Y-7218253D01*
X23788893Y-7232868D01*
X23767850Y-7245480D01*
X23745671Y-7255970D01*
X23722572Y-7264235D01*
X23698773Y-7270196D01*
X23674505Y-7273796D01*
X23650001Y-7275000D01*
X22949999Y-7275000D01*
X22925495Y-7273796D01*
X22901227Y-7270196D01*
X22877428Y-7264235D01*
X22854329Y-7255970D01*
X22832150Y-7245480D01*
X22811107Y-7232868D01*
X22791401Y-7218253D01*
X22773223Y-7201777D01*
X22756747Y-7183599D01*
X22742132Y-7163893D01*
X22729520Y-7142850D01*
X22719030Y-7120671D01*
X22710765Y-7097572D01*
X22704804Y-7073773D01*
X22701204Y-7049505D01*
X22700000Y-7025001D01*
X22700000Y-5774999D01*
X22701204Y-5750495D01*
X22704804Y-5726227D01*
X22710765Y-5702428D01*
X22719030Y-5679329D01*
X22729520Y-5657150D01*
X22742132Y-5636107D01*
X22756747Y-5616401D01*
X22773223Y-5598223D01*
X22791401Y-5581747D01*
X22811107Y-5567132D01*
X22832150Y-5554520D01*
X22854329Y-5544030D01*
X22877428Y-5535765D01*
X22901227Y-5529804D01*
X22925495Y-5526204D01*
X22949999Y-5525000D01*
X23650001Y-5525000D01*
X23674505Y-5526204D01*
G37*
G04 #@! TD.AperFunction*
D17*
X9300000Y-6400000D03*
X11300000Y-6400000D03*
G04 #@! TA.AperFunction,ComponentPad*
D16*
G36*
X13674505Y-5526204D02*
G01*
X13698773Y-5529804D01*
X13722572Y-5535765D01*
X13745671Y-5544030D01*
X13767850Y-5554520D01*
X13788893Y-5567132D01*
X13808599Y-5581747D01*
X13826777Y-5598223D01*
X13843253Y-5616401D01*
X13857868Y-5636107D01*
X13870480Y-5657150D01*
X13880970Y-5679329D01*
X13889235Y-5702428D01*
X13895196Y-5726227D01*
X13898796Y-5750495D01*
X13900000Y-5774999D01*
X13900000Y-7025001D01*
X13898796Y-7049505D01*
X13895196Y-7073773D01*
X13889235Y-7097572D01*
X13880970Y-7120671D01*
X13870480Y-7142850D01*
X13857868Y-7163893D01*
X13843253Y-7183599D01*
X13826777Y-7201777D01*
X13808599Y-7218253D01*
X13788893Y-7232868D01*
X13767850Y-7245480D01*
X13745671Y-7255970D01*
X13722572Y-7264235D01*
X13698773Y-7270196D01*
X13674505Y-7273796D01*
X13650001Y-7275000D01*
X12949999Y-7275000D01*
X12925495Y-7273796D01*
X12901227Y-7270196D01*
X12877428Y-7264235D01*
X12854329Y-7255970D01*
X12832150Y-7245480D01*
X12811107Y-7232868D01*
X12791401Y-7218253D01*
X12773223Y-7201777D01*
X12756747Y-7183599D01*
X12742132Y-7163893D01*
X12729520Y-7142850D01*
X12719030Y-7120671D01*
X12710765Y-7097572D01*
X12704804Y-7073773D01*
X12701204Y-7049505D01*
X12700000Y-7025001D01*
X12700000Y-5774999D01*
X12701204Y-5750495D01*
X12704804Y-5726227D01*
X12710765Y-5702428D01*
X12719030Y-5679329D01*
X12729520Y-5657150D01*
X12742132Y-5636107D01*
X12756747Y-5616401D01*
X12773223Y-5598223D01*
X12791401Y-5581747D01*
X12811107Y-5567132D01*
X12832150Y-5554520D01*
X12854329Y-5544030D01*
X12877428Y-5535765D01*
X12901227Y-5529804D01*
X12925495Y-5526204D01*
X12949999Y-5525000D01*
X13650001Y-5525000D01*
X13674505Y-5526204D01*
G37*
G04 #@! TD.AperFunction*
D18*
X58272144Y-35400000D03*
D19*
X51927856Y-31400000D03*
D18*
X57600000Y-33400000D03*
D19*
X52600000Y-33400000D03*
D20*
X42600000Y-13300000D03*
X35400000Y-13400000D03*
X34200000Y-21600000D03*
X27100000Y-21700000D03*
X23500000Y-25200000D03*
X13800000Y-24200000D03*
X13800000Y-17900000D03*
X11500000Y-15000000D03*
X5700000Y-7100000D03*
X4100000Y-11500000D03*
X8900000Y-28700000D03*
X43400000Y-16200000D03*
X41700000Y-25300000D03*
X33800000Y-24900000D03*
X47000000Y-14400000D03*
X49500000Y-16700000D03*
X49500000Y-30500000D03*
X47600000Y-28100000D03*
X2567857Y-6942500D03*
X2567857Y-13942500D03*
X2567857Y-17942500D03*
X2567857Y-21942500D03*
X2567857Y-25942500D03*
X3567857Y-32942500D03*
X5567857Y-14942500D03*
X6567857Y-1942500D03*
X6567857Y-25942500D03*
X6567857Y-33942500D03*
X6567857Y-37942500D03*
X8567857Y-3942500D03*
X9567857Y-14942500D03*
X9567857Y-24942500D03*
X9567857Y-36942500D03*
X10567857Y-1942500D03*
X10567857Y-17942500D03*
X11567857Y-26942500D03*
X12567857Y-35942500D03*
X13567857Y-2942500D03*
X14567857Y-37942500D03*
X15567857Y-4942500D03*
X15567857Y-34942500D03*
X16567857Y-1942500D03*
X17567857Y-36942500D03*
X18567857Y-3942500D03*
X19567857Y-19942500D03*
X20567857Y-1942500D03*
X20567857Y-15942500D03*
X20567857Y-37942500D03*
X22567857Y-17942500D03*
X22567857Y-35942500D03*
X23567857Y-2942500D03*
X24567857Y-15942500D03*
X24567857Y-37942500D03*
X25567857Y-4942500D03*
X25567857Y-24942500D03*
X25567857Y-34942500D03*
X26567857Y-1942500D03*
X27567857Y-36942500D03*
X28567857Y-3942500D03*
X29567857Y-19942500D03*
X29567857Y-24942500D03*
X30567857Y-1942500D03*
X30567857Y-37942500D03*
X31567857Y-17942500D03*
X32567857Y-35942500D03*
X33567857Y-2942500D03*
X33567857Y-15942500D03*
X34567857Y-18942500D03*
X34567857Y-37942500D03*
X35567857Y-4942500D03*
X35567857Y-34942500D03*
X36567857Y-1942500D03*
X36567857Y-16942500D03*
X36567857Y-23942500D03*
X37567857Y-13942500D03*
X37567857Y-36942500D03*
X38567857Y-3942500D03*
X38567857Y-21942500D03*
X40567857Y-1942500D03*
X40567857Y-19942500D03*
X40567857Y-37942500D03*
X41567857Y-22942500D03*
X42567857Y-17942500D03*
X42567857Y-35942500D03*
X43567857Y-2942500D03*
X44567857Y-37942500D03*
X45567857Y-4942500D03*
X45567857Y-34942500D03*
X46567857Y-1942500D03*
X46567857Y-7942500D03*
X46567857Y-16942500D03*
X46567857Y-20942500D03*
X46567857Y-24942500D03*
X47567857Y-36942500D03*
X48567857Y-5942500D03*
X48567857Y-9942500D03*
X48567857Y-18942500D03*
X48567857Y-22942500D03*
X49567857Y-25942500D03*
X49567857Y-34942500D03*
X50567857Y-7942500D03*
X50567857Y-37942500D03*
X52567857Y-1942500D03*
X52567857Y-5942500D03*
X52567857Y-9942500D03*
X53567857Y-36942500D03*
X54567857Y-3942500D03*
X54567857Y-7942500D03*
X56567857Y-1942500D03*
X56567857Y-5942500D03*
X56567857Y-9942500D03*
X56567857Y-26942500D03*
X56567857Y-37942500D03*
X57567857Y-29942500D03*
X58567857Y-3942500D03*
X58567857Y-7942500D03*
X59567857Y-16942500D03*
X59567857Y-20942500D03*
X59567857Y-27942500D03*
X60567857Y-5942500D03*
X60567857Y-9942500D03*
X60567857Y-30942500D03*
X60567857Y-37942500D03*
X61567857Y-12942500D03*
X61567857Y-18942500D03*
X61567857Y-22942500D03*
X61567857Y-33942500D03*
X62567857Y-7942500D03*
X62567857Y-15942500D03*
X62567857Y-25942500D03*
X63567857Y-1942500D03*
X63567857Y-10942500D03*
X63567857Y-20942500D03*
X63567857Y-28942500D03*
X63567857Y-35942500D03*
X64567857Y-5942500D03*
X64567857Y-13942500D03*
X64567857Y-17942500D03*
X64567857Y-23942500D03*
X64567857Y-31942500D03*
X65567857Y-8942500D03*
X65567857Y-26942500D03*
X66567857Y-11942500D03*
X66567857Y-15942500D03*
X66567857Y-19942500D03*
X66567857Y-29942500D03*
X67567857Y-6942500D03*
X67567857Y-22942500D03*
X67567857Y-32942500D03*
X29200000Y-15500000D03*
X17500000Y-25100000D03*
X17400000Y-21500000D03*
D11*
X11300000Y-9500000D03*
X21300000Y-9500000D03*
X31300000Y-9500000D03*
X41300000Y-9500000D03*
X11000000Y-30500000D03*
X21000000Y-30500000D03*
X31000000Y-30500000D03*
X41000000Y-30500000D03*
D20*
X6300000Y-9500000D03*
X16300000Y-9500000D03*
X26400000Y-9500000D03*
X36300000Y-9500000D03*
D11*
X16000000Y-30500000D03*
X26000000Y-30500000D03*
X36000000Y-30500000D03*
X46000000Y-30500000D03*
D20*
X17000000Y-17900000D03*
X17000000Y-20000000D03*
X7600000Y-9500000D03*
X17600000Y-9500000D03*
X14400000Y-12100000D03*
X15000000Y-9500000D03*
X27700000Y-9500000D03*
X25100000Y-9500000D03*
X37600000Y-9500000D03*
X32000000Y-13000000D03*
X35000000Y-9500000D03*
X17300000Y-30500000D03*
X13500000Y-26900000D03*
X14700000Y-30500000D03*
X27300000Y-30500000D03*
X20605939Y-27896386D03*
X24700000Y-30500000D03*
X37300000Y-30500000D03*
X32700000Y-27800000D03*
X34700000Y-30500000D03*
X47300000Y-30500000D03*
X40000000Y-27400000D03*
X44700000Y-30500000D03*
D21*
X11300000Y-6400000D02*
X11300000Y-9500000D01*
X21300000Y-6400000D02*
X21300000Y-9500000D01*
X31300000Y-6400000D02*
X31300000Y-9500000D01*
X41300000Y-6400000D02*
X41300000Y-9500000D01*
X11000000Y-33600000D02*
X11000000Y-30500000D01*
X21000000Y-33600000D02*
X21000000Y-30500000D01*
X31000000Y-33600000D02*
X31000000Y-30500000D01*
X41000000Y-33600000D02*
X41000000Y-30500000D01*
D22*
X8450000Y-6400000D02*
X9300000Y-6400000D01*
X8400000Y-6400000D02*
X8450000Y-6400000D01*
X6300000Y-8500000D02*
X8400000Y-6400000D01*
X6300000Y-9500000D02*
X6300000Y-8500000D01*
X18450000Y-6400000D02*
X19300000Y-6400000D01*
X18400000Y-6400000D02*
X18450000Y-6400000D01*
X16300000Y-8500000D02*
X18400000Y-6400000D01*
X16300000Y-9500000D02*
X16300000Y-8500000D01*
X28500000Y-6400000D02*
X29300000Y-6400000D01*
X26400000Y-8500000D02*
X28500000Y-6400000D01*
X26400000Y-9500000D02*
X26400000Y-8500000D01*
X38450000Y-6400000D02*
X39300000Y-6400000D01*
X36300000Y-8500000D02*
X38400000Y-6400000D01*
X38400000Y-6400000D02*
X38450000Y-6400000D01*
X36300000Y-9500000D02*
X36300000Y-8500000D01*
X13850000Y-33600000D02*
X13000000Y-33600000D01*
X13900000Y-33600000D02*
X13850000Y-33600000D01*
X16000000Y-31500000D02*
X13900000Y-33600000D01*
X16000000Y-30500000D02*
X16000000Y-31500000D01*
X23900000Y-33600000D02*
X23850000Y-33600000D01*
X23850000Y-33600000D02*
X23000000Y-33600000D01*
X26000000Y-31500000D02*
X23900000Y-33600000D01*
X26000000Y-30500000D02*
X26000000Y-31500000D01*
X33850000Y-33600000D02*
X33000000Y-33600000D01*
X33900000Y-33600000D02*
X33850000Y-33600000D01*
X36000000Y-31500000D02*
X33900000Y-33600000D01*
X36000000Y-30500000D02*
X36000000Y-31500000D01*
X43850000Y-33600000D02*
X43000000Y-33600000D01*
X43900000Y-33600000D02*
X43850000Y-33600000D01*
X46000000Y-31500000D02*
X43900000Y-33600000D01*
X46000000Y-30500000D02*
X46000000Y-31500000D01*
X17450000Y-13015000D02*
X17450000Y-17450000D01*
X17450000Y-17450000D02*
X17000000Y-17900000D01*
X18720000Y-13015000D02*
X18720000Y-18280000D01*
X18720000Y-18280000D02*
X17000000Y-20000000D01*
X14910000Y-26985000D02*
X14910000Y-16810000D01*
X14910000Y-16810000D02*
X7600000Y-9500000D01*
X16180000Y-26985000D02*
X16180000Y-14236002D01*
X16180000Y-14236002D02*
X15354999Y-13411001D01*
X15354999Y-13411001D02*
X15354999Y-12492593D01*
X17600000Y-10247592D02*
X17600000Y-9500000D01*
X15354999Y-12492593D02*
X17600000Y-10247592D01*
X15000000Y-11500000D02*
X15000000Y-9500000D01*
X14400000Y-12100000D02*
X15000000Y-11500000D01*
X17450000Y-26985000D02*
X27700000Y-16735000D01*
X27700000Y-16735000D02*
X27700000Y-9500000D01*
X23800000Y-13015000D02*
X23800000Y-10800000D01*
X23800000Y-10800000D02*
X25100000Y-9500000D01*
X20940001Y-26159999D02*
X37600000Y-9500000D01*
X19545001Y-26159999D02*
X20940001Y-26159999D01*
X18720000Y-26985000D02*
X19545001Y-26159999D01*
X32000000Y-13000000D02*
X35000000Y-10000000D01*
X35000000Y-10000000D02*
X35000000Y-9500000D01*
X19990000Y-26985000D02*
X17300000Y-29675000D01*
X17300000Y-29675000D02*
X17300000Y-30500000D01*
X13500000Y-26900000D02*
X14700000Y-28100000D01*
X14700000Y-28100000D02*
X14700000Y-30500000D01*
X21308998Y-26985000D02*
X23223998Y-28900000D01*
X26447592Y-28900000D02*
X27300000Y-29752408D01*
X27300000Y-29752408D02*
X27300000Y-30500000D01*
X21260000Y-26985000D02*
X21308998Y-26985000D01*
X23223998Y-28900000D02*
X26447592Y-28900000D01*
X20605939Y-27896386D02*
X21583974Y-27896386D01*
X21583974Y-27896386D02*
X24187588Y-30500000D01*
X24187588Y-30500000D02*
X24700000Y-30500000D01*
X23895011Y-28350011D02*
X31076987Y-28350011D01*
X31076987Y-28350011D02*
X32351999Y-27074999D01*
X22530000Y-26985000D02*
X23895011Y-28350011D01*
X34622591Y-27074999D02*
X37300000Y-29752408D01*
X37300000Y-29752408D02*
X37300000Y-30500000D01*
X32351999Y-27074999D02*
X34622591Y-27074999D01*
X32700000Y-27800000D02*
X34700000Y-29800000D01*
X34700000Y-29800000D02*
X34700000Y-30500000D01*
X32190587Y-26600000D02*
X42500000Y-26600000D01*
X42500000Y-26600000D02*
X43710001Y-27810001D01*
X47300000Y-29752408D02*
X47300000Y-30500000D01*
X45357593Y-27810001D02*
X47300000Y-29752408D01*
X30890587Y-27900000D02*
X32190587Y-26600000D01*
X24715000Y-27900000D02*
X30890587Y-27900000D01*
X23800000Y-26985000D02*
X24715000Y-27900000D01*
X43710001Y-27810001D02*
X45357593Y-27810001D01*
X43100000Y-30500000D02*
X40000000Y-27400000D01*
X44700000Y-30500000D02*
X43100000Y-30500000D01*
D23*
G36*
X67453893Y-707670D02*
G01*
X67890498Y-839489D01*
X68293185Y-1053600D01*
X68646612Y-1341848D01*
X68937327Y-1693261D01*
X69154242Y-2094439D01*
X69289106Y-2530113D01*
X69340000Y-3014344D01*
X69340001Y-36967711D01*
X69292330Y-37453894D01*
X69160512Y-37890497D01*
X68946399Y-38293186D01*
X68658150Y-38646613D01*
X68306739Y-38937327D01*
X67905564Y-39154240D01*
X67469886Y-39289106D01*
X66985664Y-39340000D01*
X3032279Y-39340000D01*
X2546106Y-39292330D01*
X2109503Y-39160512D01*
X1706814Y-38946399D01*
X1353387Y-38658150D01*
X1062673Y-38306739D01*
X845760Y-37905564D01*
X710894Y-37469886D01*
X660000Y-36985664D01*
X660000Y-36779872D01*
X765000Y-36779872D01*
X765000Y-37220128D01*
X850890Y-37651925D01*
X1019369Y-38058669D01*
X1263962Y-38424729D01*
X1575271Y-38736038D01*
X1941331Y-38980631D01*
X2348075Y-39149110D01*
X2779872Y-39235000D01*
X3220128Y-39235000D01*
X3651925Y-39149110D01*
X4058669Y-38980631D01*
X4424729Y-38736038D01*
X4736038Y-38424729D01*
X4980631Y-38058669D01*
X5149110Y-37651925D01*
X5235000Y-37220128D01*
X5235000Y-36779872D01*
X5186374Y-36535413D01*
X57316336Y-36535413D01*
X57412100Y-36799814D01*
X57701715Y-36940704D01*
X58013252Y-37022384D01*
X58334739Y-37041718D01*
X58653819Y-36997961D01*
X58958232Y-36892795D01*
X59132188Y-36799814D01*
X59139410Y-36779872D01*
X64765000Y-36779872D01*
X64765000Y-37220128D01*
X64850890Y-37651925D01*
X65019369Y-38058669D01*
X65263962Y-38424729D01*
X65575271Y-38736038D01*
X65941331Y-38980631D01*
X66348075Y-39149110D01*
X66779872Y-39235000D01*
X67220128Y-39235000D01*
X67651925Y-39149110D01*
X68058669Y-38980631D01*
X68424729Y-38736038D01*
X68736038Y-38424729D01*
X68980631Y-38058669D01*
X69149110Y-37651925D01*
X69235000Y-37220128D01*
X69235000Y-36779872D01*
X69149110Y-36348075D01*
X68980631Y-35941331D01*
X68736038Y-35575271D01*
X68424729Y-35263962D01*
X68058669Y-35019369D01*
X67651925Y-34850890D01*
X67220128Y-34765000D01*
X66779872Y-34765000D01*
X66348075Y-34850890D01*
X65941331Y-35019369D01*
X65575271Y-35263962D01*
X65263962Y-35575271D01*
X65019369Y-35941331D01*
X64850890Y-36348075D01*
X64765000Y-36779872D01*
X59139410Y-36779872D01*
X59227952Y-36535413D01*
X58272144Y-35579605D01*
X57316336Y-36535413D01*
X5186374Y-36535413D01*
X5149110Y-36348075D01*
X4980631Y-35941331D01*
X4736038Y-35575271D01*
X4623362Y-35462595D01*
X56630426Y-35462595D01*
X56674183Y-35781675D01*
X56779349Y-36086088D01*
X56872330Y-36260044D01*
X57136731Y-36355808D01*
X58092539Y-35400000D01*
X58451749Y-35400000D01*
X59407557Y-36355808D01*
X59671958Y-36260044D01*
X59812848Y-35970429D01*
X59894528Y-35658892D01*
X59913862Y-35337405D01*
X59870105Y-35018325D01*
X59764939Y-34713912D01*
X59671958Y-34539956D01*
X59407557Y-34444192D01*
X58451749Y-35400000D01*
X58092539Y-35400000D01*
X58078397Y-35385858D01*
X58258002Y-35206253D01*
X58272144Y-35220395D01*
X59227952Y-34264587D01*
X59132188Y-34000186D01*
X59127369Y-33997841D01*
X59140704Y-33970429D01*
X59222384Y-33658892D01*
X59241718Y-33337405D01*
X59197961Y-33018325D01*
X59092795Y-32713912D01*
X58999814Y-32539956D01*
X58735413Y-32444192D01*
X57779605Y-33400000D01*
X57793748Y-33414143D01*
X57614143Y-33593748D01*
X57600000Y-33579605D01*
X56644192Y-34535413D01*
X56739956Y-34799814D01*
X56744775Y-34802159D01*
X56731440Y-34829571D01*
X56649760Y-35141108D01*
X56630426Y-35462595D01*
X4623362Y-35462595D01*
X4424729Y-35263962D01*
X4058669Y-35019369D01*
X3651925Y-34850890D01*
X3220128Y-34765000D01*
X2779872Y-34765000D01*
X2348075Y-34850890D01*
X1941331Y-35019369D01*
X1575271Y-35263962D01*
X1263962Y-35575271D01*
X1019369Y-35941331D01*
X850890Y-36348075D01*
X765000Y-36779872D01*
X660000Y-36779872D01*
X660000Y-34475000D01*
X7761928Y-34475000D01*
X7774188Y-34599482D01*
X7810498Y-34719180D01*
X7869463Y-34829494D01*
X7948815Y-34926185D01*
X8045506Y-35005537D01*
X8155820Y-35064502D01*
X8275518Y-35100812D01*
X8400000Y-35113072D01*
X8714250Y-35110000D01*
X8873000Y-34951250D01*
X8873000Y-33727000D01*
X7923750Y-33727000D01*
X7765000Y-33885750D01*
X7761928Y-34475000D01*
X660000Y-34475000D01*
X660000Y-32725000D01*
X7761928Y-32725000D01*
X7765000Y-33314250D01*
X7923750Y-33473000D01*
X8873000Y-33473000D01*
X8873000Y-32248750D01*
X8714250Y-32090000D01*
X8400000Y-32086928D01*
X8275518Y-32099188D01*
X8155820Y-32135498D01*
X8045506Y-32194463D01*
X7948815Y-32273815D01*
X7869463Y-32370506D01*
X7810498Y-32480820D01*
X7774188Y-32600518D01*
X7761928Y-32725000D01*
X660000Y-32725000D01*
X660000Y-19000000D01*
X4984025Y-19000000D01*
X5007870Y-19242102D01*
X5078489Y-19474901D01*
X5193167Y-19689449D01*
X5347498Y-19877502D01*
X5496762Y-20000000D01*
X5347498Y-20122498D01*
X5193167Y-20310551D01*
X5078489Y-20525099D01*
X5007870Y-20757898D01*
X4984025Y-21000000D01*
X5007870Y-21242102D01*
X5078489Y-21474901D01*
X5193167Y-21689449D01*
X5347498Y-21877502D01*
X5496762Y-22000000D01*
X5347498Y-22122498D01*
X5193167Y-22310551D01*
X5078489Y-22525099D01*
X5007870Y-22757898D01*
X4984025Y-23000000D01*
X5007870Y-23242102D01*
X5078489Y-23474901D01*
X5193167Y-23689449D01*
X5347498Y-23877502D01*
X5535551Y-24031833D01*
X5750099Y-24146511D01*
X5982898Y-24217130D01*
X6164335Y-24235000D01*
X6835665Y-24235000D01*
X7017102Y-24217130D01*
X7249901Y-24146511D01*
X7464449Y-24031833D01*
X7652502Y-23877502D01*
X7806833Y-23689449D01*
X7921511Y-23474901D01*
X7992130Y-23242102D01*
X8015975Y-23000000D01*
X7992130Y-22757898D01*
X7921511Y-22525099D01*
X7806833Y-22310551D01*
X7652502Y-22122498D01*
X7503238Y-22000000D01*
X7652502Y-21877502D01*
X7806833Y-21689449D01*
X7921511Y-21474901D01*
X7992130Y-21242102D01*
X8015975Y-21000000D01*
X7992130Y-20757898D01*
X7921511Y-20525099D01*
X7806833Y-20310551D01*
X7652502Y-20122498D01*
X7503238Y-20000000D01*
X7652502Y-19877502D01*
X7806833Y-19689449D01*
X7921511Y-19474901D01*
X7992130Y-19242102D01*
X8015975Y-19000000D01*
X7992130Y-18757898D01*
X7921511Y-18525099D01*
X7806833Y-18310551D01*
X7680564Y-18156691D01*
X7729494Y-18130537D01*
X7826185Y-18051185D01*
X7905537Y-17954494D01*
X7964502Y-17844180D01*
X8000812Y-17724482D01*
X8013072Y-17600000D01*
X8010000Y-17285750D01*
X7851250Y-17127000D01*
X6627000Y-17127000D01*
X6627000Y-17147000D01*
X6373000Y-17147000D01*
X6373000Y-17127000D01*
X5148750Y-17127000D01*
X4990000Y-17285750D01*
X4986928Y-17600000D01*
X4999188Y-17724482D01*
X5035498Y-17844180D01*
X5094463Y-17954494D01*
X5173815Y-18051185D01*
X5270506Y-18130537D01*
X5319436Y-18156691D01*
X5193167Y-18310551D01*
X5078489Y-18525099D01*
X5007870Y-18757898D01*
X4984025Y-19000000D01*
X660000Y-19000000D01*
X660000Y-16400000D01*
X4986928Y-16400000D01*
X4990000Y-16714250D01*
X5148750Y-16873000D01*
X6373000Y-16873000D01*
X6373000Y-15923750D01*
X6627000Y-15923750D01*
X6627000Y-16873000D01*
X7851250Y-16873000D01*
X8010000Y-16714250D01*
X8013072Y-16400000D01*
X8000812Y-16275518D01*
X7964502Y-16155820D01*
X7905537Y-16045506D01*
X7826185Y-15948815D01*
X7729494Y-15869463D01*
X7619180Y-15810498D01*
X7499482Y-15774188D01*
X7375000Y-15761928D01*
X6785750Y-15765000D01*
X6627000Y-15923750D01*
X6373000Y-15923750D01*
X6214250Y-15765000D01*
X5625000Y-15761928D01*
X5500518Y-15774188D01*
X5380820Y-15810498D01*
X5270506Y-15869463D01*
X5173815Y-15948815D01*
X5094463Y-16045506D01*
X5035498Y-16155820D01*
X4999188Y-16275518D01*
X4986928Y-16400000D01*
X660000Y-16400000D01*
X660000Y-9398061D01*
X5265000Y-9398061D01*
X5265000Y-9601939D01*
X5304774Y-9801898D01*
X5382795Y-9990256D01*
X5496063Y-10159774D01*
X5640226Y-10303937D01*
X5809744Y-10417205D01*
X5998102Y-10495226D01*
X6198061Y-10535000D01*
X6401939Y-10535000D01*
X6601898Y-10495226D01*
X6790256Y-10417205D01*
X6950000Y-10310468D01*
X7109744Y-10417205D01*
X7298102Y-10495226D01*
X7498061Y-10535000D01*
X7560199Y-10535000D01*
X14150001Y-17124803D01*
X14150000Y-26089532D01*
X13990256Y-25982795D01*
X13801898Y-25904774D01*
X13601939Y-25865000D01*
X13398061Y-25865000D01*
X13198102Y-25904774D01*
X13009744Y-25982795D01*
X12840226Y-26096063D01*
X12696063Y-26240226D01*
X12582795Y-26409744D01*
X12504774Y-26598102D01*
X12465000Y-26798061D01*
X12465000Y-27001939D01*
X12504774Y-27201898D01*
X12582795Y-27390256D01*
X12696063Y-27559774D01*
X12840226Y-27703937D01*
X13009744Y-27817205D01*
X13198102Y-27895226D01*
X13398061Y-27935000D01*
X13460199Y-27935000D01*
X13940000Y-28414802D01*
X13940001Y-29796288D01*
X13896063Y-29840226D01*
X13782795Y-30009744D01*
X13704774Y-30198102D01*
X13665000Y-30398061D01*
X13665000Y-30601939D01*
X13704774Y-30801898D01*
X13782795Y-30990256D01*
X13896063Y-31159774D01*
X14040226Y-31303937D01*
X14209744Y-31417205D01*
X14398102Y-31495226D01*
X14598061Y-31535000D01*
X14801939Y-31535000D01*
X14912112Y-31513085D01*
X13922667Y-32502532D01*
X13877502Y-32447498D01*
X13689448Y-32293167D01*
X13474900Y-32178489D01*
X13242101Y-32107870D01*
X13000000Y-32084025D01*
X12757898Y-32107870D01*
X12525099Y-32178489D01*
X12310551Y-32293167D01*
X12135000Y-32437238D01*
X12135000Y-30388212D01*
X12124068Y-30333253D01*
X12118577Y-30277501D01*
X12102315Y-30223894D01*
X12091383Y-30168933D01*
X12069937Y-30117158D01*
X12053676Y-30063553D01*
X12027269Y-30014149D01*
X12005824Y-29962376D01*
X11974693Y-29915786D01*
X11948284Y-29866377D01*
X11912741Y-29823068D01*
X11881612Y-29776480D01*
X11841991Y-29736859D01*
X11806449Y-29693551D01*
X11763141Y-29658009D01*
X11723520Y-29618388D01*
X11676932Y-29587259D01*
X11633623Y-29551716D01*
X11584214Y-29525307D01*
X11537624Y-29494176D01*
X11485851Y-29472731D01*
X11436447Y-29446324D01*
X11382842Y-29430063D01*
X11331067Y-29408617D01*
X11276106Y-29397685D01*
X11222499Y-29381423D01*
X11166747Y-29375932D01*
X11111788Y-29365000D01*
X11055752Y-29365000D01*
X11000000Y-29359509D01*
X10944249Y-29365000D01*
X10888212Y-29365000D01*
X10833252Y-29375932D01*
X10777502Y-29381423D01*
X10723897Y-29397684D01*
X10668933Y-29408617D01*
X10617155Y-29430064D01*
X10563554Y-29446324D01*
X10514153Y-29472729D01*
X10462376Y-29494176D01*
X10415782Y-29525309D01*
X10366378Y-29551716D01*
X10323074Y-29587255D01*
X10276480Y-29618388D01*
X10236855Y-29658013D01*
X10193552Y-29693551D01*
X10158014Y-29736854D01*
X10118388Y-29776480D01*
X10087254Y-29823075D01*
X10051717Y-29866377D01*
X10025312Y-29915778D01*
X9994176Y-29962376D01*
X9972728Y-30014157D01*
X9946325Y-30063553D01*
X9930067Y-30117149D01*
X9908617Y-30168933D01*
X9897683Y-30223904D01*
X9881424Y-30277501D01*
X9875934Y-30333243D01*
X9865000Y-30388212D01*
X9865000Y-30611788D01*
X9865001Y-30611793D01*
X9865000Y-32146627D01*
X9844180Y-32135498D01*
X9724482Y-32099188D01*
X9600000Y-32086928D01*
X9285750Y-32090000D01*
X9127000Y-32248750D01*
X9127000Y-33473000D01*
X9147000Y-33473000D01*
X9147000Y-33727000D01*
X9127000Y-33727000D01*
X9127000Y-34951250D01*
X9285750Y-35110000D01*
X9600000Y-35113072D01*
X9724482Y-35100812D01*
X9844180Y-35064502D01*
X9954494Y-35005537D01*
X10051185Y-34926185D01*
X10130537Y-34829494D01*
X10156692Y-34780563D01*
X10310552Y-34906833D01*
X10525100Y-35021511D01*
X10757899Y-35092130D01*
X11000000Y-35115975D01*
X11242102Y-35092130D01*
X11474901Y-35021511D01*
X11689449Y-34906833D01*
X11877502Y-34752502D01*
X12000001Y-34603237D01*
X12122499Y-34752502D01*
X12310552Y-34906833D01*
X12525100Y-35021511D01*
X12757899Y-35092130D01*
X13000000Y-35115975D01*
X13242102Y-35092130D01*
X13474901Y-35021511D01*
X13689449Y-34906833D01*
X13877502Y-34752502D01*
X14031833Y-34564449D01*
X14079644Y-34475000D01*
X17761928Y-34475000D01*
X17774188Y-34599482D01*
X17810498Y-34719180D01*
X17869463Y-34829494D01*
X17948815Y-34926185D01*
X18045506Y-35005537D01*
X18155820Y-35064502D01*
X18275518Y-35100812D01*
X18400000Y-35113072D01*
X18714250Y-35110000D01*
X18873000Y-34951250D01*
X18873000Y-33727000D01*
X17923750Y-33727000D01*
X17765000Y-33885750D01*
X17761928Y-34475000D01*
X14079644Y-34475000D01*
X14146511Y-34349900D01*
X14156694Y-34316331D01*
X14192247Y-34305546D01*
X14324276Y-34234974D01*
X14440001Y-34140001D01*
X14463804Y-34110998D01*
X15849802Y-32725000D01*
X17761928Y-32725000D01*
X17765000Y-33314250D01*
X17923750Y-33473000D01*
X18873000Y-33473000D01*
X18873000Y-32248750D01*
X18714250Y-32090000D01*
X18400000Y-32086928D01*
X18275518Y-32099188D01*
X18155820Y-32135498D01*
X18045506Y-32194463D01*
X17948815Y-32273815D01*
X17869463Y-32370506D01*
X17810498Y-32480820D01*
X17774188Y-32600518D01*
X17761928Y-32725000D01*
X15849802Y-32725000D01*
X16511008Y-32063795D01*
X16540001Y-32040001D01*
X16563795Y-32011008D01*
X16563799Y-32011004D01*
X16634973Y-31924277D01*
X16634974Y-31924276D01*
X16705546Y-31792247D01*
X16749003Y-31648986D01*
X16760000Y-31537333D01*
X16760000Y-31537324D01*
X16763676Y-31500001D01*
X16760000Y-31462678D01*
X16760000Y-31383967D01*
X16809744Y-31417205D01*
X16998102Y-31495226D01*
X17198061Y-31535000D01*
X17401939Y-31535000D01*
X17601898Y-31495226D01*
X17790256Y-31417205D01*
X17959774Y-31303937D01*
X18103937Y-31159774D01*
X18217205Y-30990256D01*
X18295226Y-30801898D01*
X18335000Y-30601939D01*
X18335000Y-30398061D01*
X18295226Y-30198102D01*
X18217205Y-30009744D01*
X18146250Y-29903552D01*
X19681244Y-28368559D01*
X19688734Y-28386642D01*
X19802002Y-28556160D01*
X19946165Y-28700323D01*
X20115683Y-28813591D01*
X20304041Y-28891612D01*
X20504000Y-28931386D01*
X20707878Y-28931386D01*
X20907837Y-28891612D01*
X21096195Y-28813591D01*
X21265713Y-28700323D01*
X21289411Y-28676625D01*
X23623789Y-31011003D01*
X23647587Y-31040001D01*
X23763312Y-31134974D01*
X23895341Y-31205546D01*
X23962080Y-31225791D01*
X24040226Y-31303937D01*
X24209744Y-31417205D01*
X24398102Y-31495226D01*
X24598061Y-31535000D01*
X24801939Y-31535000D01*
X24912112Y-31513085D01*
X23922667Y-32502532D01*
X23877502Y-32447498D01*
X23689448Y-32293167D01*
X23474900Y-32178489D01*
X23242101Y-32107870D01*
X23000000Y-32084025D01*
X22757898Y-32107870D01*
X22525099Y-32178489D01*
X22310551Y-32293167D01*
X22135000Y-32437238D01*
X22135000Y-30388212D01*
X22124068Y-30333253D01*
X22118577Y-30277501D01*
X22102315Y-30223894D01*
X22091383Y-30168933D01*
X22069937Y-30117158D01*
X22053676Y-30063553D01*
X22027269Y-30014149D01*
X22005824Y-29962376D01*
X21974693Y-29915786D01*
X21948284Y-29866377D01*
X21912741Y-29823068D01*
X21881612Y-29776480D01*
X21841991Y-29736859D01*
X21806449Y-29693551D01*
X21763141Y-29658009D01*
X21723520Y-29618388D01*
X21676932Y-29587259D01*
X21633623Y-29551716D01*
X21584214Y-29525307D01*
X21537624Y-29494176D01*
X21485851Y-29472731D01*
X21436447Y-29446324D01*
X21382842Y-29430063D01*
X21331067Y-29408617D01*
X21276106Y-29397685D01*
X21222499Y-29381423D01*
X21166747Y-29375932D01*
X21111788Y-29365000D01*
X21055752Y-29365000D01*
X21000000Y-29359509D01*
X20944249Y-29365000D01*
X20888212Y-29365000D01*
X20833252Y-29375932D01*
X20777502Y-29381423D01*
X20723897Y-29397684D01*
X20668933Y-29408617D01*
X20617155Y-29430064D01*
X20563554Y-29446324D01*
X20514153Y-29472729D01*
X20462376Y-29494176D01*
X20415782Y-29525309D01*
X20366378Y-29551716D01*
X20323074Y-29587255D01*
X20276480Y-29618388D01*
X20236855Y-29658013D01*
X20193552Y-29693551D01*
X20158014Y-29736854D01*
X20118388Y-29776480D01*
X20087254Y-29823075D01*
X20051717Y-29866377D01*
X20025312Y-29915778D01*
X19994176Y-29962376D01*
X19972728Y-30014157D01*
X19946325Y-30063553D01*
X19930067Y-30117149D01*
X19908617Y-30168933D01*
X19897683Y-30223904D01*
X19881424Y-30277501D01*
X19875934Y-30333243D01*
X19865000Y-30388212D01*
X19865000Y-30611788D01*
X19865001Y-30611793D01*
X19865000Y-32146627D01*
X19844180Y-32135498D01*
X19724482Y-32099188D01*
X19600000Y-32086928D01*
X19285750Y-32090000D01*
X19127000Y-32248750D01*
X19127000Y-33473000D01*
X19147000Y-33473000D01*
X19147000Y-33727000D01*
X19127000Y-33727000D01*
X19127000Y-34951250D01*
X19285750Y-35110000D01*
X19600000Y-35113072D01*
X19724482Y-35100812D01*
X19844180Y-35064502D01*
X19954494Y-35005537D01*
X20051185Y-34926185D01*
X20130537Y-34829494D01*
X20156692Y-34780563D01*
X20310552Y-34906833D01*
X20525100Y-35021511D01*
X20757899Y-35092130D01*
X21000000Y-35115975D01*
X21242102Y-35092130D01*
X21474901Y-35021511D01*
X21689449Y-34906833D01*
X21877502Y-34752502D01*
X22000001Y-34603237D01*
X22122499Y-34752502D01*
X22310552Y-34906833D01*
X22525100Y-35021511D01*
X22757899Y-35092130D01*
X23000000Y-35115975D01*
X23242102Y-35092130D01*
X23474901Y-35021511D01*
X23689449Y-34906833D01*
X23877502Y-34752502D01*
X24031833Y-34564449D01*
X24079644Y-34475000D01*
X27761928Y-34475000D01*
X27774188Y-34599482D01*
X27810498Y-34719180D01*
X27869463Y-34829494D01*
X27948815Y-34926185D01*
X28045506Y-35005537D01*
X28155820Y-35064502D01*
X28275518Y-35100812D01*
X28400000Y-35113072D01*
X28714250Y-35110000D01*
X28873000Y-34951250D01*
X28873000Y-33727000D01*
X27923750Y-33727000D01*
X27765000Y-33885750D01*
X27761928Y-34475000D01*
X24079644Y-34475000D01*
X24146511Y-34349900D01*
X24156694Y-34316331D01*
X24192247Y-34305546D01*
X24324276Y-34234974D01*
X24440001Y-34140001D01*
X24463804Y-34110998D01*
X25849802Y-32725000D01*
X27761928Y-32725000D01*
X27765000Y-33314250D01*
X27923750Y-33473000D01*
X28873000Y-33473000D01*
X28873000Y-32248750D01*
X28714250Y-32090000D01*
X28400000Y-32086928D01*
X28275518Y-32099188D01*
X28155820Y-32135498D01*
X28045506Y-32194463D01*
X27948815Y-32273815D01*
X27869463Y-32370506D01*
X27810498Y-32480820D01*
X27774188Y-32600518D01*
X27761928Y-32725000D01*
X25849802Y-32725000D01*
X26511008Y-32063795D01*
X26540001Y-32040001D01*
X26563795Y-32011008D01*
X26563799Y-32011004D01*
X26634973Y-31924277D01*
X26634974Y-31924276D01*
X26705546Y-31792247D01*
X26749003Y-31648986D01*
X26760000Y-31537333D01*
X26760000Y-31537324D01*
X26763676Y-31500001D01*
X26760000Y-31462678D01*
X26760000Y-31383967D01*
X26809744Y-31417205D01*
X26998102Y-31495226D01*
X27198061Y-31535000D01*
X27401939Y-31535000D01*
X27601898Y-31495226D01*
X27790256Y-31417205D01*
X27959774Y-31303937D01*
X28103937Y-31159774D01*
X28217205Y-30990256D01*
X28295226Y-30801898D01*
X28335000Y-30601939D01*
X28335000Y-30398061D01*
X28295226Y-30198102D01*
X28217205Y-30009744D01*
X28103937Y-29840226D01*
X28060000Y-29796289D01*
X28060000Y-29789731D01*
X28063676Y-29752408D01*
X28060000Y-29715085D01*
X28060000Y-29715075D01*
X28049003Y-29603422D01*
X28005546Y-29460161D01*
X27977995Y-29408617D01*
X27934974Y-29328131D01*
X27863799Y-29241405D01*
X27840001Y-29212407D01*
X27811004Y-29188610D01*
X27732405Y-29110011D01*
X31039665Y-29110011D01*
X31076987Y-29113687D01*
X31114309Y-29110011D01*
X31114320Y-29110011D01*
X31225973Y-29099014D01*
X31369234Y-29055557D01*
X31501263Y-28984985D01*
X31616988Y-28890012D01*
X31640791Y-28861008D01*
X31969044Y-28532755D01*
X32040226Y-28603937D01*
X32209744Y-28717205D01*
X32398102Y-28795226D01*
X32598061Y-28835000D01*
X32660199Y-28835000D01*
X33803682Y-29978484D01*
X33782795Y-30009744D01*
X33704774Y-30198102D01*
X33665000Y-30398061D01*
X33665000Y-30601939D01*
X33704774Y-30801898D01*
X33782795Y-30990256D01*
X33896063Y-31159774D01*
X34040226Y-31303937D01*
X34209744Y-31417205D01*
X34398102Y-31495226D01*
X34598061Y-31535000D01*
X34801939Y-31535000D01*
X34912112Y-31513085D01*
X33922667Y-32502532D01*
X33877502Y-32447498D01*
X33689448Y-32293167D01*
X33474900Y-32178489D01*
X33242101Y-32107870D01*
X33000000Y-32084025D01*
X32757898Y-32107870D01*
X32525099Y-32178489D01*
X32310551Y-32293167D01*
X32135000Y-32437238D01*
X32135000Y-30388212D01*
X32124068Y-30333253D01*
X32118577Y-30277501D01*
X32102315Y-30223894D01*
X32091383Y-30168933D01*
X32069937Y-30117158D01*
X32053676Y-30063553D01*
X32027269Y-30014149D01*
X32005824Y-29962376D01*
X31974693Y-29915786D01*
X31948284Y-29866377D01*
X31912741Y-29823068D01*
X31881612Y-29776480D01*
X31841991Y-29736859D01*
X31806449Y-29693551D01*
X31763141Y-29658009D01*
X31723520Y-29618388D01*
X31676932Y-29587259D01*
X31633623Y-29551716D01*
X31584214Y-29525307D01*
X31537624Y-29494176D01*
X31485851Y-29472731D01*
X31436447Y-29446324D01*
X31382842Y-29430063D01*
X31331067Y-29408617D01*
X31276106Y-29397685D01*
X31222499Y-29381423D01*
X31166747Y-29375932D01*
X31111788Y-29365000D01*
X31055752Y-29365000D01*
X31000000Y-29359509D01*
X30944249Y-29365000D01*
X30888212Y-29365000D01*
X30833252Y-29375932D01*
X30777502Y-29381423D01*
X30723897Y-29397684D01*
X30668933Y-29408617D01*
X30617155Y-29430064D01*
X30563554Y-29446324D01*
X30514153Y-29472729D01*
X30462376Y-29494176D01*
X30415782Y-29525309D01*
X30366378Y-29551716D01*
X30323074Y-29587255D01*
X30276480Y-29618388D01*
X30236855Y-29658013D01*
X30193552Y-29693551D01*
X30158014Y-29736854D01*
X30118388Y-29776480D01*
X30087254Y-29823075D01*
X30051717Y-29866377D01*
X30025312Y-29915778D01*
X29994176Y-29962376D01*
X29972728Y-30014157D01*
X29946325Y-30063553D01*
X29930067Y-30117149D01*
X29908617Y-30168933D01*
X29897683Y-30223904D01*
X29881424Y-30277501D01*
X29875934Y-30333243D01*
X29865000Y-30388212D01*
X29865000Y-30611788D01*
X29865001Y-30611793D01*
X29865000Y-32146627D01*
X29844180Y-32135498D01*
X29724482Y-32099188D01*
X29600000Y-32086928D01*
X29285750Y-32090000D01*
X29127000Y-32248750D01*
X29127000Y-33473000D01*
X29147000Y-33473000D01*
X29147000Y-33727000D01*
X29127000Y-33727000D01*
X29127000Y-34951250D01*
X29285750Y-35110000D01*
X29600000Y-35113072D01*
X29724482Y-35100812D01*
X29844180Y-35064502D01*
X29954494Y-35005537D01*
X30051185Y-34926185D01*
X30130537Y-34829494D01*
X30156692Y-34780563D01*
X30310552Y-34906833D01*
X30525100Y-35021511D01*
X30757899Y-35092130D01*
X31000000Y-35115975D01*
X31242102Y-35092130D01*
X31474901Y-35021511D01*
X31689449Y-34906833D01*
X31877502Y-34752502D01*
X32000001Y-34603237D01*
X32122499Y-34752502D01*
X32310552Y-34906833D01*
X32525100Y-35021511D01*
X32757899Y-35092130D01*
X33000000Y-35115975D01*
X33242102Y-35092130D01*
X33474901Y-35021511D01*
X33689449Y-34906833D01*
X33877502Y-34752502D01*
X34031833Y-34564449D01*
X34079644Y-34475000D01*
X37761928Y-34475000D01*
X37774188Y-34599482D01*
X37810498Y-34719180D01*
X37869463Y-34829494D01*
X37948815Y-34926185D01*
X38045506Y-35005537D01*
X38155820Y-35064502D01*
X38275518Y-35100812D01*
X38400000Y-35113072D01*
X38714250Y-35110000D01*
X38873000Y-34951250D01*
X38873000Y-33727000D01*
X37923750Y-33727000D01*
X37765000Y-33885750D01*
X37761928Y-34475000D01*
X34079644Y-34475000D01*
X34146511Y-34349900D01*
X34156694Y-34316331D01*
X34192247Y-34305546D01*
X34324276Y-34234974D01*
X34440001Y-34140001D01*
X34463804Y-34110998D01*
X35849802Y-32725000D01*
X37761928Y-32725000D01*
X37765000Y-33314250D01*
X37923750Y-33473000D01*
X38873000Y-33473000D01*
X38873000Y-32248750D01*
X38714250Y-32090000D01*
X38400000Y-32086928D01*
X38275518Y-32099188D01*
X38155820Y-32135498D01*
X38045506Y-32194463D01*
X37948815Y-32273815D01*
X37869463Y-32370506D01*
X37810498Y-32480820D01*
X37774188Y-32600518D01*
X37761928Y-32725000D01*
X35849802Y-32725000D01*
X36511008Y-32063795D01*
X36540001Y-32040001D01*
X36563795Y-32011008D01*
X36563799Y-32011004D01*
X36634973Y-31924277D01*
X36634974Y-31924276D01*
X36705546Y-31792247D01*
X36749003Y-31648986D01*
X36760000Y-31537333D01*
X36760000Y-31537324D01*
X36763676Y-31500001D01*
X36760000Y-31462678D01*
X36760000Y-31383967D01*
X36809744Y-31417205D01*
X36998102Y-31495226D01*
X37198061Y-31535000D01*
X37401939Y-31535000D01*
X37601898Y-31495226D01*
X37790256Y-31417205D01*
X37959774Y-31303937D01*
X38103937Y-31159774D01*
X38217205Y-30990256D01*
X38295226Y-30801898D01*
X38335000Y-30601939D01*
X38335000Y-30398061D01*
X38295226Y-30198102D01*
X38217205Y-30009744D01*
X38103937Y-29840226D01*
X38060000Y-29796289D01*
X38060000Y-29789730D01*
X38063676Y-29752407D01*
X38060000Y-29715084D01*
X38060000Y-29715075D01*
X38049003Y-29603422D01*
X38005546Y-29460161D01*
X37977995Y-29408617D01*
X37934974Y-29328131D01*
X37863799Y-29241405D01*
X37840001Y-29212407D01*
X37811004Y-29188610D01*
X35982393Y-27360000D01*
X38965000Y-27360000D01*
X38965000Y-27501939D01*
X39004774Y-27701898D01*
X39082795Y-27890256D01*
X39196063Y-28059774D01*
X39340226Y-28203937D01*
X39509744Y-28317205D01*
X39698102Y-28395226D01*
X39898061Y-28435000D01*
X39960199Y-28435000D01*
X40890199Y-29365000D01*
X40888212Y-29365000D01*
X40833252Y-29375932D01*
X40777502Y-29381423D01*
X40723897Y-29397684D01*
X40668933Y-29408617D01*
X40617155Y-29430064D01*
X40563554Y-29446324D01*
X40514153Y-29472729D01*
X40462376Y-29494176D01*
X40415782Y-29525309D01*
X40366378Y-29551716D01*
X40323074Y-29587255D01*
X40276480Y-29618388D01*
X40236855Y-29658013D01*
X40193552Y-29693551D01*
X40158014Y-29736854D01*
X40118388Y-29776480D01*
X40087254Y-29823075D01*
X40051717Y-29866377D01*
X40025312Y-29915778D01*
X39994176Y-29962376D01*
X39972728Y-30014157D01*
X39946325Y-30063553D01*
X39930067Y-30117149D01*
X39908617Y-30168933D01*
X39897683Y-30223904D01*
X39881424Y-30277501D01*
X39875934Y-30333243D01*
X39865000Y-30388212D01*
X39865000Y-30611788D01*
X39865001Y-30611793D01*
X39865000Y-32146627D01*
X39844180Y-32135498D01*
X39724482Y-32099188D01*
X39600000Y-32086928D01*
X39285750Y-32090000D01*
X39127000Y-32248750D01*
X39127000Y-33473000D01*
X39147000Y-33473000D01*
X39147000Y-33727000D01*
X39127000Y-33727000D01*
X39127000Y-34951250D01*
X39285750Y-35110000D01*
X39600000Y-35113072D01*
X39724482Y-35100812D01*
X39844180Y-35064502D01*
X39954494Y-35005537D01*
X40051185Y-34926185D01*
X40130537Y-34829494D01*
X40156692Y-34780563D01*
X40310552Y-34906833D01*
X40525100Y-35021511D01*
X40757899Y-35092130D01*
X41000000Y-35115975D01*
X41242102Y-35092130D01*
X41474901Y-35021511D01*
X41689449Y-34906833D01*
X41877502Y-34752502D01*
X42000001Y-34603237D01*
X42122499Y-34752502D01*
X42310552Y-34906833D01*
X42525100Y-35021511D01*
X42757899Y-35092130D01*
X43000000Y-35115975D01*
X43242102Y-35092130D01*
X43474901Y-35021511D01*
X43689449Y-34906833D01*
X43877502Y-34752502D01*
X44031833Y-34564449D01*
X44146511Y-34349900D01*
X44156694Y-34316331D01*
X44192247Y-34305546D01*
X44324276Y-34234974D01*
X44440001Y-34140001D01*
X44463804Y-34110998D01*
X46511008Y-32063795D01*
X46540001Y-32040001D01*
X46563795Y-32011008D01*
X46563799Y-32011004D01*
X46634973Y-31924277D01*
X46634974Y-31924276D01*
X46705546Y-31792247D01*
X46749003Y-31648986D01*
X46760000Y-31537333D01*
X46760000Y-31537324D01*
X46763676Y-31500001D01*
X46760000Y-31462678D01*
X46760000Y-31383967D01*
X46809744Y-31417205D01*
X46998102Y-31495226D01*
X47198061Y-31535000D01*
X47401939Y-31535000D01*
X47601898Y-31495226D01*
X47790256Y-31417205D01*
X47959774Y-31303937D01*
X48103937Y-31159774D01*
X48217205Y-30990256D01*
X48295226Y-30801898D01*
X48335000Y-30601939D01*
X48335000Y-30400000D01*
X50289784Y-30400000D01*
X50289784Y-32400000D01*
X50302044Y-32524482D01*
X50338354Y-32644180D01*
X50397319Y-32754494D01*
X50476671Y-32851185D01*
X50573362Y-32930537D01*
X50683676Y-32989502D01*
X50803374Y-33025812D01*
X50927856Y-33038072D01*
X50961928Y-33038072D01*
X50961928Y-34400000D01*
X50974188Y-34524482D01*
X51010498Y-34644180D01*
X51069463Y-34754494D01*
X51148815Y-34851185D01*
X51245506Y-34930537D01*
X51355820Y-34989502D01*
X51475518Y-35025812D01*
X51600000Y-35038072D01*
X53600000Y-35038072D01*
X53724482Y-35025812D01*
X53844180Y-34989502D01*
X53954494Y-34930537D01*
X54051185Y-34851185D01*
X54130537Y-34754494D01*
X54189502Y-34644180D01*
X54225812Y-34524482D01*
X54238072Y-34400000D01*
X54238072Y-33462595D01*
X55958282Y-33462595D01*
X56002039Y-33781675D01*
X56107205Y-34086088D01*
X56200186Y-34260044D01*
X56464587Y-34355808D01*
X57420395Y-33400000D01*
X56464587Y-32444192D01*
X56200186Y-32539956D01*
X56059296Y-32829571D01*
X55977616Y-33141108D01*
X55958282Y-33462595D01*
X54238072Y-33462595D01*
X54238072Y-32400000D01*
X54225812Y-32275518D01*
X54222497Y-32264587D01*
X56644192Y-32264587D01*
X57600000Y-33220395D01*
X58555808Y-32264587D01*
X58460044Y-32000186D01*
X58170429Y-31859296D01*
X57858892Y-31777616D01*
X57537405Y-31758282D01*
X57218325Y-31802039D01*
X56913912Y-31907205D01*
X56739956Y-32000186D01*
X56644192Y-32264587D01*
X54222497Y-32264587D01*
X54189502Y-32155820D01*
X54130537Y-32045506D01*
X54051185Y-31948815D01*
X53954494Y-31869463D01*
X53844180Y-31810498D01*
X53724482Y-31774188D01*
X53600000Y-31761928D01*
X53565928Y-31761928D01*
X53565928Y-30400000D01*
X53553668Y-30275518D01*
X53517358Y-30155820D01*
X53458393Y-30045506D01*
X53379041Y-29948815D01*
X53282350Y-29869463D01*
X53172036Y-29810498D01*
X53052338Y-29774188D01*
X52927856Y-29761928D01*
X50927856Y-29761928D01*
X50803374Y-29774188D01*
X50683676Y-29810498D01*
X50573362Y-29869463D01*
X50476671Y-29948815D01*
X50397319Y-30045506D01*
X50338354Y-30155820D01*
X50302044Y-30275518D01*
X50289784Y-30400000D01*
X48335000Y-30400000D01*
X48335000Y-30398061D01*
X48295226Y-30198102D01*
X48217205Y-30009744D01*
X48103937Y-29840226D01*
X48060000Y-29796289D01*
X48060000Y-29789730D01*
X48063676Y-29752407D01*
X48060000Y-29715084D01*
X48060000Y-29715075D01*
X48049003Y-29603422D01*
X48005546Y-29460161D01*
X47934974Y-29328132D01*
X47840001Y-29212407D01*
X47811004Y-29188610D01*
X46589938Y-27967544D01*
X46623561Y-27763166D01*
X46025000Y-27164605D01*
X46010858Y-27178748D01*
X45888533Y-27056423D01*
X45890379Y-26985000D01*
X46204605Y-26985000D01*
X46803166Y-27583561D01*
X47016588Y-27548450D01*
X47107458Y-27344174D01*
X47156731Y-27126095D01*
X47162511Y-26902594D01*
X47124577Y-26682260D01*
X47044387Y-26473560D01*
X47016588Y-26421550D01*
X46803166Y-26386439D01*
X46204605Y-26985000D01*
X45890379Y-26985000D01*
X45892325Y-26909785D01*
X46010858Y-26791253D01*
X46025000Y-26805395D01*
X46623561Y-26206834D01*
X46588450Y-25993412D01*
X46384174Y-25902542D01*
X46166095Y-25853269D01*
X45942594Y-25847489D01*
X45722260Y-25885423D01*
X45513560Y-25965613D01*
X45461550Y-25993412D01*
X45440790Y-26119602D01*
X45390000Y-26170392D01*
X45339210Y-26119602D01*
X45318450Y-25993412D01*
X45114174Y-25902542D01*
X44896095Y-25853269D01*
X44672594Y-25847489D01*
X44452260Y-25885423D01*
X44243560Y-25965613D01*
X44191550Y-25993412D01*
X44156439Y-26206834D01*
X44755000Y-26805395D01*
X44769143Y-26791253D01*
X44891467Y-26913577D01*
X44887939Y-27050001D01*
X44612111Y-27050001D01*
X44561253Y-26999143D01*
X44575395Y-26985000D01*
X43976834Y-26386439D01*
X43763412Y-26421550D01*
X43672542Y-26625826D01*
X43659288Y-26684487D01*
X43063804Y-26089003D01*
X43040001Y-26059999D01*
X42924276Y-25965026D01*
X42792247Y-25894454D01*
X42648986Y-25850997D01*
X42537333Y-25840000D01*
X42537322Y-25840000D01*
X42500000Y-25836324D01*
X42462678Y-25840000D01*
X32227912Y-25840000D01*
X32190587Y-25836324D01*
X32153262Y-25840000D01*
X32153254Y-25840000D01*
X32041601Y-25850997D01*
X31898340Y-25894454D01*
X31766311Y-25965026D01*
X31650586Y-26059999D01*
X31626788Y-26088997D01*
X31188800Y-26526986D01*
X31155824Y-26447376D01*
X31031612Y-26261480D01*
X30873520Y-26103388D01*
X30687624Y-25979176D01*
X30481067Y-25893617D01*
X30261788Y-25850000D01*
X30038212Y-25850000D01*
X29818933Y-25893617D01*
X29612376Y-25979176D01*
X29515000Y-26044241D01*
X29417624Y-25979176D01*
X29211067Y-25893617D01*
X28991788Y-25850000D01*
X28768212Y-25850000D01*
X28548933Y-25893617D01*
X28342376Y-25979176D01*
X28245000Y-26044241D01*
X28147624Y-25979176D01*
X27941067Y-25893617D01*
X27721788Y-25850000D01*
X27498212Y-25850000D01*
X27278933Y-25893617D01*
X27072376Y-25979176D01*
X26975000Y-26044241D01*
X26877624Y-25979176D01*
X26671067Y-25893617D01*
X26451788Y-25850000D01*
X26228212Y-25850000D01*
X26008933Y-25893617D01*
X25802376Y-25979176D01*
X25705000Y-26044241D01*
X25607624Y-25979176D01*
X25401067Y-25893617D01*
X25181788Y-25850000D01*
X24958212Y-25850000D01*
X24738933Y-25893617D01*
X24532376Y-25979176D01*
X24435000Y-26044241D01*
X24337624Y-25979176D01*
X24131067Y-25893617D01*
X23911788Y-25850000D01*
X23688212Y-25850000D01*
X23468933Y-25893617D01*
X23262376Y-25979176D01*
X23165000Y-26044241D01*
X23067624Y-25979176D01*
X22861067Y-25893617D01*
X22641788Y-25850000D01*
X22418212Y-25850000D01*
X22301607Y-25873194D01*
X24236327Y-23938474D01*
X52310000Y-23938474D01*
X52310000Y-24261526D01*
X52373025Y-24578370D01*
X52496651Y-24876831D01*
X52676129Y-25145439D01*
X52904561Y-25373871D01*
X53173169Y-25553349D01*
X53471630Y-25676975D01*
X53788474Y-25740000D01*
X54111526Y-25740000D01*
X54428370Y-25676975D01*
X54726831Y-25553349D01*
X54995439Y-25373871D01*
X55223871Y-25145439D01*
X55403349Y-24876831D01*
X55526975Y-24578370D01*
X55590000Y-24261526D01*
X55590000Y-23938474D01*
X56860000Y-23938474D01*
X56860000Y-24261526D01*
X56923025Y-24578370D01*
X57046651Y-24876831D01*
X57226129Y-25145439D01*
X57454561Y-25373871D01*
X57723169Y-25553349D01*
X58021630Y-25676975D01*
X58338474Y-25740000D01*
X58661526Y-25740000D01*
X58978370Y-25676975D01*
X59276831Y-25553349D01*
X59545439Y-25373871D01*
X59773871Y-25145439D01*
X59953349Y-24876831D01*
X60076975Y-24578370D01*
X60140000Y-24261526D01*
X60140000Y-23938474D01*
X60076975Y-23621630D01*
X59953349Y-23323169D01*
X59773871Y-23054561D01*
X59545439Y-22826129D01*
X59276831Y-22646651D01*
X58978370Y-22523025D01*
X58661526Y-22460000D01*
X58338474Y-22460000D01*
X58021630Y-22523025D01*
X57723169Y-22646651D01*
X57454561Y-22826129D01*
X57226129Y-23054561D01*
X57046651Y-23323169D01*
X56923025Y-23621630D01*
X56860000Y-23938474D01*
X55590000Y-23938474D01*
X55526975Y-23621630D01*
X55403349Y-23323169D01*
X55223871Y-23054561D01*
X54995439Y-22826129D01*
X54726831Y-22646651D01*
X54428370Y-22523025D01*
X54111526Y-22460000D01*
X53788474Y-22460000D01*
X53471630Y-22523025D01*
X53173169Y-22646651D01*
X52904561Y-22826129D01*
X52676129Y-23054561D01*
X52496651Y-23323169D01*
X52373025Y-23621630D01*
X52310000Y-23938474D01*
X24236327Y-23938474D01*
X29336327Y-18838474D01*
X51110000Y-18838474D01*
X51110000Y-19161526D01*
X51173025Y-19478370D01*
X51296651Y-19776831D01*
X51476129Y-20045439D01*
X51704561Y-20273871D01*
X51973169Y-20453349D01*
X52271630Y-20576975D01*
X52588474Y-20640000D01*
X52911526Y-20640000D01*
X53228370Y-20576975D01*
X53526831Y-20453349D01*
X53795439Y-20273871D01*
X54023871Y-20045439D01*
X54203349Y-19776831D01*
X54326975Y-19478370D01*
X54390000Y-19161526D01*
X54390000Y-18838474D01*
X55660000Y-18838474D01*
X55660000Y-19161526D01*
X55723025Y-19478370D01*
X55846651Y-19776831D01*
X56026129Y-20045439D01*
X56254561Y-20273871D01*
X56523169Y-20453349D01*
X56821630Y-20576975D01*
X57138474Y-20640000D01*
X57461526Y-20640000D01*
X57778370Y-20576975D01*
X58076831Y-20453349D01*
X58345439Y-20273871D01*
X58573871Y-20045439D01*
X58753349Y-19776831D01*
X58876975Y-19478370D01*
X58940000Y-19161526D01*
X58940000Y-18838474D01*
X58876975Y-18521630D01*
X58753349Y-18223169D01*
X58573871Y-17954561D01*
X58345439Y-17726129D01*
X58076831Y-17546651D01*
X57778370Y-17423025D01*
X57461526Y-17360000D01*
X57138474Y-17360000D01*
X56821630Y-17423025D01*
X56523169Y-17546651D01*
X56254561Y-17726129D01*
X56026129Y-17954561D01*
X55846651Y-18223169D01*
X55723025Y-18521630D01*
X55660000Y-18838474D01*
X54390000Y-18838474D01*
X54326975Y-18521630D01*
X54203349Y-18223169D01*
X54023871Y-17954561D01*
X53795439Y-17726129D01*
X53526831Y-17546651D01*
X53228370Y-17423025D01*
X52911526Y-17360000D01*
X52588474Y-17360000D01*
X52271630Y-17423025D01*
X51973169Y-17546651D01*
X51704561Y-17726129D01*
X51476129Y-17954561D01*
X51296651Y-18223169D01*
X51173025Y-18521630D01*
X51110000Y-18838474D01*
X29336327Y-18838474D01*
X35271589Y-12903212D01*
X43620000Y-12903212D01*
X43620000Y-13126788D01*
X43663617Y-13346067D01*
X43749176Y-13552624D01*
X43873388Y-13738520D01*
X44031480Y-13896612D01*
X44217376Y-14020824D01*
X44423933Y-14106383D01*
X44643212Y-14150000D01*
X44866788Y-14150000D01*
X45086067Y-14106383D01*
X45292624Y-14020824D01*
X45390000Y-13955759D01*
X45487376Y-14020824D01*
X45693933Y-14106383D01*
X45913212Y-14150000D01*
X46136788Y-14150000D01*
X46356067Y-14106383D01*
X46562624Y-14020824D01*
X46748520Y-13896612D01*
X46906612Y-13738520D01*
X47030824Y-13552624D01*
X47116383Y-13346067D01*
X47160000Y-13126788D01*
X47160000Y-13065098D01*
X50415000Y-13065098D01*
X50415000Y-13534902D01*
X50506654Y-13995679D01*
X50686440Y-14429721D01*
X50947450Y-14820349D01*
X51279651Y-15152550D01*
X51670279Y-15413560D01*
X52104321Y-15593346D01*
X52565098Y-15685000D01*
X53034902Y-15685000D01*
X53495679Y-15593346D01*
X53929721Y-15413560D01*
X54320349Y-15152550D01*
X54422899Y-15050000D01*
X55411928Y-15050000D01*
X55424188Y-15174482D01*
X55460498Y-15294180D01*
X55519463Y-15404494D01*
X55598815Y-15501185D01*
X55695506Y-15580537D01*
X55805820Y-15639502D01*
X55925518Y-15675812D01*
X56050000Y-15688072D01*
X57514250Y-15685000D01*
X57673000Y-15526250D01*
X57673000Y-13427000D01*
X57927000Y-13427000D01*
X57927000Y-15526250D01*
X58085750Y-15685000D01*
X59550000Y-15688072D01*
X59674482Y-15675812D01*
X59794180Y-15639502D01*
X59904494Y-15580537D01*
X60001185Y-15501185D01*
X60080537Y-15404494D01*
X60139502Y-15294180D01*
X60175812Y-15174482D01*
X60188072Y-15050000D01*
X60185000Y-13585750D01*
X60026250Y-13427000D01*
X57927000Y-13427000D01*
X57673000Y-13427000D01*
X55573750Y-13427000D01*
X55415000Y-13585750D01*
X55411928Y-15050000D01*
X54422899Y-15050000D01*
X54652550Y-14820349D01*
X54913560Y-14429721D01*
X55093346Y-13995679D01*
X55185000Y-13534902D01*
X55185000Y-13065098D01*
X55093346Y-12604321D01*
X54913560Y-12170279D01*
X54652550Y-11779651D01*
X54422899Y-11550000D01*
X55411928Y-11550000D01*
X55415000Y-13014250D01*
X55573750Y-13173000D01*
X57673000Y-13173000D01*
X57673000Y-11073750D01*
X57927000Y-11073750D01*
X57927000Y-13173000D01*
X60026250Y-13173000D01*
X60185000Y-13014250D01*
X60188072Y-11550000D01*
X60175812Y-11425518D01*
X60139502Y-11305820D01*
X60080537Y-11195506D01*
X60001185Y-11098815D01*
X59904494Y-11019463D01*
X59794180Y-10960498D01*
X59674482Y-10924188D01*
X59550000Y-10911928D01*
X58085750Y-10915000D01*
X57927000Y-11073750D01*
X57673000Y-11073750D01*
X57514250Y-10915000D01*
X56050000Y-10911928D01*
X55925518Y-10924188D01*
X55805820Y-10960498D01*
X55695506Y-11019463D01*
X55598815Y-11098815D01*
X55519463Y-11195506D01*
X55460498Y-11305820D01*
X55424188Y-11425518D01*
X55411928Y-11550000D01*
X54422899Y-11550000D01*
X54320349Y-11447450D01*
X53929721Y-11186440D01*
X53495679Y-11006654D01*
X53034902Y-10915000D01*
X52565098Y-10915000D01*
X52104321Y-11006654D01*
X51670279Y-11186440D01*
X51279651Y-11447450D01*
X50947450Y-11779651D01*
X50686440Y-12170279D01*
X50506654Y-12604321D01*
X50415000Y-13065098D01*
X47160000Y-13065098D01*
X47160000Y-12903212D01*
X47116383Y-12683933D01*
X47030824Y-12477376D01*
X46906612Y-12291480D01*
X46748520Y-12133388D01*
X46562624Y-12009176D01*
X46356067Y-11923617D01*
X46136788Y-11880000D01*
X45913212Y-11880000D01*
X45693933Y-11923617D01*
X45487376Y-12009176D01*
X45390000Y-12074241D01*
X45292624Y-12009176D01*
X45086067Y-11923617D01*
X44866788Y-11880000D01*
X44643212Y-11880000D01*
X44423933Y-11923617D01*
X44217376Y-12009176D01*
X44031480Y-12133388D01*
X43873388Y-12291480D01*
X43749176Y-12477376D01*
X43663617Y-12683933D01*
X43620000Y-12903212D01*
X35271589Y-12903212D01*
X37639802Y-10535000D01*
X37701939Y-10535000D01*
X37901898Y-10495226D01*
X38090256Y-10417205D01*
X38259774Y-10303937D01*
X38403937Y-10159774D01*
X38517205Y-9990256D01*
X38595226Y-9801898D01*
X38635000Y-9601939D01*
X38635000Y-9398061D01*
X38595226Y-9198102D01*
X38517205Y-9009744D01*
X38403937Y-8840226D01*
X38259774Y-8696063D01*
X38090256Y-8582795D01*
X37901898Y-8504774D01*
X37701939Y-8465000D01*
X37498061Y-8465000D01*
X37387887Y-8486915D01*
X38377334Y-7497469D01*
X38422498Y-7552502D01*
X38610551Y-7706833D01*
X38825099Y-7821511D01*
X39057898Y-7892130D01*
X39300000Y-7915975D01*
X39542101Y-7892130D01*
X39774900Y-7821511D01*
X39989448Y-7706833D01*
X40165000Y-7562762D01*
X40165001Y-9388207D01*
X40165000Y-9388212D01*
X40165000Y-9611788D01*
X40175934Y-9666757D01*
X40181424Y-9722499D01*
X40197683Y-9776096D01*
X40208617Y-9831067D01*
X40230067Y-9882851D01*
X40246325Y-9936447D01*
X40272728Y-9985843D01*
X40294176Y-10037624D01*
X40325312Y-10084222D01*
X40351717Y-10133623D01*
X40387254Y-10176925D01*
X40418388Y-10223520D01*
X40458014Y-10263146D01*
X40493552Y-10306449D01*
X40536855Y-10341987D01*
X40576480Y-10381612D01*
X40623074Y-10412745D01*
X40666378Y-10448284D01*
X40715782Y-10474691D01*
X40762376Y-10505824D01*
X40814153Y-10527271D01*
X40863554Y-10553676D01*
X40917155Y-10569936D01*
X40968933Y-10591383D01*
X41023897Y-10602316D01*
X41077502Y-10618577D01*
X41133252Y-10624068D01*
X41188212Y-10635000D01*
X41244249Y-10635000D01*
X41300000Y-10640491D01*
X41355752Y-10635000D01*
X41411788Y-10635000D01*
X41466747Y-10624068D01*
X41522499Y-10618577D01*
X41576106Y-10602315D01*
X41631067Y-10591383D01*
X41682842Y-10569937D01*
X41736447Y-10553676D01*
X41785851Y-10527269D01*
X41837624Y-10505824D01*
X41884214Y-10474693D01*
X41933623Y-10448284D01*
X41976932Y-10412741D01*
X42023520Y-10381612D01*
X42063141Y-10341991D01*
X42106449Y-10306449D01*
X42141991Y-10263141D01*
X42181612Y-10223520D01*
X42212741Y-10176932D01*
X42248284Y-10133623D01*
X42274693Y-10084214D01*
X42305824Y-10037624D01*
X42327269Y-9985851D01*
X42353676Y-9936447D01*
X42369937Y-9882842D01*
X42391383Y-9831067D01*
X42402315Y-9776106D01*
X42418577Y-9722499D01*
X42424068Y-9666747D01*
X42435000Y-9611788D01*
X42435000Y-7853373D01*
X42455820Y-7864502D01*
X42575518Y-7900812D01*
X42700000Y-7913072D01*
X43014250Y-7910000D01*
X43173000Y-7751250D01*
X43173000Y-6527000D01*
X43427000Y-6527000D01*
X43427000Y-7751250D01*
X43585750Y-7910000D01*
X43900000Y-7913072D01*
X44024482Y-7900812D01*
X44144180Y-7864502D01*
X44254494Y-7805537D01*
X44351185Y-7726185D01*
X44430537Y-7629494D01*
X44489502Y-7519180D01*
X44525812Y-7399482D01*
X44538072Y-7275000D01*
X44535000Y-6685750D01*
X44376250Y-6527000D01*
X43427000Y-6527000D01*
X43173000Y-6527000D01*
X43153000Y-6527000D01*
X43153000Y-6273000D01*
X43173000Y-6273000D01*
X43173000Y-5048750D01*
X43427000Y-5048750D01*
X43427000Y-6273000D01*
X44376250Y-6273000D01*
X44535000Y-6114250D01*
X44538072Y-5525000D01*
X44525812Y-5400518D01*
X44489502Y-5280820D01*
X44430537Y-5170506D01*
X44351185Y-5073815D01*
X44254494Y-4994463D01*
X44144180Y-4935498D01*
X44024482Y-4899188D01*
X43900000Y-4886928D01*
X43585750Y-4890000D01*
X43427000Y-5048750D01*
X43173000Y-5048750D01*
X43014250Y-4890000D01*
X42700000Y-4886928D01*
X42575518Y-4899188D01*
X42455820Y-4935498D01*
X42345506Y-4994463D01*
X42248815Y-5073815D01*
X42169463Y-5170506D01*
X42143309Y-5219436D01*
X41989449Y-5093167D01*
X41774901Y-4978489D01*
X41542102Y-4907870D01*
X41300000Y-4884025D01*
X41057899Y-4907870D01*
X40825100Y-4978489D01*
X40610552Y-5093167D01*
X40422499Y-5247498D01*
X40300001Y-5396763D01*
X40177502Y-5247498D01*
X39989449Y-5093167D01*
X39774901Y-4978489D01*
X39542102Y-4907870D01*
X39300000Y-4884025D01*
X39057899Y-4907870D01*
X38825100Y-4978489D01*
X38610552Y-5093167D01*
X38422499Y-5247498D01*
X38268168Y-5435551D01*
X38153489Y-5650099D01*
X38143305Y-5683669D01*
X38107753Y-5694454D01*
X37975724Y-5765026D01*
X37975722Y-5765027D01*
X37975723Y-5765027D01*
X37888996Y-5836201D01*
X37888992Y-5836205D01*
X37859999Y-5859999D01*
X37836205Y-5888992D01*
X35788998Y-7936201D01*
X35760000Y-7959999D01*
X35736202Y-7988997D01*
X35736201Y-7988998D01*
X35665026Y-8075724D01*
X35594454Y-8207754D01*
X35564180Y-8307558D01*
X35550998Y-8351014D01*
X35545325Y-8408617D01*
X35536324Y-8500000D01*
X35540001Y-8537332D01*
X35540001Y-8616033D01*
X35490256Y-8582795D01*
X35301898Y-8504774D01*
X35101939Y-8465000D01*
X34898061Y-8465000D01*
X34698102Y-8504774D01*
X34509744Y-8582795D01*
X34340226Y-8696063D01*
X34196063Y-8840226D01*
X34082795Y-9009744D01*
X34004774Y-9198102D01*
X33965000Y-9398061D01*
X33965000Y-9601939D01*
X34004774Y-9801898D01*
X34039490Y-9885708D01*
X31960199Y-11965000D01*
X31898061Y-11965000D01*
X31698102Y-12004774D01*
X31509744Y-12082795D01*
X31340226Y-12196063D01*
X31196063Y-12340226D01*
X31082795Y-12509744D01*
X31004774Y-12698102D01*
X30965000Y-12898061D01*
X30965000Y-13101939D01*
X31004774Y-13301898D01*
X31082795Y-13490256D01*
X31196063Y-13659774D01*
X31340226Y-13803937D01*
X31509744Y-13917205D01*
X31698102Y-13995226D01*
X31898061Y-14035000D01*
X31990198Y-14035000D01*
X20625200Y-25399999D01*
X20109802Y-25399999D01*
X28211004Y-17298798D01*
X28240001Y-17275001D01*
X28273424Y-17234275D01*
X28334974Y-17159277D01*
X28405546Y-17027247D01*
X28419030Y-16982795D01*
X28449003Y-16883986D01*
X28460000Y-16772333D01*
X28460000Y-16772323D01*
X28463676Y-16735001D01*
X28460000Y-16697678D01*
X28460000Y-10203711D01*
X28503937Y-10159774D01*
X28617205Y-9990256D01*
X28695226Y-9801898D01*
X28735000Y-9601939D01*
X28735000Y-9398061D01*
X28695226Y-9198102D01*
X28617205Y-9009744D01*
X28503937Y-8840226D01*
X28359774Y-8696063D01*
X28190256Y-8582795D01*
X28001898Y-8504774D01*
X27801939Y-8465000D01*
X27598061Y-8465000D01*
X27487887Y-8486915D01*
X28422409Y-7552393D01*
X28422498Y-7552502D01*
X28610551Y-7706833D01*
X28825099Y-7821511D01*
X29057898Y-7892130D01*
X29300000Y-7915975D01*
X29542101Y-7892130D01*
X29774900Y-7821511D01*
X29989448Y-7706833D01*
X30165000Y-7562762D01*
X30165001Y-9388207D01*
X30165000Y-9388212D01*
X30165000Y-9611788D01*
X30175934Y-9666757D01*
X30181424Y-9722499D01*
X30197683Y-9776096D01*
X30208617Y-9831067D01*
X30230067Y-9882851D01*
X30246325Y-9936447D01*
X30272728Y-9985843D01*
X30294176Y-10037624D01*
X30325312Y-10084222D01*
X30351717Y-10133623D01*
X30387254Y-10176925D01*
X30418388Y-10223520D01*
X30458014Y-10263146D01*
X30493552Y-10306449D01*
X30536855Y-10341987D01*
X30576480Y-10381612D01*
X30623074Y-10412745D01*
X30666378Y-10448284D01*
X30715782Y-10474691D01*
X30762376Y-10505824D01*
X30814153Y-10527271D01*
X30863554Y-10553676D01*
X30917155Y-10569936D01*
X30968933Y-10591383D01*
X31023897Y-10602316D01*
X31077502Y-10618577D01*
X31133252Y-10624068D01*
X31188212Y-10635000D01*
X31244249Y-10635000D01*
X31300000Y-10640491D01*
X31355752Y-10635000D01*
X31411788Y-10635000D01*
X31466747Y-10624068D01*
X31522499Y-10618577D01*
X31576106Y-10602315D01*
X31631067Y-10591383D01*
X31682842Y-10569937D01*
X31736447Y-10553676D01*
X31785851Y-10527269D01*
X31837624Y-10505824D01*
X31884214Y-10474693D01*
X31933623Y-10448284D01*
X31976932Y-10412741D01*
X32023520Y-10381612D01*
X32063141Y-10341991D01*
X32106449Y-10306449D01*
X32141991Y-10263141D01*
X32181612Y-10223520D01*
X32212741Y-10176932D01*
X32248284Y-10133623D01*
X32274693Y-10084214D01*
X32305824Y-10037624D01*
X32327269Y-9985851D01*
X32353676Y-9936447D01*
X32369937Y-9882842D01*
X32391383Y-9831067D01*
X32402315Y-9776106D01*
X32418577Y-9722499D01*
X32424068Y-9666747D01*
X32435000Y-9611788D01*
X32435000Y-7853373D01*
X32455820Y-7864502D01*
X32575518Y-7900812D01*
X32700000Y-7913072D01*
X33014250Y-7910000D01*
X33173000Y-7751250D01*
X33173000Y-6527000D01*
X33427000Y-6527000D01*
X33427000Y-7751250D01*
X33585750Y-7910000D01*
X33900000Y-7913072D01*
X34024482Y-7900812D01*
X34144180Y-7864502D01*
X34254494Y-7805537D01*
X34351185Y-7726185D01*
X34430537Y-7629494D01*
X34489502Y-7519180D01*
X34525812Y-7399482D01*
X34538072Y-7275000D01*
X34535000Y-6685750D01*
X34376250Y-6527000D01*
X33427000Y-6527000D01*
X33173000Y-6527000D01*
X33153000Y-6527000D01*
X33153000Y-6273000D01*
X33173000Y-6273000D01*
X33173000Y-5048750D01*
X33427000Y-5048750D01*
X33427000Y-6273000D01*
X34376250Y-6273000D01*
X34535000Y-6114250D01*
X34538072Y-5525000D01*
X34525812Y-5400518D01*
X34489502Y-5280820D01*
X34430537Y-5170506D01*
X34351185Y-5073815D01*
X34254494Y-4994463D01*
X34144180Y-4935498D01*
X34024482Y-4899188D01*
X33900000Y-4886928D01*
X33585750Y-4890000D01*
X33427000Y-5048750D01*
X33173000Y-5048750D01*
X33014250Y-4890000D01*
X32700000Y-4886928D01*
X32575518Y-4899188D01*
X32455820Y-4935498D01*
X32345506Y-4994463D01*
X32248815Y-5073815D01*
X32169463Y-5170506D01*
X32143309Y-5219436D01*
X31989449Y-5093167D01*
X31774901Y-4978489D01*
X31542102Y-4907870D01*
X31300000Y-4884025D01*
X31057899Y-4907870D01*
X30825100Y-4978489D01*
X30610552Y-5093167D01*
X30422499Y-5247498D01*
X30300001Y-5396763D01*
X30177502Y-5247498D01*
X29989449Y-5093167D01*
X29774901Y-4978489D01*
X29542102Y-4907870D01*
X29300000Y-4884025D01*
X29057899Y-4907870D01*
X28825100Y-4978489D01*
X28610552Y-5093167D01*
X28422499Y-5247498D01*
X28268168Y-5435551D01*
X28153489Y-5650099D01*
X28126929Y-5737656D01*
X28075724Y-5765026D01*
X28075722Y-5765027D01*
X28075723Y-5765027D01*
X27988996Y-5836201D01*
X27988992Y-5836205D01*
X27959999Y-5859999D01*
X27936205Y-5888992D01*
X25888998Y-7936201D01*
X25860000Y-7959999D01*
X25836202Y-7988997D01*
X25836201Y-7988998D01*
X25765026Y-8075724D01*
X25694454Y-8207754D01*
X25664180Y-8307558D01*
X25650998Y-8351014D01*
X25645325Y-8408617D01*
X25636324Y-8500000D01*
X25640001Y-8537332D01*
X25640001Y-8616033D01*
X25590256Y-8582795D01*
X25401898Y-8504774D01*
X25201939Y-8465000D01*
X24998061Y-8465000D01*
X24798102Y-8504774D01*
X24609744Y-8582795D01*
X24440226Y-8696063D01*
X24296063Y-8840226D01*
X24182795Y-9009744D01*
X24104774Y-9198102D01*
X24065000Y-9398061D01*
X24065000Y-9460198D01*
X23288998Y-10236201D01*
X23260000Y-10259999D01*
X23236202Y-10288997D01*
X23236201Y-10288998D01*
X23165026Y-10375724D01*
X23094454Y-10507754D01*
X23064180Y-10607558D01*
X23060838Y-10618577D01*
X23050998Y-10651015D01*
X23036324Y-10800000D01*
X23040001Y-10837332D01*
X23040000Y-11997734D01*
X22861067Y-11923617D01*
X22641788Y-11880000D01*
X22418212Y-11880000D01*
X22198933Y-11923617D01*
X21992376Y-12009176D01*
X21895000Y-12074241D01*
X21797624Y-12009176D01*
X21591067Y-11923617D01*
X21371788Y-11880000D01*
X21148212Y-11880000D01*
X20928933Y-11923617D01*
X20722376Y-12009176D01*
X20625000Y-12074241D01*
X20527624Y-12009176D01*
X20321067Y-11923617D01*
X20101788Y-11880000D01*
X19878212Y-11880000D01*
X19658933Y-11923617D01*
X19452376Y-12009176D01*
X19355000Y-12074241D01*
X19257624Y-12009176D01*
X19051067Y-11923617D01*
X18831788Y-11880000D01*
X18608212Y-11880000D01*
X18388933Y-11923617D01*
X18182376Y-12009176D01*
X18085000Y-12074241D01*
X17987624Y-12009176D01*
X17781067Y-11923617D01*
X17561788Y-11880000D01*
X17338212Y-11880000D01*
X17118933Y-11923617D01*
X16913812Y-12008581D01*
X18111004Y-10811390D01*
X18140001Y-10787593D01*
X18234974Y-10671868D01*
X18305546Y-10539839D01*
X18349003Y-10396578D01*
X18360000Y-10284925D01*
X18360000Y-10284915D01*
X18363676Y-10247592D01*
X18360000Y-10210269D01*
X18360000Y-10203711D01*
X18403937Y-10159774D01*
X18517205Y-9990256D01*
X18595226Y-9801898D01*
X18635000Y-9601939D01*
X18635000Y-9398061D01*
X18595226Y-9198102D01*
X18517205Y-9009744D01*
X18403937Y-8840226D01*
X18259774Y-8696063D01*
X18090256Y-8582795D01*
X17901898Y-8504774D01*
X17701939Y-8465000D01*
X17498061Y-8465000D01*
X17387887Y-8486915D01*
X18377334Y-7497469D01*
X18422498Y-7552502D01*
X18610551Y-7706833D01*
X18825099Y-7821511D01*
X19057898Y-7892130D01*
X19300000Y-7915975D01*
X19542101Y-7892130D01*
X19774900Y-7821511D01*
X19989448Y-7706833D01*
X20165000Y-7562762D01*
X20165001Y-9388207D01*
X20165000Y-9388212D01*
X20165000Y-9611788D01*
X20175934Y-9666757D01*
X20181424Y-9722499D01*
X20197683Y-9776096D01*
X20208617Y-9831067D01*
X20230067Y-9882851D01*
X20246325Y-9936447D01*
X20272728Y-9985843D01*
X20294176Y-10037624D01*
X20325312Y-10084222D01*
X20351717Y-10133623D01*
X20387254Y-10176925D01*
X20418388Y-10223520D01*
X20458014Y-10263146D01*
X20493552Y-10306449D01*
X20536855Y-10341987D01*
X20576480Y-10381612D01*
X20623074Y-10412745D01*
X20666378Y-10448284D01*
X20715782Y-10474691D01*
X20762376Y-10505824D01*
X20814153Y-10527271D01*
X20863554Y-10553676D01*
X20917155Y-10569936D01*
X20968933Y-10591383D01*
X21023897Y-10602316D01*
X21077502Y-10618577D01*
X21133252Y-10624068D01*
X21188212Y-10635000D01*
X21244249Y-10635000D01*
X21300000Y-10640491D01*
X21355752Y-10635000D01*
X21411788Y-10635000D01*
X21466747Y-10624068D01*
X21522499Y-10618577D01*
X21576106Y-10602315D01*
X21631067Y-10591383D01*
X21682842Y-10569937D01*
X21736447Y-10553676D01*
X21785851Y-10527269D01*
X21837624Y-10505824D01*
X21884214Y-10474693D01*
X21933623Y-10448284D01*
X21976932Y-10412741D01*
X22023520Y-10381612D01*
X22063141Y-10341991D01*
X22106449Y-10306449D01*
X22141991Y-10263141D01*
X22181612Y-10223520D01*
X22212741Y-10176932D01*
X22248284Y-10133623D01*
X22274693Y-10084214D01*
X22305824Y-10037624D01*
X22327269Y-9985851D01*
X22353676Y-9936447D01*
X22369937Y-9882842D01*
X22391383Y-9831067D01*
X22402315Y-9776106D01*
X22418577Y-9722499D01*
X22424068Y-9666747D01*
X22435000Y-9611788D01*
X22435000Y-7853373D01*
X22455820Y-7864502D01*
X22575518Y-7900812D01*
X22700000Y-7913072D01*
X23014250Y-7910000D01*
X23173000Y-7751250D01*
X23173000Y-6527000D01*
X23427000Y-6527000D01*
X23427000Y-7751250D01*
X23585750Y-7910000D01*
X23900000Y-7913072D01*
X24024482Y-7900812D01*
X24144180Y-7864502D01*
X24254494Y-7805537D01*
X24351185Y-7726185D01*
X24430537Y-7629494D01*
X24489502Y-7519180D01*
X24525812Y-7399482D01*
X24538072Y-7275000D01*
X24535000Y-6685750D01*
X24376250Y-6527000D01*
X23427000Y-6527000D01*
X23173000Y-6527000D01*
X23153000Y-6527000D01*
X23153000Y-6273000D01*
X23173000Y-6273000D01*
X23173000Y-5048750D01*
X23427000Y-5048750D01*
X23427000Y-6273000D01*
X24376250Y-6273000D01*
X24535000Y-6114250D01*
X24538072Y-5525000D01*
X24525812Y-5400518D01*
X24489502Y-5280820D01*
X24430537Y-5170506D01*
X24351185Y-5073815D01*
X24254494Y-4994463D01*
X24144180Y-4935498D01*
X24024482Y-4899188D01*
X23900000Y-4886928D01*
X23585750Y-4890000D01*
X23427000Y-5048750D01*
X23173000Y-5048750D01*
X23014250Y-4890000D01*
X22700000Y-4886928D01*
X22575518Y-4899188D01*
X22455820Y-4935498D01*
X22345506Y-4994463D01*
X22248815Y-5073815D01*
X22169463Y-5170506D01*
X22143309Y-5219436D01*
X21989449Y-5093167D01*
X21774901Y-4978489D01*
X21542102Y-4907870D01*
X21300000Y-4884025D01*
X21057899Y-4907870D01*
X20825100Y-4978489D01*
X20610552Y-5093167D01*
X20422499Y-5247498D01*
X20300001Y-5396763D01*
X20177502Y-5247498D01*
X19989449Y-5093167D01*
X19774901Y-4978489D01*
X19542102Y-4907870D01*
X19300000Y-4884025D01*
X19057899Y-4907870D01*
X18825100Y-4978489D01*
X18610552Y-5093167D01*
X18422499Y-5247498D01*
X18268168Y-5435551D01*
X18153489Y-5650099D01*
X18143305Y-5683669D01*
X18107753Y-5694454D01*
X17975724Y-5765026D01*
X17975722Y-5765027D01*
X17975723Y-5765027D01*
X17888996Y-5836201D01*
X17888992Y-5836205D01*
X17859999Y-5859999D01*
X17836205Y-5888992D01*
X15788998Y-7936201D01*
X15760000Y-7959999D01*
X15736202Y-7988997D01*
X15736201Y-7988998D01*
X15665026Y-8075724D01*
X15594454Y-8207754D01*
X15564180Y-8307558D01*
X15550998Y-8351014D01*
X15545325Y-8408617D01*
X15536324Y-8500000D01*
X15540001Y-8537332D01*
X15540001Y-8616033D01*
X15490256Y-8582795D01*
X15301898Y-8504774D01*
X15101939Y-8465000D01*
X14898061Y-8465000D01*
X14698102Y-8504774D01*
X14509744Y-8582795D01*
X14340226Y-8696063D01*
X14196063Y-8840226D01*
X14082795Y-9009744D01*
X14004774Y-9198102D01*
X13965000Y-9398061D01*
X13965000Y-9601939D01*
X14004774Y-9801898D01*
X14082795Y-9990256D01*
X14196063Y-10159774D01*
X14240001Y-10203712D01*
X14240000Y-11076549D01*
X14098102Y-11104774D01*
X13909744Y-11182795D01*
X13740226Y-11296063D01*
X13596063Y-11440226D01*
X13482795Y-11609744D01*
X13404774Y-11798102D01*
X13365000Y-11998061D01*
X13365000Y-12201939D01*
X13404774Y-12401898D01*
X13482795Y-12590256D01*
X13596063Y-12759774D01*
X13740226Y-12903937D01*
X13909744Y-13017205D01*
X14098102Y-13095226D01*
X14298061Y-13135000D01*
X14501939Y-13135000D01*
X14594999Y-13116489D01*
X14594999Y-13373678D01*
X14591323Y-13411001D01*
X14594999Y-13448323D01*
X14594999Y-13448333D01*
X14605996Y-13559986D01*
X14618446Y-13601028D01*
X14649453Y-13703247D01*
X14720025Y-13835277D01*
X14759870Y-13883827D01*
X14814998Y-13951002D01*
X14844001Y-13974804D01*
X15420001Y-14550805D01*
X15420001Y-16245199D01*
X8635000Y-9460199D01*
X8635000Y-9398061D01*
X8595226Y-9198102D01*
X8517205Y-9009744D01*
X8403937Y-8840226D01*
X8259774Y-8696063D01*
X8090256Y-8582795D01*
X7901898Y-8504774D01*
X7701939Y-8465000D01*
X7498061Y-8465000D01*
X7387887Y-8486915D01*
X8377334Y-7497469D01*
X8422498Y-7552502D01*
X8610551Y-7706833D01*
X8825099Y-7821511D01*
X9057898Y-7892130D01*
X9300000Y-7915975D01*
X9542101Y-7892130D01*
X9774900Y-7821511D01*
X9989448Y-7706833D01*
X10165000Y-7562762D01*
X10165001Y-9388207D01*
X10165000Y-9388212D01*
X10165000Y-9611788D01*
X10175934Y-9666757D01*
X10181424Y-9722499D01*
X10197683Y-9776096D01*
X10208617Y-9831067D01*
X10230067Y-9882851D01*
X10246325Y-9936447D01*
X10272728Y-9985843D01*
X10294176Y-10037624D01*
X10325312Y-10084222D01*
X10351717Y-10133623D01*
X10387254Y-10176925D01*
X10418388Y-10223520D01*
X10458014Y-10263146D01*
X10493552Y-10306449D01*
X10536855Y-10341987D01*
X10576480Y-10381612D01*
X10623074Y-10412745D01*
X10666378Y-10448284D01*
X10715782Y-10474691D01*
X10762376Y-10505824D01*
X10814153Y-10527271D01*
X10863554Y-10553676D01*
X10917155Y-10569936D01*
X10968933Y-10591383D01*
X11023897Y-10602316D01*
X11077502Y-10618577D01*
X11133252Y-10624068D01*
X11188212Y-10635000D01*
X11244249Y-10635000D01*
X11300000Y-10640491D01*
X11355752Y-10635000D01*
X11411788Y-10635000D01*
X11466747Y-10624068D01*
X11522499Y-10618577D01*
X11576106Y-10602315D01*
X11631067Y-10591383D01*
X11682842Y-10569937D01*
X11736447Y-10553676D01*
X11785851Y-10527269D01*
X11837624Y-10505824D01*
X11884214Y-10474693D01*
X11933623Y-10448284D01*
X11976932Y-10412741D01*
X12023520Y-10381612D01*
X12063141Y-10341991D01*
X12106449Y-10306449D01*
X12141991Y-10263141D01*
X12181612Y-10223520D01*
X12212741Y-10176932D01*
X12248284Y-10133623D01*
X12274693Y-10084214D01*
X12305824Y-10037624D01*
X12327269Y-9985851D01*
X12353676Y-9936447D01*
X12369937Y-9882842D01*
X12391383Y-9831067D01*
X12402315Y-9776106D01*
X12418577Y-9722499D01*
X12424068Y-9666747D01*
X12435000Y-9611788D01*
X12435000Y-7853373D01*
X12455820Y-7864502D01*
X12575518Y-7900812D01*
X12700000Y-7913072D01*
X13014250Y-7910000D01*
X13173000Y-7751250D01*
X13173000Y-6527000D01*
X13427000Y-6527000D01*
X13427000Y-7751250D01*
X13585750Y-7910000D01*
X13900000Y-7913072D01*
X14024482Y-7900812D01*
X14144180Y-7864502D01*
X14254494Y-7805537D01*
X14351185Y-7726185D01*
X14430537Y-7629494D01*
X14489502Y-7519180D01*
X14525812Y-7399482D01*
X14538072Y-7275000D01*
X14535000Y-6685750D01*
X14376250Y-6527000D01*
X13427000Y-6527000D01*
X13173000Y-6527000D01*
X13153000Y-6527000D01*
X13153000Y-6273000D01*
X13173000Y-6273000D01*
X13173000Y-5048750D01*
X13427000Y-5048750D01*
X13427000Y-6273000D01*
X14376250Y-6273000D01*
X14535000Y-6114250D01*
X14538072Y-5525000D01*
X14525812Y-5400518D01*
X14489502Y-5280820D01*
X14430537Y-5170506D01*
X14351185Y-5073815D01*
X14254494Y-4994463D01*
X14144180Y-4935498D01*
X14024482Y-4899188D01*
X13900000Y-4886928D01*
X13585750Y-4890000D01*
X13427000Y-5048750D01*
X13173000Y-5048750D01*
X13014250Y-4890000D01*
X12700000Y-4886928D01*
X12575518Y-4899188D01*
X12455820Y-4935498D01*
X12345506Y-4994463D01*
X12248815Y-5073815D01*
X12169463Y-5170506D01*
X12143309Y-5219436D01*
X11989449Y-5093167D01*
X11774901Y-4978489D01*
X11542102Y-4907870D01*
X11300000Y-4884025D01*
X11057899Y-4907870D01*
X10825100Y-4978489D01*
X10610552Y-5093167D01*
X10422499Y-5247498D01*
X10300001Y-5396763D01*
X10177502Y-5247498D01*
X9989449Y-5093167D01*
X9774901Y-4978489D01*
X9542102Y-4907870D01*
X9300000Y-4884025D01*
X9057899Y-4907870D01*
X8825100Y-4978489D01*
X8610552Y-5093167D01*
X8422499Y-5247498D01*
X8268168Y-5435551D01*
X8153489Y-5650099D01*
X8143305Y-5683669D01*
X8107753Y-5694454D01*
X7975724Y-5765026D01*
X7975722Y-5765027D01*
X7975723Y-5765027D01*
X7888996Y-5836201D01*
X7888992Y-5836205D01*
X7859999Y-5859999D01*
X7836205Y-5888992D01*
X5788998Y-7936201D01*
X5760000Y-7959999D01*
X5736202Y-7988997D01*
X5736201Y-7988998D01*
X5665026Y-8075724D01*
X5594454Y-8207754D01*
X5564180Y-8307558D01*
X5550998Y-8351014D01*
X5545325Y-8408617D01*
X5536324Y-8500000D01*
X5540001Y-8537332D01*
X5540001Y-8796288D01*
X5496063Y-8840226D01*
X5382795Y-9009744D01*
X5304774Y-9198102D01*
X5265000Y-9398061D01*
X660000Y-9398061D01*
X660000Y-3032279D01*
X684748Y-2779872D01*
X765000Y-2779872D01*
X765000Y-3220128D01*
X850890Y-3651925D01*
X1019369Y-4058669D01*
X1263962Y-4424729D01*
X1575271Y-4736038D01*
X1941331Y-4980631D01*
X2348075Y-5149110D01*
X2779872Y-5235000D01*
X3220128Y-5235000D01*
X3651925Y-5149110D01*
X4058669Y-4980631D01*
X4424729Y-4736038D01*
X4736038Y-4424729D01*
X4980631Y-4058669D01*
X5149110Y-3651925D01*
X5235000Y-3220128D01*
X5235000Y-3168514D01*
X48465000Y-3168514D01*
X48465000Y-3431486D01*
X48516304Y-3689405D01*
X48616939Y-3932359D01*
X48763038Y-4151013D01*
X48948987Y-4336962D01*
X49167641Y-4483061D01*
X49410595Y-4583696D01*
X49668514Y-4635000D01*
X49931486Y-4635000D01*
X50189405Y-4583696D01*
X50432359Y-4483061D01*
X50651013Y-4336962D01*
X50836962Y-4151013D01*
X50983061Y-3932359D01*
X51083696Y-3689405D01*
X51135000Y-3431486D01*
X51135000Y-3168514D01*
X59465000Y-3168514D01*
X59465000Y-3431486D01*
X59516304Y-3689405D01*
X59616939Y-3932359D01*
X59763038Y-4151013D01*
X59948987Y-4336962D01*
X60167641Y-4483061D01*
X60410595Y-4583696D01*
X60668514Y-4635000D01*
X60931486Y-4635000D01*
X61189405Y-4583696D01*
X61432359Y-4483061D01*
X61651013Y-4336962D01*
X61836962Y-4151013D01*
X61983061Y-3932359D01*
X62083696Y-3689405D01*
X62135000Y-3431486D01*
X62135000Y-3168514D01*
X62083696Y-2910595D01*
X62029549Y-2779872D01*
X64765000Y-2779872D01*
X64765000Y-3220128D01*
X64850890Y-3651925D01*
X65019369Y-4058669D01*
X65263962Y-4424729D01*
X65575271Y-4736038D01*
X65941331Y-4980631D01*
X66348075Y-5149110D01*
X66779872Y-5235000D01*
X67220128Y-5235000D01*
X67651925Y-5149110D01*
X68058669Y-4980631D01*
X68424729Y-4736038D01*
X68736038Y-4424729D01*
X68980631Y-4058669D01*
X69149110Y-3651925D01*
X69235000Y-3220128D01*
X69235000Y-2779872D01*
X69149110Y-2348075D01*
X68980631Y-1941331D01*
X68736038Y-1575271D01*
X68424729Y-1263962D01*
X68058669Y-1019369D01*
X67651925Y-850890D01*
X67220128Y-765000D01*
X66779872Y-765000D01*
X66348075Y-850890D01*
X65941331Y-1019369D01*
X65575271Y-1263962D01*
X65263962Y-1575271D01*
X65019369Y-1941331D01*
X64850890Y-2348075D01*
X64765000Y-2779872D01*
X62029549Y-2779872D01*
X61983061Y-2667641D01*
X61836962Y-2448987D01*
X61651013Y-2263038D01*
X61432359Y-2116939D01*
X61189405Y-2016304D01*
X60931486Y-1965000D01*
X60668514Y-1965000D01*
X60410595Y-2016304D01*
X60167641Y-2116939D01*
X59948987Y-2263038D01*
X59763038Y-2448987D01*
X59616939Y-2667641D01*
X59516304Y-2910595D01*
X59465000Y-3168514D01*
X51135000Y-3168514D01*
X51083696Y-2910595D01*
X50983061Y-2667641D01*
X50836962Y-2448987D01*
X50651013Y-2263038D01*
X50432359Y-2116939D01*
X50189405Y-2016304D01*
X49931486Y-1965000D01*
X49668514Y-1965000D01*
X49410595Y-2016304D01*
X49167641Y-2116939D01*
X48948987Y-2263038D01*
X48763038Y-2448987D01*
X48616939Y-2667641D01*
X48516304Y-2910595D01*
X48465000Y-3168514D01*
X5235000Y-3168514D01*
X5235000Y-2779872D01*
X5149110Y-2348075D01*
X4980631Y-1941331D01*
X4736038Y-1575271D01*
X4424729Y-1263962D01*
X4058669Y-1019369D01*
X3651925Y-850890D01*
X3220128Y-765000D01*
X2779872Y-765000D01*
X2348075Y-850890D01*
X1941331Y-1019369D01*
X1575271Y-1263962D01*
X1263962Y-1575271D01*
X1019369Y-1941331D01*
X850890Y-2348075D01*
X765000Y-2779872D01*
X684748Y-2779872D01*
X707670Y-2546107D01*
X839489Y-2109502D01*
X1053600Y-1706815D01*
X1341848Y-1353388D01*
X1693261Y-1062673D01*
X2094439Y-845758D01*
X2530113Y-710894D01*
X3014344Y-660000D01*
X66967721Y-660000D01*
X67453893Y-707670D01*
G37*
X67453893Y-707670D02*
X67890498Y-839489D01*
X68293185Y-1053600D01*
X68646612Y-1341848D01*
X68937327Y-1693261D01*
X69154242Y-2094439D01*
X69289106Y-2530113D01*
X69340000Y-3014344D01*
X69340001Y-36967711D01*
X69292330Y-37453894D01*
X69160512Y-37890497D01*
X68946399Y-38293186D01*
X68658150Y-38646613D01*
X68306739Y-38937327D01*
X67905564Y-39154240D01*
X67469886Y-39289106D01*
X66985664Y-39340000D01*
X3032279Y-39340000D01*
X2546106Y-39292330D01*
X2109503Y-39160512D01*
X1706814Y-38946399D01*
X1353387Y-38658150D01*
X1062673Y-38306739D01*
X845760Y-37905564D01*
X710894Y-37469886D01*
X660000Y-36985664D01*
X660000Y-36779872D01*
X765000Y-36779872D01*
X765000Y-37220128D01*
X850890Y-37651925D01*
X1019369Y-38058669D01*
X1263962Y-38424729D01*
X1575271Y-38736038D01*
X1941331Y-38980631D01*
X2348075Y-39149110D01*
X2779872Y-39235000D01*
X3220128Y-39235000D01*
X3651925Y-39149110D01*
X4058669Y-38980631D01*
X4424729Y-38736038D01*
X4736038Y-38424729D01*
X4980631Y-38058669D01*
X5149110Y-37651925D01*
X5235000Y-37220128D01*
X5235000Y-36779872D01*
X5186374Y-36535413D01*
X57316336Y-36535413D01*
X57412100Y-36799814D01*
X57701715Y-36940704D01*
X58013252Y-37022384D01*
X58334739Y-37041718D01*
X58653819Y-36997961D01*
X58958232Y-36892795D01*
X59132188Y-36799814D01*
X59139410Y-36779872D01*
X64765000Y-36779872D01*
X64765000Y-37220128D01*
X64850890Y-37651925D01*
X65019369Y-38058669D01*
X65263962Y-38424729D01*
X65575271Y-38736038D01*
X65941331Y-38980631D01*
X66348075Y-39149110D01*
X66779872Y-39235000D01*
X67220128Y-39235000D01*
X67651925Y-39149110D01*
X68058669Y-38980631D01*
X68424729Y-38736038D01*
X68736038Y-38424729D01*
X68980631Y-38058669D01*
X69149110Y-37651925D01*
X69235000Y-37220128D01*
X69235000Y-36779872D01*
X69149110Y-36348075D01*
X68980631Y-35941331D01*
X68736038Y-35575271D01*
X68424729Y-35263962D01*
X68058669Y-35019369D01*
X67651925Y-34850890D01*
X67220128Y-34765000D01*
X66779872Y-34765000D01*
X66348075Y-34850890D01*
X65941331Y-35019369D01*
X65575271Y-35263962D01*
X65263962Y-35575271D01*
X65019369Y-35941331D01*
X64850890Y-36348075D01*
X64765000Y-36779872D01*
X59139410Y-36779872D01*
X59227952Y-36535413D01*
X58272144Y-35579605D01*
X57316336Y-36535413D01*
X5186374Y-36535413D01*
X5149110Y-36348075D01*
X4980631Y-35941331D01*
X4736038Y-35575271D01*
X4623362Y-35462595D01*
X56630426Y-35462595D01*
X56674183Y-35781675D01*
X56779349Y-36086088D01*
X56872330Y-36260044D01*
X57136731Y-36355808D01*
X58092539Y-35400000D01*
X58451749Y-35400000D01*
X59407557Y-36355808D01*
X59671958Y-36260044D01*
X59812848Y-35970429D01*
X59894528Y-35658892D01*
X59913862Y-35337405D01*
X59870105Y-35018325D01*
X59764939Y-34713912D01*
X59671958Y-34539956D01*
X59407557Y-34444192D01*
X58451749Y-35400000D01*
X58092539Y-35400000D01*
X58078397Y-35385858D01*
X58258002Y-35206253D01*
X58272144Y-35220395D01*
X59227952Y-34264587D01*
X59132188Y-34000186D01*
X59127369Y-33997841D01*
X59140704Y-33970429D01*
X59222384Y-33658892D01*
X59241718Y-33337405D01*
X59197961Y-33018325D01*
X59092795Y-32713912D01*
X58999814Y-32539956D01*
X58735413Y-32444192D01*
X57779605Y-33400000D01*
X57793748Y-33414143D01*
X57614143Y-33593748D01*
X57600000Y-33579605D01*
X56644192Y-34535413D01*
X56739956Y-34799814D01*
X56744775Y-34802159D01*
X56731440Y-34829571D01*
X56649760Y-35141108D01*
X56630426Y-35462595D01*
X4623362Y-35462595D01*
X4424729Y-35263962D01*
X4058669Y-35019369D01*
X3651925Y-34850890D01*
X3220128Y-34765000D01*
X2779872Y-34765000D01*
X2348075Y-34850890D01*
X1941331Y-35019369D01*
X1575271Y-35263962D01*
X1263962Y-35575271D01*
X1019369Y-35941331D01*
X850890Y-36348075D01*
X765000Y-36779872D01*
X660000Y-36779872D01*
X660000Y-34475000D01*
X7761928Y-34475000D01*
X7774188Y-34599482D01*
X7810498Y-34719180D01*
X7869463Y-34829494D01*
X7948815Y-34926185D01*
X8045506Y-35005537D01*
X8155820Y-35064502D01*
X8275518Y-35100812D01*
X8400000Y-35113072D01*
X8714250Y-35110000D01*
X8873000Y-34951250D01*
X8873000Y-33727000D01*
X7923750Y-33727000D01*
X7765000Y-33885750D01*
X7761928Y-34475000D01*
X660000Y-34475000D01*
X660000Y-32725000D01*
X7761928Y-32725000D01*
X7765000Y-33314250D01*
X7923750Y-33473000D01*
X8873000Y-33473000D01*
X8873000Y-32248750D01*
X8714250Y-32090000D01*
X8400000Y-32086928D01*
X8275518Y-32099188D01*
X8155820Y-32135498D01*
X8045506Y-32194463D01*
X7948815Y-32273815D01*
X7869463Y-32370506D01*
X7810498Y-32480820D01*
X7774188Y-32600518D01*
X7761928Y-32725000D01*
X660000Y-32725000D01*
X660000Y-19000000D01*
X4984025Y-19000000D01*
X5007870Y-19242102D01*
X5078489Y-19474901D01*
X5193167Y-19689449D01*
X5347498Y-19877502D01*
X5496762Y-20000000D01*
X5347498Y-20122498D01*
X5193167Y-20310551D01*
X5078489Y-20525099D01*
X5007870Y-20757898D01*
X4984025Y-21000000D01*
X5007870Y-21242102D01*
X5078489Y-21474901D01*
X5193167Y-21689449D01*
X5347498Y-21877502D01*
X5496762Y-22000000D01*
X5347498Y-22122498D01*
X5193167Y-22310551D01*
X5078489Y-22525099D01*
X5007870Y-22757898D01*
X4984025Y-23000000D01*
X5007870Y-23242102D01*
X5078489Y-23474901D01*
X5193167Y-23689449D01*
X5347498Y-23877502D01*
X5535551Y-24031833D01*
X5750099Y-24146511D01*
X5982898Y-24217130D01*
X6164335Y-24235000D01*
X6835665Y-24235000D01*
X7017102Y-24217130D01*
X7249901Y-24146511D01*
X7464449Y-24031833D01*
X7652502Y-23877502D01*
X7806833Y-23689449D01*
X7921511Y-23474901D01*
X7992130Y-23242102D01*
X8015975Y-23000000D01*
X7992130Y-22757898D01*
X7921511Y-22525099D01*
X7806833Y-22310551D01*
X7652502Y-22122498D01*
X7503238Y-22000000D01*
X7652502Y-21877502D01*
X7806833Y-21689449D01*
X7921511Y-21474901D01*
X7992130Y-21242102D01*
X8015975Y-21000000D01*
X7992130Y-20757898D01*
X7921511Y-20525099D01*
X7806833Y-20310551D01*
X7652502Y-20122498D01*
X7503238Y-20000000D01*
X7652502Y-19877502D01*
X7806833Y-19689449D01*
X7921511Y-19474901D01*
X7992130Y-19242102D01*
X8015975Y-19000000D01*
X7992130Y-18757898D01*
X7921511Y-18525099D01*
X7806833Y-18310551D01*
X7680564Y-18156691D01*
X7729494Y-18130537D01*
X7826185Y-18051185D01*
X7905537Y-17954494D01*
X7964502Y-17844180D01*
X8000812Y-17724482D01*
X8013072Y-17600000D01*
X8010000Y-17285750D01*
X7851250Y-17127000D01*
X6627000Y-17127000D01*
X6627000Y-17147000D01*
X6373000Y-17147000D01*
X6373000Y-17127000D01*
X5148750Y-17127000D01*
X4990000Y-17285750D01*
X4986928Y-17600000D01*
X4999188Y-17724482D01*
X5035498Y-17844180D01*
X5094463Y-17954494D01*
X5173815Y-18051185D01*
X5270506Y-18130537D01*
X5319436Y-18156691D01*
X5193167Y-18310551D01*
X5078489Y-18525099D01*
X5007870Y-18757898D01*
X4984025Y-19000000D01*
X660000Y-19000000D01*
X660000Y-16400000D01*
X4986928Y-16400000D01*
X4990000Y-16714250D01*
X5148750Y-16873000D01*
X6373000Y-16873000D01*
X6373000Y-15923750D01*
X6627000Y-15923750D01*
X6627000Y-16873000D01*
X7851250Y-16873000D01*
X8010000Y-16714250D01*
X8013072Y-16400000D01*
X8000812Y-16275518D01*
X7964502Y-16155820D01*
X7905537Y-16045506D01*
X7826185Y-15948815D01*
X7729494Y-15869463D01*
X7619180Y-15810498D01*
X7499482Y-15774188D01*
X7375000Y-15761928D01*
X6785750Y-15765000D01*
X6627000Y-15923750D01*
X6373000Y-15923750D01*
X6214250Y-15765000D01*
X5625000Y-15761928D01*
X5500518Y-15774188D01*
X5380820Y-15810498D01*
X5270506Y-15869463D01*
X5173815Y-15948815D01*
X5094463Y-16045506D01*
X5035498Y-16155820D01*
X4999188Y-16275518D01*
X4986928Y-16400000D01*
X660000Y-16400000D01*
X660000Y-9398061D01*
X5265000Y-9398061D01*
X5265000Y-9601939D01*
X5304774Y-9801898D01*
X5382795Y-9990256D01*
X5496063Y-10159774D01*
X5640226Y-10303937D01*
X5809744Y-10417205D01*
X5998102Y-10495226D01*
X6198061Y-10535000D01*
X6401939Y-10535000D01*
X6601898Y-10495226D01*
X6790256Y-10417205D01*
X6950000Y-10310468D01*
X7109744Y-10417205D01*
X7298102Y-10495226D01*
X7498061Y-10535000D01*
X7560199Y-10535000D01*
X14150001Y-17124803D01*
X14150000Y-26089532D01*
X13990256Y-25982795D01*
X13801898Y-25904774D01*
X13601939Y-25865000D01*
X13398061Y-25865000D01*
X13198102Y-25904774D01*
X13009744Y-25982795D01*
X12840226Y-26096063D01*
X12696063Y-26240226D01*
X12582795Y-26409744D01*
X12504774Y-26598102D01*
X12465000Y-26798061D01*
X12465000Y-27001939D01*
X12504774Y-27201898D01*
X12582795Y-27390256D01*
X12696063Y-27559774D01*
X12840226Y-27703937D01*
X13009744Y-27817205D01*
X13198102Y-27895226D01*
X13398061Y-27935000D01*
X13460199Y-27935000D01*
X13940000Y-28414802D01*
X13940001Y-29796288D01*
X13896063Y-29840226D01*
X13782795Y-30009744D01*
X13704774Y-30198102D01*
X13665000Y-30398061D01*
X13665000Y-30601939D01*
X13704774Y-30801898D01*
X13782795Y-30990256D01*
X13896063Y-31159774D01*
X14040226Y-31303937D01*
X14209744Y-31417205D01*
X14398102Y-31495226D01*
X14598061Y-31535000D01*
X14801939Y-31535000D01*
X14912112Y-31513085D01*
X13922667Y-32502532D01*
X13877502Y-32447498D01*
X13689448Y-32293167D01*
X13474900Y-32178489D01*
X13242101Y-32107870D01*
X13000000Y-32084025D01*
X12757898Y-32107870D01*
X12525099Y-32178489D01*
X12310551Y-32293167D01*
X12135000Y-32437238D01*
X12135000Y-30388212D01*
X12124068Y-30333253D01*
X12118577Y-30277501D01*
X12102315Y-30223894D01*
X12091383Y-30168933D01*
X12069937Y-30117158D01*
X12053676Y-30063553D01*
X12027269Y-30014149D01*
X12005824Y-29962376D01*
X11974693Y-29915786D01*
X11948284Y-29866377D01*
X11912741Y-29823068D01*
X11881612Y-29776480D01*
X11841991Y-29736859D01*
X11806449Y-29693551D01*
X11763141Y-29658009D01*
X11723520Y-29618388D01*
X11676932Y-29587259D01*
X11633623Y-29551716D01*
X11584214Y-29525307D01*
X11537624Y-29494176D01*
X11485851Y-29472731D01*
X11436447Y-29446324D01*
X11382842Y-29430063D01*
X11331067Y-29408617D01*
X11276106Y-29397685D01*
X11222499Y-29381423D01*
X11166747Y-29375932D01*
X11111788Y-29365000D01*
X11055752Y-29365000D01*
X11000000Y-29359509D01*
X10944249Y-29365000D01*
X10888212Y-29365000D01*
X10833252Y-29375932D01*
X10777502Y-29381423D01*
X10723897Y-29397684D01*
X10668933Y-29408617D01*
X10617155Y-29430064D01*
X10563554Y-29446324D01*
X10514153Y-29472729D01*
X10462376Y-29494176D01*
X10415782Y-29525309D01*
X10366378Y-29551716D01*
X10323074Y-29587255D01*
X10276480Y-29618388D01*
X10236855Y-29658013D01*
X10193552Y-29693551D01*
X10158014Y-29736854D01*
X10118388Y-29776480D01*
X10087254Y-29823075D01*
X10051717Y-29866377D01*
X10025312Y-29915778D01*
X9994176Y-29962376D01*
X9972728Y-30014157D01*
X9946325Y-30063553D01*
X9930067Y-30117149D01*
X9908617Y-30168933D01*
X9897683Y-30223904D01*
X9881424Y-30277501D01*
X9875934Y-30333243D01*
X9865000Y-30388212D01*
X9865000Y-30611788D01*
X9865001Y-30611793D01*
X9865000Y-32146627D01*
X9844180Y-32135498D01*
X9724482Y-32099188D01*
X9600000Y-32086928D01*
X9285750Y-32090000D01*
X9127000Y-32248750D01*
X9127000Y-33473000D01*
X9147000Y-33473000D01*
X9147000Y-33727000D01*
X9127000Y-33727000D01*
X9127000Y-34951250D01*
X9285750Y-35110000D01*
X9600000Y-35113072D01*
X9724482Y-35100812D01*
X9844180Y-35064502D01*
X9954494Y-35005537D01*
X10051185Y-34926185D01*
X10130537Y-34829494D01*
X10156692Y-34780563D01*
X10310552Y-34906833D01*
X10525100Y-35021511D01*
X10757899Y-35092130D01*
X11000000Y-35115975D01*
X11242102Y-35092130D01*
X11474901Y-35021511D01*
X11689449Y-34906833D01*
X11877502Y-34752502D01*
X12000001Y-34603237D01*
X12122499Y-34752502D01*
X12310552Y-34906833D01*
X12525100Y-35021511D01*
X12757899Y-35092130D01*
X13000000Y-35115975D01*
X13242102Y-35092130D01*
X13474901Y-35021511D01*
X13689449Y-34906833D01*
X13877502Y-34752502D01*
X14031833Y-34564449D01*
X14079644Y-34475000D01*
X17761928Y-34475000D01*
X17774188Y-34599482D01*
X17810498Y-34719180D01*
X17869463Y-34829494D01*
X17948815Y-34926185D01*
X18045506Y-35005537D01*
X18155820Y-35064502D01*
X18275518Y-35100812D01*
X18400000Y-35113072D01*
X18714250Y-35110000D01*
X18873000Y-34951250D01*
X18873000Y-33727000D01*
X17923750Y-33727000D01*
X17765000Y-33885750D01*
X17761928Y-34475000D01*
X14079644Y-34475000D01*
X14146511Y-34349900D01*
X14156694Y-34316331D01*
X14192247Y-34305546D01*
X14324276Y-34234974D01*
X14440001Y-34140001D01*
X14463804Y-34110998D01*
X15849802Y-32725000D01*
X17761928Y-32725000D01*
X17765000Y-33314250D01*
X17923750Y-33473000D01*
X18873000Y-33473000D01*
X18873000Y-32248750D01*
X18714250Y-32090000D01*
X18400000Y-32086928D01*
X18275518Y-32099188D01*
X18155820Y-32135498D01*
X18045506Y-32194463D01*
X17948815Y-32273815D01*
X17869463Y-32370506D01*
X17810498Y-32480820D01*
X17774188Y-32600518D01*
X17761928Y-32725000D01*
X15849802Y-32725000D01*
X16511008Y-32063795D01*
X16540001Y-32040001D01*
X16563795Y-32011008D01*
X16563799Y-32011004D01*
X16634973Y-31924277D01*
X16634974Y-31924276D01*
X16705546Y-31792247D01*
X16749003Y-31648986D01*
X16760000Y-31537333D01*
X16760000Y-31537324D01*
X16763676Y-31500001D01*
X16760000Y-31462678D01*
X16760000Y-31383967D01*
X16809744Y-31417205D01*
X16998102Y-31495226D01*
X17198061Y-31535000D01*
X17401939Y-31535000D01*
X17601898Y-31495226D01*
X17790256Y-31417205D01*
X17959774Y-31303937D01*
X18103937Y-31159774D01*
X18217205Y-30990256D01*
X18295226Y-30801898D01*
X18335000Y-30601939D01*
X18335000Y-30398061D01*
X18295226Y-30198102D01*
X18217205Y-30009744D01*
X18146250Y-29903552D01*
X19681244Y-28368559D01*
X19688734Y-28386642D01*
X19802002Y-28556160D01*
X19946165Y-28700323D01*
X20115683Y-28813591D01*
X20304041Y-28891612D01*
X20504000Y-28931386D01*
X20707878Y-28931386D01*
X20907837Y-28891612D01*
X21096195Y-28813591D01*
X21265713Y-28700323D01*
X21289411Y-28676625D01*
X23623789Y-31011003D01*
X23647587Y-31040001D01*
X23763312Y-31134974D01*
X23895341Y-31205546D01*
X23962080Y-31225791D01*
X24040226Y-31303937D01*
X24209744Y-31417205D01*
X24398102Y-31495226D01*
X24598061Y-31535000D01*
X24801939Y-31535000D01*
X24912112Y-31513085D01*
X23922667Y-32502532D01*
X23877502Y-32447498D01*
X23689448Y-32293167D01*
X23474900Y-32178489D01*
X23242101Y-32107870D01*
X23000000Y-32084025D01*
X22757898Y-32107870D01*
X22525099Y-32178489D01*
X22310551Y-32293167D01*
X22135000Y-32437238D01*
X22135000Y-30388212D01*
X22124068Y-30333253D01*
X22118577Y-30277501D01*
X22102315Y-30223894D01*
X22091383Y-30168933D01*
X22069937Y-30117158D01*
X22053676Y-30063553D01*
X22027269Y-30014149D01*
X22005824Y-29962376D01*
X21974693Y-29915786D01*
X21948284Y-29866377D01*
X21912741Y-29823068D01*
X21881612Y-29776480D01*
X21841991Y-29736859D01*
X21806449Y-29693551D01*
X21763141Y-29658009D01*
X21723520Y-29618388D01*
X21676932Y-29587259D01*
X21633623Y-29551716D01*
X21584214Y-29525307D01*
X21537624Y-29494176D01*
X21485851Y-29472731D01*
X21436447Y-29446324D01*
X21382842Y-29430063D01*
X21331067Y-29408617D01*
X21276106Y-29397685D01*
X21222499Y-29381423D01*
X21166747Y-29375932D01*
X21111788Y-29365000D01*
X21055752Y-29365000D01*
X21000000Y-29359509D01*
X20944249Y-29365000D01*
X20888212Y-29365000D01*
X20833252Y-29375932D01*
X20777502Y-29381423D01*
X20723897Y-29397684D01*
X20668933Y-29408617D01*
X20617155Y-29430064D01*
X20563554Y-29446324D01*
X20514153Y-29472729D01*
X20462376Y-29494176D01*
X20415782Y-29525309D01*
X20366378Y-29551716D01*
X20323074Y-29587255D01*
X20276480Y-29618388D01*
X20236855Y-29658013D01*
X20193552Y-29693551D01*
X20158014Y-29736854D01*
X20118388Y-29776480D01*
X20087254Y-29823075D01*
X20051717Y-29866377D01*
X20025312Y-29915778D01*
X19994176Y-29962376D01*
X19972728Y-30014157D01*
X19946325Y-30063553D01*
X19930067Y-30117149D01*
X19908617Y-30168933D01*
X19897683Y-30223904D01*
X19881424Y-30277501D01*
X19875934Y-30333243D01*
X19865000Y-30388212D01*
X19865000Y-30611788D01*
X19865001Y-30611793D01*
X19865000Y-32146627D01*
X19844180Y-32135498D01*
X19724482Y-32099188D01*
X19600000Y-32086928D01*
X19285750Y-32090000D01*
X19127000Y-32248750D01*
X19127000Y-33473000D01*
X19147000Y-33473000D01*
X19147000Y-33727000D01*
X19127000Y-33727000D01*
X19127000Y-34951250D01*
X19285750Y-35110000D01*
X19600000Y-35113072D01*
X19724482Y-35100812D01*
X19844180Y-35064502D01*
X19954494Y-35005537D01*
X20051185Y-34926185D01*
X20130537Y-34829494D01*
X20156692Y-34780563D01*
X20310552Y-34906833D01*
X20525100Y-35021511D01*
X20757899Y-35092130D01*
X21000000Y-35115975D01*
X21242102Y-35092130D01*
X21474901Y-35021511D01*
X21689449Y-34906833D01*
X21877502Y-34752502D01*
X22000001Y-34603237D01*
X22122499Y-34752502D01*
X22310552Y-34906833D01*
X22525100Y-35021511D01*
X22757899Y-35092130D01*
X23000000Y-35115975D01*
X23242102Y-35092130D01*
X23474901Y-35021511D01*
X23689449Y-34906833D01*
X23877502Y-34752502D01*
X24031833Y-34564449D01*
X24079644Y-34475000D01*
X27761928Y-34475000D01*
X27774188Y-34599482D01*
X27810498Y-34719180D01*
X27869463Y-34829494D01*
X27948815Y-34926185D01*
X28045506Y-35005537D01*
X28155820Y-35064502D01*
X28275518Y-35100812D01*
X28400000Y-35113072D01*
X28714250Y-35110000D01*
X28873000Y-34951250D01*
X28873000Y-33727000D01*
X27923750Y-33727000D01*
X27765000Y-33885750D01*
X27761928Y-34475000D01*
X24079644Y-34475000D01*
X24146511Y-34349900D01*
X24156694Y-34316331D01*
X24192247Y-34305546D01*
X24324276Y-34234974D01*
X24440001Y-34140001D01*
X24463804Y-34110998D01*
X25849802Y-32725000D01*
X27761928Y-32725000D01*
X27765000Y-33314250D01*
X27923750Y-33473000D01*
X28873000Y-33473000D01*
X28873000Y-32248750D01*
X28714250Y-32090000D01*
X28400000Y-32086928D01*
X28275518Y-32099188D01*
X28155820Y-32135498D01*
X28045506Y-32194463D01*
X27948815Y-32273815D01*
X27869463Y-32370506D01*
X27810498Y-32480820D01*
X27774188Y-32600518D01*
X27761928Y-32725000D01*
X25849802Y-32725000D01*
X26511008Y-32063795D01*
X26540001Y-32040001D01*
X26563795Y-32011008D01*
X26563799Y-32011004D01*
X26634973Y-31924277D01*
X26634974Y-31924276D01*
X26705546Y-31792247D01*
X26749003Y-31648986D01*
X26760000Y-31537333D01*
X26760000Y-31537324D01*
X26763676Y-31500001D01*
X26760000Y-31462678D01*
X26760000Y-31383967D01*
X26809744Y-31417205D01*
X26998102Y-31495226D01*
X27198061Y-31535000D01*
X27401939Y-31535000D01*
X27601898Y-31495226D01*
X27790256Y-31417205D01*
X27959774Y-31303937D01*
X28103937Y-31159774D01*
X28217205Y-30990256D01*
X28295226Y-30801898D01*
X28335000Y-30601939D01*
X28335000Y-30398061D01*
X28295226Y-30198102D01*
X28217205Y-30009744D01*
X28103937Y-29840226D01*
X28060000Y-29796289D01*
X28060000Y-29789731D01*
X28063676Y-29752408D01*
X28060000Y-29715085D01*
X28060000Y-29715075D01*
X28049003Y-29603422D01*
X28005546Y-29460161D01*
X27977995Y-29408617D01*
X27934974Y-29328131D01*
X27863799Y-29241405D01*
X27840001Y-29212407D01*
X27811004Y-29188610D01*
X27732405Y-29110011D01*
X31039665Y-29110011D01*
X31076987Y-29113687D01*
X31114309Y-29110011D01*
X31114320Y-29110011D01*
X31225973Y-29099014D01*
X31369234Y-29055557D01*
X31501263Y-28984985D01*
X31616988Y-28890012D01*
X31640791Y-28861008D01*
X31969044Y-28532755D01*
X32040226Y-28603937D01*
X32209744Y-28717205D01*
X32398102Y-28795226D01*
X32598061Y-28835000D01*
X32660199Y-28835000D01*
X33803682Y-29978484D01*
X33782795Y-30009744D01*
X33704774Y-30198102D01*
X33665000Y-30398061D01*
X33665000Y-30601939D01*
X33704774Y-30801898D01*
X33782795Y-30990256D01*
X33896063Y-31159774D01*
X34040226Y-31303937D01*
X34209744Y-31417205D01*
X34398102Y-31495226D01*
X34598061Y-31535000D01*
X34801939Y-31535000D01*
X34912112Y-31513085D01*
X33922667Y-32502532D01*
X33877502Y-32447498D01*
X33689448Y-32293167D01*
X33474900Y-32178489D01*
X33242101Y-32107870D01*
X33000000Y-32084025D01*
X32757898Y-32107870D01*
X32525099Y-32178489D01*
X32310551Y-32293167D01*
X32135000Y-32437238D01*
X32135000Y-30388212D01*
X32124068Y-30333253D01*
X32118577Y-30277501D01*
X32102315Y-30223894D01*
X32091383Y-30168933D01*
X32069937Y-30117158D01*
X32053676Y-30063553D01*
X32027269Y-30014149D01*
X32005824Y-29962376D01*
X31974693Y-29915786D01*
X31948284Y-29866377D01*
X31912741Y-29823068D01*
X31881612Y-29776480D01*
X31841991Y-29736859D01*
X31806449Y-29693551D01*
X31763141Y-29658009D01*
X31723520Y-29618388D01*
X31676932Y-29587259D01*
X31633623Y-29551716D01*
X31584214Y-29525307D01*
X31537624Y-29494176D01*
X31485851Y-29472731D01*
X31436447Y-29446324D01*
X31382842Y-29430063D01*
X31331067Y-29408617D01*
X31276106Y-29397685D01*
X31222499Y-29381423D01*
X31166747Y-29375932D01*
X31111788Y-29365000D01*
X31055752Y-29365000D01*
X31000000Y-29359509D01*
X30944249Y-29365000D01*
X30888212Y-29365000D01*
X30833252Y-29375932D01*
X30777502Y-29381423D01*
X30723897Y-29397684D01*
X30668933Y-29408617D01*
X30617155Y-29430064D01*
X30563554Y-29446324D01*
X30514153Y-29472729D01*
X30462376Y-29494176D01*
X30415782Y-29525309D01*
X30366378Y-29551716D01*
X30323074Y-29587255D01*
X30276480Y-29618388D01*
X30236855Y-29658013D01*
X30193552Y-29693551D01*
X30158014Y-29736854D01*
X30118388Y-29776480D01*
X30087254Y-29823075D01*
X30051717Y-29866377D01*
X30025312Y-29915778D01*
X29994176Y-29962376D01*
X29972728Y-30014157D01*
X29946325Y-30063553D01*
X29930067Y-30117149D01*
X29908617Y-30168933D01*
X29897683Y-30223904D01*
X29881424Y-30277501D01*
X29875934Y-30333243D01*
X29865000Y-30388212D01*
X29865000Y-30611788D01*
X29865001Y-30611793D01*
X29865000Y-32146627D01*
X29844180Y-32135498D01*
X29724482Y-32099188D01*
X29600000Y-32086928D01*
X29285750Y-32090000D01*
X29127000Y-32248750D01*
X29127000Y-33473000D01*
X29147000Y-33473000D01*
X29147000Y-33727000D01*
X29127000Y-33727000D01*
X29127000Y-34951250D01*
X29285750Y-35110000D01*
X29600000Y-35113072D01*
X29724482Y-35100812D01*
X29844180Y-35064502D01*
X29954494Y-35005537D01*
X30051185Y-34926185D01*
X30130537Y-34829494D01*
X30156692Y-34780563D01*
X30310552Y-34906833D01*
X30525100Y-35021511D01*
X30757899Y-35092130D01*
X31000000Y-35115975D01*
X31242102Y-35092130D01*
X31474901Y-35021511D01*
X31689449Y-34906833D01*
X31877502Y-34752502D01*
X32000001Y-34603237D01*
X32122499Y-34752502D01*
X32310552Y-34906833D01*
X32525100Y-35021511D01*
X32757899Y-35092130D01*
X33000000Y-35115975D01*
X33242102Y-35092130D01*
X33474901Y-35021511D01*
X33689449Y-34906833D01*
X33877502Y-34752502D01*
X34031833Y-34564449D01*
X34079644Y-34475000D01*
X37761928Y-34475000D01*
X37774188Y-34599482D01*
X37810498Y-34719180D01*
X37869463Y-34829494D01*
X37948815Y-34926185D01*
X38045506Y-35005537D01*
X38155820Y-35064502D01*
X38275518Y-35100812D01*
X38400000Y-35113072D01*
X38714250Y-35110000D01*
X38873000Y-34951250D01*
X38873000Y-33727000D01*
X37923750Y-33727000D01*
X37765000Y-33885750D01*
X37761928Y-34475000D01*
X34079644Y-34475000D01*
X34146511Y-34349900D01*
X34156694Y-34316331D01*
X34192247Y-34305546D01*
X34324276Y-34234974D01*
X34440001Y-34140001D01*
X34463804Y-34110998D01*
X35849802Y-32725000D01*
X37761928Y-32725000D01*
X37765000Y-33314250D01*
X37923750Y-33473000D01*
X38873000Y-33473000D01*
X38873000Y-32248750D01*
X38714250Y-32090000D01*
X38400000Y-32086928D01*
X38275518Y-32099188D01*
X38155820Y-32135498D01*
X38045506Y-32194463D01*
X37948815Y-32273815D01*
X37869463Y-32370506D01*
X37810498Y-32480820D01*
X37774188Y-32600518D01*
X37761928Y-32725000D01*
X35849802Y-32725000D01*
X36511008Y-32063795D01*
X36540001Y-32040001D01*
X36563795Y-32011008D01*
X36563799Y-32011004D01*
X36634973Y-31924277D01*
X36634974Y-31924276D01*
X36705546Y-31792247D01*
X36749003Y-31648986D01*
X36760000Y-31537333D01*
X36760000Y-31537324D01*
X36763676Y-31500001D01*
X36760000Y-31462678D01*
X36760000Y-31383967D01*
X36809744Y-31417205D01*
X36998102Y-31495226D01*
X37198061Y-31535000D01*
X37401939Y-31535000D01*
X37601898Y-31495226D01*
X37790256Y-31417205D01*
X37959774Y-31303937D01*
X38103937Y-31159774D01*
X38217205Y-30990256D01*
X38295226Y-30801898D01*
X38335000Y-30601939D01*
X38335000Y-30398061D01*
X38295226Y-30198102D01*
X38217205Y-30009744D01*
X38103937Y-29840226D01*
X38060000Y-29796289D01*
X38060000Y-29789730D01*
X38063676Y-29752407D01*
X38060000Y-29715084D01*
X38060000Y-29715075D01*
X38049003Y-29603422D01*
X38005546Y-29460161D01*
X37977995Y-29408617D01*
X37934974Y-29328131D01*
X37863799Y-29241405D01*
X37840001Y-29212407D01*
X37811004Y-29188610D01*
X35982393Y-27360000D01*
X38965000Y-27360000D01*
X38965000Y-27501939D01*
X39004774Y-27701898D01*
X39082795Y-27890256D01*
X39196063Y-28059774D01*
X39340226Y-28203937D01*
X39509744Y-28317205D01*
X39698102Y-28395226D01*
X39898061Y-28435000D01*
X39960199Y-28435000D01*
X40890199Y-29365000D01*
X40888212Y-29365000D01*
X40833252Y-29375932D01*
X40777502Y-29381423D01*
X40723897Y-29397684D01*
X40668933Y-29408617D01*
X40617155Y-29430064D01*
X40563554Y-29446324D01*
X40514153Y-29472729D01*
X40462376Y-29494176D01*
X40415782Y-29525309D01*
X40366378Y-29551716D01*
X40323074Y-29587255D01*
X40276480Y-29618388D01*
X40236855Y-29658013D01*
X40193552Y-29693551D01*
X40158014Y-29736854D01*
X40118388Y-29776480D01*
X40087254Y-29823075D01*
X40051717Y-29866377D01*
X40025312Y-29915778D01*
X39994176Y-29962376D01*
X39972728Y-30014157D01*
X39946325Y-30063553D01*
X39930067Y-30117149D01*
X39908617Y-30168933D01*
X39897683Y-30223904D01*
X39881424Y-30277501D01*
X39875934Y-30333243D01*
X39865000Y-30388212D01*
X39865000Y-30611788D01*
X39865001Y-30611793D01*
X39865000Y-32146627D01*
X39844180Y-32135498D01*
X39724482Y-32099188D01*
X39600000Y-32086928D01*
X39285750Y-32090000D01*
X39127000Y-32248750D01*
X39127000Y-33473000D01*
X39147000Y-33473000D01*
X39147000Y-33727000D01*
X39127000Y-33727000D01*
X39127000Y-34951250D01*
X39285750Y-35110000D01*
X39600000Y-35113072D01*
X39724482Y-35100812D01*
X39844180Y-35064502D01*
X39954494Y-35005537D01*
X40051185Y-34926185D01*
X40130537Y-34829494D01*
X40156692Y-34780563D01*
X40310552Y-34906833D01*
X40525100Y-35021511D01*
X40757899Y-35092130D01*
X41000000Y-35115975D01*
X41242102Y-35092130D01*
X41474901Y-35021511D01*
X41689449Y-34906833D01*
X41877502Y-34752502D01*
X42000001Y-34603237D01*
X42122499Y-34752502D01*
X42310552Y-34906833D01*
X42525100Y-35021511D01*
X42757899Y-35092130D01*
X43000000Y-35115975D01*
X43242102Y-35092130D01*
X43474901Y-35021511D01*
X43689449Y-34906833D01*
X43877502Y-34752502D01*
X44031833Y-34564449D01*
X44146511Y-34349900D01*
X44156694Y-34316331D01*
X44192247Y-34305546D01*
X44324276Y-34234974D01*
X44440001Y-34140001D01*
X44463804Y-34110998D01*
X46511008Y-32063795D01*
X46540001Y-32040001D01*
X46563795Y-32011008D01*
X46563799Y-32011004D01*
X46634973Y-31924277D01*
X46634974Y-31924276D01*
X46705546Y-31792247D01*
X46749003Y-31648986D01*
X46760000Y-31537333D01*
X46760000Y-31537324D01*
X46763676Y-31500001D01*
X46760000Y-31462678D01*
X46760000Y-31383967D01*
X46809744Y-31417205D01*
X46998102Y-31495226D01*
X47198061Y-31535000D01*
X47401939Y-31535000D01*
X47601898Y-31495226D01*
X47790256Y-31417205D01*
X47959774Y-31303937D01*
X48103937Y-31159774D01*
X48217205Y-30990256D01*
X48295226Y-30801898D01*
X48335000Y-30601939D01*
X48335000Y-30400000D01*
X50289784Y-30400000D01*
X50289784Y-32400000D01*
X50302044Y-32524482D01*
X50338354Y-32644180D01*
X50397319Y-32754494D01*
X50476671Y-32851185D01*
X50573362Y-32930537D01*
X50683676Y-32989502D01*
X50803374Y-33025812D01*
X50927856Y-33038072D01*
X50961928Y-33038072D01*
X50961928Y-34400000D01*
X50974188Y-34524482D01*
X51010498Y-34644180D01*
X51069463Y-34754494D01*
X51148815Y-34851185D01*
X51245506Y-34930537D01*
X51355820Y-34989502D01*
X51475518Y-35025812D01*
X51600000Y-35038072D01*
X53600000Y-35038072D01*
X53724482Y-35025812D01*
X53844180Y-34989502D01*
X53954494Y-34930537D01*
X54051185Y-34851185D01*
X54130537Y-34754494D01*
X54189502Y-34644180D01*
X54225812Y-34524482D01*
X54238072Y-34400000D01*
X54238072Y-33462595D01*
X55958282Y-33462595D01*
X56002039Y-33781675D01*
X56107205Y-34086088D01*
X56200186Y-34260044D01*
X56464587Y-34355808D01*
X57420395Y-33400000D01*
X56464587Y-32444192D01*
X56200186Y-32539956D01*
X56059296Y-32829571D01*
X55977616Y-33141108D01*
X55958282Y-33462595D01*
X54238072Y-33462595D01*
X54238072Y-32400000D01*
X54225812Y-32275518D01*
X54222497Y-32264587D01*
X56644192Y-32264587D01*
X57600000Y-33220395D01*
X58555808Y-32264587D01*
X58460044Y-32000186D01*
X58170429Y-31859296D01*
X57858892Y-31777616D01*
X57537405Y-31758282D01*
X57218325Y-31802039D01*
X56913912Y-31907205D01*
X56739956Y-32000186D01*
X56644192Y-32264587D01*
X54222497Y-32264587D01*
X54189502Y-32155820D01*
X54130537Y-32045506D01*
X54051185Y-31948815D01*
X53954494Y-31869463D01*
X53844180Y-31810498D01*
X53724482Y-31774188D01*
X53600000Y-31761928D01*
X53565928Y-31761928D01*
X53565928Y-30400000D01*
X53553668Y-30275518D01*
X53517358Y-30155820D01*
X53458393Y-30045506D01*
X53379041Y-29948815D01*
X53282350Y-29869463D01*
X53172036Y-29810498D01*
X53052338Y-29774188D01*
X52927856Y-29761928D01*
X50927856Y-29761928D01*
X50803374Y-29774188D01*
X50683676Y-29810498D01*
X50573362Y-29869463D01*
X50476671Y-29948815D01*
X50397319Y-30045506D01*
X50338354Y-30155820D01*
X50302044Y-30275518D01*
X50289784Y-30400000D01*
X48335000Y-30400000D01*
X48335000Y-30398061D01*
X48295226Y-30198102D01*
X48217205Y-30009744D01*
X48103937Y-29840226D01*
X48060000Y-29796289D01*
X48060000Y-29789730D01*
X48063676Y-29752407D01*
X48060000Y-29715084D01*
X48060000Y-29715075D01*
X48049003Y-29603422D01*
X48005546Y-29460161D01*
X47934974Y-29328132D01*
X47840001Y-29212407D01*
X47811004Y-29188610D01*
X46589938Y-27967544D01*
X46623561Y-27763166D01*
X46025000Y-27164605D01*
X46010858Y-27178748D01*
X45888533Y-27056423D01*
X45890379Y-26985000D01*
X46204605Y-26985000D01*
X46803166Y-27583561D01*
X47016588Y-27548450D01*
X47107458Y-27344174D01*
X47156731Y-27126095D01*
X47162511Y-26902594D01*
X47124577Y-26682260D01*
X47044387Y-26473560D01*
X47016588Y-26421550D01*
X46803166Y-26386439D01*
X46204605Y-26985000D01*
X45890379Y-26985000D01*
X45892325Y-26909785D01*
X46010858Y-26791253D01*
X46025000Y-26805395D01*
X46623561Y-26206834D01*
X46588450Y-25993412D01*
X46384174Y-25902542D01*
X46166095Y-25853269D01*
X45942594Y-25847489D01*
X45722260Y-25885423D01*
X45513560Y-25965613D01*
X45461550Y-25993412D01*
X45440790Y-26119602D01*
X45390000Y-26170392D01*
X45339210Y-26119602D01*
X45318450Y-25993412D01*
X45114174Y-25902542D01*
X44896095Y-25853269D01*
X44672594Y-25847489D01*
X44452260Y-25885423D01*
X44243560Y-25965613D01*
X44191550Y-25993412D01*
X44156439Y-26206834D01*
X44755000Y-26805395D01*
X44769143Y-26791253D01*
X44891467Y-26913577D01*
X44887939Y-27050001D01*
X44612111Y-27050001D01*
X44561253Y-26999143D01*
X44575395Y-26985000D01*
X43976834Y-26386439D01*
X43763412Y-26421550D01*
X43672542Y-26625826D01*
X43659288Y-26684487D01*
X43063804Y-26089003D01*
X43040001Y-26059999D01*
X42924276Y-25965026D01*
X42792247Y-25894454D01*
X42648986Y-25850997D01*
X42537333Y-25840000D01*
X42537322Y-25840000D01*
X42500000Y-25836324D01*
X42462678Y-25840000D01*
X32227912Y-25840000D01*
X32190587Y-25836324D01*
X32153262Y-25840000D01*
X32153254Y-25840000D01*
X32041601Y-25850997D01*
X31898340Y-25894454D01*
X31766311Y-25965026D01*
X31650586Y-26059999D01*
X31626788Y-26088997D01*
X31188800Y-26526986D01*
X31155824Y-26447376D01*
X31031612Y-26261480D01*
X30873520Y-26103388D01*
X30687624Y-25979176D01*
X30481067Y-25893617D01*
X30261788Y-25850000D01*
X30038212Y-25850000D01*
X29818933Y-25893617D01*
X29612376Y-25979176D01*
X29515000Y-26044241D01*
X29417624Y-25979176D01*
X29211067Y-25893617D01*
X28991788Y-25850000D01*
X28768212Y-25850000D01*
X28548933Y-25893617D01*
X28342376Y-25979176D01*
X28245000Y-26044241D01*
X28147624Y-25979176D01*
X27941067Y-25893617D01*
X27721788Y-25850000D01*
X27498212Y-25850000D01*
X27278933Y-25893617D01*
X27072376Y-25979176D01*
X26975000Y-26044241D01*
X26877624Y-25979176D01*
X26671067Y-25893617D01*
X26451788Y-25850000D01*
X26228212Y-25850000D01*
X26008933Y-25893617D01*
X25802376Y-25979176D01*
X25705000Y-26044241D01*
X25607624Y-25979176D01*
X25401067Y-25893617D01*
X25181788Y-25850000D01*
X24958212Y-25850000D01*
X24738933Y-25893617D01*
X24532376Y-25979176D01*
X24435000Y-26044241D01*
X24337624Y-25979176D01*
X24131067Y-25893617D01*
X23911788Y-25850000D01*
X23688212Y-25850000D01*
X23468933Y-25893617D01*
X23262376Y-25979176D01*
X23165000Y-26044241D01*
X23067624Y-25979176D01*
X22861067Y-25893617D01*
X22641788Y-25850000D01*
X22418212Y-25850000D01*
X22301607Y-25873194D01*
X24236327Y-23938474D01*
X52310000Y-23938474D01*
X52310000Y-24261526D01*
X52373025Y-24578370D01*
X52496651Y-24876831D01*
X52676129Y-25145439D01*
X52904561Y-25373871D01*
X53173169Y-25553349D01*
X53471630Y-25676975D01*
X53788474Y-25740000D01*
X54111526Y-25740000D01*
X54428370Y-25676975D01*
X54726831Y-25553349D01*
X54995439Y-25373871D01*
X55223871Y-25145439D01*
X55403349Y-24876831D01*
X55526975Y-24578370D01*
X55590000Y-24261526D01*
X55590000Y-23938474D01*
X56860000Y-23938474D01*
X56860000Y-24261526D01*
X56923025Y-24578370D01*
X57046651Y-24876831D01*
X57226129Y-25145439D01*
X57454561Y-25373871D01*
X57723169Y-25553349D01*
X58021630Y-25676975D01*
X58338474Y-25740000D01*
X58661526Y-25740000D01*
X58978370Y-25676975D01*
X59276831Y-25553349D01*
X59545439Y-25373871D01*
X59773871Y-25145439D01*
X59953349Y-24876831D01*
X60076975Y-24578370D01*
X60140000Y-24261526D01*
X60140000Y-23938474D01*
X60076975Y-23621630D01*
X59953349Y-23323169D01*
X59773871Y-23054561D01*
X59545439Y-22826129D01*
X59276831Y-22646651D01*
X58978370Y-22523025D01*
X58661526Y-22460000D01*
X58338474Y-22460000D01*
X58021630Y-22523025D01*
X57723169Y-22646651D01*
X57454561Y-22826129D01*
X57226129Y-23054561D01*
X57046651Y-23323169D01*
X56923025Y-23621630D01*
X56860000Y-23938474D01*
X55590000Y-23938474D01*
X55526975Y-23621630D01*
X55403349Y-23323169D01*
X55223871Y-23054561D01*
X54995439Y-22826129D01*
X54726831Y-22646651D01*
X54428370Y-22523025D01*
X54111526Y-22460000D01*
X53788474Y-22460000D01*
X53471630Y-22523025D01*
X53173169Y-22646651D01*
X52904561Y-22826129D01*
X52676129Y-23054561D01*
X52496651Y-23323169D01*
X52373025Y-23621630D01*
X52310000Y-23938474D01*
X24236327Y-23938474D01*
X29336327Y-18838474D01*
X51110000Y-18838474D01*
X51110000Y-19161526D01*
X51173025Y-19478370D01*
X51296651Y-19776831D01*
X51476129Y-20045439D01*
X51704561Y-20273871D01*
X51973169Y-20453349D01*
X52271630Y-20576975D01*
X52588474Y-20640000D01*
X52911526Y-20640000D01*
X53228370Y-20576975D01*
X53526831Y-20453349D01*
X53795439Y-20273871D01*
X54023871Y-20045439D01*
X54203349Y-19776831D01*
X54326975Y-19478370D01*
X54390000Y-19161526D01*
X54390000Y-18838474D01*
X55660000Y-18838474D01*
X55660000Y-19161526D01*
X55723025Y-19478370D01*
X55846651Y-19776831D01*
X56026129Y-20045439D01*
X56254561Y-20273871D01*
X56523169Y-20453349D01*
X56821630Y-20576975D01*
X57138474Y-20640000D01*
X57461526Y-20640000D01*
X57778370Y-20576975D01*
X58076831Y-20453349D01*
X58345439Y-20273871D01*
X58573871Y-20045439D01*
X58753349Y-19776831D01*
X58876975Y-19478370D01*
X58940000Y-19161526D01*
X58940000Y-18838474D01*
X58876975Y-18521630D01*
X58753349Y-18223169D01*
X58573871Y-17954561D01*
X58345439Y-17726129D01*
X58076831Y-17546651D01*
X57778370Y-17423025D01*
X57461526Y-17360000D01*
X57138474Y-17360000D01*
X56821630Y-17423025D01*
X56523169Y-17546651D01*
X56254561Y-17726129D01*
X56026129Y-17954561D01*
X55846651Y-18223169D01*
X55723025Y-18521630D01*
X55660000Y-18838474D01*
X54390000Y-18838474D01*
X54326975Y-18521630D01*
X54203349Y-18223169D01*
X54023871Y-17954561D01*
X53795439Y-17726129D01*
X53526831Y-17546651D01*
X53228370Y-17423025D01*
X52911526Y-17360000D01*
X52588474Y-17360000D01*
X52271630Y-17423025D01*
X51973169Y-17546651D01*
X51704561Y-17726129D01*
X51476129Y-17954561D01*
X51296651Y-18223169D01*
X51173025Y-18521630D01*
X51110000Y-18838474D01*
X29336327Y-18838474D01*
X35271589Y-12903212D01*
X43620000Y-12903212D01*
X43620000Y-13126788D01*
X43663617Y-13346067D01*
X43749176Y-13552624D01*
X43873388Y-13738520D01*
X44031480Y-13896612D01*
X44217376Y-14020824D01*
X44423933Y-14106383D01*
X44643212Y-14150000D01*
X44866788Y-14150000D01*
X45086067Y-14106383D01*
X45292624Y-14020824D01*
X45390000Y-13955759D01*
X45487376Y-14020824D01*
X45693933Y-14106383D01*
X45913212Y-14150000D01*
X46136788Y-14150000D01*
X46356067Y-14106383D01*
X46562624Y-14020824D01*
X46748520Y-13896612D01*
X46906612Y-13738520D01*
X47030824Y-13552624D01*
X47116383Y-13346067D01*
X47160000Y-13126788D01*
X47160000Y-13065098D01*
X50415000Y-13065098D01*
X50415000Y-13534902D01*
X50506654Y-13995679D01*
X50686440Y-14429721D01*
X50947450Y-14820349D01*
X51279651Y-15152550D01*
X51670279Y-15413560D01*
X52104321Y-15593346D01*
X52565098Y-15685000D01*
X53034902Y-15685000D01*
X53495679Y-15593346D01*
X53929721Y-15413560D01*
X54320349Y-15152550D01*
X54422899Y-15050000D01*
X55411928Y-15050000D01*
X55424188Y-15174482D01*
X55460498Y-15294180D01*
X55519463Y-15404494D01*
X55598815Y-15501185D01*
X55695506Y-15580537D01*
X55805820Y-15639502D01*
X55925518Y-15675812D01*
X56050000Y-15688072D01*
X57514250Y-15685000D01*
X57673000Y-15526250D01*
X57673000Y-13427000D01*
X57927000Y-13427000D01*
X57927000Y-15526250D01*
X58085750Y-15685000D01*
X59550000Y-15688072D01*
X59674482Y-15675812D01*
X59794180Y-15639502D01*
X59904494Y-15580537D01*
X60001185Y-15501185D01*
X60080537Y-15404494D01*
X60139502Y-15294180D01*
X60175812Y-15174482D01*
X60188072Y-15050000D01*
X60185000Y-13585750D01*
X60026250Y-13427000D01*
X57927000Y-13427000D01*
X57673000Y-13427000D01*
X55573750Y-13427000D01*
X55415000Y-13585750D01*
X55411928Y-15050000D01*
X54422899Y-15050000D01*
X54652550Y-14820349D01*
X54913560Y-14429721D01*
X55093346Y-13995679D01*
X55185000Y-13534902D01*
X55185000Y-13065098D01*
X55093346Y-12604321D01*
X54913560Y-12170279D01*
X54652550Y-11779651D01*
X54422899Y-11550000D01*
X55411928Y-11550000D01*
X55415000Y-13014250D01*
X55573750Y-13173000D01*
X57673000Y-13173000D01*
X57673000Y-11073750D01*
X57927000Y-11073750D01*
X57927000Y-13173000D01*
X60026250Y-13173000D01*
X60185000Y-13014250D01*
X60188072Y-11550000D01*
X60175812Y-11425518D01*
X60139502Y-11305820D01*
X60080537Y-11195506D01*
X60001185Y-11098815D01*
X59904494Y-11019463D01*
X59794180Y-10960498D01*
X59674482Y-10924188D01*
X59550000Y-10911928D01*
X58085750Y-10915000D01*
X57927000Y-11073750D01*
X57673000Y-11073750D01*
X57514250Y-10915000D01*
X56050000Y-10911928D01*
X55925518Y-10924188D01*
X55805820Y-10960498D01*
X55695506Y-11019463D01*
X55598815Y-11098815D01*
X55519463Y-11195506D01*
X55460498Y-11305820D01*
X55424188Y-11425518D01*
X55411928Y-11550000D01*
X54422899Y-11550000D01*
X54320349Y-11447450D01*
X53929721Y-11186440D01*
X53495679Y-11006654D01*
X53034902Y-10915000D01*
X52565098Y-10915000D01*
X52104321Y-11006654D01*
X51670279Y-11186440D01*
X51279651Y-11447450D01*
X50947450Y-11779651D01*
X50686440Y-12170279D01*
X50506654Y-12604321D01*
X50415000Y-13065098D01*
X47160000Y-13065098D01*
X47160000Y-12903212D01*
X47116383Y-12683933D01*
X47030824Y-12477376D01*
X46906612Y-12291480D01*
X46748520Y-12133388D01*
X46562624Y-12009176D01*
X46356067Y-11923617D01*
X46136788Y-11880000D01*
X45913212Y-11880000D01*
X45693933Y-11923617D01*
X45487376Y-12009176D01*
X45390000Y-12074241D01*
X45292624Y-12009176D01*
X45086067Y-11923617D01*
X44866788Y-11880000D01*
X44643212Y-11880000D01*
X44423933Y-11923617D01*
X44217376Y-12009176D01*
X44031480Y-12133388D01*
X43873388Y-12291480D01*
X43749176Y-12477376D01*
X43663617Y-12683933D01*
X43620000Y-12903212D01*
X35271589Y-12903212D01*
X37639802Y-10535000D01*
X37701939Y-10535000D01*
X37901898Y-10495226D01*
X38090256Y-10417205D01*
X38259774Y-10303937D01*
X38403937Y-10159774D01*
X38517205Y-9990256D01*
X38595226Y-9801898D01*
X38635000Y-9601939D01*
X38635000Y-9398061D01*
X38595226Y-9198102D01*
X38517205Y-9009744D01*
X38403937Y-8840226D01*
X38259774Y-8696063D01*
X38090256Y-8582795D01*
X37901898Y-8504774D01*
X37701939Y-8465000D01*
X37498061Y-8465000D01*
X37387887Y-8486915D01*
X38377334Y-7497469D01*
X38422498Y-7552502D01*
X38610551Y-7706833D01*
X38825099Y-7821511D01*
X39057898Y-7892130D01*
X39300000Y-7915975D01*
X39542101Y-7892130D01*
X39774900Y-7821511D01*
X39989448Y-7706833D01*
X40165000Y-7562762D01*
X40165001Y-9388207D01*
X40165000Y-9388212D01*
X40165000Y-9611788D01*
X40175934Y-9666757D01*
X40181424Y-9722499D01*
X40197683Y-9776096D01*
X40208617Y-9831067D01*
X40230067Y-9882851D01*
X40246325Y-9936447D01*
X40272728Y-9985843D01*
X40294176Y-10037624D01*
X40325312Y-10084222D01*
X40351717Y-10133623D01*
X40387254Y-10176925D01*
X40418388Y-10223520D01*
X40458014Y-10263146D01*
X40493552Y-10306449D01*
X40536855Y-10341987D01*
X40576480Y-10381612D01*
X40623074Y-10412745D01*
X40666378Y-10448284D01*
X40715782Y-10474691D01*
X40762376Y-10505824D01*
X40814153Y-10527271D01*
X40863554Y-10553676D01*
X40917155Y-10569936D01*
X40968933Y-10591383D01*
X41023897Y-10602316D01*
X41077502Y-10618577D01*
X41133252Y-10624068D01*
X41188212Y-10635000D01*
X41244249Y-10635000D01*
X41300000Y-10640491D01*
X41355752Y-10635000D01*
X41411788Y-10635000D01*
X41466747Y-10624068D01*
X41522499Y-10618577D01*
X41576106Y-10602315D01*
X41631067Y-10591383D01*
X41682842Y-10569937D01*
X41736447Y-10553676D01*
X41785851Y-10527269D01*
X41837624Y-10505824D01*
X41884214Y-10474693D01*
X41933623Y-10448284D01*
X41976932Y-10412741D01*
X42023520Y-10381612D01*
X42063141Y-10341991D01*
X42106449Y-10306449D01*
X42141991Y-10263141D01*
X42181612Y-10223520D01*
X42212741Y-10176932D01*
X42248284Y-10133623D01*
X42274693Y-10084214D01*
X42305824Y-10037624D01*
X42327269Y-9985851D01*
X42353676Y-9936447D01*
X42369937Y-9882842D01*
X42391383Y-9831067D01*
X42402315Y-9776106D01*
X42418577Y-9722499D01*
X42424068Y-9666747D01*
X42435000Y-9611788D01*
X42435000Y-7853373D01*
X42455820Y-7864502D01*
X42575518Y-7900812D01*
X42700000Y-7913072D01*
X43014250Y-7910000D01*
X43173000Y-7751250D01*
X43173000Y-6527000D01*
X43427000Y-6527000D01*
X43427000Y-7751250D01*
X43585750Y-7910000D01*
X43900000Y-7913072D01*
X44024482Y-7900812D01*
X44144180Y-7864502D01*
X44254494Y-7805537D01*
X44351185Y-7726185D01*
X44430537Y-7629494D01*
X44489502Y-7519180D01*
X44525812Y-7399482D01*
X44538072Y-7275000D01*
X44535000Y-6685750D01*
X44376250Y-6527000D01*
X43427000Y-6527000D01*
X43173000Y-6527000D01*
X43153000Y-6527000D01*
X43153000Y-6273000D01*
X43173000Y-6273000D01*
X43173000Y-5048750D01*
X43427000Y-5048750D01*
X43427000Y-6273000D01*
X44376250Y-6273000D01*
X44535000Y-6114250D01*
X44538072Y-5525000D01*
X44525812Y-5400518D01*
X44489502Y-5280820D01*
X44430537Y-5170506D01*
X44351185Y-5073815D01*
X44254494Y-4994463D01*
X44144180Y-4935498D01*
X44024482Y-4899188D01*
X43900000Y-4886928D01*
X43585750Y-4890000D01*
X43427000Y-5048750D01*
X43173000Y-5048750D01*
X43014250Y-4890000D01*
X42700000Y-4886928D01*
X42575518Y-4899188D01*
X42455820Y-4935498D01*
X42345506Y-4994463D01*
X42248815Y-5073815D01*
X42169463Y-5170506D01*
X42143309Y-5219436D01*
X41989449Y-5093167D01*
X41774901Y-4978489D01*
X41542102Y-4907870D01*
X41300000Y-4884025D01*
X41057899Y-4907870D01*
X40825100Y-4978489D01*
X40610552Y-5093167D01*
X40422499Y-5247498D01*
X40300001Y-5396763D01*
X40177502Y-5247498D01*
X39989449Y-5093167D01*
X39774901Y-4978489D01*
X39542102Y-4907870D01*
X39300000Y-4884025D01*
X39057899Y-4907870D01*
X38825100Y-4978489D01*
X38610552Y-5093167D01*
X38422499Y-5247498D01*
X38268168Y-5435551D01*
X38153489Y-5650099D01*
X38143305Y-5683669D01*
X38107753Y-5694454D01*
X37975724Y-5765026D01*
X37975722Y-5765027D01*
X37975723Y-5765027D01*
X37888996Y-5836201D01*
X37888992Y-5836205D01*
X37859999Y-5859999D01*
X37836205Y-5888992D01*
X35788998Y-7936201D01*
X35760000Y-7959999D01*
X35736202Y-7988997D01*
X35736201Y-7988998D01*
X35665026Y-8075724D01*
X35594454Y-8207754D01*
X35564180Y-8307558D01*
X35550998Y-8351014D01*
X35545325Y-8408617D01*
X35536324Y-8500000D01*
X35540001Y-8537332D01*
X35540001Y-8616033D01*
X35490256Y-8582795D01*
X35301898Y-8504774D01*
X35101939Y-8465000D01*
X34898061Y-8465000D01*
X34698102Y-8504774D01*
X34509744Y-8582795D01*
X34340226Y-8696063D01*
X34196063Y-8840226D01*
X34082795Y-9009744D01*
X34004774Y-9198102D01*
X33965000Y-9398061D01*
X33965000Y-9601939D01*
X34004774Y-9801898D01*
X34039490Y-9885708D01*
X31960199Y-11965000D01*
X31898061Y-11965000D01*
X31698102Y-12004774D01*
X31509744Y-12082795D01*
X31340226Y-12196063D01*
X31196063Y-12340226D01*
X31082795Y-12509744D01*
X31004774Y-12698102D01*
X30965000Y-12898061D01*
X30965000Y-13101939D01*
X31004774Y-13301898D01*
X31082795Y-13490256D01*
X31196063Y-13659774D01*
X31340226Y-13803937D01*
X31509744Y-13917205D01*
X31698102Y-13995226D01*
X31898061Y-14035000D01*
X31990198Y-14035000D01*
X20625200Y-25399999D01*
X20109802Y-25399999D01*
X28211004Y-17298798D01*
X28240001Y-17275001D01*
X28273424Y-17234275D01*
X28334974Y-17159277D01*
X28405546Y-17027247D01*
X28419030Y-16982795D01*
X28449003Y-16883986D01*
X28460000Y-16772333D01*
X28460000Y-16772323D01*
X28463676Y-16735001D01*
X28460000Y-16697678D01*
X28460000Y-10203711D01*
X28503937Y-10159774D01*
X28617205Y-9990256D01*
X28695226Y-9801898D01*
X28735000Y-9601939D01*
X28735000Y-9398061D01*
X28695226Y-9198102D01*
X28617205Y-9009744D01*
X28503937Y-8840226D01*
X28359774Y-8696063D01*
X28190256Y-8582795D01*
X28001898Y-8504774D01*
X27801939Y-8465000D01*
X27598061Y-8465000D01*
X27487887Y-8486915D01*
X28422409Y-7552393D01*
X28422498Y-7552502D01*
X28610551Y-7706833D01*
X28825099Y-7821511D01*
X29057898Y-7892130D01*
X29300000Y-7915975D01*
X29542101Y-7892130D01*
X29774900Y-7821511D01*
X29989448Y-7706833D01*
X30165000Y-7562762D01*
X30165001Y-9388207D01*
X30165000Y-9388212D01*
X30165000Y-9611788D01*
X30175934Y-9666757D01*
X30181424Y-9722499D01*
X30197683Y-9776096D01*
X30208617Y-9831067D01*
X30230067Y-9882851D01*
X30246325Y-9936447D01*
X30272728Y-9985843D01*
X30294176Y-10037624D01*
X30325312Y-10084222D01*
X30351717Y-10133623D01*
X30387254Y-10176925D01*
X30418388Y-10223520D01*
X30458014Y-10263146D01*
X30493552Y-10306449D01*
X30536855Y-10341987D01*
X30576480Y-10381612D01*
X30623074Y-10412745D01*
X30666378Y-10448284D01*
X30715782Y-10474691D01*
X30762376Y-10505824D01*
X30814153Y-10527271D01*
X30863554Y-10553676D01*
X30917155Y-10569936D01*
X30968933Y-10591383D01*
X31023897Y-10602316D01*
X31077502Y-10618577D01*
X31133252Y-10624068D01*
X31188212Y-10635000D01*
X31244249Y-10635000D01*
X31300000Y-10640491D01*
X31355752Y-10635000D01*
X31411788Y-10635000D01*
X31466747Y-10624068D01*
X31522499Y-10618577D01*
X31576106Y-10602315D01*
X31631067Y-10591383D01*
X31682842Y-10569937D01*
X31736447Y-10553676D01*
X31785851Y-10527269D01*
X31837624Y-10505824D01*
X31884214Y-10474693D01*
X31933623Y-10448284D01*
X31976932Y-10412741D01*
X32023520Y-10381612D01*
X32063141Y-10341991D01*
X32106449Y-10306449D01*
X32141991Y-10263141D01*
X32181612Y-10223520D01*
X32212741Y-10176932D01*
X32248284Y-10133623D01*
X32274693Y-10084214D01*
X32305824Y-10037624D01*
X32327269Y-9985851D01*
X32353676Y-9936447D01*
X32369937Y-9882842D01*
X32391383Y-9831067D01*
X32402315Y-9776106D01*
X32418577Y-9722499D01*
X32424068Y-9666747D01*
X32435000Y-9611788D01*
X32435000Y-7853373D01*
X32455820Y-7864502D01*
X32575518Y-7900812D01*
X32700000Y-7913072D01*
X33014250Y-7910000D01*
X33173000Y-7751250D01*
X33173000Y-6527000D01*
X33427000Y-6527000D01*
X33427000Y-7751250D01*
X33585750Y-7910000D01*
X33900000Y-7913072D01*
X34024482Y-7900812D01*
X34144180Y-7864502D01*
X34254494Y-7805537D01*
X34351185Y-7726185D01*
X34430537Y-7629494D01*
X34489502Y-7519180D01*
X34525812Y-7399482D01*
X34538072Y-7275000D01*
X34535000Y-6685750D01*
X34376250Y-6527000D01*
X33427000Y-6527000D01*
X33173000Y-6527000D01*
X33153000Y-6527000D01*
X33153000Y-6273000D01*
X33173000Y-6273000D01*
X33173000Y-5048750D01*
X33427000Y-5048750D01*
X33427000Y-6273000D01*
X34376250Y-6273000D01*
X34535000Y-6114250D01*
X34538072Y-5525000D01*
X34525812Y-5400518D01*
X34489502Y-5280820D01*
X34430537Y-5170506D01*
X34351185Y-5073815D01*
X34254494Y-4994463D01*
X34144180Y-4935498D01*
X34024482Y-4899188D01*
X33900000Y-4886928D01*
X33585750Y-4890000D01*
X33427000Y-5048750D01*
X33173000Y-5048750D01*
X33014250Y-4890000D01*
X32700000Y-4886928D01*
X32575518Y-4899188D01*
X32455820Y-4935498D01*
X32345506Y-4994463D01*
X32248815Y-5073815D01*
X32169463Y-5170506D01*
X32143309Y-5219436D01*
X31989449Y-5093167D01*
X31774901Y-4978489D01*
X31542102Y-4907870D01*
X31300000Y-4884025D01*
X31057899Y-4907870D01*
X30825100Y-4978489D01*
X30610552Y-5093167D01*
X30422499Y-5247498D01*
X30300001Y-5396763D01*
X30177502Y-5247498D01*
X29989449Y-5093167D01*
X29774901Y-4978489D01*
X29542102Y-4907870D01*
X29300000Y-4884025D01*
X29057899Y-4907870D01*
X28825100Y-4978489D01*
X28610552Y-5093167D01*
X28422499Y-5247498D01*
X28268168Y-5435551D01*
X28153489Y-5650099D01*
X28126929Y-5737656D01*
X28075724Y-5765026D01*
X28075722Y-5765027D01*
X28075723Y-5765027D01*
X27988996Y-5836201D01*
X27988992Y-5836205D01*
X27959999Y-5859999D01*
X27936205Y-5888992D01*
X25888998Y-7936201D01*
X25860000Y-7959999D01*
X25836202Y-7988997D01*
X25836201Y-7988998D01*
X25765026Y-8075724D01*
X25694454Y-8207754D01*
X25664180Y-8307558D01*
X25650998Y-8351014D01*
X25645325Y-8408617D01*
X25636324Y-8500000D01*
X25640001Y-8537332D01*
X25640001Y-8616033D01*
X25590256Y-8582795D01*
X25401898Y-8504774D01*
X25201939Y-8465000D01*
X24998061Y-8465000D01*
X24798102Y-8504774D01*
X24609744Y-8582795D01*
X24440226Y-8696063D01*
X24296063Y-8840226D01*
X24182795Y-9009744D01*
X24104774Y-9198102D01*
X24065000Y-9398061D01*
X24065000Y-9460198D01*
X23288998Y-10236201D01*
X23260000Y-10259999D01*
X23236202Y-10288997D01*
X23236201Y-10288998D01*
X23165026Y-10375724D01*
X23094454Y-10507754D01*
X23064180Y-10607558D01*
X23060838Y-10618577D01*
X23050998Y-10651015D01*
X23036324Y-10800000D01*
X23040001Y-10837332D01*
X23040000Y-11997734D01*
X22861067Y-11923617D01*
X22641788Y-11880000D01*
X22418212Y-11880000D01*
X22198933Y-11923617D01*
X21992376Y-12009176D01*
X21895000Y-12074241D01*
X21797624Y-12009176D01*
X21591067Y-11923617D01*
X21371788Y-11880000D01*
X21148212Y-11880000D01*
X20928933Y-11923617D01*
X20722376Y-12009176D01*
X20625000Y-12074241D01*
X20527624Y-12009176D01*
X20321067Y-11923617D01*
X20101788Y-11880000D01*
X19878212Y-11880000D01*
X19658933Y-11923617D01*
X19452376Y-12009176D01*
X19355000Y-12074241D01*
X19257624Y-12009176D01*
X19051067Y-11923617D01*
X18831788Y-11880000D01*
X18608212Y-11880000D01*
X18388933Y-11923617D01*
X18182376Y-12009176D01*
X18085000Y-12074241D01*
X17987624Y-12009176D01*
X17781067Y-11923617D01*
X17561788Y-11880000D01*
X17338212Y-11880000D01*
X17118933Y-11923617D01*
X16913812Y-12008581D01*
X18111004Y-10811390D01*
X18140001Y-10787593D01*
X18234974Y-10671868D01*
X18305546Y-10539839D01*
X18349003Y-10396578D01*
X18360000Y-10284925D01*
X18360000Y-10284915D01*
X18363676Y-10247592D01*
X18360000Y-10210269D01*
X18360000Y-10203711D01*
X18403937Y-10159774D01*
X18517205Y-9990256D01*
X18595226Y-9801898D01*
X18635000Y-9601939D01*
X18635000Y-9398061D01*
X18595226Y-9198102D01*
X18517205Y-9009744D01*
X18403937Y-8840226D01*
X18259774Y-8696063D01*
X18090256Y-8582795D01*
X17901898Y-8504774D01*
X17701939Y-8465000D01*
X17498061Y-8465000D01*
X17387887Y-8486915D01*
X18377334Y-7497469D01*
X18422498Y-7552502D01*
X18610551Y-7706833D01*
X18825099Y-7821511D01*
X19057898Y-7892130D01*
X19300000Y-7915975D01*
X19542101Y-7892130D01*
X19774900Y-7821511D01*
X19989448Y-7706833D01*
X20165000Y-7562762D01*
X20165001Y-9388207D01*
X20165000Y-9388212D01*
X20165000Y-9611788D01*
X20175934Y-9666757D01*
X20181424Y-9722499D01*
X20197683Y-9776096D01*
X20208617Y-9831067D01*
X20230067Y-9882851D01*
X20246325Y-9936447D01*
X20272728Y-9985843D01*
X20294176Y-10037624D01*
X20325312Y-10084222D01*
X20351717Y-10133623D01*
X20387254Y-10176925D01*
X20418388Y-10223520D01*
X20458014Y-10263146D01*
X20493552Y-10306449D01*
X20536855Y-10341987D01*
X20576480Y-10381612D01*
X20623074Y-10412745D01*
X20666378Y-10448284D01*
X20715782Y-10474691D01*
X20762376Y-10505824D01*
X20814153Y-10527271D01*
X20863554Y-10553676D01*
X20917155Y-10569936D01*
X20968933Y-10591383D01*
X21023897Y-10602316D01*
X21077502Y-10618577D01*
X21133252Y-10624068D01*
X21188212Y-10635000D01*
X21244249Y-10635000D01*
X21300000Y-10640491D01*
X21355752Y-10635000D01*
X21411788Y-10635000D01*
X21466747Y-10624068D01*
X21522499Y-10618577D01*
X21576106Y-10602315D01*
X21631067Y-10591383D01*
X21682842Y-10569937D01*
X21736447Y-10553676D01*
X21785851Y-10527269D01*
X21837624Y-10505824D01*
X21884214Y-10474693D01*
X21933623Y-10448284D01*
X21976932Y-10412741D01*
X22023520Y-10381612D01*
X22063141Y-10341991D01*
X22106449Y-10306449D01*
X22141991Y-10263141D01*
X22181612Y-10223520D01*
X22212741Y-10176932D01*
X22248284Y-10133623D01*
X22274693Y-10084214D01*
X22305824Y-10037624D01*
X22327269Y-9985851D01*
X22353676Y-9936447D01*
X22369937Y-9882842D01*
X22391383Y-9831067D01*
X22402315Y-9776106D01*
X22418577Y-9722499D01*
X22424068Y-9666747D01*
X22435000Y-9611788D01*
X22435000Y-7853373D01*
X22455820Y-7864502D01*
X22575518Y-7900812D01*
X22700000Y-7913072D01*
X23014250Y-7910000D01*
X23173000Y-7751250D01*
X23173000Y-6527000D01*
X23427000Y-6527000D01*
X23427000Y-7751250D01*
X23585750Y-7910000D01*
X23900000Y-7913072D01*
X24024482Y-7900812D01*
X24144180Y-7864502D01*
X24254494Y-7805537D01*
X24351185Y-7726185D01*
X24430537Y-7629494D01*
X24489502Y-7519180D01*
X24525812Y-7399482D01*
X24538072Y-7275000D01*
X24535000Y-6685750D01*
X24376250Y-6527000D01*
X23427000Y-6527000D01*
X23173000Y-6527000D01*
X23153000Y-6527000D01*
X23153000Y-6273000D01*
X23173000Y-6273000D01*
X23173000Y-5048750D01*
X23427000Y-5048750D01*
X23427000Y-6273000D01*
X24376250Y-6273000D01*
X24535000Y-6114250D01*
X24538072Y-5525000D01*
X24525812Y-5400518D01*
X24489502Y-5280820D01*
X24430537Y-5170506D01*
X24351185Y-5073815D01*
X24254494Y-4994463D01*
X24144180Y-4935498D01*
X24024482Y-4899188D01*
X23900000Y-4886928D01*
X23585750Y-4890000D01*
X23427000Y-5048750D01*
X23173000Y-5048750D01*
X23014250Y-4890000D01*
X22700000Y-4886928D01*
X22575518Y-4899188D01*
X22455820Y-4935498D01*
X22345506Y-4994463D01*
X22248815Y-5073815D01*
X22169463Y-5170506D01*
X22143309Y-5219436D01*
X21989449Y-5093167D01*
X21774901Y-4978489D01*
X21542102Y-4907870D01*
X21300000Y-4884025D01*
X21057899Y-4907870D01*
X20825100Y-4978489D01*
X20610552Y-5093167D01*
X20422499Y-5247498D01*
X20300001Y-5396763D01*
X20177502Y-5247498D01*
X19989449Y-5093167D01*
X19774901Y-4978489D01*
X19542102Y-4907870D01*
X19300000Y-4884025D01*
X19057899Y-4907870D01*
X18825100Y-4978489D01*
X18610552Y-5093167D01*
X18422499Y-5247498D01*
X18268168Y-5435551D01*
X18153489Y-5650099D01*
X18143305Y-5683669D01*
X18107753Y-5694454D01*
X17975724Y-5765026D01*
X17975722Y-5765027D01*
X17975723Y-5765027D01*
X17888996Y-5836201D01*
X17888992Y-5836205D01*
X17859999Y-5859999D01*
X17836205Y-5888992D01*
X15788998Y-7936201D01*
X15760000Y-7959999D01*
X15736202Y-7988997D01*
X15736201Y-7988998D01*
X15665026Y-8075724D01*
X15594454Y-8207754D01*
X15564180Y-8307558D01*
X15550998Y-8351014D01*
X15545325Y-8408617D01*
X15536324Y-8500000D01*
X15540001Y-8537332D01*
X15540001Y-8616033D01*
X15490256Y-8582795D01*
X15301898Y-8504774D01*
X15101939Y-8465000D01*
X14898061Y-8465000D01*
X14698102Y-8504774D01*
X14509744Y-8582795D01*
X14340226Y-8696063D01*
X14196063Y-8840226D01*
X14082795Y-9009744D01*
X14004774Y-9198102D01*
X13965000Y-9398061D01*
X13965000Y-9601939D01*
X14004774Y-9801898D01*
X14082795Y-9990256D01*
X14196063Y-10159774D01*
X14240001Y-10203712D01*
X14240000Y-11076549D01*
X14098102Y-11104774D01*
X13909744Y-11182795D01*
X13740226Y-11296063D01*
X13596063Y-11440226D01*
X13482795Y-11609744D01*
X13404774Y-11798102D01*
X13365000Y-11998061D01*
X13365000Y-12201939D01*
X13404774Y-12401898D01*
X13482795Y-12590256D01*
X13596063Y-12759774D01*
X13740226Y-12903937D01*
X13909744Y-13017205D01*
X14098102Y-13095226D01*
X14298061Y-13135000D01*
X14501939Y-13135000D01*
X14594999Y-13116489D01*
X14594999Y-13373678D01*
X14591323Y-13411001D01*
X14594999Y-13448323D01*
X14594999Y-13448333D01*
X14605996Y-13559986D01*
X14618446Y-13601028D01*
X14649453Y-13703247D01*
X14720025Y-13835277D01*
X14759870Y-13883827D01*
X14814998Y-13951002D01*
X14844001Y-13974804D01*
X15420001Y-14550805D01*
X15420001Y-16245199D01*
X8635000Y-9460199D01*
X8635000Y-9398061D01*
X8595226Y-9198102D01*
X8517205Y-9009744D01*
X8403937Y-8840226D01*
X8259774Y-8696063D01*
X8090256Y-8582795D01*
X7901898Y-8504774D01*
X7701939Y-8465000D01*
X7498061Y-8465000D01*
X7387887Y-8486915D01*
X8377334Y-7497469D01*
X8422498Y-7552502D01*
X8610551Y-7706833D01*
X8825099Y-7821511D01*
X9057898Y-7892130D01*
X9300000Y-7915975D01*
X9542101Y-7892130D01*
X9774900Y-7821511D01*
X9989448Y-7706833D01*
X10165000Y-7562762D01*
X10165001Y-9388207D01*
X10165000Y-9388212D01*
X10165000Y-9611788D01*
X10175934Y-9666757D01*
X10181424Y-9722499D01*
X10197683Y-9776096D01*
X10208617Y-9831067D01*
X10230067Y-9882851D01*
X10246325Y-9936447D01*
X10272728Y-9985843D01*
X10294176Y-10037624D01*
X10325312Y-10084222D01*
X10351717Y-10133623D01*
X10387254Y-10176925D01*
X10418388Y-10223520D01*
X10458014Y-10263146D01*
X10493552Y-10306449D01*
X10536855Y-10341987D01*
X10576480Y-10381612D01*
X10623074Y-10412745D01*
X10666378Y-10448284D01*
X10715782Y-10474691D01*
X10762376Y-10505824D01*
X10814153Y-10527271D01*
X10863554Y-10553676D01*
X10917155Y-10569936D01*
X10968933Y-10591383D01*
X11023897Y-10602316D01*
X11077502Y-10618577D01*
X11133252Y-10624068D01*
X11188212Y-10635000D01*
X11244249Y-10635000D01*
X11300000Y-10640491D01*
X11355752Y-10635000D01*
X11411788Y-10635000D01*
X11466747Y-10624068D01*
X11522499Y-10618577D01*
X11576106Y-10602315D01*
X11631067Y-10591383D01*
X11682842Y-10569937D01*
X11736447Y-10553676D01*
X11785851Y-10527269D01*
X11837624Y-10505824D01*
X11884214Y-10474693D01*
X11933623Y-10448284D01*
X11976932Y-10412741D01*
X12023520Y-10381612D01*
X12063141Y-10341991D01*
X12106449Y-10306449D01*
X12141991Y-10263141D01*
X12181612Y-10223520D01*
X12212741Y-10176932D01*
X12248284Y-10133623D01*
X12274693Y-10084214D01*
X12305824Y-10037624D01*
X12327269Y-9985851D01*
X12353676Y-9936447D01*
X12369937Y-9882842D01*
X12391383Y-9831067D01*
X12402315Y-9776106D01*
X12418577Y-9722499D01*
X12424068Y-9666747D01*
X12435000Y-9611788D01*
X12435000Y-7853373D01*
X12455820Y-7864502D01*
X12575518Y-7900812D01*
X12700000Y-7913072D01*
X13014250Y-7910000D01*
X13173000Y-7751250D01*
X13173000Y-6527000D01*
X13427000Y-6527000D01*
X13427000Y-7751250D01*
X13585750Y-7910000D01*
X13900000Y-7913072D01*
X14024482Y-7900812D01*
X14144180Y-7864502D01*
X14254494Y-7805537D01*
X14351185Y-7726185D01*
X14430537Y-7629494D01*
X14489502Y-7519180D01*
X14525812Y-7399482D01*
X14538072Y-7275000D01*
X14535000Y-6685750D01*
X14376250Y-6527000D01*
X13427000Y-6527000D01*
X13173000Y-6527000D01*
X13153000Y-6527000D01*
X13153000Y-6273000D01*
X13173000Y-6273000D01*
X13173000Y-5048750D01*
X13427000Y-5048750D01*
X13427000Y-6273000D01*
X14376250Y-6273000D01*
X14535000Y-6114250D01*
X14538072Y-5525000D01*
X14525812Y-5400518D01*
X14489502Y-5280820D01*
X14430537Y-5170506D01*
X14351185Y-5073815D01*
X14254494Y-4994463D01*
X14144180Y-4935498D01*
X14024482Y-4899188D01*
X13900000Y-4886928D01*
X13585750Y-4890000D01*
X13427000Y-5048750D01*
X13173000Y-5048750D01*
X13014250Y-4890000D01*
X12700000Y-4886928D01*
X12575518Y-4899188D01*
X12455820Y-4935498D01*
X12345506Y-4994463D01*
X12248815Y-5073815D01*
X12169463Y-5170506D01*
X12143309Y-5219436D01*
X11989449Y-5093167D01*
X11774901Y-4978489D01*
X11542102Y-4907870D01*
X11300000Y-4884025D01*
X11057899Y-4907870D01*
X10825100Y-4978489D01*
X10610552Y-5093167D01*
X10422499Y-5247498D01*
X10300001Y-5396763D01*
X10177502Y-5247498D01*
X9989449Y-5093167D01*
X9774901Y-4978489D01*
X9542102Y-4907870D01*
X9300000Y-4884025D01*
X9057899Y-4907870D01*
X8825100Y-4978489D01*
X8610552Y-5093167D01*
X8422499Y-5247498D01*
X8268168Y-5435551D01*
X8153489Y-5650099D01*
X8143305Y-5683669D01*
X8107753Y-5694454D01*
X7975724Y-5765026D01*
X7975722Y-5765027D01*
X7975723Y-5765027D01*
X7888996Y-5836201D01*
X7888992Y-5836205D01*
X7859999Y-5859999D01*
X7836205Y-5888992D01*
X5788998Y-7936201D01*
X5760000Y-7959999D01*
X5736202Y-7988997D01*
X5736201Y-7988998D01*
X5665026Y-8075724D01*
X5594454Y-8207754D01*
X5564180Y-8307558D01*
X5550998Y-8351014D01*
X5545325Y-8408617D01*
X5536324Y-8500000D01*
X5540001Y-8537332D01*
X5540001Y-8796288D01*
X5496063Y-8840226D01*
X5382795Y-9009744D01*
X5304774Y-9198102D01*
X5265000Y-9398061D01*
X660000Y-9398061D01*
X660000Y-3032279D01*
X684748Y-2779872D01*
X765000Y-2779872D01*
X765000Y-3220128D01*
X850890Y-3651925D01*
X1019369Y-4058669D01*
X1263962Y-4424729D01*
X1575271Y-4736038D01*
X1941331Y-4980631D01*
X2348075Y-5149110D01*
X2779872Y-5235000D01*
X3220128Y-5235000D01*
X3651925Y-5149110D01*
X4058669Y-4980631D01*
X4424729Y-4736038D01*
X4736038Y-4424729D01*
X4980631Y-4058669D01*
X5149110Y-3651925D01*
X5235000Y-3220128D01*
X5235000Y-3168514D01*
X48465000Y-3168514D01*
X48465000Y-3431486D01*
X48516304Y-3689405D01*
X48616939Y-3932359D01*
X48763038Y-4151013D01*
X48948987Y-4336962D01*
X49167641Y-4483061D01*
X49410595Y-4583696D01*
X49668514Y-4635000D01*
X49931486Y-4635000D01*
X50189405Y-4583696D01*
X50432359Y-4483061D01*
X50651013Y-4336962D01*
X50836962Y-4151013D01*
X50983061Y-3932359D01*
X51083696Y-3689405D01*
X51135000Y-3431486D01*
X51135000Y-3168514D01*
X59465000Y-3168514D01*
X59465000Y-3431486D01*
X59516304Y-3689405D01*
X59616939Y-3932359D01*
X59763038Y-4151013D01*
X59948987Y-4336962D01*
X60167641Y-4483061D01*
X60410595Y-4583696D01*
X60668514Y-4635000D01*
X60931486Y-4635000D01*
X61189405Y-4583696D01*
X61432359Y-4483061D01*
X61651013Y-4336962D01*
X61836962Y-4151013D01*
X61983061Y-3932359D01*
X62083696Y-3689405D01*
X62135000Y-3431486D01*
X62135000Y-3168514D01*
X62083696Y-2910595D01*
X62029549Y-2779872D01*
X64765000Y-2779872D01*
X64765000Y-3220128D01*
X64850890Y-3651925D01*
X65019369Y-4058669D01*
X65263962Y-4424729D01*
X65575271Y-4736038D01*
X65941331Y-4980631D01*
X66348075Y-5149110D01*
X66779872Y-5235000D01*
X67220128Y-5235000D01*
X67651925Y-5149110D01*
X68058669Y-4980631D01*
X68424729Y-4736038D01*
X68736038Y-4424729D01*
X68980631Y-4058669D01*
X69149110Y-3651925D01*
X69235000Y-3220128D01*
X69235000Y-2779872D01*
X69149110Y-2348075D01*
X68980631Y-1941331D01*
X68736038Y-1575271D01*
X68424729Y-1263962D01*
X68058669Y-1019369D01*
X67651925Y-850890D01*
X67220128Y-765000D01*
X66779872Y-765000D01*
X66348075Y-850890D01*
X65941331Y-1019369D01*
X65575271Y-1263962D01*
X65263962Y-1575271D01*
X65019369Y-1941331D01*
X64850890Y-2348075D01*
X64765000Y-2779872D01*
X62029549Y-2779872D01*
X61983061Y-2667641D01*
X61836962Y-2448987D01*
X61651013Y-2263038D01*
X61432359Y-2116939D01*
X61189405Y-2016304D01*
X60931486Y-1965000D01*
X60668514Y-1965000D01*
X60410595Y-2016304D01*
X60167641Y-2116939D01*
X59948987Y-2263038D01*
X59763038Y-2448987D01*
X59616939Y-2667641D01*
X59516304Y-2910595D01*
X59465000Y-3168514D01*
X51135000Y-3168514D01*
X51083696Y-2910595D01*
X50983061Y-2667641D01*
X50836962Y-2448987D01*
X50651013Y-2263038D01*
X50432359Y-2116939D01*
X50189405Y-2016304D01*
X49931486Y-1965000D01*
X49668514Y-1965000D01*
X49410595Y-2016304D01*
X49167641Y-2116939D01*
X48948987Y-2263038D01*
X48763038Y-2448987D01*
X48616939Y-2667641D01*
X48516304Y-2910595D01*
X48465000Y-3168514D01*
X5235000Y-3168514D01*
X5235000Y-2779872D01*
X5149110Y-2348075D01*
X4980631Y-1941331D01*
X4736038Y-1575271D01*
X4424729Y-1263962D01*
X4058669Y-1019369D01*
X3651925Y-850890D01*
X3220128Y-765000D01*
X2779872Y-765000D01*
X2348075Y-850890D01*
X1941331Y-1019369D01*
X1575271Y-1263962D01*
X1263962Y-1575271D01*
X1019369Y-1941331D01*
X850890Y-2348075D01*
X765000Y-2779872D01*
X684748Y-2779872D01*
X707670Y-2546107D01*
X839489Y-2109502D01*
X1053600Y-1706815D01*
X1341848Y-1353388D01*
X1693261Y-1062673D01*
X2094439Y-845758D01*
X2530113Y-710894D01*
X3014344Y-660000D01*
X66967721Y-660000D01*
X67453893Y-707670D01*
G36*
X25909744Y-10417205D02*
G01*
X26098102Y-10495226D01*
X26298061Y-10535000D01*
X26501939Y-10535000D01*
X26701898Y-10495226D01*
X26890256Y-10417205D01*
X26940001Y-10383967D01*
X26940000Y-16420198D01*
X17510199Y-25850000D01*
X17338212Y-25850000D01*
X17118933Y-25893617D01*
X16940000Y-25967734D01*
X16940000Y-21035000D01*
X17101939Y-21035000D01*
X17301898Y-20995226D01*
X17490256Y-20917205D01*
X17659774Y-20803937D01*
X17803937Y-20659774D01*
X17917205Y-20490256D01*
X17995226Y-20301898D01*
X18035000Y-20101939D01*
X18035000Y-20039801D01*
X19231003Y-18843799D01*
X19260001Y-18820001D01*
X19354974Y-18704276D01*
X19425546Y-18572247D01*
X19469003Y-18428986D01*
X19480000Y-18317333D01*
X19480000Y-18317324D01*
X19483676Y-18280001D01*
X19480000Y-18242678D01*
X19480000Y-14032266D01*
X19658933Y-14106383D01*
X19878212Y-14150000D01*
X20101788Y-14150000D01*
X20321067Y-14106383D01*
X20527624Y-14020824D01*
X20625000Y-13955759D01*
X20722376Y-14020824D01*
X20928933Y-14106383D01*
X21148212Y-14150000D01*
X21371788Y-14150000D01*
X21591067Y-14106383D01*
X21797624Y-14020824D01*
X21895000Y-13955759D01*
X21992376Y-14020824D01*
X22198933Y-14106383D01*
X22418212Y-14150000D01*
X22641788Y-14150000D01*
X22861067Y-14106383D01*
X23067624Y-14020824D01*
X23165000Y-13955759D01*
X23262376Y-14020824D01*
X23468933Y-14106383D01*
X23688212Y-14150000D01*
X23911788Y-14150000D01*
X24131067Y-14106383D01*
X24337624Y-14020824D01*
X24523520Y-13896612D01*
X24681612Y-13738520D01*
X24805824Y-13552624D01*
X24891383Y-13346067D01*
X24935000Y-13126788D01*
X24935000Y-12903212D01*
X24891383Y-12683933D01*
X24805824Y-12477376D01*
X24681612Y-12291480D01*
X24560000Y-12169868D01*
X24560000Y-11114801D01*
X25139802Y-10535000D01*
X25201939Y-10535000D01*
X25401898Y-10495226D01*
X25590256Y-10417205D01*
X25750000Y-10310468D01*
X25909744Y-10417205D01*
G37*
X25909744Y-10417205D02*
X26098102Y-10495226D01*
X26298061Y-10535000D01*
X26501939Y-10535000D01*
X26701898Y-10495226D01*
X26890256Y-10417205D01*
X26940001Y-10383967D01*
X26940000Y-16420198D01*
X17510199Y-25850000D01*
X17338212Y-25850000D01*
X17118933Y-25893617D01*
X16940000Y-25967734D01*
X16940000Y-21035000D01*
X17101939Y-21035000D01*
X17301898Y-20995226D01*
X17490256Y-20917205D01*
X17659774Y-20803937D01*
X17803937Y-20659774D01*
X17917205Y-20490256D01*
X17995226Y-20301898D01*
X18035000Y-20101939D01*
X18035000Y-20039801D01*
X19231003Y-18843799D01*
X19260001Y-18820001D01*
X19354974Y-18704276D01*
X19425546Y-18572247D01*
X19469003Y-18428986D01*
X19480000Y-18317333D01*
X19480000Y-18317324D01*
X19483676Y-18280001D01*
X19480000Y-18242678D01*
X19480000Y-14032266D01*
X19658933Y-14106383D01*
X19878212Y-14150000D01*
X20101788Y-14150000D01*
X20321067Y-14106383D01*
X20527624Y-14020824D01*
X20625000Y-13955759D01*
X20722376Y-14020824D01*
X20928933Y-14106383D01*
X21148212Y-14150000D01*
X21371788Y-14150000D01*
X21591067Y-14106383D01*
X21797624Y-14020824D01*
X21895000Y-13955759D01*
X21992376Y-14020824D01*
X22198933Y-14106383D01*
X22418212Y-14150000D01*
X22641788Y-14150000D01*
X22861067Y-14106383D01*
X23067624Y-14020824D01*
X23165000Y-13955759D01*
X23262376Y-14020824D01*
X23468933Y-14106383D01*
X23688212Y-14150000D01*
X23911788Y-14150000D01*
X24131067Y-14106383D01*
X24337624Y-14020824D01*
X24523520Y-13896612D01*
X24681612Y-13738520D01*
X24805824Y-13552624D01*
X24891383Y-13346067D01*
X24935000Y-13126788D01*
X24935000Y-12903212D01*
X24891383Y-12683933D01*
X24805824Y-12477376D01*
X24681612Y-12291480D01*
X24560000Y-12169868D01*
X24560000Y-11114801D01*
X25139802Y-10535000D01*
X25201939Y-10535000D01*
X25401898Y-10495226D01*
X25590256Y-10417205D01*
X25750000Y-10310468D01*
X25909744Y-10417205D01*
M02*
