G04 #@! TF.GenerationSoftware,KiCad,Pcbnew,(5.1.5)-3*
G04 #@! TF.CreationDate,2020-11-13T22:42:08+09:00*
G04 #@! TF.ProjectId,shield_servo_adc_sw_gpio_led,73686965-6c64-45f7-9365-72766f5f6164,rev?*
G04 #@! TF.SameCoordinates,PXb532b80PY717cbc0*
G04 #@! TF.FileFunction,Soldermask,Top*
G04 #@! TF.FilePolarity,Negative*
%FSLAX46Y46*%
G04 Gerber Fmt 4.6, Leading zero omitted, Abs format (unit mm)*
G04 Created by KiCad (PCBNEW (5.1.5)-3) date 2020-11-13 22:42:08*
%MOMM*%
%LPD*%
G04 APERTURE LIST*
%ADD10C,0.100000*%
G04 APERTURE END LIST*
D10*
G36*
X67375256Y-35391298D02*
G01*
X67481579Y-35412447D01*
X67782042Y-35536903D01*
X68052451Y-35717585D01*
X68282415Y-35947549D01*
X68463097Y-36217958D01*
X68587553Y-36518421D01*
X68651000Y-36837391D01*
X68651000Y-37162609D01*
X68587553Y-37481579D01*
X68463097Y-37782042D01*
X68282415Y-38052451D01*
X68052451Y-38282415D01*
X67782042Y-38463097D01*
X67481579Y-38587553D01*
X67375256Y-38608702D01*
X67162611Y-38651000D01*
X66837389Y-38651000D01*
X66624744Y-38608702D01*
X66518421Y-38587553D01*
X66217958Y-38463097D01*
X65947549Y-38282415D01*
X65717585Y-38052451D01*
X65536903Y-37782042D01*
X65412447Y-37481579D01*
X65349000Y-37162609D01*
X65349000Y-36837391D01*
X65412447Y-36518421D01*
X65536903Y-36217958D01*
X65717585Y-35947549D01*
X65947549Y-35717585D01*
X66217958Y-35536903D01*
X66518421Y-35412447D01*
X66624744Y-35391298D01*
X66837389Y-35349000D01*
X67162611Y-35349000D01*
X67375256Y-35391298D01*
G37*
G36*
X3375256Y-35391298D02*
G01*
X3481579Y-35412447D01*
X3782042Y-35536903D01*
X4052451Y-35717585D01*
X4282415Y-35947549D01*
X4463097Y-36217958D01*
X4587553Y-36518421D01*
X4651000Y-36837391D01*
X4651000Y-37162609D01*
X4587553Y-37481579D01*
X4463097Y-37782042D01*
X4282415Y-38052451D01*
X4052451Y-38282415D01*
X3782042Y-38463097D01*
X3481579Y-38587553D01*
X3375256Y-38608702D01*
X3162611Y-38651000D01*
X2837389Y-38651000D01*
X2624744Y-38608702D01*
X2518421Y-38587553D01*
X2217958Y-38463097D01*
X1947549Y-38282415D01*
X1717585Y-38052451D01*
X1536903Y-37782042D01*
X1412447Y-37481579D01*
X1349000Y-37162609D01*
X1349000Y-36837391D01*
X1412447Y-36518421D01*
X1536903Y-36217958D01*
X1717585Y-35947549D01*
X1947549Y-35717585D01*
X2217958Y-35536903D01*
X2518421Y-35412447D01*
X2624744Y-35391298D01*
X2837389Y-35349000D01*
X3162611Y-35349000D01*
X3375256Y-35391298D01*
G37*
G36*
X57906564Y-32389389D02*
G01*
X58097833Y-32468615D01*
X58097835Y-32468616D01*
X58269973Y-32583635D01*
X58416365Y-32730027D01*
X58504845Y-32862446D01*
X58531385Y-32902167D01*
X58610611Y-33093436D01*
X58651000Y-33296484D01*
X58651000Y-33503516D01*
X58610611Y-33706564D01*
X58531385Y-33897833D01*
X58531384Y-33897835D01*
X58461370Y-34002618D01*
X58416365Y-34069973D01*
X58342240Y-34144098D01*
X58326695Y-34163040D01*
X58315144Y-34184651D01*
X58308031Y-34208100D01*
X58305629Y-34232486D01*
X58308031Y-34256872D01*
X58315144Y-34280321D01*
X58326695Y-34301932D01*
X58342240Y-34320874D01*
X58361182Y-34336419D01*
X58382793Y-34347970D01*
X58406242Y-34355083D01*
X58578708Y-34389389D01*
X58767239Y-34467481D01*
X58769979Y-34468616D01*
X58814057Y-34498068D01*
X58942117Y-34583635D01*
X59088509Y-34730027D01*
X59203529Y-34902167D01*
X59282755Y-35093436D01*
X59323144Y-35296484D01*
X59323144Y-35503516D01*
X59282755Y-35706564D01*
X59203529Y-35897833D01*
X59203528Y-35897835D01*
X59088509Y-36069973D01*
X58942117Y-36216365D01*
X58769979Y-36331384D01*
X58769978Y-36331385D01*
X58769977Y-36331385D01*
X58578708Y-36410611D01*
X58375660Y-36451000D01*
X58168628Y-36451000D01*
X57965580Y-36410611D01*
X57774311Y-36331385D01*
X57774310Y-36331385D01*
X57774309Y-36331384D01*
X57602171Y-36216365D01*
X57455779Y-36069973D01*
X57340760Y-35897835D01*
X57340759Y-35897833D01*
X57261533Y-35706564D01*
X57221144Y-35503516D01*
X57221144Y-35296484D01*
X57261533Y-35093436D01*
X57340759Y-34902167D01*
X57455779Y-34730027D01*
X57529904Y-34655902D01*
X57545449Y-34636960D01*
X57557000Y-34615349D01*
X57564113Y-34591900D01*
X57566515Y-34567514D01*
X57564113Y-34543128D01*
X57557000Y-34519679D01*
X57545449Y-34498068D01*
X57529904Y-34479126D01*
X57510962Y-34463581D01*
X57489351Y-34452030D01*
X57465902Y-34444917D01*
X57293436Y-34410611D01*
X57102167Y-34331385D01*
X57102166Y-34331385D01*
X57102165Y-34331384D01*
X56930027Y-34216365D01*
X56783635Y-34069973D01*
X56668616Y-33897835D01*
X56668615Y-33897833D01*
X56589389Y-33706564D01*
X56549000Y-33503516D01*
X56549000Y-33296484D01*
X56589389Y-33093436D01*
X56668615Y-32902167D01*
X56695156Y-32862446D01*
X56783635Y-32730027D01*
X56930027Y-32583635D01*
X57102165Y-32468616D01*
X57102167Y-32468615D01*
X57293436Y-32389389D01*
X57496484Y-32349000D01*
X57703516Y-32349000D01*
X57906564Y-32389389D01*
G37*
G36*
X21127617Y-32683420D02*
G01*
X21208399Y-32707925D01*
X21250335Y-32720646D01*
X21363424Y-32781094D01*
X21462554Y-32862447D01*
X21543906Y-32961575D01*
X21604354Y-33074664D01*
X21610048Y-33093435D01*
X21641580Y-33197382D01*
X21651000Y-33293027D01*
X21651000Y-33906973D01*
X21641580Y-34002618D01*
X21621148Y-34069973D01*
X21604354Y-34125336D01*
X21543906Y-34238425D01*
X21462554Y-34337554D01*
X21363425Y-34418906D01*
X21250336Y-34479354D01*
X21218404Y-34489040D01*
X21127618Y-34516580D01*
X21000000Y-34529149D01*
X20872383Y-34516580D01*
X20781597Y-34489040D01*
X20749665Y-34479354D01*
X20636576Y-34418906D01*
X20537447Y-34337554D01*
X20456096Y-34238427D01*
X20456095Y-34238425D01*
X20415800Y-34163040D01*
X20395645Y-34125333D01*
X20378852Y-34069973D01*
X20358420Y-34002618D01*
X20349000Y-33906973D01*
X20349000Y-33293028D01*
X20358420Y-33197383D01*
X20395645Y-33074669D01*
X20395646Y-33074665D01*
X20456094Y-32961576D01*
X20537447Y-32862446D01*
X20636575Y-32781094D01*
X20749664Y-32720646D01*
X20791600Y-32707925D01*
X20872382Y-32683420D01*
X21000000Y-32670851D01*
X21127617Y-32683420D01*
G37*
G36*
X23127617Y-32683420D02*
G01*
X23208399Y-32707925D01*
X23250335Y-32720646D01*
X23363424Y-32781094D01*
X23462554Y-32862447D01*
X23543906Y-32961575D01*
X23604354Y-33074664D01*
X23610048Y-33093435D01*
X23641580Y-33197382D01*
X23651000Y-33293027D01*
X23651000Y-33906973D01*
X23641580Y-34002618D01*
X23621148Y-34069973D01*
X23604354Y-34125336D01*
X23543906Y-34238425D01*
X23462554Y-34337554D01*
X23363425Y-34418906D01*
X23250336Y-34479354D01*
X23218404Y-34489040D01*
X23127618Y-34516580D01*
X23000000Y-34529149D01*
X22872383Y-34516580D01*
X22781597Y-34489040D01*
X22749665Y-34479354D01*
X22636576Y-34418906D01*
X22537447Y-34337554D01*
X22456096Y-34238427D01*
X22456095Y-34238425D01*
X22415800Y-34163040D01*
X22395645Y-34125333D01*
X22378852Y-34069973D01*
X22358420Y-34002618D01*
X22349000Y-33906973D01*
X22349000Y-33293028D01*
X22358420Y-33197383D01*
X22395645Y-33074669D01*
X22395646Y-33074665D01*
X22456094Y-32961576D01*
X22537447Y-32862446D01*
X22636575Y-32781094D01*
X22749664Y-32720646D01*
X22791600Y-32707925D01*
X22872382Y-32683420D01*
X23000000Y-32670851D01*
X23127617Y-32683420D01*
G37*
G36*
X31127617Y-32683420D02*
G01*
X31208399Y-32707925D01*
X31250335Y-32720646D01*
X31363424Y-32781094D01*
X31462554Y-32862447D01*
X31543906Y-32961575D01*
X31604354Y-33074664D01*
X31610048Y-33093435D01*
X31641580Y-33197382D01*
X31651000Y-33293027D01*
X31651000Y-33906973D01*
X31641580Y-34002618D01*
X31621148Y-34069973D01*
X31604354Y-34125336D01*
X31543906Y-34238425D01*
X31462554Y-34337554D01*
X31363425Y-34418906D01*
X31250336Y-34479354D01*
X31218404Y-34489040D01*
X31127618Y-34516580D01*
X31000000Y-34529149D01*
X30872383Y-34516580D01*
X30781597Y-34489040D01*
X30749665Y-34479354D01*
X30636576Y-34418906D01*
X30537447Y-34337554D01*
X30456096Y-34238427D01*
X30456095Y-34238425D01*
X30415800Y-34163040D01*
X30395645Y-34125333D01*
X30378852Y-34069973D01*
X30358420Y-34002618D01*
X30349000Y-33906973D01*
X30349000Y-33293028D01*
X30358420Y-33197383D01*
X30395645Y-33074669D01*
X30395646Y-33074665D01*
X30456094Y-32961576D01*
X30537447Y-32862446D01*
X30636575Y-32781094D01*
X30749664Y-32720646D01*
X30791600Y-32707925D01*
X30872382Y-32683420D01*
X31000000Y-32670851D01*
X31127617Y-32683420D01*
G37*
G36*
X13127617Y-32683420D02*
G01*
X13208399Y-32707925D01*
X13250335Y-32720646D01*
X13363424Y-32781094D01*
X13462554Y-32862447D01*
X13543906Y-32961575D01*
X13604354Y-33074664D01*
X13610048Y-33093435D01*
X13641580Y-33197382D01*
X13651000Y-33293027D01*
X13651000Y-33906973D01*
X13641580Y-34002618D01*
X13621148Y-34069973D01*
X13604354Y-34125336D01*
X13543906Y-34238425D01*
X13462554Y-34337554D01*
X13363425Y-34418906D01*
X13250336Y-34479354D01*
X13218404Y-34489040D01*
X13127618Y-34516580D01*
X13000000Y-34529149D01*
X12872383Y-34516580D01*
X12781597Y-34489040D01*
X12749665Y-34479354D01*
X12636576Y-34418906D01*
X12537447Y-34337554D01*
X12456096Y-34238427D01*
X12456095Y-34238425D01*
X12415800Y-34163040D01*
X12395645Y-34125333D01*
X12378852Y-34069973D01*
X12358420Y-34002618D01*
X12349000Y-33906973D01*
X12349000Y-33293028D01*
X12358420Y-33197383D01*
X12395645Y-33074669D01*
X12395646Y-33074665D01*
X12456094Y-32961576D01*
X12537447Y-32862446D01*
X12636575Y-32781094D01*
X12749664Y-32720646D01*
X12791600Y-32707925D01*
X12872382Y-32683420D01*
X13000000Y-32670851D01*
X13127617Y-32683420D01*
G37*
G36*
X11127617Y-32683420D02*
G01*
X11208399Y-32707925D01*
X11250335Y-32720646D01*
X11363424Y-32781094D01*
X11462554Y-32862447D01*
X11543906Y-32961575D01*
X11604354Y-33074664D01*
X11610048Y-33093435D01*
X11641580Y-33197382D01*
X11651000Y-33293027D01*
X11651000Y-33906973D01*
X11641580Y-34002618D01*
X11621148Y-34069973D01*
X11604354Y-34125336D01*
X11543906Y-34238425D01*
X11462554Y-34337554D01*
X11363425Y-34418906D01*
X11250336Y-34479354D01*
X11218404Y-34489040D01*
X11127618Y-34516580D01*
X11000000Y-34529149D01*
X10872383Y-34516580D01*
X10781597Y-34489040D01*
X10749665Y-34479354D01*
X10636576Y-34418906D01*
X10537447Y-34337554D01*
X10456096Y-34238427D01*
X10456095Y-34238425D01*
X10415800Y-34163040D01*
X10395645Y-34125333D01*
X10378852Y-34069973D01*
X10358420Y-34002618D01*
X10349000Y-33906973D01*
X10349000Y-33293028D01*
X10358420Y-33197383D01*
X10395645Y-33074669D01*
X10395646Y-33074665D01*
X10456094Y-32961576D01*
X10537447Y-32862446D01*
X10636575Y-32781094D01*
X10749664Y-32720646D01*
X10791600Y-32707925D01*
X10872382Y-32683420D01*
X11000000Y-32670851D01*
X11127617Y-32683420D01*
G37*
G36*
X33127617Y-32683420D02*
G01*
X33208399Y-32707925D01*
X33250335Y-32720646D01*
X33363424Y-32781094D01*
X33462554Y-32862447D01*
X33543906Y-32961575D01*
X33604354Y-33074664D01*
X33610048Y-33093435D01*
X33641580Y-33197382D01*
X33651000Y-33293027D01*
X33651000Y-33906973D01*
X33641580Y-34002618D01*
X33621148Y-34069973D01*
X33604354Y-34125336D01*
X33543906Y-34238425D01*
X33462554Y-34337554D01*
X33363425Y-34418906D01*
X33250336Y-34479354D01*
X33218404Y-34489040D01*
X33127618Y-34516580D01*
X33000000Y-34529149D01*
X32872383Y-34516580D01*
X32781597Y-34489040D01*
X32749665Y-34479354D01*
X32636576Y-34418906D01*
X32537447Y-34337554D01*
X32456096Y-34238427D01*
X32456095Y-34238425D01*
X32415800Y-34163040D01*
X32395645Y-34125333D01*
X32378852Y-34069973D01*
X32358420Y-34002618D01*
X32349000Y-33906973D01*
X32349000Y-33293028D01*
X32358420Y-33197383D01*
X32395645Y-33074669D01*
X32395646Y-33074665D01*
X32456094Y-32961576D01*
X32537447Y-32862446D01*
X32636575Y-32781094D01*
X32749664Y-32720646D01*
X32791600Y-32707925D01*
X32872382Y-32683420D01*
X33000000Y-32670851D01*
X33127617Y-32683420D01*
G37*
G36*
X41127617Y-32683420D02*
G01*
X41208399Y-32707925D01*
X41250335Y-32720646D01*
X41363424Y-32781094D01*
X41462554Y-32862447D01*
X41543906Y-32961575D01*
X41604354Y-33074664D01*
X41610048Y-33093435D01*
X41641580Y-33197382D01*
X41651000Y-33293027D01*
X41651000Y-33906973D01*
X41641580Y-34002618D01*
X41621148Y-34069973D01*
X41604354Y-34125336D01*
X41543906Y-34238425D01*
X41462554Y-34337554D01*
X41363425Y-34418906D01*
X41250336Y-34479354D01*
X41218404Y-34489040D01*
X41127618Y-34516580D01*
X41000000Y-34529149D01*
X40872383Y-34516580D01*
X40781597Y-34489040D01*
X40749665Y-34479354D01*
X40636576Y-34418906D01*
X40537447Y-34337554D01*
X40456096Y-34238427D01*
X40456095Y-34238425D01*
X40415800Y-34163040D01*
X40395645Y-34125333D01*
X40378852Y-34069973D01*
X40358420Y-34002618D01*
X40349000Y-33906973D01*
X40349000Y-33293028D01*
X40358420Y-33197383D01*
X40395645Y-33074669D01*
X40395646Y-33074665D01*
X40456094Y-32961576D01*
X40537447Y-32862446D01*
X40636575Y-32781094D01*
X40749664Y-32720646D01*
X40791600Y-32707925D01*
X40872382Y-32683420D01*
X41000000Y-32670851D01*
X41127617Y-32683420D01*
G37*
G36*
X43127617Y-32683420D02*
G01*
X43208399Y-32707925D01*
X43250335Y-32720646D01*
X43363424Y-32781094D01*
X43462554Y-32862447D01*
X43543906Y-32961575D01*
X43604354Y-33074664D01*
X43610048Y-33093435D01*
X43641580Y-33197382D01*
X43651000Y-33293027D01*
X43651000Y-33906973D01*
X43641580Y-34002618D01*
X43621148Y-34069973D01*
X43604354Y-34125336D01*
X43543906Y-34238425D01*
X43462554Y-34337554D01*
X43363425Y-34418906D01*
X43250336Y-34479354D01*
X43218404Y-34489040D01*
X43127618Y-34516580D01*
X43000000Y-34529149D01*
X42872383Y-34516580D01*
X42781597Y-34489040D01*
X42749665Y-34479354D01*
X42636576Y-34418906D01*
X42537447Y-34337554D01*
X42456096Y-34238427D01*
X42456095Y-34238425D01*
X42415800Y-34163040D01*
X42395645Y-34125333D01*
X42378852Y-34069973D01*
X42358420Y-34002618D01*
X42349000Y-33906973D01*
X42349000Y-33293028D01*
X42358420Y-33197383D01*
X42395645Y-33074669D01*
X42395646Y-33074665D01*
X42456094Y-32961576D01*
X42537447Y-32862446D01*
X42636575Y-32781094D01*
X42749664Y-32720646D01*
X42791600Y-32707925D01*
X42872382Y-32683420D01*
X43000000Y-32670851D01*
X43127617Y-32683420D01*
G37*
G36*
X39491242Y-32678404D02*
G01*
X39528337Y-32689657D01*
X39562515Y-32707925D01*
X39592481Y-32732519D01*
X39617075Y-32762485D01*
X39635343Y-32796663D01*
X39646596Y-32833758D01*
X39651000Y-32878474D01*
X39651000Y-34321526D01*
X39646596Y-34366242D01*
X39635343Y-34403337D01*
X39617075Y-34437515D01*
X39592481Y-34467481D01*
X39562515Y-34492075D01*
X39528337Y-34510343D01*
X39491242Y-34521596D01*
X39446526Y-34526000D01*
X38553474Y-34526000D01*
X38508758Y-34521596D01*
X38471663Y-34510343D01*
X38437485Y-34492075D01*
X38407519Y-34467481D01*
X38382925Y-34437515D01*
X38364657Y-34403337D01*
X38353404Y-34366242D01*
X38349000Y-34321526D01*
X38349000Y-32878474D01*
X38353404Y-32833758D01*
X38364657Y-32796663D01*
X38382925Y-32762485D01*
X38407519Y-32732519D01*
X38437485Y-32707925D01*
X38471663Y-32689657D01*
X38508758Y-32678404D01*
X38553474Y-32674000D01*
X39446526Y-32674000D01*
X39491242Y-32678404D01*
G37*
G36*
X19491242Y-32678404D02*
G01*
X19528337Y-32689657D01*
X19562515Y-32707925D01*
X19592481Y-32732519D01*
X19617075Y-32762485D01*
X19635343Y-32796663D01*
X19646596Y-32833758D01*
X19651000Y-32878474D01*
X19651000Y-34321526D01*
X19646596Y-34366242D01*
X19635343Y-34403337D01*
X19617075Y-34437515D01*
X19592481Y-34467481D01*
X19562515Y-34492075D01*
X19528337Y-34510343D01*
X19491242Y-34521596D01*
X19446526Y-34526000D01*
X18553474Y-34526000D01*
X18508758Y-34521596D01*
X18471663Y-34510343D01*
X18437485Y-34492075D01*
X18407519Y-34467481D01*
X18382925Y-34437515D01*
X18364657Y-34403337D01*
X18353404Y-34366242D01*
X18349000Y-34321526D01*
X18349000Y-32878474D01*
X18353404Y-32833758D01*
X18364657Y-32796663D01*
X18382925Y-32762485D01*
X18407519Y-32732519D01*
X18437485Y-32707925D01*
X18471663Y-32689657D01*
X18508758Y-32678404D01*
X18553474Y-32674000D01*
X19446526Y-32674000D01*
X19491242Y-32678404D01*
G37*
G36*
X29491242Y-32678404D02*
G01*
X29528337Y-32689657D01*
X29562515Y-32707925D01*
X29592481Y-32732519D01*
X29617075Y-32762485D01*
X29635343Y-32796663D01*
X29646596Y-32833758D01*
X29651000Y-32878474D01*
X29651000Y-34321526D01*
X29646596Y-34366242D01*
X29635343Y-34403337D01*
X29617075Y-34437515D01*
X29592481Y-34467481D01*
X29562515Y-34492075D01*
X29528337Y-34510343D01*
X29491242Y-34521596D01*
X29446526Y-34526000D01*
X28553474Y-34526000D01*
X28508758Y-34521596D01*
X28471663Y-34510343D01*
X28437485Y-34492075D01*
X28407519Y-34467481D01*
X28382925Y-34437515D01*
X28364657Y-34403337D01*
X28353404Y-34366242D01*
X28349000Y-34321526D01*
X28349000Y-32878474D01*
X28353404Y-32833758D01*
X28364657Y-32796663D01*
X28382925Y-32762485D01*
X28407519Y-32732519D01*
X28437485Y-32707925D01*
X28471663Y-32689657D01*
X28508758Y-32678404D01*
X28553474Y-32674000D01*
X29446526Y-32674000D01*
X29491242Y-32678404D01*
G37*
G36*
X9491242Y-32678404D02*
G01*
X9528337Y-32689657D01*
X9562515Y-32707925D01*
X9592481Y-32732519D01*
X9617075Y-32762485D01*
X9635343Y-32796663D01*
X9646596Y-32833758D01*
X9651000Y-32878474D01*
X9651000Y-34321526D01*
X9646596Y-34366242D01*
X9635343Y-34403337D01*
X9617075Y-34437515D01*
X9592481Y-34467481D01*
X9562515Y-34492075D01*
X9528337Y-34510343D01*
X9491242Y-34521596D01*
X9446526Y-34526000D01*
X8553474Y-34526000D01*
X8508758Y-34521596D01*
X8471663Y-34510343D01*
X8437485Y-34492075D01*
X8407519Y-34467481D01*
X8382925Y-34437515D01*
X8364657Y-34403337D01*
X8353404Y-34366242D01*
X8349000Y-34321526D01*
X8349000Y-32878474D01*
X8353404Y-32833758D01*
X8364657Y-32796663D01*
X8382925Y-32762485D01*
X8407519Y-32732519D01*
X8437485Y-32707925D01*
X8471663Y-32689657D01*
X8508758Y-32678404D01*
X8553474Y-32674000D01*
X9446526Y-32674000D01*
X9491242Y-32678404D01*
G37*
G36*
X52978856Y-32224001D02*
G01*
X52981258Y-32248387D01*
X52988371Y-32271836D01*
X52999922Y-32293447D01*
X53015467Y-32312389D01*
X53034409Y-32327934D01*
X53056020Y-32339485D01*
X53079469Y-32346598D01*
X53103855Y-32349000D01*
X53651000Y-32349000D01*
X53651000Y-34451000D01*
X51549000Y-34451000D01*
X51549000Y-32575999D01*
X51546598Y-32551613D01*
X51539485Y-32528164D01*
X51527934Y-32506553D01*
X51512389Y-32487611D01*
X51493447Y-32472066D01*
X51471836Y-32460515D01*
X51448387Y-32453402D01*
X51424001Y-32451000D01*
X50876856Y-32451000D01*
X50876856Y-30349000D01*
X52978856Y-30349000D01*
X52978856Y-32224001D01*
G37*
G36*
X44915721Y-26455174D02*
G01*
X45015995Y-26496709D01*
X45015996Y-26496710D01*
X45106242Y-26557010D01*
X45182990Y-26633758D01*
X45182991Y-26633760D01*
X45243291Y-26724005D01*
X45274516Y-26799389D01*
X45286067Y-26821000D01*
X45301612Y-26839941D01*
X45320554Y-26855487D01*
X45342165Y-26867038D01*
X45365614Y-26874151D01*
X45390000Y-26876553D01*
X45414386Y-26874151D01*
X45437835Y-26867038D01*
X45459446Y-26855487D01*
X45478387Y-26839942D01*
X45493933Y-26821000D01*
X45505484Y-26799389D01*
X45536709Y-26724005D01*
X45597009Y-26633760D01*
X45597010Y-26633758D01*
X45673758Y-26557010D01*
X45764004Y-26496710D01*
X45764005Y-26496709D01*
X45864279Y-26455174D01*
X45970730Y-26434000D01*
X46079270Y-26434000D01*
X46185721Y-26455174D01*
X46285995Y-26496709D01*
X46285996Y-26496710D01*
X46376242Y-26557010D01*
X46452990Y-26633758D01*
X46452991Y-26633760D01*
X46513291Y-26724005D01*
X46554826Y-26824279D01*
X46576000Y-26930730D01*
X46576000Y-27039270D01*
X46554826Y-27145721D01*
X46513291Y-27245995D01*
X46513290Y-27245996D01*
X46452990Y-27336242D01*
X46376242Y-27412990D01*
X46330812Y-27443345D01*
X46285995Y-27473291D01*
X46185721Y-27514826D01*
X46079270Y-27536000D01*
X45970730Y-27536000D01*
X45864279Y-27514826D01*
X45764005Y-27473291D01*
X45719188Y-27443345D01*
X45673758Y-27412990D01*
X45597010Y-27336242D01*
X45536710Y-27245996D01*
X45536709Y-27245995D01*
X45505484Y-27170611D01*
X45493933Y-27149000D01*
X45478388Y-27130059D01*
X45459446Y-27114513D01*
X45437835Y-27102962D01*
X45414386Y-27095849D01*
X45390000Y-27093447D01*
X45365614Y-27095849D01*
X45342165Y-27102962D01*
X45320554Y-27114513D01*
X45301613Y-27130058D01*
X45286067Y-27149000D01*
X45274516Y-27170611D01*
X45243291Y-27245995D01*
X45243290Y-27245996D01*
X45182990Y-27336242D01*
X45106242Y-27412990D01*
X45060812Y-27443345D01*
X45015995Y-27473291D01*
X44915721Y-27514826D01*
X44809270Y-27536000D01*
X44700730Y-27536000D01*
X44594279Y-27514826D01*
X44494005Y-27473291D01*
X44449188Y-27443345D01*
X44403758Y-27412990D01*
X44327010Y-27336242D01*
X44266710Y-27245996D01*
X44266709Y-27245995D01*
X44225174Y-27145721D01*
X44204000Y-27039270D01*
X44204000Y-26930730D01*
X44225174Y-26824279D01*
X44266709Y-26724005D01*
X44327009Y-26633760D01*
X44327010Y-26633758D01*
X44403758Y-26557010D01*
X44494004Y-26496710D01*
X44494005Y-26496709D01*
X44594279Y-26455174D01*
X44700730Y-26434000D01*
X44809270Y-26434000D01*
X44915721Y-26455174D01*
G37*
G36*
X15070721Y-26455174D02*
G01*
X15170995Y-26496709D01*
X15170996Y-26496710D01*
X15261242Y-26557010D01*
X15337990Y-26633758D01*
X15337991Y-26633760D01*
X15398291Y-26724005D01*
X15429516Y-26799389D01*
X15441067Y-26821000D01*
X15456612Y-26839941D01*
X15475554Y-26855487D01*
X15497165Y-26867038D01*
X15520614Y-26874151D01*
X15545000Y-26876553D01*
X15569386Y-26874151D01*
X15592835Y-26867038D01*
X15614446Y-26855487D01*
X15633387Y-26839942D01*
X15648933Y-26821000D01*
X15660484Y-26799389D01*
X15691709Y-26724005D01*
X15752009Y-26633760D01*
X15752010Y-26633758D01*
X15828758Y-26557010D01*
X15919004Y-26496710D01*
X15919005Y-26496709D01*
X16019279Y-26455174D01*
X16125730Y-26434000D01*
X16234270Y-26434000D01*
X16340721Y-26455174D01*
X16440995Y-26496709D01*
X16440996Y-26496710D01*
X16531242Y-26557010D01*
X16607990Y-26633758D01*
X16607991Y-26633760D01*
X16668291Y-26724005D01*
X16699516Y-26799389D01*
X16711067Y-26821000D01*
X16726612Y-26839941D01*
X16745554Y-26855487D01*
X16767165Y-26867038D01*
X16790614Y-26874151D01*
X16815000Y-26876553D01*
X16839386Y-26874151D01*
X16862835Y-26867038D01*
X16884446Y-26855487D01*
X16903387Y-26839942D01*
X16918933Y-26821000D01*
X16930484Y-26799389D01*
X16961709Y-26724005D01*
X17022009Y-26633760D01*
X17022010Y-26633758D01*
X17098758Y-26557010D01*
X17189004Y-26496710D01*
X17189005Y-26496709D01*
X17289279Y-26455174D01*
X17395730Y-26434000D01*
X17504270Y-26434000D01*
X17610721Y-26455174D01*
X17710995Y-26496709D01*
X17710996Y-26496710D01*
X17801242Y-26557010D01*
X17877990Y-26633758D01*
X17877991Y-26633760D01*
X17938291Y-26724005D01*
X17969516Y-26799389D01*
X17981067Y-26821000D01*
X17996612Y-26839941D01*
X18015554Y-26855487D01*
X18037165Y-26867038D01*
X18060614Y-26874151D01*
X18085000Y-26876553D01*
X18109386Y-26874151D01*
X18132835Y-26867038D01*
X18154446Y-26855487D01*
X18173387Y-26839942D01*
X18188933Y-26821000D01*
X18200484Y-26799389D01*
X18231709Y-26724005D01*
X18292009Y-26633760D01*
X18292010Y-26633758D01*
X18368758Y-26557010D01*
X18459004Y-26496710D01*
X18459005Y-26496709D01*
X18559279Y-26455174D01*
X18665730Y-26434000D01*
X18774270Y-26434000D01*
X18880721Y-26455174D01*
X18980995Y-26496709D01*
X18980996Y-26496710D01*
X19071242Y-26557010D01*
X19147990Y-26633758D01*
X19147991Y-26633760D01*
X19208291Y-26724005D01*
X19239516Y-26799389D01*
X19251067Y-26821000D01*
X19266612Y-26839941D01*
X19285554Y-26855487D01*
X19307165Y-26867038D01*
X19330614Y-26874151D01*
X19355000Y-26876553D01*
X19379386Y-26874151D01*
X19402835Y-26867038D01*
X19424446Y-26855487D01*
X19443387Y-26839942D01*
X19458933Y-26821000D01*
X19470484Y-26799389D01*
X19501709Y-26724005D01*
X19562009Y-26633760D01*
X19562010Y-26633758D01*
X19638758Y-26557010D01*
X19729004Y-26496710D01*
X19729005Y-26496709D01*
X19829279Y-26455174D01*
X19935730Y-26434000D01*
X20044270Y-26434000D01*
X20150721Y-26455174D01*
X20250995Y-26496709D01*
X20250996Y-26496710D01*
X20341242Y-26557010D01*
X20417990Y-26633758D01*
X20417991Y-26633760D01*
X20478291Y-26724005D01*
X20509516Y-26799389D01*
X20521067Y-26821000D01*
X20536612Y-26839941D01*
X20555554Y-26855487D01*
X20577165Y-26867038D01*
X20600614Y-26874151D01*
X20625000Y-26876553D01*
X20649386Y-26874151D01*
X20672835Y-26867038D01*
X20694446Y-26855487D01*
X20713387Y-26839942D01*
X20728933Y-26821000D01*
X20740484Y-26799389D01*
X20771709Y-26724005D01*
X20832009Y-26633760D01*
X20832010Y-26633758D01*
X20908758Y-26557010D01*
X20999004Y-26496710D01*
X20999005Y-26496709D01*
X21099279Y-26455174D01*
X21205730Y-26434000D01*
X21314270Y-26434000D01*
X21420721Y-26455174D01*
X21520995Y-26496709D01*
X21520996Y-26496710D01*
X21611242Y-26557010D01*
X21687990Y-26633758D01*
X21687991Y-26633760D01*
X21748291Y-26724005D01*
X21779516Y-26799389D01*
X21791067Y-26821000D01*
X21806612Y-26839941D01*
X21825554Y-26855487D01*
X21847165Y-26867038D01*
X21870614Y-26874151D01*
X21895000Y-26876553D01*
X21919386Y-26874151D01*
X21942835Y-26867038D01*
X21964446Y-26855487D01*
X21983387Y-26839942D01*
X21998933Y-26821000D01*
X22010484Y-26799389D01*
X22041709Y-26724005D01*
X22102009Y-26633760D01*
X22102010Y-26633758D01*
X22178758Y-26557010D01*
X22269004Y-26496710D01*
X22269005Y-26496709D01*
X22369279Y-26455174D01*
X22475730Y-26434000D01*
X22584270Y-26434000D01*
X22690721Y-26455174D01*
X22790995Y-26496709D01*
X22790996Y-26496710D01*
X22881242Y-26557010D01*
X22957990Y-26633758D01*
X22957991Y-26633760D01*
X23018291Y-26724005D01*
X23049516Y-26799389D01*
X23061067Y-26821000D01*
X23076612Y-26839941D01*
X23095554Y-26855487D01*
X23117165Y-26867038D01*
X23140614Y-26874151D01*
X23165000Y-26876553D01*
X23189386Y-26874151D01*
X23212835Y-26867038D01*
X23234446Y-26855487D01*
X23253387Y-26839942D01*
X23268933Y-26821000D01*
X23280484Y-26799389D01*
X23311709Y-26724005D01*
X23372009Y-26633760D01*
X23372010Y-26633758D01*
X23448758Y-26557010D01*
X23539004Y-26496710D01*
X23539005Y-26496709D01*
X23639279Y-26455174D01*
X23745730Y-26434000D01*
X23854270Y-26434000D01*
X23960721Y-26455174D01*
X24060995Y-26496709D01*
X24060996Y-26496710D01*
X24151242Y-26557010D01*
X24227990Y-26633758D01*
X24227991Y-26633760D01*
X24288291Y-26724005D01*
X24319516Y-26799389D01*
X24331067Y-26821000D01*
X24346612Y-26839941D01*
X24365554Y-26855487D01*
X24387165Y-26867038D01*
X24410614Y-26874151D01*
X24435000Y-26876553D01*
X24459386Y-26874151D01*
X24482835Y-26867038D01*
X24504446Y-26855487D01*
X24523387Y-26839942D01*
X24538933Y-26821000D01*
X24550484Y-26799389D01*
X24581709Y-26724005D01*
X24642009Y-26633760D01*
X24642010Y-26633758D01*
X24718758Y-26557010D01*
X24809004Y-26496710D01*
X24809005Y-26496709D01*
X24909279Y-26455174D01*
X25015730Y-26434000D01*
X25124270Y-26434000D01*
X25230721Y-26455174D01*
X25330995Y-26496709D01*
X25330996Y-26496710D01*
X25421242Y-26557010D01*
X25497990Y-26633758D01*
X25497991Y-26633760D01*
X25558291Y-26724005D01*
X25589516Y-26799389D01*
X25601067Y-26821000D01*
X25616612Y-26839941D01*
X25635554Y-26855487D01*
X25657165Y-26867038D01*
X25680614Y-26874151D01*
X25705000Y-26876553D01*
X25729386Y-26874151D01*
X25752835Y-26867038D01*
X25774446Y-26855487D01*
X25793387Y-26839942D01*
X25808933Y-26821000D01*
X25820484Y-26799389D01*
X25851709Y-26724005D01*
X25912009Y-26633760D01*
X25912010Y-26633758D01*
X25988758Y-26557010D01*
X26079004Y-26496710D01*
X26079005Y-26496709D01*
X26179279Y-26455174D01*
X26285730Y-26434000D01*
X26394270Y-26434000D01*
X26500721Y-26455174D01*
X26600995Y-26496709D01*
X26600996Y-26496710D01*
X26691242Y-26557010D01*
X26767990Y-26633758D01*
X26767991Y-26633760D01*
X26828291Y-26724005D01*
X26859516Y-26799389D01*
X26871067Y-26821000D01*
X26886612Y-26839941D01*
X26905554Y-26855487D01*
X26927165Y-26867038D01*
X26950614Y-26874151D01*
X26975000Y-26876553D01*
X26999386Y-26874151D01*
X27022835Y-26867038D01*
X27044446Y-26855487D01*
X27063387Y-26839942D01*
X27078933Y-26821000D01*
X27090484Y-26799389D01*
X27121709Y-26724005D01*
X27182009Y-26633760D01*
X27182010Y-26633758D01*
X27258758Y-26557010D01*
X27349004Y-26496710D01*
X27349005Y-26496709D01*
X27449279Y-26455174D01*
X27555730Y-26434000D01*
X27664270Y-26434000D01*
X27770721Y-26455174D01*
X27870995Y-26496709D01*
X27870996Y-26496710D01*
X27961242Y-26557010D01*
X28037990Y-26633758D01*
X28037991Y-26633760D01*
X28098291Y-26724005D01*
X28129516Y-26799389D01*
X28141067Y-26821000D01*
X28156612Y-26839941D01*
X28175554Y-26855487D01*
X28197165Y-26867038D01*
X28220614Y-26874151D01*
X28245000Y-26876553D01*
X28269386Y-26874151D01*
X28292835Y-26867038D01*
X28314446Y-26855487D01*
X28333387Y-26839942D01*
X28348933Y-26821000D01*
X28360484Y-26799389D01*
X28391709Y-26724005D01*
X28452009Y-26633760D01*
X28452010Y-26633758D01*
X28528758Y-26557010D01*
X28619004Y-26496710D01*
X28619005Y-26496709D01*
X28719279Y-26455174D01*
X28825730Y-26434000D01*
X28934270Y-26434000D01*
X29040721Y-26455174D01*
X29140995Y-26496709D01*
X29140996Y-26496710D01*
X29231242Y-26557010D01*
X29307990Y-26633758D01*
X29307991Y-26633760D01*
X29368291Y-26724005D01*
X29399516Y-26799389D01*
X29411067Y-26821000D01*
X29426612Y-26839941D01*
X29445554Y-26855487D01*
X29467165Y-26867038D01*
X29490614Y-26874151D01*
X29515000Y-26876553D01*
X29539386Y-26874151D01*
X29562835Y-26867038D01*
X29584446Y-26855487D01*
X29603387Y-26839942D01*
X29618933Y-26821000D01*
X29630484Y-26799389D01*
X29661709Y-26724005D01*
X29722009Y-26633760D01*
X29722010Y-26633758D01*
X29798758Y-26557010D01*
X29889004Y-26496710D01*
X29889005Y-26496709D01*
X29989279Y-26455174D01*
X30095730Y-26434000D01*
X30204270Y-26434000D01*
X30310721Y-26455174D01*
X30410995Y-26496709D01*
X30410996Y-26496710D01*
X30501242Y-26557010D01*
X30577990Y-26633758D01*
X30577991Y-26633760D01*
X30638291Y-26724005D01*
X30679826Y-26824279D01*
X30701000Y-26930730D01*
X30701000Y-27039270D01*
X30679826Y-27145721D01*
X30638291Y-27245995D01*
X30638290Y-27245996D01*
X30577990Y-27336242D01*
X30501242Y-27412990D01*
X30455812Y-27443345D01*
X30410995Y-27473291D01*
X30310721Y-27514826D01*
X30204270Y-27536000D01*
X30095730Y-27536000D01*
X29989279Y-27514826D01*
X29889005Y-27473291D01*
X29844188Y-27443345D01*
X29798758Y-27412990D01*
X29722010Y-27336242D01*
X29661710Y-27245996D01*
X29661709Y-27245995D01*
X29630484Y-27170611D01*
X29618933Y-27149000D01*
X29603388Y-27130059D01*
X29584446Y-27114513D01*
X29562835Y-27102962D01*
X29539386Y-27095849D01*
X29515000Y-27093447D01*
X29490614Y-27095849D01*
X29467165Y-27102962D01*
X29445554Y-27114513D01*
X29426613Y-27130058D01*
X29411067Y-27149000D01*
X29399516Y-27170611D01*
X29368291Y-27245995D01*
X29368290Y-27245996D01*
X29307990Y-27336242D01*
X29231242Y-27412990D01*
X29185812Y-27443345D01*
X29140995Y-27473291D01*
X29040721Y-27514826D01*
X28934270Y-27536000D01*
X28825730Y-27536000D01*
X28719279Y-27514826D01*
X28619005Y-27473291D01*
X28574188Y-27443345D01*
X28528758Y-27412990D01*
X28452010Y-27336242D01*
X28391710Y-27245996D01*
X28391709Y-27245995D01*
X28360484Y-27170611D01*
X28348933Y-27149000D01*
X28333388Y-27130059D01*
X28314446Y-27114513D01*
X28292835Y-27102962D01*
X28269386Y-27095849D01*
X28245000Y-27093447D01*
X28220614Y-27095849D01*
X28197165Y-27102962D01*
X28175554Y-27114513D01*
X28156613Y-27130058D01*
X28141067Y-27149000D01*
X28129516Y-27170611D01*
X28098291Y-27245995D01*
X28098290Y-27245996D01*
X28037990Y-27336242D01*
X27961242Y-27412990D01*
X27915812Y-27443345D01*
X27870995Y-27473291D01*
X27770721Y-27514826D01*
X27664270Y-27536000D01*
X27555730Y-27536000D01*
X27449279Y-27514826D01*
X27349005Y-27473291D01*
X27304188Y-27443345D01*
X27258758Y-27412990D01*
X27182010Y-27336242D01*
X27121710Y-27245996D01*
X27121709Y-27245995D01*
X27090484Y-27170611D01*
X27078933Y-27149000D01*
X27063388Y-27130059D01*
X27044446Y-27114513D01*
X27022835Y-27102962D01*
X26999386Y-27095849D01*
X26975000Y-27093447D01*
X26950614Y-27095849D01*
X26927165Y-27102962D01*
X26905554Y-27114513D01*
X26886613Y-27130058D01*
X26871067Y-27149000D01*
X26859516Y-27170611D01*
X26828291Y-27245995D01*
X26828290Y-27245996D01*
X26767990Y-27336242D01*
X26691242Y-27412990D01*
X26645812Y-27443345D01*
X26600995Y-27473291D01*
X26500721Y-27514826D01*
X26394270Y-27536000D01*
X26285730Y-27536000D01*
X26179279Y-27514826D01*
X26079005Y-27473291D01*
X26034188Y-27443345D01*
X25988758Y-27412990D01*
X25912010Y-27336242D01*
X25851710Y-27245996D01*
X25851709Y-27245995D01*
X25820484Y-27170611D01*
X25808933Y-27149000D01*
X25793388Y-27130059D01*
X25774446Y-27114513D01*
X25752835Y-27102962D01*
X25729386Y-27095849D01*
X25705000Y-27093447D01*
X25680614Y-27095849D01*
X25657165Y-27102962D01*
X25635554Y-27114513D01*
X25616613Y-27130058D01*
X25601067Y-27149000D01*
X25589516Y-27170611D01*
X25558291Y-27245995D01*
X25558290Y-27245996D01*
X25497990Y-27336242D01*
X25421242Y-27412990D01*
X25375812Y-27443345D01*
X25330995Y-27473291D01*
X25230721Y-27514826D01*
X25124270Y-27536000D01*
X25015730Y-27536000D01*
X24909279Y-27514826D01*
X24809005Y-27473291D01*
X24764188Y-27443345D01*
X24718758Y-27412990D01*
X24642010Y-27336242D01*
X24581710Y-27245996D01*
X24581709Y-27245995D01*
X24550484Y-27170611D01*
X24538933Y-27149000D01*
X24523388Y-27130059D01*
X24504446Y-27114513D01*
X24482835Y-27102962D01*
X24459386Y-27095849D01*
X24435000Y-27093447D01*
X24410614Y-27095849D01*
X24387165Y-27102962D01*
X24365554Y-27114513D01*
X24346613Y-27130058D01*
X24331067Y-27149000D01*
X24319516Y-27170611D01*
X24288291Y-27245995D01*
X24288290Y-27245996D01*
X24227990Y-27336242D01*
X24151242Y-27412990D01*
X24105812Y-27443345D01*
X24060995Y-27473291D01*
X23960721Y-27514826D01*
X23854270Y-27536000D01*
X23745730Y-27536000D01*
X23639279Y-27514826D01*
X23539005Y-27473291D01*
X23494188Y-27443345D01*
X23448758Y-27412990D01*
X23372010Y-27336242D01*
X23311710Y-27245996D01*
X23311709Y-27245995D01*
X23280484Y-27170611D01*
X23268933Y-27149000D01*
X23253388Y-27130059D01*
X23234446Y-27114513D01*
X23212835Y-27102962D01*
X23189386Y-27095849D01*
X23165000Y-27093447D01*
X23140614Y-27095849D01*
X23117165Y-27102962D01*
X23095554Y-27114513D01*
X23076613Y-27130058D01*
X23061067Y-27149000D01*
X23049516Y-27170611D01*
X23018291Y-27245995D01*
X23018290Y-27245996D01*
X22957990Y-27336242D01*
X22881242Y-27412990D01*
X22835812Y-27443345D01*
X22790995Y-27473291D01*
X22690721Y-27514826D01*
X22584270Y-27536000D01*
X22475730Y-27536000D01*
X22369279Y-27514826D01*
X22269005Y-27473291D01*
X22224188Y-27443345D01*
X22178758Y-27412990D01*
X22102010Y-27336242D01*
X22041710Y-27245996D01*
X22041709Y-27245995D01*
X22010484Y-27170611D01*
X21998933Y-27149000D01*
X21983388Y-27130059D01*
X21964446Y-27114513D01*
X21942835Y-27102962D01*
X21919386Y-27095849D01*
X21895000Y-27093447D01*
X21870614Y-27095849D01*
X21847165Y-27102962D01*
X21825554Y-27114513D01*
X21806613Y-27130058D01*
X21791067Y-27149000D01*
X21779516Y-27170611D01*
X21748291Y-27245995D01*
X21748290Y-27245996D01*
X21687990Y-27336242D01*
X21611242Y-27412990D01*
X21565812Y-27443345D01*
X21520995Y-27473291D01*
X21420721Y-27514826D01*
X21314270Y-27536000D01*
X21205730Y-27536000D01*
X21099279Y-27514826D01*
X20999005Y-27473291D01*
X20954188Y-27443345D01*
X20908758Y-27412990D01*
X20832010Y-27336242D01*
X20771710Y-27245996D01*
X20771709Y-27245995D01*
X20740484Y-27170611D01*
X20728933Y-27149000D01*
X20713388Y-27130059D01*
X20694446Y-27114513D01*
X20672835Y-27102962D01*
X20649386Y-27095849D01*
X20625000Y-27093447D01*
X20600614Y-27095849D01*
X20577165Y-27102962D01*
X20555554Y-27114513D01*
X20536613Y-27130058D01*
X20521067Y-27149000D01*
X20509516Y-27170611D01*
X20478291Y-27245995D01*
X20478290Y-27245996D01*
X20417990Y-27336242D01*
X20341242Y-27412990D01*
X20295812Y-27443345D01*
X20250995Y-27473291D01*
X20150721Y-27514826D01*
X20044270Y-27536000D01*
X19935730Y-27536000D01*
X19829279Y-27514826D01*
X19729005Y-27473291D01*
X19684188Y-27443345D01*
X19638758Y-27412990D01*
X19562010Y-27336242D01*
X19501710Y-27245996D01*
X19501709Y-27245995D01*
X19470484Y-27170611D01*
X19458933Y-27149000D01*
X19443388Y-27130059D01*
X19424446Y-27114513D01*
X19402835Y-27102962D01*
X19379386Y-27095849D01*
X19355000Y-27093447D01*
X19330614Y-27095849D01*
X19307165Y-27102962D01*
X19285554Y-27114513D01*
X19266613Y-27130058D01*
X19251067Y-27149000D01*
X19239516Y-27170611D01*
X19208291Y-27245995D01*
X19208290Y-27245996D01*
X19147990Y-27336242D01*
X19071242Y-27412990D01*
X19025812Y-27443345D01*
X18980995Y-27473291D01*
X18880721Y-27514826D01*
X18774270Y-27536000D01*
X18665730Y-27536000D01*
X18559279Y-27514826D01*
X18459005Y-27473291D01*
X18414188Y-27443345D01*
X18368758Y-27412990D01*
X18292010Y-27336242D01*
X18231710Y-27245996D01*
X18231709Y-27245995D01*
X18200484Y-27170611D01*
X18188933Y-27149000D01*
X18173388Y-27130059D01*
X18154446Y-27114513D01*
X18132835Y-27102962D01*
X18109386Y-27095849D01*
X18085000Y-27093447D01*
X18060614Y-27095849D01*
X18037165Y-27102962D01*
X18015554Y-27114513D01*
X17996613Y-27130058D01*
X17981067Y-27149000D01*
X17969516Y-27170611D01*
X17938291Y-27245995D01*
X17938290Y-27245996D01*
X17877990Y-27336242D01*
X17801242Y-27412990D01*
X17755812Y-27443345D01*
X17710995Y-27473291D01*
X17610721Y-27514826D01*
X17504270Y-27536000D01*
X17395730Y-27536000D01*
X17289279Y-27514826D01*
X17189005Y-27473291D01*
X17144188Y-27443345D01*
X17098758Y-27412990D01*
X17022010Y-27336242D01*
X16961710Y-27245996D01*
X16961709Y-27245995D01*
X16930484Y-27170611D01*
X16918933Y-27149000D01*
X16903388Y-27130059D01*
X16884446Y-27114513D01*
X16862835Y-27102962D01*
X16839386Y-27095849D01*
X16815000Y-27093447D01*
X16790614Y-27095849D01*
X16767165Y-27102962D01*
X16745554Y-27114513D01*
X16726613Y-27130058D01*
X16711067Y-27149000D01*
X16699516Y-27170611D01*
X16668291Y-27245995D01*
X16668290Y-27245996D01*
X16607990Y-27336242D01*
X16531242Y-27412990D01*
X16485812Y-27443345D01*
X16440995Y-27473291D01*
X16340721Y-27514826D01*
X16234270Y-27536000D01*
X16125730Y-27536000D01*
X16019279Y-27514826D01*
X15919005Y-27473291D01*
X15874188Y-27443345D01*
X15828758Y-27412990D01*
X15752010Y-27336242D01*
X15691710Y-27245996D01*
X15691709Y-27245995D01*
X15660484Y-27170611D01*
X15648933Y-27149000D01*
X15633388Y-27130059D01*
X15614446Y-27114513D01*
X15592835Y-27102962D01*
X15569386Y-27095849D01*
X15545000Y-27093447D01*
X15520614Y-27095849D01*
X15497165Y-27102962D01*
X15475554Y-27114513D01*
X15456613Y-27130058D01*
X15441067Y-27149000D01*
X15429516Y-27170611D01*
X15398291Y-27245995D01*
X15398290Y-27245996D01*
X15337990Y-27336242D01*
X15261242Y-27412990D01*
X15215812Y-27443345D01*
X15170995Y-27473291D01*
X15070721Y-27514826D01*
X14964270Y-27536000D01*
X14855730Y-27536000D01*
X14749279Y-27514826D01*
X14649005Y-27473291D01*
X14604188Y-27443345D01*
X14558758Y-27412990D01*
X14482010Y-27336242D01*
X14421710Y-27245996D01*
X14421709Y-27245995D01*
X14380174Y-27145721D01*
X14359000Y-27039270D01*
X14359000Y-26930730D01*
X14380174Y-26824279D01*
X14421709Y-26724005D01*
X14482009Y-26633760D01*
X14482010Y-26633758D01*
X14558758Y-26557010D01*
X14649004Y-26496710D01*
X14649005Y-26496709D01*
X14749279Y-26455174D01*
X14855730Y-26434000D01*
X14964270Y-26434000D01*
X15070721Y-26455174D01*
G37*
G36*
X54156016Y-23064291D02*
G01*
X54258024Y-23084581D01*
X54450204Y-23164185D01*
X54623161Y-23279751D01*
X54770249Y-23426839D01*
X54885815Y-23599796D01*
X54965419Y-23791976D01*
X55006000Y-23995993D01*
X55006000Y-24204007D01*
X54965419Y-24408024D01*
X54885815Y-24600204D01*
X54770249Y-24773161D01*
X54623161Y-24920249D01*
X54450204Y-25035815D01*
X54258024Y-25115419D01*
X54156016Y-25135709D01*
X54054008Y-25156000D01*
X53845992Y-25156000D01*
X53743984Y-25135709D01*
X53641976Y-25115419D01*
X53449796Y-25035815D01*
X53276839Y-24920249D01*
X53129751Y-24773161D01*
X53014185Y-24600204D01*
X52934581Y-24408024D01*
X52894000Y-24204007D01*
X52894000Y-23995993D01*
X52934581Y-23791976D01*
X53014185Y-23599796D01*
X53129751Y-23426839D01*
X53276839Y-23279751D01*
X53449796Y-23164185D01*
X53641976Y-23084581D01*
X53743984Y-23064291D01*
X53845992Y-23044000D01*
X54054008Y-23044000D01*
X54156016Y-23064291D01*
G37*
G36*
X58706016Y-23064291D02*
G01*
X58808024Y-23084581D01*
X59000204Y-23164185D01*
X59173161Y-23279751D01*
X59320249Y-23426839D01*
X59435815Y-23599796D01*
X59515419Y-23791976D01*
X59556000Y-23995993D01*
X59556000Y-24204007D01*
X59515419Y-24408024D01*
X59435815Y-24600204D01*
X59320249Y-24773161D01*
X59173161Y-24920249D01*
X59000204Y-25035815D01*
X58808024Y-25115419D01*
X58706016Y-25135709D01*
X58604008Y-25156000D01*
X58395992Y-25156000D01*
X58293984Y-25135709D01*
X58191976Y-25115419D01*
X57999796Y-25035815D01*
X57826839Y-24920249D01*
X57679751Y-24773161D01*
X57564185Y-24600204D01*
X57484581Y-24408024D01*
X57444000Y-24204007D01*
X57444000Y-23995993D01*
X57484581Y-23791976D01*
X57564185Y-23599796D01*
X57679751Y-23426839D01*
X57826839Y-23279751D01*
X57999796Y-23164185D01*
X58191976Y-23084581D01*
X58293984Y-23064291D01*
X58395992Y-23044000D01*
X58604008Y-23044000D01*
X58706016Y-23064291D01*
G37*
G36*
X6838855Y-22352140D02*
G01*
X6902618Y-22358420D01*
X6993404Y-22385960D01*
X7025336Y-22395646D01*
X7138425Y-22456094D01*
X7237554Y-22537446D01*
X7318906Y-22636575D01*
X7379354Y-22749664D01*
X7379355Y-22749668D01*
X7416580Y-22872382D01*
X7429149Y-23000000D01*
X7416580Y-23127618D01*
X7405487Y-23164185D01*
X7379354Y-23250336D01*
X7318906Y-23363425D01*
X7237554Y-23462554D01*
X7138425Y-23543906D01*
X7025336Y-23604354D01*
X6993404Y-23614040D01*
X6902618Y-23641580D01*
X6838855Y-23647860D01*
X6806974Y-23651000D01*
X6193026Y-23651000D01*
X6161145Y-23647860D01*
X6097382Y-23641580D01*
X6006596Y-23614040D01*
X5974664Y-23604354D01*
X5861575Y-23543906D01*
X5762446Y-23462554D01*
X5681094Y-23363425D01*
X5620646Y-23250336D01*
X5594513Y-23164185D01*
X5583420Y-23127618D01*
X5570851Y-23000000D01*
X5583420Y-22872382D01*
X5620645Y-22749668D01*
X5620646Y-22749664D01*
X5681094Y-22636575D01*
X5762446Y-22537446D01*
X5861575Y-22456094D01*
X5974664Y-22395646D01*
X6006596Y-22385960D01*
X6097382Y-22358420D01*
X6161145Y-22352140D01*
X6193026Y-22349000D01*
X6806974Y-22349000D01*
X6838855Y-22352140D01*
G37*
G36*
X6838855Y-20352140D02*
G01*
X6902618Y-20358420D01*
X6993404Y-20385960D01*
X7025336Y-20395646D01*
X7138425Y-20456094D01*
X7237554Y-20537446D01*
X7318906Y-20636575D01*
X7379354Y-20749664D01*
X7379355Y-20749668D01*
X7416580Y-20872382D01*
X7429149Y-21000000D01*
X7416580Y-21127618D01*
X7389040Y-21218404D01*
X7379354Y-21250336D01*
X7318906Y-21363425D01*
X7237554Y-21462554D01*
X7138425Y-21543906D01*
X7025336Y-21604354D01*
X6993404Y-21614040D01*
X6902618Y-21641580D01*
X6838855Y-21647860D01*
X6806974Y-21651000D01*
X6193026Y-21651000D01*
X6161145Y-21647860D01*
X6097382Y-21641580D01*
X6006596Y-21614040D01*
X5974664Y-21604354D01*
X5861575Y-21543906D01*
X5762446Y-21462554D01*
X5681094Y-21363425D01*
X5620646Y-21250336D01*
X5610960Y-21218404D01*
X5583420Y-21127618D01*
X5570851Y-21000000D01*
X5583420Y-20872382D01*
X5620645Y-20749668D01*
X5620646Y-20749664D01*
X5681094Y-20636575D01*
X5762446Y-20537446D01*
X5861575Y-20456094D01*
X5974664Y-20395646D01*
X6006596Y-20385960D01*
X6097382Y-20358420D01*
X6161145Y-20352140D01*
X6193026Y-20349000D01*
X6806974Y-20349000D01*
X6838855Y-20352140D01*
G37*
G36*
X52956015Y-17964290D02*
G01*
X53058024Y-17984581D01*
X53250204Y-18064185D01*
X53423161Y-18179751D01*
X53570249Y-18326839D01*
X53685815Y-18499796D01*
X53765419Y-18691976D01*
X53806000Y-18895993D01*
X53806000Y-19104007D01*
X53765419Y-19308024D01*
X53685815Y-19500204D01*
X53570249Y-19673161D01*
X53423161Y-19820249D01*
X53250204Y-19935815D01*
X53058024Y-20015419D01*
X52956016Y-20035709D01*
X52854008Y-20056000D01*
X52645992Y-20056000D01*
X52543984Y-20035709D01*
X52441976Y-20015419D01*
X52249796Y-19935815D01*
X52076839Y-19820249D01*
X51929751Y-19673161D01*
X51814185Y-19500204D01*
X51734581Y-19308024D01*
X51694000Y-19104007D01*
X51694000Y-18895993D01*
X51734581Y-18691976D01*
X51814185Y-18499796D01*
X51929751Y-18326839D01*
X52076839Y-18179751D01*
X52249796Y-18064185D01*
X52441976Y-17984581D01*
X52543985Y-17964290D01*
X52645992Y-17944000D01*
X52854008Y-17944000D01*
X52956015Y-17964290D01*
G37*
G36*
X57506015Y-17964290D02*
G01*
X57608024Y-17984581D01*
X57800204Y-18064185D01*
X57973161Y-18179751D01*
X58120249Y-18326839D01*
X58235815Y-18499796D01*
X58315419Y-18691976D01*
X58356000Y-18895993D01*
X58356000Y-19104007D01*
X58315419Y-19308024D01*
X58235815Y-19500204D01*
X58120249Y-19673161D01*
X57973161Y-19820249D01*
X57800204Y-19935815D01*
X57608024Y-20015419D01*
X57506016Y-20035709D01*
X57404008Y-20056000D01*
X57195992Y-20056000D01*
X57093984Y-20035709D01*
X56991976Y-20015419D01*
X56799796Y-19935815D01*
X56626839Y-19820249D01*
X56479751Y-19673161D01*
X56364185Y-19500204D01*
X56284581Y-19308024D01*
X56244000Y-19104007D01*
X56244000Y-18895993D01*
X56284581Y-18691976D01*
X56364185Y-18499796D01*
X56479751Y-18326839D01*
X56626839Y-18179751D01*
X56799796Y-18064185D01*
X56991976Y-17984581D01*
X57093985Y-17964290D01*
X57195992Y-17944000D01*
X57404008Y-17944000D01*
X57506015Y-17964290D01*
G37*
G36*
X6838855Y-18352140D02*
G01*
X6902618Y-18358420D01*
X6993404Y-18385960D01*
X7025336Y-18395646D01*
X7138425Y-18456094D01*
X7237554Y-18537446D01*
X7318906Y-18636575D01*
X7379354Y-18749664D01*
X7379355Y-18749668D01*
X7416580Y-18872382D01*
X7429149Y-19000000D01*
X7416580Y-19127618D01*
X7389040Y-19218404D01*
X7379354Y-19250336D01*
X7318906Y-19363425D01*
X7237554Y-19462554D01*
X7138425Y-19543906D01*
X7025336Y-19604354D01*
X6993404Y-19614040D01*
X6902618Y-19641580D01*
X6838855Y-19647860D01*
X6806974Y-19651000D01*
X6193026Y-19651000D01*
X6161145Y-19647860D01*
X6097382Y-19641580D01*
X6006596Y-19614040D01*
X5974664Y-19604354D01*
X5861575Y-19543906D01*
X5762446Y-19462554D01*
X5681094Y-19363425D01*
X5620646Y-19250336D01*
X5610960Y-19218404D01*
X5583420Y-19127618D01*
X5570851Y-19000000D01*
X5583420Y-18872382D01*
X5620645Y-18749668D01*
X5620646Y-18749664D01*
X5681094Y-18636575D01*
X5762446Y-18537446D01*
X5861575Y-18456094D01*
X5974664Y-18395646D01*
X6006596Y-18385960D01*
X6097382Y-18358420D01*
X6161145Y-18352140D01*
X6193026Y-18349000D01*
X6806974Y-18349000D01*
X6838855Y-18352140D01*
G37*
G36*
X7266242Y-16353404D02*
G01*
X7303337Y-16364657D01*
X7337515Y-16382925D01*
X7367481Y-16407519D01*
X7392075Y-16437485D01*
X7410343Y-16471663D01*
X7421596Y-16508758D01*
X7426000Y-16553474D01*
X7426000Y-17446526D01*
X7421596Y-17491242D01*
X7410343Y-17528337D01*
X7392075Y-17562515D01*
X7367481Y-17592481D01*
X7337515Y-17617075D01*
X7303337Y-17635343D01*
X7266242Y-17646596D01*
X7221526Y-17651000D01*
X5778474Y-17651000D01*
X5733758Y-17646596D01*
X5696663Y-17635343D01*
X5662485Y-17617075D01*
X5632519Y-17592481D01*
X5607925Y-17562515D01*
X5589657Y-17528337D01*
X5578404Y-17491242D01*
X5574000Y-17446526D01*
X5574000Y-16553474D01*
X5578404Y-16508758D01*
X5589657Y-16471663D01*
X5607925Y-16437485D01*
X5632519Y-16407519D01*
X5662485Y-16382925D01*
X5696663Y-16364657D01*
X5733758Y-16353404D01*
X5778474Y-16349000D01*
X7221526Y-16349000D01*
X7266242Y-16353404D01*
G37*
G36*
X59601000Y-15101000D02*
G01*
X55999000Y-15101000D01*
X55999000Y-11499000D01*
X59601000Y-11499000D01*
X59601000Y-15101000D01*
G37*
G36*
X53325331Y-11568211D02*
G01*
X53653092Y-11703974D01*
X53948070Y-11901072D01*
X54198928Y-12151930D01*
X54396026Y-12446908D01*
X54531789Y-12774669D01*
X54601000Y-13122616D01*
X54601000Y-13477384D01*
X54531789Y-13825331D01*
X54396026Y-14153092D01*
X54198928Y-14448070D01*
X53948070Y-14698928D01*
X53653092Y-14896026D01*
X53325331Y-15031789D01*
X52977384Y-15101000D01*
X52622616Y-15101000D01*
X52274669Y-15031789D01*
X51946908Y-14896026D01*
X51651930Y-14698928D01*
X51401072Y-14448070D01*
X51203974Y-14153092D01*
X51068211Y-13825331D01*
X50999000Y-13477384D01*
X50999000Y-13122616D01*
X51068211Y-12774669D01*
X51203974Y-12446908D01*
X51401072Y-12151930D01*
X51651930Y-11901072D01*
X51946908Y-11703974D01*
X52274669Y-11568211D01*
X52622616Y-11499000D01*
X52977384Y-11499000D01*
X53325331Y-11568211D01*
G37*
G36*
X44915721Y-12485174D02*
G01*
X45015995Y-12526709D01*
X45015996Y-12526710D01*
X45106242Y-12587010D01*
X45182990Y-12663758D01*
X45182991Y-12663760D01*
X45243291Y-12754005D01*
X45274516Y-12829389D01*
X45286067Y-12851000D01*
X45301612Y-12869941D01*
X45320554Y-12885487D01*
X45342165Y-12897038D01*
X45365614Y-12904151D01*
X45390000Y-12906553D01*
X45414386Y-12904151D01*
X45437835Y-12897038D01*
X45459446Y-12885487D01*
X45478387Y-12869942D01*
X45493933Y-12851000D01*
X45505484Y-12829389D01*
X45536709Y-12754005D01*
X45597009Y-12663760D01*
X45597010Y-12663758D01*
X45673758Y-12587010D01*
X45764004Y-12526710D01*
X45764005Y-12526709D01*
X45864279Y-12485174D01*
X45970730Y-12464000D01*
X46079270Y-12464000D01*
X46185721Y-12485174D01*
X46285995Y-12526709D01*
X46285996Y-12526710D01*
X46376242Y-12587010D01*
X46452990Y-12663758D01*
X46452991Y-12663760D01*
X46513291Y-12754005D01*
X46554826Y-12854279D01*
X46576000Y-12960730D01*
X46576000Y-13069270D01*
X46554826Y-13175721D01*
X46513291Y-13275995D01*
X46513290Y-13275996D01*
X46452990Y-13366242D01*
X46376242Y-13442990D01*
X46330812Y-13473345D01*
X46285995Y-13503291D01*
X46185721Y-13544826D01*
X46079270Y-13566000D01*
X45970730Y-13566000D01*
X45864279Y-13544826D01*
X45764005Y-13503291D01*
X45719188Y-13473345D01*
X45673758Y-13442990D01*
X45597010Y-13366242D01*
X45536710Y-13275996D01*
X45536709Y-13275995D01*
X45505484Y-13200611D01*
X45493933Y-13179000D01*
X45478388Y-13160059D01*
X45459446Y-13144513D01*
X45437835Y-13132962D01*
X45414386Y-13125849D01*
X45390000Y-13123447D01*
X45365614Y-13125849D01*
X45342165Y-13132962D01*
X45320554Y-13144513D01*
X45301613Y-13160058D01*
X45286067Y-13179000D01*
X45274516Y-13200611D01*
X45243291Y-13275995D01*
X45243290Y-13275996D01*
X45182990Y-13366242D01*
X45106242Y-13442990D01*
X45060812Y-13473345D01*
X45015995Y-13503291D01*
X44915721Y-13544826D01*
X44809270Y-13566000D01*
X44700730Y-13566000D01*
X44594279Y-13544826D01*
X44494005Y-13503291D01*
X44449188Y-13473345D01*
X44403758Y-13442990D01*
X44327010Y-13366242D01*
X44266710Y-13275996D01*
X44266709Y-13275995D01*
X44225174Y-13175721D01*
X44204000Y-13069270D01*
X44204000Y-12960730D01*
X44225174Y-12854279D01*
X44266709Y-12754005D01*
X44327009Y-12663760D01*
X44327010Y-12663758D01*
X44403758Y-12587010D01*
X44494004Y-12526710D01*
X44494005Y-12526709D01*
X44594279Y-12485174D01*
X44700730Y-12464000D01*
X44809270Y-12464000D01*
X44915721Y-12485174D01*
G37*
G36*
X16340721Y-12485174D02*
G01*
X16440995Y-12526709D01*
X16440996Y-12526710D01*
X16531242Y-12587010D01*
X16607990Y-12663758D01*
X16607991Y-12663760D01*
X16668291Y-12754005D01*
X16699516Y-12829389D01*
X16711067Y-12851000D01*
X16726612Y-12869941D01*
X16745554Y-12885487D01*
X16767165Y-12897038D01*
X16790614Y-12904151D01*
X16815000Y-12906553D01*
X16839386Y-12904151D01*
X16862835Y-12897038D01*
X16884446Y-12885487D01*
X16903387Y-12869942D01*
X16918933Y-12851000D01*
X16930484Y-12829389D01*
X16961709Y-12754005D01*
X17022009Y-12663760D01*
X17022010Y-12663758D01*
X17098758Y-12587010D01*
X17189004Y-12526710D01*
X17189005Y-12526709D01*
X17289279Y-12485174D01*
X17395730Y-12464000D01*
X17504270Y-12464000D01*
X17610721Y-12485174D01*
X17710995Y-12526709D01*
X17710996Y-12526710D01*
X17801242Y-12587010D01*
X17877990Y-12663758D01*
X17877991Y-12663760D01*
X17938291Y-12754005D01*
X17969516Y-12829389D01*
X17981067Y-12851000D01*
X17996612Y-12869941D01*
X18015554Y-12885487D01*
X18037165Y-12897038D01*
X18060614Y-12904151D01*
X18085000Y-12906553D01*
X18109386Y-12904151D01*
X18132835Y-12897038D01*
X18154446Y-12885487D01*
X18173387Y-12869942D01*
X18188933Y-12851000D01*
X18200484Y-12829389D01*
X18231709Y-12754005D01*
X18292009Y-12663760D01*
X18292010Y-12663758D01*
X18368758Y-12587010D01*
X18459004Y-12526710D01*
X18459005Y-12526709D01*
X18559279Y-12485174D01*
X18665730Y-12464000D01*
X18774270Y-12464000D01*
X18880721Y-12485174D01*
X18980995Y-12526709D01*
X18980996Y-12526710D01*
X19071242Y-12587010D01*
X19147990Y-12663758D01*
X19147991Y-12663760D01*
X19208291Y-12754005D01*
X19239516Y-12829389D01*
X19251067Y-12851000D01*
X19266612Y-12869941D01*
X19285554Y-12885487D01*
X19307165Y-12897038D01*
X19330614Y-12904151D01*
X19355000Y-12906553D01*
X19379386Y-12904151D01*
X19402835Y-12897038D01*
X19424446Y-12885487D01*
X19443387Y-12869942D01*
X19458933Y-12851000D01*
X19470484Y-12829389D01*
X19501709Y-12754005D01*
X19562009Y-12663760D01*
X19562010Y-12663758D01*
X19638758Y-12587010D01*
X19729004Y-12526710D01*
X19729005Y-12526709D01*
X19829279Y-12485174D01*
X19935730Y-12464000D01*
X20044270Y-12464000D01*
X20150721Y-12485174D01*
X20250995Y-12526709D01*
X20250996Y-12526710D01*
X20341242Y-12587010D01*
X20417990Y-12663758D01*
X20417991Y-12663760D01*
X20478291Y-12754005D01*
X20509516Y-12829389D01*
X20521067Y-12851000D01*
X20536612Y-12869941D01*
X20555554Y-12885487D01*
X20577165Y-12897038D01*
X20600614Y-12904151D01*
X20625000Y-12906553D01*
X20649386Y-12904151D01*
X20672835Y-12897038D01*
X20694446Y-12885487D01*
X20713387Y-12869942D01*
X20728933Y-12851000D01*
X20740484Y-12829389D01*
X20771709Y-12754005D01*
X20832009Y-12663760D01*
X20832010Y-12663758D01*
X20908758Y-12587010D01*
X20999004Y-12526710D01*
X20999005Y-12526709D01*
X21099279Y-12485174D01*
X21205730Y-12464000D01*
X21314270Y-12464000D01*
X21420721Y-12485174D01*
X21520995Y-12526709D01*
X21520996Y-12526710D01*
X21611242Y-12587010D01*
X21687990Y-12663758D01*
X21687991Y-12663760D01*
X21748291Y-12754005D01*
X21779516Y-12829389D01*
X21791067Y-12851000D01*
X21806612Y-12869941D01*
X21825554Y-12885487D01*
X21847165Y-12897038D01*
X21870614Y-12904151D01*
X21895000Y-12906553D01*
X21919386Y-12904151D01*
X21942835Y-12897038D01*
X21964446Y-12885487D01*
X21983387Y-12869942D01*
X21998933Y-12851000D01*
X22010484Y-12829389D01*
X22041709Y-12754005D01*
X22102009Y-12663760D01*
X22102010Y-12663758D01*
X22178758Y-12587010D01*
X22269004Y-12526710D01*
X22269005Y-12526709D01*
X22369279Y-12485174D01*
X22475730Y-12464000D01*
X22584270Y-12464000D01*
X22690721Y-12485174D01*
X22790995Y-12526709D01*
X22790996Y-12526710D01*
X22881242Y-12587010D01*
X22957990Y-12663758D01*
X22957991Y-12663760D01*
X23018291Y-12754005D01*
X23049516Y-12829389D01*
X23061067Y-12851000D01*
X23076612Y-12869941D01*
X23095554Y-12885487D01*
X23117165Y-12897038D01*
X23140614Y-12904151D01*
X23165000Y-12906553D01*
X23189386Y-12904151D01*
X23212835Y-12897038D01*
X23234446Y-12885487D01*
X23253387Y-12869942D01*
X23268933Y-12851000D01*
X23280484Y-12829389D01*
X23311709Y-12754005D01*
X23372009Y-12663760D01*
X23372010Y-12663758D01*
X23448758Y-12587010D01*
X23539004Y-12526710D01*
X23539005Y-12526709D01*
X23639279Y-12485174D01*
X23745730Y-12464000D01*
X23854270Y-12464000D01*
X23960721Y-12485174D01*
X24060995Y-12526709D01*
X24060996Y-12526710D01*
X24151242Y-12587010D01*
X24227990Y-12663758D01*
X24227991Y-12663760D01*
X24288291Y-12754005D01*
X24329826Y-12854279D01*
X24351000Y-12960730D01*
X24351000Y-13069270D01*
X24329826Y-13175721D01*
X24288291Y-13275995D01*
X24288290Y-13275996D01*
X24227990Y-13366242D01*
X24151242Y-13442990D01*
X24105812Y-13473345D01*
X24060995Y-13503291D01*
X23960721Y-13544826D01*
X23854270Y-13566000D01*
X23745730Y-13566000D01*
X23639279Y-13544826D01*
X23539005Y-13503291D01*
X23494188Y-13473345D01*
X23448758Y-13442990D01*
X23372010Y-13366242D01*
X23311710Y-13275996D01*
X23311709Y-13275995D01*
X23280484Y-13200611D01*
X23268933Y-13179000D01*
X23253388Y-13160059D01*
X23234446Y-13144513D01*
X23212835Y-13132962D01*
X23189386Y-13125849D01*
X23165000Y-13123447D01*
X23140614Y-13125849D01*
X23117165Y-13132962D01*
X23095554Y-13144513D01*
X23076613Y-13160058D01*
X23061067Y-13179000D01*
X23049516Y-13200611D01*
X23018291Y-13275995D01*
X23018290Y-13275996D01*
X22957990Y-13366242D01*
X22881242Y-13442990D01*
X22835812Y-13473345D01*
X22790995Y-13503291D01*
X22690721Y-13544826D01*
X22584270Y-13566000D01*
X22475730Y-13566000D01*
X22369279Y-13544826D01*
X22269005Y-13503291D01*
X22224188Y-13473345D01*
X22178758Y-13442990D01*
X22102010Y-13366242D01*
X22041710Y-13275996D01*
X22041709Y-13275995D01*
X22010484Y-13200611D01*
X21998933Y-13179000D01*
X21983388Y-13160059D01*
X21964446Y-13144513D01*
X21942835Y-13132962D01*
X21919386Y-13125849D01*
X21895000Y-13123447D01*
X21870614Y-13125849D01*
X21847165Y-13132962D01*
X21825554Y-13144513D01*
X21806613Y-13160058D01*
X21791067Y-13179000D01*
X21779516Y-13200611D01*
X21748291Y-13275995D01*
X21748290Y-13275996D01*
X21687990Y-13366242D01*
X21611242Y-13442990D01*
X21565812Y-13473345D01*
X21520995Y-13503291D01*
X21420721Y-13544826D01*
X21314270Y-13566000D01*
X21205730Y-13566000D01*
X21099279Y-13544826D01*
X20999005Y-13503291D01*
X20954188Y-13473345D01*
X20908758Y-13442990D01*
X20832010Y-13366242D01*
X20771710Y-13275996D01*
X20771709Y-13275995D01*
X20740484Y-13200611D01*
X20728933Y-13179000D01*
X20713388Y-13160059D01*
X20694446Y-13144513D01*
X20672835Y-13132962D01*
X20649386Y-13125849D01*
X20625000Y-13123447D01*
X20600614Y-13125849D01*
X20577165Y-13132962D01*
X20555554Y-13144513D01*
X20536613Y-13160058D01*
X20521067Y-13179000D01*
X20509516Y-13200611D01*
X20478291Y-13275995D01*
X20478290Y-13275996D01*
X20417990Y-13366242D01*
X20341242Y-13442990D01*
X20295812Y-13473345D01*
X20250995Y-13503291D01*
X20150721Y-13544826D01*
X20044270Y-13566000D01*
X19935730Y-13566000D01*
X19829279Y-13544826D01*
X19729005Y-13503291D01*
X19684188Y-13473345D01*
X19638758Y-13442990D01*
X19562010Y-13366242D01*
X19501710Y-13275996D01*
X19501709Y-13275995D01*
X19470484Y-13200611D01*
X19458933Y-13179000D01*
X19443388Y-13160059D01*
X19424446Y-13144513D01*
X19402835Y-13132962D01*
X19379386Y-13125849D01*
X19355000Y-13123447D01*
X19330614Y-13125849D01*
X19307165Y-13132962D01*
X19285554Y-13144513D01*
X19266613Y-13160058D01*
X19251067Y-13179000D01*
X19239516Y-13200611D01*
X19208291Y-13275995D01*
X19208290Y-13275996D01*
X19147990Y-13366242D01*
X19071242Y-13442990D01*
X19025812Y-13473345D01*
X18980995Y-13503291D01*
X18880721Y-13544826D01*
X18774270Y-13566000D01*
X18665730Y-13566000D01*
X18559279Y-13544826D01*
X18459005Y-13503291D01*
X18414188Y-13473345D01*
X18368758Y-13442990D01*
X18292010Y-13366242D01*
X18231710Y-13275996D01*
X18231709Y-13275995D01*
X18200484Y-13200611D01*
X18188933Y-13179000D01*
X18173388Y-13160059D01*
X18154446Y-13144513D01*
X18132835Y-13132962D01*
X18109386Y-13125849D01*
X18085000Y-13123447D01*
X18060614Y-13125849D01*
X18037165Y-13132962D01*
X18015554Y-13144513D01*
X17996613Y-13160058D01*
X17981067Y-13179000D01*
X17969516Y-13200611D01*
X17938291Y-13275995D01*
X17938290Y-13275996D01*
X17877990Y-13366242D01*
X17801242Y-13442990D01*
X17755812Y-13473345D01*
X17710995Y-13503291D01*
X17610721Y-13544826D01*
X17504270Y-13566000D01*
X17395730Y-13566000D01*
X17289279Y-13544826D01*
X17189005Y-13503291D01*
X17144188Y-13473345D01*
X17098758Y-13442990D01*
X17022010Y-13366242D01*
X16961710Y-13275996D01*
X16961709Y-13275995D01*
X16930484Y-13200611D01*
X16918933Y-13179000D01*
X16903388Y-13160059D01*
X16884446Y-13144513D01*
X16862835Y-13132962D01*
X16839386Y-13125849D01*
X16815000Y-13123447D01*
X16790614Y-13125849D01*
X16767165Y-13132962D01*
X16745554Y-13144513D01*
X16726613Y-13160058D01*
X16711067Y-13179000D01*
X16699516Y-13200611D01*
X16668291Y-13275995D01*
X16668290Y-13275996D01*
X16607990Y-13366242D01*
X16531242Y-13442990D01*
X16485812Y-13473345D01*
X16440995Y-13503291D01*
X16340721Y-13544826D01*
X16234270Y-13566000D01*
X16125730Y-13566000D01*
X16019279Y-13544826D01*
X15919005Y-13503291D01*
X15874188Y-13473345D01*
X15828758Y-13442990D01*
X15752010Y-13366242D01*
X15691710Y-13275996D01*
X15691709Y-13275995D01*
X15650174Y-13175721D01*
X15629000Y-13069270D01*
X15629000Y-12960730D01*
X15650174Y-12854279D01*
X15691709Y-12754005D01*
X15752009Y-12663760D01*
X15752010Y-12663758D01*
X15828758Y-12587010D01*
X15919004Y-12526710D01*
X15919005Y-12526709D01*
X16019279Y-12485174D01*
X16125730Y-12464000D01*
X16234270Y-12464000D01*
X16340721Y-12485174D01*
G37*
G36*
X41427618Y-5483420D02*
G01*
X41508400Y-5507925D01*
X41550336Y-5520646D01*
X41663425Y-5581094D01*
X41762554Y-5662446D01*
X41843906Y-5761575D01*
X41904354Y-5874664D01*
X41904355Y-5874668D01*
X41941580Y-5997382D01*
X41951000Y-6093027D01*
X41951000Y-6706973D01*
X41941580Y-6802618D01*
X41914040Y-6893404D01*
X41904354Y-6925336D01*
X41843906Y-7038425D01*
X41762554Y-7137553D01*
X41663424Y-7218906D01*
X41550335Y-7279354D01*
X41518403Y-7289040D01*
X41427617Y-7316580D01*
X41300000Y-7329149D01*
X41172382Y-7316580D01*
X41081596Y-7289040D01*
X41049664Y-7279354D01*
X40936575Y-7218906D01*
X40837447Y-7137554D01*
X40756094Y-7038424D01*
X40695646Y-6925335D01*
X40685960Y-6893403D01*
X40658420Y-6802617D01*
X40649000Y-6706972D01*
X40649000Y-6093027D01*
X40658420Y-5997382D01*
X40695645Y-5874668D01*
X40695645Y-5874667D01*
X40727957Y-5814217D01*
X40756095Y-5761574D01*
X40769493Y-5745249D01*
X40837447Y-5662446D01*
X40936576Y-5581094D01*
X41049665Y-5520646D01*
X41091601Y-5507925D01*
X41172383Y-5483420D01*
X41300000Y-5470851D01*
X41427618Y-5483420D01*
G37*
G36*
X11427618Y-5483420D02*
G01*
X11508400Y-5507925D01*
X11550336Y-5520646D01*
X11663425Y-5581094D01*
X11762554Y-5662446D01*
X11843906Y-5761575D01*
X11904354Y-5874664D01*
X11904355Y-5874668D01*
X11941580Y-5997382D01*
X11951000Y-6093027D01*
X11951000Y-6706973D01*
X11941580Y-6802618D01*
X11914040Y-6893404D01*
X11904354Y-6925336D01*
X11843906Y-7038425D01*
X11762554Y-7137553D01*
X11663424Y-7218906D01*
X11550335Y-7279354D01*
X11518403Y-7289040D01*
X11427617Y-7316580D01*
X11300000Y-7329149D01*
X11172382Y-7316580D01*
X11081596Y-7289040D01*
X11049664Y-7279354D01*
X10936575Y-7218906D01*
X10837447Y-7137554D01*
X10756094Y-7038424D01*
X10695646Y-6925335D01*
X10685960Y-6893403D01*
X10658420Y-6802617D01*
X10649000Y-6706972D01*
X10649000Y-6093027D01*
X10658420Y-5997382D01*
X10695645Y-5874668D01*
X10695645Y-5874667D01*
X10727957Y-5814217D01*
X10756095Y-5761574D01*
X10769493Y-5745249D01*
X10837447Y-5662446D01*
X10936576Y-5581094D01*
X11049665Y-5520646D01*
X11091601Y-5507925D01*
X11172383Y-5483420D01*
X11300000Y-5470851D01*
X11427618Y-5483420D01*
G37*
G36*
X9427618Y-5483420D02*
G01*
X9508400Y-5507925D01*
X9550336Y-5520646D01*
X9663425Y-5581094D01*
X9762554Y-5662446D01*
X9843906Y-5761575D01*
X9904354Y-5874664D01*
X9904355Y-5874668D01*
X9941580Y-5997382D01*
X9951000Y-6093027D01*
X9951000Y-6706973D01*
X9941580Y-6802618D01*
X9914040Y-6893404D01*
X9904354Y-6925336D01*
X9843906Y-7038425D01*
X9762554Y-7137553D01*
X9663424Y-7218906D01*
X9550335Y-7279354D01*
X9518403Y-7289040D01*
X9427617Y-7316580D01*
X9300000Y-7329149D01*
X9172382Y-7316580D01*
X9081596Y-7289040D01*
X9049664Y-7279354D01*
X8936575Y-7218906D01*
X8837447Y-7137554D01*
X8756094Y-7038424D01*
X8695646Y-6925335D01*
X8685960Y-6893403D01*
X8658420Y-6802617D01*
X8649000Y-6706972D01*
X8649000Y-6093027D01*
X8658420Y-5997382D01*
X8695645Y-5874668D01*
X8695645Y-5874667D01*
X8727957Y-5814217D01*
X8756095Y-5761574D01*
X8769493Y-5745249D01*
X8837447Y-5662446D01*
X8936576Y-5581094D01*
X9049665Y-5520646D01*
X9091601Y-5507925D01*
X9172383Y-5483420D01*
X9300000Y-5470851D01*
X9427618Y-5483420D01*
G37*
G36*
X21427618Y-5483420D02*
G01*
X21508400Y-5507925D01*
X21550336Y-5520646D01*
X21663425Y-5581094D01*
X21762554Y-5662446D01*
X21843906Y-5761575D01*
X21904354Y-5874664D01*
X21904355Y-5874668D01*
X21941580Y-5997382D01*
X21951000Y-6093027D01*
X21951000Y-6706973D01*
X21941580Y-6802618D01*
X21914040Y-6893404D01*
X21904354Y-6925336D01*
X21843906Y-7038425D01*
X21762554Y-7137553D01*
X21663424Y-7218906D01*
X21550335Y-7279354D01*
X21518403Y-7289040D01*
X21427617Y-7316580D01*
X21300000Y-7329149D01*
X21172382Y-7316580D01*
X21081596Y-7289040D01*
X21049664Y-7279354D01*
X20936575Y-7218906D01*
X20837447Y-7137554D01*
X20756094Y-7038424D01*
X20695646Y-6925335D01*
X20685960Y-6893403D01*
X20658420Y-6802617D01*
X20649000Y-6706972D01*
X20649000Y-6093027D01*
X20658420Y-5997382D01*
X20695645Y-5874668D01*
X20695645Y-5874667D01*
X20727957Y-5814217D01*
X20756095Y-5761574D01*
X20769493Y-5745249D01*
X20837447Y-5662446D01*
X20936576Y-5581094D01*
X21049665Y-5520646D01*
X21091601Y-5507925D01*
X21172383Y-5483420D01*
X21300000Y-5470851D01*
X21427618Y-5483420D01*
G37*
G36*
X19427618Y-5483420D02*
G01*
X19508400Y-5507925D01*
X19550336Y-5520646D01*
X19663425Y-5581094D01*
X19762554Y-5662446D01*
X19843906Y-5761575D01*
X19904354Y-5874664D01*
X19904355Y-5874668D01*
X19941580Y-5997382D01*
X19951000Y-6093027D01*
X19951000Y-6706973D01*
X19941580Y-6802618D01*
X19914040Y-6893404D01*
X19904354Y-6925336D01*
X19843906Y-7038425D01*
X19762554Y-7137553D01*
X19663424Y-7218906D01*
X19550335Y-7279354D01*
X19518403Y-7289040D01*
X19427617Y-7316580D01*
X19300000Y-7329149D01*
X19172382Y-7316580D01*
X19081596Y-7289040D01*
X19049664Y-7279354D01*
X18936575Y-7218906D01*
X18837447Y-7137554D01*
X18756094Y-7038424D01*
X18695646Y-6925335D01*
X18685960Y-6893403D01*
X18658420Y-6802617D01*
X18649000Y-6706972D01*
X18649000Y-6093027D01*
X18658420Y-5997382D01*
X18695645Y-5874668D01*
X18695645Y-5874667D01*
X18727957Y-5814217D01*
X18756095Y-5761574D01*
X18769493Y-5745249D01*
X18837447Y-5662446D01*
X18936576Y-5581094D01*
X19049665Y-5520646D01*
X19091601Y-5507925D01*
X19172383Y-5483420D01*
X19300000Y-5470851D01*
X19427618Y-5483420D01*
G37*
G36*
X31427618Y-5483420D02*
G01*
X31508400Y-5507925D01*
X31550336Y-5520646D01*
X31663425Y-5581094D01*
X31762554Y-5662446D01*
X31843906Y-5761575D01*
X31904354Y-5874664D01*
X31904355Y-5874668D01*
X31941580Y-5997382D01*
X31951000Y-6093027D01*
X31951000Y-6706973D01*
X31941580Y-6802618D01*
X31914040Y-6893404D01*
X31904354Y-6925336D01*
X31843906Y-7038425D01*
X31762554Y-7137553D01*
X31663424Y-7218906D01*
X31550335Y-7279354D01*
X31518403Y-7289040D01*
X31427617Y-7316580D01*
X31300000Y-7329149D01*
X31172382Y-7316580D01*
X31081596Y-7289040D01*
X31049664Y-7279354D01*
X30936575Y-7218906D01*
X30837447Y-7137554D01*
X30756094Y-7038424D01*
X30695646Y-6925335D01*
X30685960Y-6893403D01*
X30658420Y-6802617D01*
X30649000Y-6706972D01*
X30649000Y-6093027D01*
X30658420Y-5997382D01*
X30695645Y-5874668D01*
X30695645Y-5874667D01*
X30727957Y-5814217D01*
X30756095Y-5761574D01*
X30769493Y-5745249D01*
X30837447Y-5662446D01*
X30936576Y-5581094D01*
X31049665Y-5520646D01*
X31091601Y-5507925D01*
X31172383Y-5483420D01*
X31300000Y-5470851D01*
X31427618Y-5483420D01*
G37*
G36*
X39427618Y-5483420D02*
G01*
X39508400Y-5507925D01*
X39550336Y-5520646D01*
X39663425Y-5581094D01*
X39762554Y-5662446D01*
X39843906Y-5761575D01*
X39904354Y-5874664D01*
X39904355Y-5874668D01*
X39941580Y-5997382D01*
X39951000Y-6093027D01*
X39951000Y-6706973D01*
X39941580Y-6802618D01*
X39914040Y-6893404D01*
X39904354Y-6925336D01*
X39843906Y-7038425D01*
X39762554Y-7137553D01*
X39663424Y-7218906D01*
X39550335Y-7279354D01*
X39518403Y-7289040D01*
X39427617Y-7316580D01*
X39300000Y-7329149D01*
X39172382Y-7316580D01*
X39081596Y-7289040D01*
X39049664Y-7279354D01*
X38936575Y-7218906D01*
X38837447Y-7137554D01*
X38756094Y-7038424D01*
X38695646Y-6925335D01*
X38685960Y-6893403D01*
X38658420Y-6802617D01*
X38649000Y-6706972D01*
X38649000Y-6093027D01*
X38658420Y-5997382D01*
X38695645Y-5874668D01*
X38695645Y-5874667D01*
X38727957Y-5814217D01*
X38756095Y-5761574D01*
X38769493Y-5745249D01*
X38837447Y-5662446D01*
X38936576Y-5581094D01*
X39049665Y-5520646D01*
X39091601Y-5507925D01*
X39172383Y-5483420D01*
X39300000Y-5470851D01*
X39427618Y-5483420D01*
G37*
G36*
X29427618Y-5483420D02*
G01*
X29508400Y-5507925D01*
X29550336Y-5520646D01*
X29663425Y-5581094D01*
X29762554Y-5662446D01*
X29843906Y-5761575D01*
X29904354Y-5874664D01*
X29904355Y-5874668D01*
X29941580Y-5997382D01*
X29951000Y-6093027D01*
X29951000Y-6706973D01*
X29941580Y-6802618D01*
X29914040Y-6893404D01*
X29904354Y-6925336D01*
X29843906Y-7038425D01*
X29762554Y-7137553D01*
X29663424Y-7218906D01*
X29550335Y-7279354D01*
X29518403Y-7289040D01*
X29427617Y-7316580D01*
X29300000Y-7329149D01*
X29172382Y-7316580D01*
X29081596Y-7289040D01*
X29049664Y-7279354D01*
X28936575Y-7218906D01*
X28837447Y-7137554D01*
X28756094Y-7038424D01*
X28695646Y-6925335D01*
X28685960Y-6893403D01*
X28658420Y-6802617D01*
X28649000Y-6706972D01*
X28649000Y-6093027D01*
X28658420Y-5997382D01*
X28695645Y-5874668D01*
X28695645Y-5874667D01*
X28727957Y-5814217D01*
X28756095Y-5761574D01*
X28769493Y-5745249D01*
X28837447Y-5662446D01*
X28936576Y-5581094D01*
X29049665Y-5520646D01*
X29091601Y-5507925D01*
X29172383Y-5483420D01*
X29300000Y-5470851D01*
X29427618Y-5483420D01*
G37*
G36*
X23791242Y-5478404D02*
G01*
X23828337Y-5489657D01*
X23862515Y-5507925D01*
X23892481Y-5532519D01*
X23917075Y-5562485D01*
X23935343Y-5596663D01*
X23946596Y-5633758D01*
X23951000Y-5678474D01*
X23951000Y-7121526D01*
X23946596Y-7166242D01*
X23935343Y-7203337D01*
X23917075Y-7237515D01*
X23892481Y-7267481D01*
X23862515Y-7292075D01*
X23828337Y-7310343D01*
X23791242Y-7321596D01*
X23746526Y-7326000D01*
X22853474Y-7326000D01*
X22808758Y-7321596D01*
X22771663Y-7310343D01*
X22737485Y-7292075D01*
X22707519Y-7267481D01*
X22682925Y-7237515D01*
X22664657Y-7203337D01*
X22653404Y-7166242D01*
X22649000Y-7121526D01*
X22649000Y-5678474D01*
X22653404Y-5633758D01*
X22664657Y-5596663D01*
X22682925Y-5562485D01*
X22707519Y-5532519D01*
X22737485Y-5507925D01*
X22771663Y-5489657D01*
X22808758Y-5478404D01*
X22853474Y-5474000D01*
X23746526Y-5474000D01*
X23791242Y-5478404D01*
G37*
G36*
X13791242Y-5478404D02*
G01*
X13828337Y-5489657D01*
X13862515Y-5507925D01*
X13892481Y-5532519D01*
X13917075Y-5562485D01*
X13935343Y-5596663D01*
X13946596Y-5633758D01*
X13951000Y-5678474D01*
X13951000Y-7121526D01*
X13946596Y-7166242D01*
X13935343Y-7203337D01*
X13917075Y-7237515D01*
X13892481Y-7267481D01*
X13862515Y-7292075D01*
X13828337Y-7310343D01*
X13791242Y-7321596D01*
X13746526Y-7326000D01*
X12853474Y-7326000D01*
X12808758Y-7321596D01*
X12771663Y-7310343D01*
X12737485Y-7292075D01*
X12707519Y-7267481D01*
X12682925Y-7237515D01*
X12664657Y-7203337D01*
X12653404Y-7166242D01*
X12649000Y-7121526D01*
X12649000Y-5678474D01*
X12653404Y-5633758D01*
X12664657Y-5596663D01*
X12682925Y-5562485D01*
X12707519Y-5532519D01*
X12737485Y-5507925D01*
X12771663Y-5489657D01*
X12808758Y-5478404D01*
X12853474Y-5474000D01*
X13746526Y-5474000D01*
X13791242Y-5478404D01*
G37*
G36*
X33791242Y-5478404D02*
G01*
X33828337Y-5489657D01*
X33862515Y-5507925D01*
X33892481Y-5532519D01*
X33917075Y-5562485D01*
X33935343Y-5596663D01*
X33946596Y-5633758D01*
X33951000Y-5678474D01*
X33951000Y-7121526D01*
X33946596Y-7166242D01*
X33935343Y-7203337D01*
X33917075Y-7237515D01*
X33892481Y-7267481D01*
X33862515Y-7292075D01*
X33828337Y-7310343D01*
X33791242Y-7321596D01*
X33746526Y-7326000D01*
X32853474Y-7326000D01*
X32808758Y-7321596D01*
X32771663Y-7310343D01*
X32737485Y-7292075D01*
X32707519Y-7267481D01*
X32682925Y-7237515D01*
X32664657Y-7203337D01*
X32653404Y-7166242D01*
X32649000Y-7121526D01*
X32649000Y-5678474D01*
X32653404Y-5633758D01*
X32664657Y-5596663D01*
X32682925Y-5562485D01*
X32707519Y-5532519D01*
X32737485Y-5507925D01*
X32771663Y-5489657D01*
X32808758Y-5478404D01*
X32853474Y-5474000D01*
X33746526Y-5474000D01*
X33791242Y-5478404D01*
G37*
G36*
X43791242Y-5478404D02*
G01*
X43828337Y-5489657D01*
X43862515Y-5507925D01*
X43892481Y-5532519D01*
X43917075Y-5562485D01*
X43935343Y-5596663D01*
X43946596Y-5633758D01*
X43951000Y-5678474D01*
X43951000Y-7121526D01*
X43946596Y-7166242D01*
X43935343Y-7203337D01*
X43917075Y-7237515D01*
X43892481Y-7267481D01*
X43862515Y-7292075D01*
X43828337Y-7310343D01*
X43791242Y-7321596D01*
X43746526Y-7326000D01*
X42853474Y-7326000D01*
X42808758Y-7321596D01*
X42771663Y-7310343D01*
X42737485Y-7292075D01*
X42707519Y-7267481D01*
X42682925Y-7237515D01*
X42664657Y-7203337D01*
X42653404Y-7166242D01*
X42649000Y-7121526D01*
X42649000Y-5678474D01*
X42653404Y-5633758D01*
X42664657Y-5596663D01*
X42682925Y-5562485D01*
X42707519Y-5532519D01*
X42737485Y-5507925D01*
X42771663Y-5489657D01*
X42808758Y-5478404D01*
X42853474Y-5474000D01*
X43746526Y-5474000D01*
X43791242Y-5478404D01*
G37*
G36*
X67375256Y-1391298D02*
G01*
X67481579Y-1412447D01*
X67782042Y-1536903D01*
X68052451Y-1717585D01*
X68282415Y-1947549D01*
X68463097Y-2217958D01*
X68587553Y-2518421D01*
X68599376Y-2577860D01*
X68651000Y-2837389D01*
X68651000Y-3162611D01*
X68638384Y-3226033D01*
X68587553Y-3481579D01*
X68463097Y-3782042D01*
X68282415Y-4052451D01*
X68052451Y-4282415D01*
X67782042Y-4463097D01*
X67481579Y-4587553D01*
X67375256Y-4608702D01*
X67162611Y-4651000D01*
X66837389Y-4651000D01*
X66624744Y-4608702D01*
X66518421Y-4587553D01*
X66217958Y-4463097D01*
X65947549Y-4282415D01*
X65717585Y-4052451D01*
X65536903Y-3782042D01*
X65412447Y-3481579D01*
X65361616Y-3226033D01*
X65349000Y-3162611D01*
X65349000Y-2837389D01*
X65400624Y-2577860D01*
X65412447Y-2518421D01*
X65536903Y-2217958D01*
X65717585Y-1947549D01*
X65947549Y-1717585D01*
X66217958Y-1536903D01*
X66518421Y-1412447D01*
X66624744Y-1391298D01*
X66837389Y-1349000D01*
X67162611Y-1349000D01*
X67375256Y-1391298D01*
G37*
G36*
X3375256Y-1391298D02*
G01*
X3481579Y-1412447D01*
X3782042Y-1536903D01*
X4052451Y-1717585D01*
X4282415Y-1947549D01*
X4463097Y-2217958D01*
X4587553Y-2518421D01*
X4599376Y-2577860D01*
X4651000Y-2837389D01*
X4651000Y-3162611D01*
X4638384Y-3226033D01*
X4587553Y-3481579D01*
X4463097Y-3782042D01*
X4282415Y-4052451D01*
X4052451Y-4282415D01*
X3782042Y-4463097D01*
X3481579Y-4587553D01*
X3375256Y-4608702D01*
X3162611Y-4651000D01*
X2837389Y-4651000D01*
X2624744Y-4608702D01*
X2518421Y-4587553D01*
X2217958Y-4463097D01*
X1947549Y-4282415D01*
X1717585Y-4052451D01*
X1536903Y-3782042D01*
X1412447Y-3481579D01*
X1361616Y-3226033D01*
X1349000Y-3162611D01*
X1349000Y-2837389D01*
X1400624Y-2577860D01*
X1412447Y-2518421D01*
X1536903Y-2217958D01*
X1717585Y-1947549D01*
X1947549Y-1717585D01*
X2217958Y-1536903D01*
X2518421Y-1412447D01*
X2624744Y-1391298D01*
X2837389Y-1349000D01*
X3162611Y-1349000D01*
X3375256Y-1391298D01*
G37*
G36*
X61019059Y-2577860D02*
G01*
X61155732Y-2634472D01*
X61278735Y-2716660D01*
X61383340Y-2821265D01*
X61394115Y-2837391D01*
X61465529Y-2944270D01*
X61522140Y-3080941D01*
X61538385Y-3162609D01*
X61551000Y-3226033D01*
X61551000Y-3373967D01*
X61522140Y-3519059D01*
X61465528Y-3655732D01*
X61383340Y-3778735D01*
X61278735Y-3883340D01*
X61155732Y-3965528D01*
X61155731Y-3965529D01*
X61155730Y-3965529D01*
X61019059Y-4022140D01*
X60873968Y-4051000D01*
X60726032Y-4051000D01*
X60580941Y-4022140D01*
X60444270Y-3965529D01*
X60444269Y-3965529D01*
X60444268Y-3965528D01*
X60321265Y-3883340D01*
X60216660Y-3778735D01*
X60134472Y-3655732D01*
X60077860Y-3519059D01*
X60049000Y-3373967D01*
X60049000Y-3226033D01*
X60061616Y-3162609D01*
X60077860Y-3080941D01*
X60134471Y-2944270D01*
X60205885Y-2837391D01*
X60216660Y-2821265D01*
X60321265Y-2716660D01*
X60444268Y-2634472D01*
X60580941Y-2577860D01*
X60726032Y-2549000D01*
X60873968Y-2549000D01*
X61019059Y-2577860D01*
G37*
G36*
X50019059Y-2577860D02*
G01*
X50155732Y-2634472D01*
X50278735Y-2716660D01*
X50383340Y-2821265D01*
X50394115Y-2837391D01*
X50465529Y-2944270D01*
X50522140Y-3080941D01*
X50538385Y-3162609D01*
X50551000Y-3226033D01*
X50551000Y-3373967D01*
X50522140Y-3519059D01*
X50465528Y-3655732D01*
X50383340Y-3778735D01*
X50278735Y-3883340D01*
X50155732Y-3965528D01*
X50155731Y-3965529D01*
X50155730Y-3965529D01*
X50019059Y-4022140D01*
X49873968Y-4051000D01*
X49726032Y-4051000D01*
X49580941Y-4022140D01*
X49444270Y-3965529D01*
X49444269Y-3965529D01*
X49444268Y-3965528D01*
X49321265Y-3883340D01*
X49216660Y-3778735D01*
X49134472Y-3655732D01*
X49077860Y-3519059D01*
X49049000Y-3373967D01*
X49049000Y-3226033D01*
X49061616Y-3162609D01*
X49077860Y-3080941D01*
X49134471Y-2944270D01*
X49205885Y-2837391D01*
X49216660Y-2821265D01*
X49321265Y-2716660D01*
X49444268Y-2634472D01*
X49580941Y-2577860D01*
X49726032Y-2549000D01*
X49873968Y-2549000D01*
X50019059Y-2577860D01*
G37*
M02*
