G04 #@! TF.GenerationSoftware,KiCad,Pcbnew,(5.1.5)-3*
G04 #@! TF.CreationDate,2020-11-15T00:32:02+09:00*
G04 #@! TF.ProjectId,shield_servo_adc_sw_gpio_led,73686965-6c64-45f7-9365-72766f5f6164,rev?*
G04 #@! TF.SameCoordinates,PXb532b80PY717cbc0*
G04 #@! TF.FileFunction,Legend,Top*
G04 #@! TF.FilePolarity,Positive*
%FSLAX46Y46*%
G04 Gerber Fmt 4.6, Leading zero omitted, Abs format (unit mm)*
G04 Created by KiCad (PCBNEW (5.1.5)-3) date 2020-11-15 00:32:02*
%MOMM*%
%LPD*%
G04 APERTURE LIST*
%ADD10C,2.000000*%
%ADD11C,2.500000*%
%ADD12C,0.120000*%
%ADD13C,0.150000*%
%ADD14C,0.100000*%
%ADD15R,0.402000X0.902000*%
%ADD16O,1.302000X1.852000*%
%ADD17O,1.702000X1.702000*%
%ADD18R,1.702000X1.702000*%
%ADD19C,3.302000*%
%ADD20C,2.112000*%
%ADD21C,1.102000*%
%ADD22C,3.602000*%
%ADD23R,3.602000X3.602000*%
%ADD24C,1.502000*%
%ADD25C,2.102000*%
%ADD26R,2.102000X2.102000*%
G04 APERTURE END LIST*
D10*
D11*
D12*
X12054721Y-17655000D02*
X12380279Y-17655000D01*
X12054721Y-16635000D02*
X12380279Y-16635000D01*
X16725000Y-16410000D02*
X14440000Y-16410000D01*
X16725000Y-17880000D02*
X16725000Y-16410000D01*
X14440000Y-17880000D02*
X16725000Y-17880000D01*
X37220000Y-19100000D02*
X37220000Y-18100000D01*
X32980000Y-19100000D02*
X32980000Y-18100000D01*
X58220000Y-33680000D02*
X58220000Y-32465000D01*
X58280000Y-37640000D02*
X58280000Y-39900000D01*
X58780000Y-37640000D02*
X58780000Y-39900000D01*
X61380000Y-36040000D02*
X62380000Y-36040000D01*
X61380000Y-37640000D02*
X61380000Y-36040000D01*
X62380000Y-37640000D02*
X61380000Y-37640000D01*
X62380000Y-36040000D02*
X62380000Y-37640000D01*
X58780000Y-36040000D02*
X57780000Y-36040000D01*
X58780000Y-37640000D02*
X58780000Y-36040000D01*
X57780000Y-37640000D02*
X58780000Y-37640000D01*
X57780000Y-36040000D02*
X57780000Y-37640000D01*
X63140000Y-33680000D02*
X62220000Y-33680000D01*
X57020000Y-33680000D02*
X57940000Y-33680000D01*
X60580000Y-35540000D02*
X60580000Y-39900000D01*
X59580000Y-35540000D02*
X60580000Y-35540000D01*
X59580000Y-39900000D02*
X59580000Y-35540000D01*
X62220000Y-33680000D02*
X61940000Y-33680000D01*
X62220000Y-32080000D02*
X62220000Y-33680000D01*
X63140000Y-32080000D02*
X62220000Y-32080000D01*
X63140000Y-39900000D02*
X63140000Y-32080000D01*
X57020000Y-39900000D02*
X63140000Y-39900000D01*
X57020000Y-32080000D02*
X57020000Y-39900000D01*
X57940000Y-32080000D02*
X57020000Y-32080000D01*
X57940000Y-33680000D02*
X57940000Y-32080000D01*
X58220000Y-33680000D02*
X57940000Y-33680000D01*
X51051426Y-33680000D02*
X51051426Y-32465000D01*
X51111426Y-37640000D02*
X51111426Y-39900000D01*
X51611426Y-37640000D02*
X51611426Y-39900000D01*
X54211426Y-36040000D02*
X55211426Y-36040000D01*
X54211426Y-37640000D02*
X54211426Y-36040000D01*
X55211426Y-37640000D02*
X54211426Y-37640000D01*
X55211426Y-36040000D02*
X55211426Y-37640000D01*
X51611426Y-36040000D02*
X50611426Y-36040000D01*
X51611426Y-37640000D02*
X51611426Y-36040000D01*
X50611426Y-37640000D02*
X51611426Y-37640000D01*
X50611426Y-36040000D02*
X50611426Y-37640000D01*
X55971426Y-33680000D02*
X55051426Y-33680000D01*
X49851426Y-33680000D02*
X50771426Y-33680000D01*
X53411426Y-35540000D02*
X53411426Y-39900000D01*
X52411426Y-35540000D02*
X53411426Y-35540000D01*
X52411426Y-39900000D02*
X52411426Y-35540000D01*
X55051426Y-33680000D02*
X54771426Y-33680000D01*
X55051426Y-32080000D02*
X55051426Y-33680000D01*
X55971426Y-32080000D02*
X55051426Y-32080000D01*
X55971426Y-39900000D02*
X55971426Y-32080000D01*
X49851426Y-39900000D02*
X55971426Y-39900000D01*
X49851426Y-32080000D02*
X49851426Y-39900000D01*
X50771426Y-32080000D02*
X49851426Y-32080000D01*
X50771426Y-33680000D02*
X50771426Y-32080000D01*
X51051426Y-33680000D02*
X50771426Y-33680000D01*
X43882855Y-33680000D02*
X43882855Y-32465000D01*
X43942855Y-37640000D02*
X43942855Y-39900000D01*
X44442855Y-37640000D02*
X44442855Y-39900000D01*
X47042855Y-36040000D02*
X48042855Y-36040000D01*
X47042855Y-37640000D02*
X47042855Y-36040000D01*
X48042855Y-37640000D02*
X47042855Y-37640000D01*
X48042855Y-36040000D02*
X48042855Y-37640000D01*
X44442855Y-36040000D02*
X43442855Y-36040000D01*
X44442855Y-37640000D02*
X44442855Y-36040000D01*
X43442855Y-37640000D02*
X44442855Y-37640000D01*
X43442855Y-36040000D02*
X43442855Y-37640000D01*
X48802855Y-33680000D02*
X47882855Y-33680000D01*
X42682855Y-33680000D02*
X43602855Y-33680000D01*
X46242855Y-35540000D02*
X46242855Y-39900000D01*
X45242855Y-35540000D02*
X46242855Y-35540000D01*
X45242855Y-39900000D02*
X45242855Y-35540000D01*
X47882855Y-33680000D02*
X47602855Y-33680000D01*
X47882855Y-32080000D02*
X47882855Y-33680000D01*
X48802855Y-32080000D02*
X47882855Y-32080000D01*
X48802855Y-39900000D02*
X48802855Y-32080000D01*
X42682855Y-39900000D02*
X48802855Y-39900000D01*
X42682855Y-32080000D02*
X42682855Y-39900000D01*
X43602855Y-32080000D02*
X42682855Y-32080000D01*
X43602855Y-33680000D02*
X43602855Y-32080000D01*
X43882855Y-33680000D02*
X43602855Y-33680000D01*
X36714284Y-33680000D02*
X36714284Y-32465000D01*
X36774284Y-37640000D02*
X36774284Y-39900000D01*
X37274284Y-37640000D02*
X37274284Y-39900000D01*
X39874284Y-36040000D02*
X40874284Y-36040000D01*
X39874284Y-37640000D02*
X39874284Y-36040000D01*
X40874284Y-37640000D02*
X39874284Y-37640000D01*
X40874284Y-36040000D02*
X40874284Y-37640000D01*
X37274284Y-36040000D02*
X36274284Y-36040000D01*
X37274284Y-37640000D02*
X37274284Y-36040000D01*
X36274284Y-37640000D02*
X37274284Y-37640000D01*
X36274284Y-36040000D02*
X36274284Y-37640000D01*
X41634284Y-33680000D02*
X40714284Y-33680000D01*
X35514284Y-33680000D02*
X36434284Y-33680000D01*
X39074284Y-35540000D02*
X39074284Y-39900000D01*
X38074284Y-35540000D02*
X39074284Y-35540000D01*
X38074284Y-39900000D02*
X38074284Y-35540000D01*
X40714284Y-33680000D02*
X40434284Y-33680000D01*
X40714284Y-32080000D02*
X40714284Y-33680000D01*
X41634284Y-32080000D02*
X40714284Y-32080000D01*
X41634284Y-39900000D02*
X41634284Y-32080000D01*
X35514284Y-39900000D02*
X41634284Y-39900000D01*
X35514284Y-32080000D02*
X35514284Y-39900000D01*
X36434284Y-32080000D02*
X35514284Y-32080000D01*
X36434284Y-33680000D02*
X36434284Y-32080000D01*
X36714284Y-33680000D02*
X36434284Y-33680000D01*
X29545713Y-33680000D02*
X29545713Y-32465000D01*
X29605713Y-37640000D02*
X29605713Y-39900000D01*
X30105713Y-37640000D02*
X30105713Y-39900000D01*
X32705713Y-36040000D02*
X33705713Y-36040000D01*
X32705713Y-37640000D02*
X32705713Y-36040000D01*
X33705713Y-37640000D02*
X32705713Y-37640000D01*
X33705713Y-36040000D02*
X33705713Y-37640000D01*
X30105713Y-36040000D02*
X29105713Y-36040000D01*
X30105713Y-37640000D02*
X30105713Y-36040000D01*
X29105713Y-37640000D02*
X30105713Y-37640000D01*
X29105713Y-36040000D02*
X29105713Y-37640000D01*
X34465713Y-33680000D02*
X33545713Y-33680000D01*
X28345713Y-33680000D02*
X29265713Y-33680000D01*
X31905713Y-35540000D02*
X31905713Y-39900000D01*
X30905713Y-35540000D02*
X31905713Y-35540000D01*
X30905713Y-39900000D02*
X30905713Y-35540000D01*
X33545713Y-33680000D02*
X33265713Y-33680000D01*
X33545713Y-32080000D02*
X33545713Y-33680000D01*
X34465713Y-32080000D02*
X33545713Y-32080000D01*
X34465713Y-39900000D02*
X34465713Y-32080000D01*
X28345713Y-39900000D02*
X34465713Y-39900000D01*
X28345713Y-32080000D02*
X28345713Y-39900000D01*
X29265713Y-32080000D02*
X28345713Y-32080000D01*
X29265713Y-33680000D02*
X29265713Y-32080000D01*
X29545713Y-33680000D02*
X29265713Y-33680000D01*
X22377142Y-33680000D02*
X22377142Y-32465000D01*
X22437142Y-37640000D02*
X22437142Y-39900000D01*
X22937142Y-37640000D02*
X22937142Y-39900000D01*
X25537142Y-36040000D02*
X26537142Y-36040000D01*
X25537142Y-37640000D02*
X25537142Y-36040000D01*
X26537142Y-37640000D02*
X25537142Y-37640000D01*
X26537142Y-36040000D02*
X26537142Y-37640000D01*
X22937142Y-36040000D02*
X21937142Y-36040000D01*
X22937142Y-37640000D02*
X22937142Y-36040000D01*
X21937142Y-37640000D02*
X22937142Y-37640000D01*
X21937142Y-36040000D02*
X21937142Y-37640000D01*
X27297142Y-33680000D02*
X26377142Y-33680000D01*
X21177142Y-33680000D02*
X22097142Y-33680000D01*
X24737142Y-35540000D02*
X24737142Y-39900000D01*
X23737142Y-35540000D02*
X24737142Y-35540000D01*
X23737142Y-39900000D02*
X23737142Y-35540000D01*
X26377142Y-33680000D02*
X26097142Y-33680000D01*
X26377142Y-32080000D02*
X26377142Y-33680000D01*
X27297142Y-32080000D02*
X26377142Y-32080000D01*
X27297142Y-39900000D02*
X27297142Y-32080000D01*
X21177142Y-39900000D02*
X27297142Y-39900000D01*
X21177142Y-32080000D02*
X21177142Y-39900000D01*
X22097142Y-32080000D02*
X21177142Y-32080000D01*
X22097142Y-33680000D02*
X22097142Y-32080000D01*
X22377142Y-33680000D02*
X22097142Y-33680000D01*
X15208571Y-33680000D02*
X15208571Y-32465000D01*
X15268571Y-37640000D02*
X15268571Y-39900000D01*
X15768571Y-37640000D02*
X15768571Y-39900000D01*
X18368571Y-36040000D02*
X19368571Y-36040000D01*
X18368571Y-37640000D02*
X18368571Y-36040000D01*
X19368571Y-37640000D02*
X18368571Y-37640000D01*
X19368571Y-36040000D02*
X19368571Y-37640000D01*
X15768571Y-36040000D02*
X14768571Y-36040000D01*
X15768571Y-37640000D02*
X15768571Y-36040000D01*
X14768571Y-37640000D02*
X15768571Y-37640000D01*
X14768571Y-36040000D02*
X14768571Y-37640000D01*
X20128571Y-33680000D02*
X19208571Y-33680000D01*
X14008571Y-33680000D02*
X14928571Y-33680000D01*
X17568571Y-35540000D02*
X17568571Y-39900000D01*
X16568571Y-35540000D02*
X17568571Y-35540000D01*
X16568571Y-39900000D02*
X16568571Y-35540000D01*
X19208571Y-33680000D02*
X18928571Y-33680000D01*
X19208571Y-32080000D02*
X19208571Y-33680000D01*
X20128571Y-32080000D02*
X19208571Y-32080000D01*
X20128571Y-39900000D02*
X20128571Y-32080000D01*
X14008571Y-39900000D02*
X20128571Y-39900000D01*
X14008571Y-32080000D02*
X14008571Y-39900000D01*
X14928571Y-32080000D02*
X14008571Y-32080000D01*
X14928571Y-33680000D02*
X14928571Y-32080000D01*
X15208571Y-33680000D02*
X14928571Y-33680000D01*
X8040000Y-33680000D02*
X8040000Y-32465000D01*
X8100000Y-37640000D02*
X8100000Y-39900000D01*
X8600000Y-37640000D02*
X8600000Y-39900000D01*
X11200000Y-36040000D02*
X12200000Y-36040000D01*
X11200000Y-37640000D02*
X11200000Y-36040000D01*
X12200000Y-37640000D02*
X11200000Y-37640000D01*
X12200000Y-36040000D02*
X12200000Y-37640000D01*
X8600000Y-36040000D02*
X7600000Y-36040000D01*
X8600000Y-37640000D02*
X8600000Y-36040000D01*
X7600000Y-37640000D02*
X8600000Y-37640000D01*
X7600000Y-36040000D02*
X7600000Y-37640000D01*
X12960000Y-33680000D02*
X12040000Y-33680000D01*
X6840000Y-33680000D02*
X7760000Y-33680000D01*
X10400000Y-35540000D02*
X10400000Y-39900000D01*
X9400000Y-35540000D02*
X10400000Y-35540000D01*
X9400000Y-39900000D02*
X9400000Y-35540000D01*
X12040000Y-33680000D02*
X11760000Y-33680000D01*
X12040000Y-32080000D02*
X12040000Y-33680000D01*
X12960000Y-32080000D02*
X12040000Y-32080000D01*
X12960000Y-39900000D02*
X12960000Y-32080000D01*
X6840000Y-39900000D02*
X12960000Y-39900000D01*
X6840000Y-32080000D02*
X6840000Y-39900000D01*
X7760000Y-32080000D02*
X6840000Y-32080000D01*
X7760000Y-33680000D02*
X7760000Y-32080000D01*
X8040000Y-33680000D02*
X7760000Y-33680000D01*
X59289375Y-29360000D02*
X59289375Y-27710000D01*
X54089375Y-29360000D02*
X59289375Y-29360000D01*
X54089375Y-24060000D02*
X54089375Y-29360000D01*
X59289375Y-24060000D02*
X54089375Y-24060000D01*
X59289375Y-25710000D02*
X59289375Y-24060000D01*
X59289375Y-27710000D02*
G75*
G02X59289375Y-25710000I0J1000000D01*
G01*
X53223750Y-29360000D02*
X53223750Y-27710000D01*
X48023750Y-29360000D02*
X53223750Y-29360000D01*
X48023750Y-24060000D02*
X48023750Y-29360000D01*
X53223750Y-24060000D02*
X48023750Y-24060000D01*
X53223750Y-25710000D02*
X53223750Y-24060000D01*
X53223750Y-27710000D02*
G75*
G02X53223750Y-25710000I0J1000000D01*
G01*
X47158125Y-29360000D02*
X47158125Y-27710000D01*
X41958125Y-29360000D02*
X47158125Y-29360000D01*
X41958125Y-24060000D02*
X41958125Y-29360000D01*
X47158125Y-24060000D02*
X41958125Y-24060000D01*
X47158125Y-25710000D02*
X47158125Y-24060000D01*
X47158125Y-27710000D02*
G75*
G02X47158125Y-25710000I0J1000000D01*
G01*
X41092500Y-29360000D02*
X41092500Y-27710000D01*
X35892500Y-29360000D02*
X41092500Y-29360000D01*
X35892500Y-24060000D02*
X35892500Y-29360000D01*
X41092500Y-24060000D02*
X35892500Y-24060000D01*
X41092500Y-25710000D02*
X41092500Y-24060000D01*
X41092500Y-27710000D02*
G75*
G02X41092500Y-25710000I0J1000000D01*
G01*
X35026875Y-29360000D02*
X35026875Y-27710000D01*
X29826875Y-29360000D02*
X35026875Y-29360000D01*
X29826875Y-24060000D02*
X29826875Y-29360000D01*
X35026875Y-24060000D02*
X29826875Y-24060000D01*
X35026875Y-25710000D02*
X35026875Y-24060000D01*
X35026875Y-27710000D02*
G75*
G02X35026875Y-25710000I0J1000000D01*
G01*
X28961250Y-29360000D02*
X28961250Y-27710000D01*
X23761250Y-29360000D02*
X28961250Y-29360000D01*
X23761250Y-24060000D02*
X23761250Y-29360000D01*
X28961250Y-24060000D02*
X23761250Y-24060000D01*
X28961250Y-25710000D02*
X28961250Y-24060000D01*
X28961250Y-27710000D02*
G75*
G02X28961250Y-25710000I0J1000000D01*
G01*
X22895625Y-29360000D02*
X22895625Y-27710000D01*
X17695625Y-29360000D02*
X22895625Y-29360000D01*
X17695625Y-24060000D02*
X17695625Y-29360000D01*
X22895625Y-24060000D02*
X17695625Y-24060000D01*
X22895625Y-25710000D02*
X22895625Y-24060000D01*
X22895625Y-27710000D02*
G75*
G02X22895625Y-25710000I0J1000000D01*
G01*
X16830000Y-29360000D02*
X16830000Y-27710000D01*
X11630000Y-29360000D02*
X16830000Y-29360000D01*
X11630000Y-24060000D02*
X11630000Y-29360000D01*
X16830000Y-24060000D02*
X11630000Y-24060000D01*
X16830000Y-25710000D02*
X16830000Y-24060000D01*
X16830000Y-27710000D02*
G75*
G02X16830000Y-25710000I0J1000000D01*
G01*
X1800000Y-7150000D02*
X5000000Y-7150000D01*
X1800000Y-18550000D02*
X5000000Y-18550000D01*
X5000000Y-9421000D02*
X5000000Y-7150000D01*
X5000000Y-18550000D02*
X5000000Y-11178000D01*
X1800000Y-14521000D02*
X1800000Y-7150000D01*
X1800000Y-18550000D02*
X1800000Y-16279000D01*
X58550000Y-13500000D02*
X63000000Y-13500000D01*
X58550000Y-3500000D02*
X58550000Y-13580000D01*
X63000000Y-3500000D02*
X58550000Y-3500000D01*
X26000000Y0D02*
X24500000Y-1500000D01*
X62000000Y0D02*
X26000000Y0D01*
X63000000Y-1000000D02*
X62000000Y0D01*
X63000000Y-16000000D02*
X63000000Y-1000000D01*
X62000000Y-17000000D02*
X63000000Y-16000000D01*
X26000000Y-17000000D02*
X62000000Y-17000000D01*
X24500000Y-15500000D02*
X26000000Y-17000000D01*
X24500000Y-1500000D02*
X24500000Y-15500000D01*
X19350000Y-2190000D02*
G75*
G02X19350000Y-4410000I0J-1110000D01*
G01*
X8050000Y-4410000D02*
G75*
G02X8050000Y-2190000I0J1110000D01*
G01*
X18760000Y-90000D02*
X18760000Y-2190000D01*
X8050000Y-4410000D02*
X8640000Y-4410000D01*
X8050000Y-2190000D02*
X8640000Y-2190000D01*
X18760000Y-2190000D02*
X19350000Y-2190000D01*
X18760000Y-4410000D02*
X19350000Y-4410000D01*
X18760000Y-4410000D02*
X18760000Y-9310000D01*
X8640000Y-90000D02*
X8640000Y-2190000D01*
X8640000Y-4410000D02*
X8640000Y-9310000D01*
X8640000Y-9310000D02*
X18760000Y-9310000D01*
X8640000Y-90000D02*
X18760000Y-90000D01*
X620354Y-21325000D02*
X620354Y-22325000D01*
X120354Y-21825000D02*
X1120354Y-21825000D01*
X10681000Y-24101000D02*
X10681000Y-25299000D01*
X10641000Y-23838000D02*
X10641000Y-25562000D01*
X10601000Y-23638000D02*
X10601000Y-25762000D01*
X10561000Y-23470000D02*
X10561000Y-25930000D01*
X10521000Y-23322000D02*
X10521000Y-26078000D01*
X10481000Y-23190000D02*
X10481000Y-26210000D01*
X10441000Y-23070000D02*
X10441000Y-26330000D01*
X10401000Y-22958000D02*
X10401000Y-26442000D01*
X10361000Y-22854000D02*
X10361000Y-26546000D01*
X10321000Y-22756000D02*
X10321000Y-26644000D01*
X10281000Y-22663000D02*
X10281000Y-26737000D01*
X10241000Y-22575000D02*
X10241000Y-26825000D01*
X10201000Y-22491000D02*
X10201000Y-26909000D01*
X10161000Y-22411000D02*
X10161000Y-26989000D01*
X10121000Y-22335000D02*
X10121000Y-27065000D01*
X10081000Y-22261000D02*
X10081000Y-27139000D01*
X10041000Y-22190000D02*
X10041000Y-27210000D01*
X10001000Y-22121000D02*
X10001000Y-25460000D01*
X9961000Y-22055000D02*
X9961000Y-25460000D01*
X9921000Y-21991000D02*
X9921000Y-25460000D01*
X9881000Y-21930000D02*
X9881000Y-25460000D01*
X9841000Y-21870000D02*
X9841000Y-25460000D01*
X9801000Y-21811000D02*
X9801000Y-25460000D01*
X9761000Y-21755000D02*
X9761000Y-25460000D01*
X9721000Y-21700000D02*
X9721000Y-25460000D01*
X9681000Y-21646000D02*
X9681000Y-25460000D01*
X9641000Y-21594000D02*
X9641000Y-25460000D01*
X9601000Y-21544000D02*
X9601000Y-25460000D01*
X9561000Y-21494000D02*
X9561000Y-25460000D01*
X9521000Y-27940000D02*
X9521000Y-27954000D01*
X9521000Y-21446000D02*
X9521000Y-25460000D01*
X9481000Y-27940000D02*
X9481000Y-28001000D01*
X9481000Y-21399000D02*
X9481000Y-25460000D01*
X9441000Y-27940000D02*
X9441000Y-28047000D01*
X9441000Y-21353000D02*
X9441000Y-25460000D01*
X9401000Y-27940000D02*
X9401000Y-28092000D01*
X9401000Y-21308000D02*
X9401000Y-25460000D01*
X9361000Y-27940000D02*
X9361000Y-28136000D01*
X9361000Y-21264000D02*
X9361000Y-25460000D01*
X9321000Y-27940000D02*
X9321000Y-28178000D01*
X9321000Y-21222000D02*
X9321000Y-23459000D01*
X9281000Y-27940000D02*
X9281000Y-28220000D01*
X9281000Y-21180000D02*
X9281000Y-23459000D01*
X9241000Y-27940000D02*
X9241000Y-28261000D01*
X9241000Y-21139000D02*
X9241000Y-23459000D01*
X9201000Y-27940000D02*
X9201000Y-28301000D01*
X9201000Y-21099000D02*
X9201000Y-23459000D01*
X9161000Y-27940000D02*
X9161000Y-28340000D01*
X9161000Y-21060000D02*
X9161000Y-23459000D01*
X9121000Y-27940000D02*
X9121000Y-28379000D01*
X9121000Y-21021000D02*
X9121000Y-23459000D01*
X9081000Y-27940000D02*
X9081000Y-28416000D01*
X9081000Y-20984000D02*
X9081000Y-23459000D01*
X9041000Y-27940000D02*
X9041000Y-28453000D01*
X9041000Y-20947000D02*
X9041000Y-23459000D01*
X9001000Y-27940000D02*
X9001000Y-28489000D01*
X9001000Y-20911000D02*
X9001000Y-23459000D01*
X8961000Y-27940000D02*
X8961000Y-28524000D01*
X8961000Y-20876000D02*
X8961000Y-23459000D01*
X8921000Y-27940000D02*
X8921000Y-28558000D01*
X8921000Y-20842000D02*
X8921000Y-23459000D01*
X8881000Y-27940000D02*
X8881000Y-28592000D01*
X8881000Y-20808000D02*
X8881000Y-23459000D01*
X8841000Y-27940000D02*
X8841000Y-28625000D01*
X8841000Y-20775000D02*
X8841000Y-23459000D01*
X8801000Y-27940000D02*
X8801000Y-28657000D01*
X8801000Y-20743000D02*
X8801000Y-23459000D01*
X8761000Y-27940000D02*
X8761000Y-28689000D01*
X8761000Y-20711000D02*
X8761000Y-23459000D01*
X8721000Y-27940000D02*
X8721000Y-28720000D01*
X8721000Y-20680000D02*
X8721000Y-23459000D01*
X8681000Y-27940000D02*
X8681000Y-28750000D01*
X8681000Y-20650000D02*
X8681000Y-23459000D01*
X8641000Y-27940000D02*
X8641000Y-28780000D01*
X8641000Y-20620000D02*
X8641000Y-23459000D01*
X8601000Y-27940000D02*
X8601000Y-28810000D01*
X8601000Y-20590000D02*
X8601000Y-23459000D01*
X8561000Y-27940000D02*
X8561000Y-28838000D01*
X8561000Y-20562000D02*
X8561000Y-23459000D01*
X8521000Y-27940000D02*
X8521000Y-28866000D01*
X8521000Y-20534000D02*
X8521000Y-23459000D01*
X8481000Y-27940000D02*
X8481000Y-28894000D01*
X8481000Y-20506000D02*
X8481000Y-23459000D01*
X8441000Y-27940000D02*
X8441000Y-28921000D01*
X8441000Y-20479000D02*
X8441000Y-23459000D01*
X8401000Y-27940000D02*
X8401000Y-28947000D01*
X8401000Y-20453000D02*
X8401000Y-23459000D01*
X8361000Y-27940000D02*
X8361000Y-28973000D01*
X8361000Y-20427000D02*
X8361000Y-23459000D01*
X8321000Y-27940000D02*
X8321000Y-28998000D01*
X8321000Y-20402000D02*
X8321000Y-23459000D01*
X8281000Y-27940000D02*
X8281000Y-29023000D01*
X8281000Y-20377000D02*
X8281000Y-23459000D01*
X8241000Y-27940000D02*
X8241000Y-29047000D01*
X8241000Y-20353000D02*
X8241000Y-23459000D01*
X8201000Y-27940000D02*
X8201000Y-29071000D01*
X8201000Y-20329000D02*
X8201000Y-23459000D01*
X8161000Y-27940000D02*
X8161000Y-29095000D01*
X8161000Y-20305000D02*
X8161000Y-23459000D01*
X8121000Y-27940000D02*
X8121000Y-29117000D01*
X8121000Y-20283000D02*
X8121000Y-23459000D01*
X8081000Y-27940000D02*
X8081000Y-29140000D01*
X8081000Y-20260000D02*
X8081000Y-23459000D01*
X8041000Y-27940000D02*
X8041000Y-29162000D01*
X8041000Y-20238000D02*
X8041000Y-23459000D01*
X8001000Y-27940000D02*
X8001000Y-29183000D01*
X8001000Y-20217000D02*
X8001000Y-23459000D01*
X7961000Y-27940000D02*
X7961000Y-29204000D01*
X7961000Y-20196000D02*
X7961000Y-23459000D01*
X7921000Y-27940000D02*
X7921000Y-29225000D01*
X7921000Y-20175000D02*
X7921000Y-23459000D01*
X7881000Y-27940000D02*
X7881000Y-29245000D01*
X7881000Y-20155000D02*
X7881000Y-23459000D01*
X7841000Y-27940000D02*
X7841000Y-29264000D01*
X7841000Y-20136000D02*
X7841000Y-23459000D01*
X7801000Y-27940000D02*
X7801000Y-29284000D01*
X7801000Y-20116000D02*
X7801000Y-23459000D01*
X7761000Y-27940000D02*
X7761000Y-29303000D01*
X7761000Y-20097000D02*
X7761000Y-23459000D01*
X7721000Y-27940000D02*
X7721000Y-29321000D01*
X7721000Y-20079000D02*
X7721000Y-23459000D01*
X7681000Y-27940000D02*
X7681000Y-29339000D01*
X7681000Y-20061000D02*
X7681000Y-23459000D01*
X7641000Y-27940000D02*
X7641000Y-29357000D01*
X7641000Y-20043000D02*
X7641000Y-23459000D01*
X7601000Y-27940000D02*
X7601000Y-29374000D01*
X7601000Y-20026000D02*
X7601000Y-23459000D01*
X7561000Y-27940000D02*
X7561000Y-29390000D01*
X7561000Y-20010000D02*
X7561000Y-23459000D01*
X7521000Y-25941000D02*
X7521000Y-29407000D01*
X7521000Y-19993000D02*
X7521000Y-23459000D01*
X7481000Y-25941000D02*
X7481000Y-29423000D01*
X7481000Y-19977000D02*
X7481000Y-23459000D01*
X7441000Y-25941000D02*
X7441000Y-29438000D01*
X7441000Y-19962000D02*
X7441000Y-23459000D01*
X7401000Y-25941000D02*
X7401000Y-29454000D01*
X7401000Y-19946000D02*
X7401000Y-23459000D01*
X7361000Y-25941000D02*
X7361000Y-29468000D01*
X7361000Y-19932000D02*
X7361000Y-23459000D01*
X7321000Y-25941000D02*
X7321000Y-29483000D01*
X7321000Y-19917000D02*
X7321000Y-23459000D01*
X7281000Y-25941000D02*
X7281000Y-29497000D01*
X7281000Y-19903000D02*
X7281000Y-23459000D01*
X7241000Y-25941000D02*
X7241000Y-29511000D01*
X7241000Y-19889000D02*
X7241000Y-23459000D01*
X7201000Y-25941000D02*
X7201000Y-29524000D01*
X7201000Y-19876000D02*
X7201000Y-23459000D01*
X7161000Y-25941000D02*
X7161000Y-29537000D01*
X7161000Y-19863000D02*
X7161000Y-23459000D01*
X7121000Y-25941000D02*
X7121000Y-29550000D01*
X7121000Y-19850000D02*
X7121000Y-23459000D01*
X7081000Y-25941000D02*
X7081000Y-29562000D01*
X7081000Y-19838000D02*
X7081000Y-23459000D01*
X7041000Y-25941000D02*
X7041000Y-29574000D01*
X7041000Y-19826000D02*
X7041000Y-23459000D01*
X7001000Y-25941000D02*
X7001000Y-29585000D01*
X7001000Y-19815000D02*
X7001000Y-23459000D01*
X6961000Y-25941000D02*
X6961000Y-29597000D01*
X6961000Y-19803000D02*
X6961000Y-23459000D01*
X6921000Y-25941000D02*
X6921000Y-29607000D01*
X6921000Y-19793000D02*
X6921000Y-23459000D01*
X6881000Y-25941000D02*
X6881000Y-29618000D01*
X6881000Y-19782000D02*
X6881000Y-23459000D01*
X6841000Y-19772000D02*
X6841000Y-29628000D01*
X6801000Y-19762000D02*
X6801000Y-29638000D01*
X6761000Y-19753000D02*
X6761000Y-29647000D01*
X6721000Y-19744000D02*
X6721000Y-29656000D01*
X6681000Y-19735000D02*
X6681000Y-29665000D01*
X6641000Y-19726000D02*
X6641000Y-29674000D01*
X6601000Y-19718000D02*
X6601000Y-29682000D01*
X6561000Y-19710000D02*
X6561000Y-29690000D01*
X6521000Y-19703000D02*
X6521000Y-29697000D01*
X6481000Y-19696000D02*
X6481000Y-29704000D01*
X6441000Y-19689000D02*
X6441000Y-29711000D01*
X6401000Y-19682000D02*
X6401000Y-29718000D01*
X6361000Y-19676000D02*
X6361000Y-29724000D01*
X6321000Y-19670000D02*
X6321000Y-29730000D01*
X6280000Y-19665000D02*
X6280000Y-29735000D01*
X6240000Y-19660000D02*
X6240000Y-29740000D01*
X6200000Y-19655000D02*
X6200000Y-29745000D01*
X6160000Y-19650000D02*
X6160000Y-29750000D01*
X6120000Y-19646000D02*
X6120000Y-29754000D01*
X6080000Y-19642000D02*
X6080000Y-29758000D01*
X6040000Y-19638000D02*
X6040000Y-29762000D01*
X6000000Y-19635000D02*
X6000000Y-29765000D01*
X5960000Y-19632000D02*
X5960000Y-29768000D01*
X5920000Y-19630000D02*
X5920000Y-29770000D01*
X5880000Y-19627000D02*
X5880000Y-29773000D01*
X5840000Y-19625000D02*
X5840000Y-29775000D01*
X5800000Y-19623000D02*
X5800000Y-29777000D01*
X5760000Y-19622000D02*
X5760000Y-29778000D01*
X5720000Y-19621000D02*
X5720000Y-29779000D01*
X5680000Y-19620000D02*
X5680000Y-29780000D01*
X5640000Y-19620000D02*
X5640000Y-29780000D01*
X5600000Y-19620000D02*
X5600000Y-29780000D01*
X775096Y-22986902D02*
G75*
G03X1651988Y-21440000I4824904J-1713098D01*
G01*
D13*
X12050833Y-18867380D02*
X11717500Y-18391190D01*
X11479404Y-18867380D02*
X11479404Y-17867380D01*
X11860357Y-17867380D01*
X11955595Y-17915000D01*
X12003214Y-17962619D01*
X12050833Y-18057857D01*
X12050833Y-18200714D01*
X12003214Y-18295952D01*
X11955595Y-18343571D01*
X11860357Y-18391190D01*
X11479404Y-18391190D01*
X13003214Y-18867380D02*
X12431785Y-18867380D01*
X12717500Y-18867380D02*
X12717500Y-17867380D01*
X12622261Y-18010238D01*
X12527023Y-18105476D01*
X12431785Y-18153095D01*
X14501904Y-19027380D02*
X14501904Y-18027380D01*
X14740000Y-18027380D01*
X14882857Y-18075000D01*
X14978095Y-18170238D01*
X15025714Y-18265476D01*
X15073333Y-18455952D01*
X15073333Y-18598809D01*
X15025714Y-18789285D01*
X14978095Y-18884523D01*
X14882857Y-18979761D01*
X14740000Y-19027380D01*
X14501904Y-19027380D01*
X16025714Y-19027380D02*
X15454285Y-19027380D01*
X15740000Y-19027380D02*
X15740000Y-18027380D01*
X15644761Y-18170238D01*
X15549523Y-18265476D01*
X15454285Y-18313095D01*
X38552380Y-19290476D02*
X38076190Y-19623809D01*
X38552380Y-19861904D02*
X37552380Y-19861904D01*
X37552380Y-19480952D01*
X37600000Y-19385714D01*
X37647619Y-19338095D01*
X37742857Y-19290476D01*
X37885714Y-19290476D01*
X37980952Y-19338095D01*
X38028571Y-19385714D01*
X38076190Y-19480952D01*
X38076190Y-19861904D01*
X38552380Y-18861904D02*
X37552380Y-18861904D01*
X38552380Y-18290476D01*
X37552380Y-18290476D01*
X38552380Y-17290476D02*
X38552380Y-17861904D01*
X38552380Y-17576190D02*
X37552380Y-17576190D01*
X37695238Y-17671428D01*
X37790476Y-17766666D01*
X37838095Y-17861904D01*
X64066666Y-32352380D02*
X64066666Y-33066666D01*
X64019047Y-33209523D01*
X63923809Y-33304761D01*
X63780952Y-33352380D01*
X63685714Y-33352380D01*
X64685714Y-32780952D02*
X64590476Y-32733333D01*
X64542857Y-32685714D01*
X64495238Y-32590476D01*
X64495238Y-32542857D01*
X64542857Y-32447619D01*
X64590476Y-32400000D01*
X64685714Y-32352380D01*
X64876190Y-32352380D01*
X64971428Y-32400000D01*
X65019047Y-32447619D01*
X65066666Y-32542857D01*
X65066666Y-32590476D01*
X65019047Y-32685714D01*
X64971428Y-32733333D01*
X64876190Y-32780952D01*
X64685714Y-32780952D01*
X64590476Y-32828571D01*
X64542857Y-32876190D01*
X64495238Y-32971428D01*
X64495238Y-33161904D01*
X64542857Y-33257142D01*
X64590476Y-33304761D01*
X64685714Y-33352380D01*
X64876190Y-33352380D01*
X64971428Y-33304761D01*
X65019047Y-33257142D01*
X65066666Y-33161904D01*
X65066666Y-32971428D01*
X65019047Y-32876190D01*
X64971428Y-32828571D01*
X64876190Y-32780952D01*
X4966666Y-32152380D02*
X4966666Y-32866666D01*
X4919047Y-33009523D01*
X4823809Y-33104761D01*
X4680952Y-33152380D01*
X4585714Y-33152380D01*
X5966666Y-33152380D02*
X5395238Y-33152380D01*
X5680952Y-33152380D02*
X5680952Y-32152380D01*
X5585714Y-32295238D01*
X5490476Y-32390476D01*
X5395238Y-32438095D01*
X56602380Y-27431904D02*
X57411904Y-27431904D01*
X57507142Y-27384285D01*
X57554761Y-27336666D01*
X57602380Y-27241428D01*
X57602380Y-27050952D01*
X57554761Y-26955714D01*
X57507142Y-26908095D01*
X57411904Y-26860476D01*
X56602380Y-26860476D01*
X57602380Y-26336666D02*
X57602380Y-26146190D01*
X57554761Y-26050952D01*
X57507142Y-26003333D01*
X57364285Y-25908095D01*
X57173809Y-25860476D01*
X56792857Y-25860476D01*
X56697619Y-25908095D01*
X56650000Y-25955714D01*
X56602380Y-26050952D01*
X56602380Y-26241428D01*
X56650000Y-26336666D01*
X56697619Y-26384285D01*
X56792857Y-26431904D01*
X57030952Y-26431904D01*
X57126190Y-26384285D01*
X57173809Y-26336666D01*
X57221428Y-26241428D01*
X57221428Y-26050952D01*
X57173809Y-25955714D01*
X57126190Y-25908095D01*
X57030952Y-25860476D01*
X50252380Y-27431904D02*
X51061904Y-27431904D01*
X51157142Y-27384285D01*
X51204761Y-27336666D01*
X51252380Y-27241428D01*
X51252380Y-27050952D01*
X51204761Y-26955714D01*
X51157142Y-26908095D01*
X51061904Y-26860476D01*
X50252380Y-26860476D01*
X50680952Y-26241428D02*
X50633333Y-26336666D01*
X50585714Y-26384285D01*
X50490476Y-26431904D01*
X50442857Y-26431904D01*
X50347619Y-26384285D01*
X50300000Y-26336666D01*
X50252380Y-26241428D01*
X50252380Y-26050952D01*
X50300000Y-25955714D01*
X50347619Y-25908095D01*
X50442857Y-25860476D01*
X50490476Y-25860476D01*
X50585714Y-25908095D01*
X50633333Y-25955714D01*
X50680952Y-26050952D01*
X50680952Y-26241428D01*
X50728571Y-26336666D01*
X50776190Y-26384285D01*
X50871428Y-26431904D01*
X51061904Y-26431904D01*
X51157142Y-26384285D01*
X51204761Y-26336666D01*
X51252380Y-26241428D01*
X51252380Y-26050952D01*
X51204761Y-25955714D01*
X51157142Y-25908095D01*
X51061904Y-25860476D01*
X50871428Y-25860476D01*
X50776190Y-25908095D01*
X50728571Y-25955714D01*
X50680952Y-26050952D01*
X43902380Y-27471904D02*
X44711904Y-27471904D01*
X44807142Y-27424285D01*
X44854761Y-27376666D01*
X44902380Y-27281428D01*
X44902380Y-27090952D01*
X44854761Y-26995714D01*
X44807142Y-26948095D01*
X44711904Y-26900476D01*
X43902380Y-26900476D01*
X43902380Y-26519523D02*
X43902380Y-25852857D01*
X44902380Y-26281428D01*
X38187380Y-27471904D02*
X38996904Y-27471904D01*
X39092142Y-27424285D01*
X39139761Y-27376666D01*
X39187380Y-27281428D01*
X39187380Y-27090952D01*
X39139761Y-26995714D01*
X39092142Y-26948095D01*
X38996904Y-26900476D01*
X38187380Y-26900476D01*
X38187380Y-25995714D02*
X38187380Y-26186190D01*
X38235000Y-26281428D01*
X38282619Y-26329047D01*
X38425476Y-26424285D01*
X38615952Y-26471904D01*
X38996904Y-26471904D01*
X39092142Y-26424285D01*
X39139761Y-26376666D01*
X39187380Y-26281428D01*
X39187380Y-26090952D01*
X39139761Y-25995714D01*
X39092142Y-25948095D01*
X38996904Y-25900476D01*
X38758809Y-25900476D01*
X38663571Y-25948095D01*
X38615952Y-25995714D01*
X38568333Y-26090952D01*
X38568333Y-26281428D01*
X38615952Y-26376666D01*
X38663571Y-26424285D01*
X38758809Y-26471904D01*
X31837380Y-27431904D02*
X32646904Y-27431904D01*
X32742142Y-27384285D01*
X32789761Y-27336666D01*
X32837380Y-27241428D01*
X32837380Y-27050952D01*
X32789761Y-26955714D01*
X32742142Y-26908095D01*
X32646904Y-26860476D01*
X31837380Y-26860476D01*
X31837380Y-25908095D02*
X31837380Y-26384285D01*
X32313571Y-26431904D01*
X32265952Y-26384285D01*
X32218333Y-26289047D01*
X32218333Y-26050952D01*
X32265952Y-25955714D01*
X32313571Y-25908095D01*
X32408809Y-25860476D01*
X32646904Y-25860476D01*
X32742142Y-25908095D01*
X32789761Y-25955714D01*
X32837380Y-26050952D01*
X32837380Y-26289047D01*
X32789761Y-26384285D01*
X32742142Y-26431904D01*
X26122380Y-27431904D02*
X26931904Y-27431904D01*
X27027142Y-27384285D01*
X27074761Y-27336666D01*
X27122380Y-27241428D01*
X27122380Y-27050952D01*
X27074761Y-26955714D01*
X27027142Y-26908095D01*
X26931904Y-26860476D01*
X26122380Y-26860476D01*
X26455714Y-25955714D02*
X27122380Y-25955714D01*
X26074761Y-26193809D02*
X26789047Y-26431904D01*
X26789047Y-25812857D01*
X19772380Y-27471904D02*
X20581904Y-27471904D01*
X20677142Y-27424285D01*
X20724761Y-27376666D01*
X20772380Y-27281428D01*
X20772380Y-27090952D01*
X20724761Y-26995714D01*
X20677142Y-26948095D01*
X20581904Y-26900476D01*
X19772380Y-26900476D01*
X19772380Y-26519523D02*
X19772380Y-25900476D01*
X20153333Y-26233809D01*
X20153333Y-26090952D01*
X20200952Y-25995714D01*
X20248571Y-25948095D01*
X20343809Y-25900476D01*
X20581904Y-25900476D01*
X20677142Y-25948095D01*
X20724761Y-25995714D01*
X20772380Y-26090952D01*
X20772380Y-26376666D01*
X20724761Y-26471904D01*
X20677142Y-26519523D01*
X14057380Y-27431904D02*
X14866904Y-27431904D01*
X14962142Y-27384285D01*
X15009761Y-27336666D01*
X15057380Y-27241428D01*
X15057380Y-27050952D01*
X15009761Y-26955714D01*
X14962142Y-26908095D01*
X14866904Y-26860476D01*
X14057380Y-26860476D01*
X14152619Y-26431904D02*
X14105000Y-26384285D01*
X14057380Y-26289047D01*
X14057380Y-26050952D01*
X14105000Y-25955714D01*
X14152619Y-25908095D01*
X14247857Y-25860476D01*
X14343095Y-25860476D01*
X14485952Y-25908095D01*
X15057380Y-26479523D01*
X15057380Y-25860476D01*
X3228571Y-13233333D02*
X3228571Y-13566666D01*
X3752380Y-13566666D02*
X2752380Y-13566666D01*
X2752380Y-13090476D01*
X3752380Y-12185714D02*
X3752380Y-12757142D01*
X3752380Y-12471428D02*
X2752380Y-12471428D01*
X2895238Y-12566666D01*
X2990476Y-12661904D01*
X3038095Y-12757142D01*
X60152380Y-9161904D02*
X60961904Y-9161904D01*
X61057142Y-9114285D01*
X61104761Y-9066666D01*
X61152380Y-8971428D01*
X61152380Y-8780952D01*
X61104761Y-8685714D01*
X61057142Y-8638095D01*
X60961904Y-8590476D01*
X60152380Y-8590476D01*
X61152380Y-7590476D02*
X61152380Y-8161904D01*
X61152380Y-7876190D02*
X60152380Y-7876190D01*
X60295238Y-7971428D01*
X60390476Y-8066666D01*
X60438095Y-8161904D01*
X60328095Y-13715000D02*
X60232857Y-13667380D01*
X60090000Y-13667380D01*
X59947142Y-13715000D01*
X59851904Y-13810238D01*
X59804285Y-13905476D01*
X59756666Y-14095952D01*
X59756666Y-14238809D01*
X59804285Y-14429285D01*
X59851904Y-14524523D01*
X59947142Y-14619761D01*
X60090000Y-14667380D01*
X60185238Y-14667380D01*
X60328095Y-14619761D01*
X60375714Y-14572142D01*
X60375714Y-14238809D01*
X60185238Y-14238809D01*
X60804285Y-14667380D02*
X60804285Y-13667380D01*
X61375714Y-14667380D01*
X61375714Y-13667380D01*
X61851904Y-14667380D02*
X61851904Y-13667380D01*
X62090000Y-13667380D01*
X62232857Y-13715000D01*
X62328095Y-13810238D01*
X62375714Y-13905476D01*
X62423333Y-14095952D01*
X62423333Y-14238809D01*
X62375714Y-14429285D01*
X62328095Y-14524523D01*
X62232857Y-14619761D01*
X62090000Y-14667380D01*
X61851904Y-14667380D01*
D12*
X59575714Y-2456428D02*
X59947142Y-2456428D01*
X59747142Y-2685000D01*
X59832857Y-2685000D01*
X59890000Y-2713571D01*
X59918571Y-2742142D01*
X59947142Y-2799285D01*
X59947142Y-2942142D01*
X59918571Y-2999285D01*
X59890000Y-3027857D01*
X59832857Y-3056428D01*
X59661428Y-3056428D01*
X59604285Y-3027857D01*
X59575714Y-2999285D01*
X60118571Y-2456428D02*
X60318571Y-3056428D01*
X60518571Y-2456428D01*
X60661428Y-2456428D02*
X61032857Y-2456428D01*
X60832857Y-2685000D01*
X60918571Y-2685000D01*
X60975714Y-2713571D01*
X61004285Y-2742142D01*
X61032857Y-2799285D01*
X61032857Y-2942142D01*
X61004285Y-2999285D01*
X60975714Y-3027857D01*
X60918571Y-3056428D01*
X60747142Y-3056428D01*
X60690000Y-3027857D01*
X60661428Y-2999285D01*
X62032857Y-2456428D02*
X61747142Y-2456428D01*
X61718571Y-2742142D01*
X61747142Y-2713571D01*
X61804285Y-2685000D01*
X61947142Y-2685000D01*
X62004285Y-2713571D01*
X62032857Y-2742142D01*
X62061428Y-2799285D01*
X62061428Y-2942142D01*
X62032857Y-2999285D01*
X62004285Y-3027857D01*
X61947142Y-3056428D01*
X61804285Y-3056428D01*
X61747142Y-3027857D01*
X61718571Y-2999285D01*
X62232857Y-2456428D02*
X62432857Y-3056428D01*
X62632857Y-2456428D01*
D13*
X32332380Y-4961785D02*
X31332380Y-4961785D01*
X31332380Y-4580833D01*
X31380000Y-4485595D01*
X31427619Y-4437976D01*
X31522857Y-4390357D01*
X31665714Y-4390357D01*
X31760952Y-4437976D01*
X31808571Y-4485595D01*
X31856190Y-4580833D01*
X31856190Y-4961785D01*
X31808571Y-3628452D02*
X31856190Y-3485595D01*
X31903809Y-3437976D01*
X31999047Y-3390357D01*
X32141904Y-3390357D01*
X32237142Y-3437976D01*
X32284761Y-3485595D01*
X32332380Y-3580833D01*
X32332380Y-3961785D01*
X31332380Y-3961785D01*
X31332380Y-3628452D01*
X31380000Y-3533214D01*
X31427619Y-3485595D01*
X31522857Y-3437976D01*
X31618095Y-3437976D01*
X31713333Y-3485595D01*
X31760952Y-3533214D01*
X31808571Y-3628452D01*
X31808571Y-3961785D01*
X31760952Y-2818928D02*
X31713333Y-2914166D01*
X31665714Y-2961785D01*
X31570476Y-3009404D01*
X31522857Y-3009404D01*
X31427619Y-2961785D01*
X31380000Y-2914166D01*
X31332380Y-2818928D01*
X31332380Y-2628452D01*
X31380000Y-2533214D01*
X31427619Y-2485595D01*
X31522857Y-2437976D01*
X31570476Y-2437976D01*
X31665714Y-2485595D01*
X31713333Y-2533214D01*
X31760952Y-2628452D01*
X31760952Y-2818928D01*
X31808571Y-2914166D01*
X31856190Y-2961785D01*
X31951428Y-3009404D01*
X32141904Y-3009404D01*
X32237142Y-2961785D01*
X32284761Y-2914166D01*
X32332380Y-2818928D01*
X32332380Y-2628452D01*
X32284761Y-2533214D01*
X32237142Y-2485595D01*
X32141904Y-2437976D01*
X31951428Y-2437976D01*
X31856190Y-2485595D01*
X31808571Y-2533214D01*
X31760952Y-2628452D01*
X33602380Y-4961785D02*
X32602380Y-4961785D01*
X32602380Y-4580833D01*
X32650000Y-4485595D01*
X32697619Y-4437976D01*
X32792857Y-4390357D01*
X32935714Y-4390357D01*
X33030952Y-4437976D01*
X33078571Y-4485595D01*
X33126190Y-4580833D01*
X33126190Y-4961785D01*
X33078571Y-3628452D02*
X33126190Y-3485595D01*
X33173809Y-3437976D01*
X33269047Y-3390357D01*
X33411904Y-3390357D01*
X33507142Y-3437976D01*
X33554761Y-3485595D01*
X33602380Y-3580833D01*
X33602380Y-3961785D01*
X32602380Y-3961785D01*
X32602380Y-3628452D01*
X32650000Y-3533214D01*
X32697619Y-3485595D01*
X32792857Y-3437976D01*
X32888095Y-3437976D01*
X32983333Y-3485595D01*
X33030952Y-3533214D01*
X33078571Y-3628452D01*
X33078571Y-3961785D01*
X32602380Y-3057023D02*
X32602380Y-2390357D01*
X33602380Y-2818928D01*
X34872380Y-4961785D02*
X33872380Y-4961785D01*
X33872380Y-4580833D01*
X33920000Y-4485595D01*
X33967619Y-4437976D01*
X34062857Y-4390357D01*
X34205714Y-4390357D01*
X34300952Y-4437976D01*
X34348571Y-4485595D01*
X34396190Y-4580833D01*
X34396190Y-4961785D01*
X34348571Y-3628452D02*
X34396190Y-3485595D01*
X34443809Y-3437976D01*
X34539047Y-3390357D01*
X34681904Y-3390357D01*
X34777142Y-3437976D01*
X34824761Y-3485595D01*
X34872380Y-3580833D01*
X34872380Y-3961785D01*
X33872380Y-3961785D01*
X33872380Y-3628452D01*
X33920000Y-3533214D01*
X33967619Y-3485595D01*
X34062857Y-3437976D01*
X34158095Y-3437976D01*
X34253333Y-3485595D01*
X34300952Y-3533214D01*
X34348571Y-3628452D01*
X34348571Y-3961785D01*
X33872380Y-2533214D02*
X33872380Y-2723690D01*
X33920000Y-2818928D01*
X33967619Y-2866547D01*
X34110476Y-2961785D01*
X34300952Y-3009404D01*
X34681904Y-3009404D01*
X34777142Y-2961785D01*
X34824761Y-2914166D01*
X34872380Y-2818928D01*
X34872380Y-2628452D01*
X34824761Y-2533214D01*
X34777142Y-2485595D01*
X34681904Y-2437976D01*
X34443809Y-2437976D01*
X34348571Y-2485595D01*
X34300952Y-2533214D01*
X34253333Y-2628452D01*
X34253333Y-2818928D01*
X34300952Y-2914166D01*
X34348571Y-2961785D01*
X34443809Y-3009404D01*
X36142380Y-4961785D02*
X35142380Y-4961785D01*
X35142380Y-4580833D01*
X35190000Y-4485595D01*
X35237619Y-4437976D01*
X35332857Y-4390357D01*
X35475714Y-4390357D01*
X35570952Y-4437976D01*
X35618571Y-4485595D01*
X35666190Y-4580833D01*
X35666190Y-4961785D01*
X35618571Y-3628452D02*
X35666190Y-3485595D01*
X35713809Y-3437976D01*
X35809047Y-3390357D01*
X35951904Y-3390357D01*
X36047142Y-3437976D01*
X36094761Y-3485595D01*
X36142380Y-3580833D01*
X36142380Y-3961785D01*
X35142380Y-3961785D01*
X35142380Y-3628452D01*
X35190000Y-3533214D01*
X35237619Y-3485595D01*
X35332857Y-3437976D01*
X35428095Y-3437976D01*
X35523333Y-3485595D01*
X35570952Y-3533214D01*
X35618571Y-3628452D01*
X35618571Y-3961785D01*
X35142380Y-2485595D02*
X35142380Y-2961785D01*
X35618571Y-3009404D01*
X35570952Y-2961785D01*
X35523333Y-2866547D01*
X35523333Y-2628452D01*
X35570952Y-2533214D01*
X35618571Y-2485595D01*
X35713809Y-2437976D01*
X35951904Y-2437976D01*
X36047142Y-2485595D01*
X36094761Y-2533214D01*
X36142380Y-2628452D01*
X36142380Y-2866547D01*
X36094761Y-2961785D01*
X36047142Y-3009404D01*
X37412380Y-4961785D02*
X36412380Y-4961785D01*
X36412380Y-4580833D01*
X36460000Y-4485595D01*
X36507619Y-4437976D01*
X36602857Y-4390357D01*
X36745714Y-4390357D01*
X36840952Y-4437976D01*
X36888571Y-4485595D01*
X36936190Y-4580833D01*
X36936190Y-4961785D01*
X36888571Y-3628452D02*
X36936190Y-3485595D01*
X36983809Y-3437976D01*
X37079047Y-3390357D01*
X37221904Y-3390357D01*
X37317142Y-3437976D01*
X37364761Y-3485595D01*
X37412380Y-3580833D01*
X37412380Y-3961785D01*
X36412380Y-3961785D01*
X36412380Y-3628452D01*
X36460000Y-3533214D01*
X36507619Y-3485595D01*
X36602857Y-3437976D01*
X36698095Y-3437976D01*
X36793333Y-3485595D01*
X36840952Y-3533214D01*
X36888571Y-3628452D01*
X36888571Y-3961785D01*
X36745714Y-2533214D02*
X37412380Y-2533214D01*
X36364761Y-2771309D02*
X37079047Y-3009404D01*
X37079047Y-2390357D01*
X38682380Y-4961785D02*
X37682380Y-4961785D01*
X37682380Y-4580833D01*
X37730000Y-4485595D01*
X37777619Y-4437976D01*
X37872857Y-4390357D01*
X38015714Y-4390357D01*
X38110952Y-4437976D01*
X38158571Y-4485595D01*
X38206190Y-4580833D01*
X38206190Y-4961785D01*
X38158571Y-3628452D02*
X38206190Y-3485595D01*
X38253809Y-3437976D01*
X38349047Y-3390357D01*
X38491904Y-3390357D01*
X38587142Y-3437976D01*
X38634761Y-3485595D01*
X38682380Y-3580833D01*
X38682380Y-3961785D01*
X37682380Y-3961785D01*
X37682380Y-3628452D01*
X37730000Y-3533214D01*
X37777619Y-3485595D01*
X37872857Y-3437976D01*
X37968095Y-3437976D01*
X38063333Y-3485595D01*
X38110952Y-3533214D01*
X38158571Y-3628452D01*
X38158571Y-3961785D01*
X37682380Y-3057023D02*
X37682380Y-2437976D01*
X38063333Y-2771309D01*
X38063333Y-2628452D01*
X38110952Y-2533214D01*
X38158571Y-2485595D01*
X38253809Y-2437976D01*
X38491904Y-2437976D01*
X38587142Y-2485595D01*
X38634761Y-2533214D01*
X38682380Y-2628452D01*
X38682380Y-2914166D01*
X38634761Y-3009404D01*
X38587142Y-3057023D01*
X39952380Y-5771309D02*
X38952380Y-5771309D01*
X38952380Y-5390357D01*
X39000000Y-5295119D01*
X39047619Y-5247500D01*
X39142857Y-5199880D01*
X39285714Y-5199880D01*
X39380952Y-5247500D01*
X39428571Y-5295119D01*
X39476190Y-5390357D01*
X39476190Y-5771309D01*
X39666666Y-4818928D02*
X39666666Y-4342738D01*
X39952380Y-4914166D02*
X38952380Y-4580833D01*
X39952380Y-4247500D01*
X39952380Y-3390357D02*
X39952380Y-3961785D01*
X39952380Y-3676071D02*
X38952380Y-3676071D01*
X39095238Y-3771309D01*
X39190476Y-3866547D01*
X39238095Y-3961785D01*
X38952380Y-2485595D02*
X38952380Y-2961785D01*
X39428571Y-3009404D01*
X39380952Y-2961785D01*
X39333333Y-2866547D01*
X39333333Y-2628452D01*
X39380952Y-2533214D01*
X39428571Y-2485595D01*
X39523809Y-2437976D01*
X39761904Y-2437976D01*
X39857142Y-2485595D01*
X39904761Y-2533214D01*
X39952380Y-2628452D01*
X39952380Y-2866547D01*
X39904761Y-2961785D01*
X39857142Y-3009404D01*
X46302380Y-14084404D02*
X45302380Y-14084404D01*
X45302380Y-13703452D01*
X45350000Y-13608214D01*
X45397619Y-13560595D01*
X45492857Y-13512976D01*
X45635714Y-13512976D01*
X45730952Y-13560595D01*
X45778571Y-13608214D01*
X45826190Y-13703452D01*
X45826190Y-14084404D01*
X46016666Y-13132023D02*
X46016666Y-12655833D01*
X46302380Y-13227261D02*
X45302380Y-12893928D01*
X46302380Y-12560595D01*
X46302380Y-11703452D02*
X46302380Y-12274880D01*
X46302380Y-11989166D02*
X45302380Y-11989166D01*
X45445238Y-12084404D01*
X45540476Y-12179642D01*
X45588095Y-12274880D01*
X45302380Y-11084404D02*
X45302380Y-10989166D01*
X45350000Y-10893928D01*
X45397619Y-10846309D01*
X45492857Y-10798690D01*
X45683333Y-10751071D01*
X45921428Y-10751071D01*
X46111904Y-10798690D01*
X46207142Y-10846309D01*
X46254761Y-10893928D01*
X46302380Y-10989166D01*
X46302380Y-11084404D01*
X46254761Y-11179642D01*
X46207142Y-11227261D01*
X46111904Y-11274880D01*
X45921428Y-11322500D01*
X45683333Y-11322500D01*
X45492857Y-11274880D01*
X45397619Y-11227261D01*
X45350000Y-11179642D01*
X45302380Y-11084404D01*
X45032380Y-14111666D02*
X44032380Y-14111666D01*
X44032380Y-13730714D01*
X44080000Y-13635476D01*
X44127619Y-13587857D01*
X44222857Y-13540238D01*
X44365714Y-13540238D01*
X44460952Y-13587857D01*
X44508571Y-13635476D01*
X44556190Y-13730714D01*
X44556190Y-14111666D01*
X44746666Y-13159285D02*
X44746666Y-12683095D01*
X45032380Y-13254523D02*
X44032380Y-12921190D01*
X45032380Y-12587857D01*
X45032380Y-12206904D02*
X45032380Y-12016428D01*
X44984761Y-11921190D01*
X44937142Y-11873571D01*
X44794285Y-11778333D01*
X44603809Y-11730714D01*
X44222857Y-11730714D01*
X44127619Y-11778333D01*
X44080000Y-11825952D01*
X44032380Y-11921190D01*
X44032380Y-12111666D01*
X44080000Y-12206904D01*
X44127619Y-12254523D01*
X44222857Y-12302142D01*
X44460952Y-12302142D01*
X44556190Y-12254523D01*
X44603809Y-12206904D01*
X44651428Y-12111666D01*
X44651428Y-11921190D01*
X44603809Y-11825952D01*
X44556190Y-11778333D01*
X44460952Y-11730714D01*
X43762380Y-14111666D02*
X42762380Y-14111666D01*
X42762380Y-13730714D01*
X42810000Y-13635476D01*
X42857619Y-13587857D01*
X42952857Y-13540238D01*
X43095714Y-13540238D01*
X43190952Y-13587857D01*
X43238571Y-13635476D01*
X43286190Y-13730714D01*
X43286190Y-14111666D01*
X43476666Y-13159285D02*
X43476666Y-12683095D01*
X43762380Y-13254523D02*
X42762380Y-12921190D01*
X43762380Y-12587857D01*
X43190952Y-12111666D02*
X43143333Y-12206904D01*
X43095714Y-12254523D01*
X43000476Y-12302142D01*
X42952857Y-12302142D01*
X42857619Y-12254523D01*
X42810000Y-12206904D01*
X42762380Y-12111666D01*
X42762380Y-11921190D01*
X42810000Y-11825952D01*
X42857619Y-11778333D01*
X42952857Y-11730714D01*
X43000476Y-11730714D01*
X43095714Y-11778333D01*
X43143333Y-11825952D01*
X43190952Y-11921190D01*
X43190952Y-12111666D01*
X43238571Y-12206904D01*
X43286190Y-12254523D01*
X43381428Y-12302142D01*
X43571904Y-12302142D01*
X43667142Y-12254523D01*
X43714761Y-12206904D01*
X43762380Y-12111666D01*
X43762380Y-11921190D01*
X43714761Y-11825952D01*
X43667142Y-11778333D01*
X43571904Y-11730714D01*
X43381428Y-11730714D01*
X43286190Y-11778333D01*
X43238571Y-11825952D01*
X43190952Y-11921190D01*
X42492380Y-14183095D02*
X41492380Y-14183095D01*
X41492380Y-13802142D01*
X41540000Y-13706904D01*
X41587619Y-13659285D01*
X41682857Y-13611666D01*
X41825714Y-13611666D01*
X41920952Y-13659285D01*
X41968571Y-13706904D01*
X42016190Y-13802142D01*
X42016190Y-14183095D01*
X41968571Y-12849761D02*
X42016190Y-12706904D01*
X42063809Y-12659285D01*
X42159047Y-12611666D01*
X42301904Y-12611666D01*
X42397142Y-12659285D01*
X42444761Y-12706904D01*
X42492380Y-12802142D01*
X42492380Y-13183095D01*
X41492380Y-13183095D01*
X41492380Y-12849761D01*
X41540000Y-12754523D01*
X41587619Y-12706904D01*
X41682857Y-12659285D01*
X41778095Y-12659285D01*
X41873333Y-12706904D01*
X41920952Y-12754523D01*
X41968571Y-12849761D01*
X41968571Y-13183095D01*
X42492380Y-11659285D02*
X42492380Y-12230714D01*
X42492380Y-11945000D02*
X41492380Y-11945000D01*
X41635238Y-12040238D01*
X41730476Y-12135476D01*
X41778095Y-12230714D01*
X41222380Y-14183095D02*
X40222380Y-14183095D01*
X40222380Y-13802142D01*
X40270000Y-13706904D01*
X40317619Y-13659285D01*
X40412857Y-13611666D01*
X40555714Y-13611666D01*
X40650952Y-13659285D01*
X40698571Y-13706904D01*
X40746190Y-13802142D01*
X40746190Y-14183095D01*
X40698571Y-12849761D02*
X40746190Y-12706904D01*
X40793809Y-12659285D01*
X40889047Y-12611666D01*
X41031904Y-12611666D01*
X41127142Y-12659285D01*
X41174761Y-12706904D01*
X41222380Y-12802142D01*
X41222380Y-13183095D01*
X40222380Y-13183095D01*
X40222380Y-12849761D01*
X40270000Y-12754523D01*
X40317619Y-12706904D01*
X40412857Y-12659285D01*
X40508095Y-12659285D01*
X40603333Y-12706904D01*
X40650952Y-12754523D01*
X40698571Y-12849761D01*
X40698571Y-13183095D01*
X40222380Y-11992619D02*
X40222380Y-11897380D01*
X40270000Y-11802142D01*
X40317619Y-11754523D01*
X40412857Y-11706904D01*
X40603333Y-11659285D01*
X40841428Y-11659285D01*
X41031904Y-11706904D01*
X41127142Y-11754523D01*
X41174761Y-11802142D01*
X41222380Y-11897380D01*
X41222380Y-11992619D01*
X41174761Y-12087857D01*
X41127142Y-12135476D01*
X41031904Y-12183095D01*
X40841428Y-12230714D01*
X40603333Y-12230714D01*
X40412857Y-12183095D01*
X40317619Y-12135476D01*
X40270000Y-12087857D01*
X40222380Y-11992619D01*
X39952380Y-14111666D02*
X38952380Y-14111666D01*
X38952380Y-13730714D01*
X39000000Y-13635476D01*
X39047619Y-13587857D01*
X39142857Y-13540238D01*
X39285714Y-13540238D01*
X39380952Y-13587857D01*
X39428571Y-13635476D01*
X39476190Y-13730714D01*
X39476190Y-14111666D01*
X39666666Y-13159285D02*
X39666666Y-12683095D01*
X39952380Y-13254523D02*
X38952380Y-12921190D01*
X39952380Y-12587857D01*
X38952380Y-12349761D02*
X38952380Y-11683095D01*
X39952380Y-12111666D01*
X38682380Y-14111666D02*
X37682380Y-14111666D01*
X37682380Y-13730714D01*
X37730000Y-13635476D01*
X37777619Y-13587857D01*
X37872857Y-13540238D01*
X38015714Y-13540238D01*
X38110952Y-13587857D01*
X38158571Y-13635476D01*
X38206190Y-13730714D01*
X38206190Y-14111666D01*
X38396666Y-13159285D02*
X38396666Y-12683095D01*
X38682380Y-13254523D02*
X37682380Y-12921190D01*
X38682380Y-12587857D01*
X37682380Y-11825952D02*
X37682380Y-12016428D01*
X37730000Y-12111666D01*
X37777619Y-12159285D01*
X37920476Y-12254523D01*
X38110952Y-12302142D01*
X38491904Y-12302142D01*
X38587142Y-12254523D01*
X38634761Y-12206904D01*
X38682380Y-12111666D01*
X38682380Y-11921190D01*
X38634761Y-11825952D01*
X38587142Y-11778333D01*
X38491904Y-11730714D01*
X38253809Y-11730714D01*
X38158571Y-11778333D01*
X38110952Y-11825952D01*
X38063333Y-11921190D01*
X38063333Y-12111666D01*
X38110952Y-12206904D01*
X38158571Y-12254523D01*
X38253809Y-12302142D01*
X37412380Y-14111666D02*
X36412380Y-14111666D01*
X36412380Y-13730714D01*
X36460000Y-13635476D01*
X36507619Y-13587857D01*
X36602857Y-13540238D01*
X36745714Y-13540238D01*
X36840952Y-13587857D01*
X36888571Y-13635476D01*
X36936190Y-13730714D01*
X36936190Y-14111666D01*
X37126666Y-13159285D02*
X37126666Y-12683095D01*
X37412380Y-13254523D02*
X36412380Y-12921190D01*
X37412380Y-12587857D01*
X36412380Y-11778333D02*
X36412380Y-12254523D01*
X36888571Y-12302142D01*
X36840952Y-12254523D01*
X36793333Y-12159285D01*
X36793333Y-11921190D01*
X36840952Y-11825952D01*
X36888571Y-11778333D01*
X36983809Y-11730714D01*
X37221904Y-11730714D01*
X37317142Y-11778333D01*
X37364761Y-11825952D01*
X37412380Y-11921190D01*
X37412380Y-12159285D01*
X37364761Y-12254523D01*
X37317142Y-12302142D01*
X36142380Y-14111666D02*
X35142380Y-14111666D01*
X35142380Y-13730714D01*
X35190000Y-13635476D01*
X35237619Y-13587857D01*
X35332857Y-13540238D01*
X35475714Y-13540238D01*
X35570952Y-13587857D01*
X35618571Y-13635476D01*
X35666190Y-13730714D01*
X35666190Y-14111666D01*
X35856666Y-13159285D02*
X35856666Y-12683095D01*
X36142380Y-13254523D02*
X35142380Y-12921190D01*
X36142380Y-12587857D01*
X35475714Y-11825952D02*
X36142380Y-11825952D01*
X35094761Y-12064047D02*
X35809047Y-12302142D01*
X35809047Y-11683095D01*
X34872380Y-14111666D02*
X33872380Y-14111666D01*
X33872380Y-13730714D01*
X33920000Y-13635476D01*
X33967619Y-13587857D01*
X34062857Y-13540238D01*
X34205714Y-13540238D01*
X34300952Y-13587857D01*
X34348571Y-13635476D01*
X34396190Y-13730714D01*
X34396190Y-14111666D01*
X34586666Y-13159285D02*
X34586666Y-12683095D01*
X34872380Y-13254523D02*
X33872380Y-12921190D01*
X34872380Y-12587857D01*
X33872380Y-12349761D02*
X33872380Y-11730714D01*
X34253333Y-12064047D01*
X34253333Y-11921190D01*
X34300952Y-11825952D01*
X34348571Y-11778333D01*
X34443809Y-11730714D01*
X34681904Y-11730714D01*
X34777142Y-11778333D01*
X34824761Y-11825952D01*
X34872380Y-11921190D01*
X34872380Y-12206904D01*
X34824761Y-12302142D01*
X34777142Y-12349761D01*
X33602380Y-14111666D02*
X32602380Y-14111666D01*
X32602380Y-13730714D01*
X32650000Y-13635476D01*
X32697619Y-13587857D01*
X32792857Y-13540238D01*
X32935714Y-13540238D01*
X33030952Y-13587857D01*
X33078571Y-13635476D01*
X33126190Y-13730714D01*
X33126190Y-14111666D01*
X33316666Y-13159285D02*
X33316666Y-12683095D01*
X33602380Y-13254523D02*
X32602380Y-12921190D01*
X33602380Y-12587857D01*
X32697619Y-12302142D02*
X32650000Y-12254523D01*
X32602380Y-12159285D01*
X32602380Y-11921190D01*
X32650000Y-11825952D01*
X32697619Y-11778333D01*
X32792857Y-11730714D01*
X32888095Y-11730714D01*
X33030952Y-11778333D01*
X33602380Y-12349761D01*
X33602380Y-11730714D01*
X32332380Y-14111666D02*
X31332380Y-14111666D01*
X31332380Y-13730714D01*
X31380000Y-13635476D01*
X31427619Y-13587857D01*
X31522857Y-13540238D01*
X31665714Y-13540238D01*
X31760952Y-13587857D01*
X31808571Y-13635476D01*
X31856190Y-13730714D01*
X31856190Y-14111666D01*
X32046666Y-13159285D02*
X32046666Y-12683095D01*
X32332380Y-13254523D02*
X31332380Y-12921190D01*
X32332380Y-12587857D01*
X32332380Y-11730714D02*
X32332380Y-12302142D01*
X32332380Y-12016428D02*
X31332380Y-12016428D01*
X31475238Y-12111666D01*
X31570476Y-12206904D01*
X31618095Y-12302142D01*
X31062380Y-14111666D02*
X30062380Y-14111666D01*
X30062380Y-13730714D01*
X30110000Y-13635476D01*
X30157619Y-13587857D01*
X30252857Y-13540238D01*
X30395714Y-13540238D01*
X30490952Y-13587857D01*
X30538571Y-13635476D01*
X30586190Y-13730714D01*
X30586190Y-14111666D01*
X30776666Y-13159285D02*
X30776666Y-12683095D01*
X31062380Y-13254523D02*
X30062380Y-12921190D01*
X31062380Y-12587857D01*
X30062380Y-12064047D02*
X30062380Y-11968809D01*
X30110000Y-11873571D01*
X30157619Y-11825952D01*
X30252857Y-11778333D01*
X30443333Y-11730714D01*
X30681428Y-11730714D01*
X30871904Y-11778333D01*
X30967142Y-11825952D01*
X31014761Y-11873571D01*
X31062380Y-11968809D01*
X31062380Y-12064047D01*
X31014761Y-12159285D01*
X30967142Y-12206904D01*
X30871904Y-12254523D01*
X30681428Y-12302142D01*
X30443333Y-12302142D01*
X30252857Y-12254523D01*
X30157619Y-12206904D01*
X30110000Y-12159285D01*
X30062380Y-12064047D01*
X6990476Y-11152380D02*
X6990476Y-11866666D01*
X6942857Y-12009523D01*
X6847619Y-12104761D01*
X6704761Y-12152380D01*
X6609523Y-12152380D01*
X7990476Y-12152380D02*
X7419047Y-12152380D01*
X7704761Y-12152380D02*
X7704761Y-11152380D01*
X7609523Y-11295238D01*
X7514285Y-11390476D01*
X7419047Y-11438095D01*
X8609523Y-11152380D02*
X8704761Y-11152380D01*
X8800000Y-11200000D01*
X8847619Y-11247619D01*
X8895238Y-11342857D01*
X8942857Y-11533333D01*
X8942857Y-11771428D01*
X8895238Y-11961904D01*
X8847619Y-12057142D01*
X8800000Y-12104761D01*
X8704761Y-12152380D01*
X8609523Y-12152380D01*
X8514285Y-12104761D01*
X8466666Y-12057142D01*
X8419047Y-11961904D01*
X8371428Y-11771428D01*
X8371428Y-11533333D01*
X8419047Y-11342857D01*
X8466666Y-11247619D01*
X8514285Y-11200000D01*
X8609523Y-11152380D01*
X7628571Y-13407142D02*
X8771428Y-13407142D01*
X8200000Y-13978571D02*
X8200000Y-12835714D01*
X18628571Y-13407142D02*
X19771428Y-13407142D01*
X1738333Y-30837142D02*
X1690714Y-30884761D01*
X1547857Y-30932380D01*
X1452619Y-30932380D01*
X1309761Y-30884761D01*
X1214523Y-30789523D01*
X1166904Y-30694285D01*
X1119285Y-30503809D01*
X1119285Y-30360952D01*
X1166904Y-30170476D01*
X1214523Y-30075238D01*
X1309761Y-29980000D01*
X1452619Y-29932380D01*
X1547857Y-29932380D01*
X1690714Y-29980000D01*
X1738333Y-30027619D01*
X2214523Y-30932380D02*
X2405000Y-30932380D01*
X2500238Y-30884761D01*
X2547857Y-30837142D01*
X2643095Y-30694285D01*
X2690714Y-30503809D01*
X2690714Y-30122857D01*
X2643095Y-30027619D01*
X2595476Y-29980000D01*
X2500238Y-29932380D01*
X2309761Y-29932380D01*
X2214523Y-29980000D01*
X2166904Y-30027619D01*
X2119285Y-30122857D01*
X2119285Y-30360952D01*
X2166904Y-30456190D01*
X2214523Y-30503809D01*
X2309761Y-30551428D01*
X2500238Y-30551428D01*
X2595476Y-30503809D01*
X2643095Y-30456190D01*
X2690714Y-30360952D01*
%LPC*%
D14*
G36*
X13273191Y-16620176D02*
G01*
X13296901Y-16623693D01*
X13320152Y-16629517D01*
X13342720Y-16637592D01*
X13364389Y-16647841D01*
X13384948Y-16660164D01*
X13404201Y-16674442D01*
X13421961Y-16690539D01*
X13438058Y-16708299D01*
X13452336Y-16727552D01*
X13464659Y-16748111D01*
X13474908Y-16769780D01*
X13482983Y-16792348D01*
X13488807Y-16815599D01*
X13492324Y-16839309D01*
X13493500Y-16863250D01*
X13493500Y-17426750D01*
X13492324Y-17450691D01*
X13488807Y-17474401D01*
X13482983Y-17497652D01*
X13474908Y-17520220D01*
X13464659Y-17541889D01*
X13452336Y-17562448D01*
X13438058Y-17581701D01*
X13421961Y-17599461D01*
X13404201Y-17615558D01*
X13384948Y-17629836D01*
X13364389Y-17642159D01*
X13342720Y-17652408D01*
X13320152Y-17660483D01*
X13296901Y-17666307D01*
X13273191Y-17669824D01*
X13249250Y-17671000D01*
X12760750Y-17671000D01*
X12736809Y-17669824D01*
X12713099Y-17666307D01*
X12689848Y-17660483D01*
X12667280Y-17652408D01*
X12645611Y-17642159D01*
X12625052Y-17629836D01*
X12605799Y-17615558D01*
X12588039Y-17599461D01*
X12571942Y-17581701D01*
X12557664Y-17562448D01*
X12545341Y-17541889D01*
X12535092Y-17520220D01*
X12527017Y-17497652D01*
X12521193Y-17474401D01*
X12517676Y-17450691D01*
X12516500Y-17426750D01*
X12516500Y-16863250D01*
X12517676Y-16839309D01*
X12521193Y-16815599D01*
X12527017Y-16792348D01*
X12535092Y-16769780D01*
X12545341Y-16748111D01*
X12557664Y-16727552D01*
X12571942Y-16708299D01*
X12588039Y-16690539D01*
X12605799Y-16674442D01*
X12625052Y-16660164D01*
X12645611Y-16647841D01*
X12667280Y-16637592D01*
X12689848Y-16629517D01*
X12713099Y-16623693D01*
X12736809Y-16620176D01*
X12760750Y-16619000D01*
X13249250Y-16619000D01*
X13273191Y-16620176D01*
G37*
G36*
X11698191Y-16620176D02*
G01*
X11721901Y-16623693D01*
X11745152Y-16629517D01*
X11767720Y-16637592D01*
X11789389Y-16647841D01*
X11809948Y-16660164D01*
X11829201Y-16674442D01*
X11846961Y-16690539D01*
X11863058Y-16708299D01*
X11877336Y-16727552D01*
X11889659Y-16748111D01*
X11899908Y-16769780D01*
X11907983Y-16792348D01*
X11913807Y-16815599D01*
X11917324Y-16839309D01*
X11918500Y-16863250D01*
X11918500Y-17426750D01*
X11917324Y-17450691D01*
X11913807Y-17474401D01*
X11907983Y-17497652D01*
X11899908Y-17520220D01*
X11889659Y-17541889D01*
X11877336Y-17562448D01*
X11863058Y-17581701D01*
X11846961Y-17599461D01*
X11829201Y-17615558D01*
X11809948Y-17629836D01*
X11789389Y-17642159D01*
X11767720Y-17652408D01*
X11745152Y-17660483D01*
X11721901Y-17666307D01*
X11698191Y-17669824D01*
X11674250Y-17671000D01*
X11185750Y-17671000D01*
X11161809Y-17669824D01*
X11138099Y-17666307D01*
X11114848Y-17660483D01*
X11092280Y-17652408D01*
X11070611Y-17642159D01*
X11050052Y-17629836D01*
X11030799Y-17615558D01*
X11013039Y-17599461D01*
X10996942Y-17581701D01*
X10982664Y-17562448D01*
X10970341Y-17541889D01*
X10960092Y-17520220D01*
X10952017Y-17497652D01*
X10946193Y-17474401D01*
X10942676Y-17450691D01*
X10941500Y-17426750D01*
X10941500Y-16863250D01*
X10942676Y-16839309D01*
X10946193Y-16815599D01*
X10952017Y-16792348D01*
X10960092Y-16769780D01*
X10970341Y-16748111D01*
X10982664Y-16727552D01*
X10996942Y-16708299D01*
X11013039Y-16690539D01*
X11030799Y-16674442D01*
X11050052Y-16660164D01*
X11070611Y-16647841D01*
X11092280Y-16637592D01*
X11114848Y-16629517D01*
X11138099Y-16623693D01*
X11161809Y-16620176D01*
X11185750Y-16619000D01*
X11674250Y-16619000D01*
X11698191Y-16620176D01*
G37*
G36*
X14720691Y-16620176D02*
G01*
X14744401Y-16623693D01*
X14767652Y-16629517D01*
X14790220Y-16637592D01*
X14811889Y-16647841D01*
X14832448Y-16660164D01*
X14851701Y-16674442D01*
X14869461Y-16690539D01*
X14885558Y-16708299D01*
X14899836Y-16727552D01*
X14912159Y-16748111D01*
X14922408Y-16769780D01*
X14930483Y-16792348D01*
X14936307Y-16815599D01*
X14939824Y-16839309D01*
X14941000Y-16863250D01*
X14941000Y-17426750D01*
X14939824Y-17450691D01*
X14936307Y-17474401D01*
X14930483Y-17497652D01*
X14922408Y-17520220D01*
X14912159Y-17541889D01*
X14899836Y-17562448D01*
X14885558Y-17581701D01*
X14869461Y-17599461D01*
X14851701Y-17615558D01*
X14832448Y-17629836D01*
X14811889Y-17642159D01*
X14790220Y-17652408D01*
X14767652Y-17660483D01*
X14744401Y-17666307D01*
X14720691Y-17669824D01*
X14696750Y-17671000D01*
X14208250Y-17671000D01*
X14184309Y-17669824D01*
X14160599Y-17666307D01*
X14137348Y-17660483D01*
X14114780Y-17652408D01*
X14093111Y-17642159D01*
X14072552Y-17629836D01*
X14053299Y-17615558D01*
X14035539Y-17599461D01*
X14019442Y-17581701D01*
X14005164Y-17562448D01*
X13992841Y-17541889D01*
X13982592Y-17520220D01*
X13974517Y-17497652D01*
X13968693Y-17474401D01*
X13965176Y-17450691D01*
X13964000Y-17426750D01*
X13964000Y-16863250D01*
X13965176Y-16839309D01*
X13968693Y-16815599D01*
X13974517Y-16792348D01*
X13982592Y-16769780D01*
X13992841Y-16748111D01*
X14005164Y-16727552D01*
X14019442Y-16708299D01*
X14035539Y-16690539D01*
X14053299Y-16674442D01*
X14072552Y-16660164D01*
X14093111Y-16647841D01*
X14114780Y-16637592D01*
X14137348Y-16629517D01*
X14160599Y-16623693D01*
X14184309Y-16620176D01*
X14208250Y-16619000D01*
X14696750Y-16619000D01*
X14720691Y-16620176D01*
G37*
G36*
X16295691Y-16620176D02*
G01*
X16319401Y-16623693D01*
X16342652Y-16629517D01*
X16365220Y-16637592D01*
X16386889Y-16647841D01*
X16407448Y-16660164D01*
X16426701Y-16674442D01*
X16444461Y-16690539D01*
X16460558Y-16708299D01*
X16474836Y-16727552D01*
X16487159Y-16748111D01*
X16497408Y-16769780D01*
X16505483Y-16792348D01*
X16511307Y-16815599D01*
X16514824Y-16839309D01*
X16516000Y-16863250D01*
X16516000Y-17426750D01*
X16514824Y-17450691D01*
X16511307Y-17474401D01*
X16505483Y-17497652D01*
X16497408Y-17520220D01*
X16487159Y-17541889D01*
X16474836Y-17562448D01*
X16460558Y-17581701D01*
X16444461Y-17599461D01*
X16426701Y-17615558D01*
X16407448Y-17629836D01*
X16386889Y-17642159D01*
X16365220Y-17652408D01*
X16342652Y-17660483D01*
X16319401Y-17666307D01*
X16295691Y-17669824D01*
X16271750Y-17671000D01*
X15783250Y-17671000D01*
X15759309Y-17669824D01*
X15735599Y-17666307D01*
X15712348Y-17660483D01*
X15689780Y-17652408D01*
X15668111Y-17642159D01*
X15647552Y-17629836D01*
X15628299Y-17615558D01*
X15610539Y-17599461D01*
X15594442Y-17581701D01*
X15580164Y-17562448D01*
X15567841Y-17541889D01*
X15557592Y-17520220D01*
X15549517Y-17497652D01*
X15543693Y-17474401D01*
X15540176Y-17450691D01*
X15539000Y-17426750D01*
X15539000Y-16863250D01*
X15540176Y-16839309D01*
X15543693Y-16815599D01*
X15549517Y-16792348D01*
X15557592Y-16769780D01*
X15567841Y-16748111D01*
X15580164Y-16727552D01*
X15594442Y-16708299D01*
X15610539Y-16690539D01*
X15628299Y-16674442D01*
X15647552Y-16660164D01*
X15668111Y-16647841D01*
X15689780Y-16637592D01*
X15712348Y-16629517D01*
X15735599Y-16623693D01*
X15759309Y-16620176D01*
X15783250Y-16619000D01*
X16271750Y-16619000D01*
X16295691Y-16620176D01*
G37*
D15*
X33850000Y-19500000D03*
X34850000Y-19500000D03*
X34350000Y-19500000D03*
X35350000Y-19500000D03*
X35850000Y-19500000D03*
X36350000Y-19500000D03*
X33850000Y-17700000D03*
X34350000Y-17700000D03*
X34850000Y-17700000D03*
X35350000Y-17700000D03*
X35850000Y-17700000D03*
X36350000Y-17700000D03*
X33350000Y-19500000D03*
X33350000Y-17700000D03*
X36850000Y-19500000D03*
X36850000Y-17700000D03*
D16*
X61080000Y-33540000D03*
D14*
G36*
X59486338Y-32615306D02*
G01*
X59512669Y-32619212D01*
X59538490Y-32625680D01*
X59563553Y-32634648D01*
X59587617Y-32646029D01*
X59610449Y-32659714D01*
X59631830Y-32675571D01*
X59651553Y-32693447D01*
X59669429Y-32713170D01*
X59685286Y-32734551D01*
X59698971Y-32757383D01*
X59710352Y-32781447D01*
X59719320Y-32806510D01*
X59725788Y-32832331D01*
X59729694Y-32858662D01*
X59731000Y-32885249D01*
X59731000Y-34194751D01*
X59729694Y-34221338D01*
X59725788Y-34247669D01*
X59719320Y-34273490D01*
X59710352Y-34298553D01*
X59698971Y-34322617D01*
X59685286Y-34345449D01*
X59669429Y-34366830D01*
X59651553Y-34386553D01*
X59631830Y-34404429D01*
X59610449Y-34420286D01*
X59587617Y-34433971D01*
X59563553Y-34445352D01*
X59538490Y-34454320D01*
X59512669Y-34460788D01*
X59486338Y-34464694D01*
X59459751Y-34466000D01*
X58700249Y-34466000D01*
X58673662Y-34464694D01*
X58647331Y-34460788D01*
X58621510Y-34454320D01*
X58596447Y-34445352D01*
X58572383Y-34433971D01*
X58549551Y-34420286D01*
X58528170Y-34404429D01*
X58508447Y-34386553D01*
X58490571Y-34366830D01*
X58474714Y-34345449D01*
X58461029Y-34322617D01*
X58449648Y-34298553D01*
X58440680Y-34273490D01*
X58434212Y-34247669D01*
X58430306Y-34221338D01*
X58429000Y-34194751D01*
X58429000Y-32885249D01*
X58430306Y-32858662D01*
X58434212Y-32832331D01*
X58440680Y-32806510D01*
X58449648Y-32781447D01*
X58461029Y-32757383D01*
X58474714Y-32734551D01*
X58490571Y-32713170D01*
X58508447Y-32693447D01*
X58528170Y-32675571D01*
X58549551Y-32659714D01*
X58572383Y-32646029D01*
X58596447Y-32634648D01*
X58621510Y-32625680D01*
X58647331Y-32619212D01*
X58673662Y-32615306D01*
X58700249Y-32614000D01*
X59459751Y-32614000D01*
X59486338Y-32615306D01*
G37*
D16*
X53911426Y-33540000D03*
D14*
G36*
X52317764Y-32615306D02*
G01*
X52344095Y-32619212D01*
X52369916Y-32625680D01*
X52394979Y-32634648D01*
X52419043Y-32646029D01*
X52441875Y-32659714D01*
X52463256Y-32675571D01*
X52482979Y-32693447D01*
X52500855Y-32713170D01*
X52516712Y-32734551D01*
X52530397Y-32757383D01*
X52541778Y-32781447D01*
X52550746Y-32806510D01*
X52557214Y-32832331D01*
X52561120Y-32858662D01*
X52562426Y-32885249D01*
X52562426Y-34194751D01*
X52561120Y-34221338D01*
X52557214Y-34247669D01*
X52550746Y-34273490D01*
X52541778Y-34298553D01*
X52530397Y-34322617D01*
X52516712Y-34345449D01*
X52500855Y-34366830D01*
X52482979Y-34386553D01*
X52463256Y-34404429D01*
X52441875Y-34420286D01*
X52419043Y-34433971D01*
X52394979Y-34445352D01*
X52369916Y-34454320D01*
X52344095Y-34460788D01*
X52317764Y-34464694D01*
X52291177Y-34466000D01*
X51531675Y-34466000D01*
X51505088Y-34464694D01*
X51478757Y-34460788D01*
X51452936Y-34454320D01*
X51427873Y-34445352D01*
X51403809Y-34433971D01*
X51380977Y-34420286D01*
X51359596Y-34404429D01*
X51339873Y-34386553D01*
X51321997Y-34366830D01*
X51306140Y-34345449D01*
X51292455Y-34322617D01*
X51281074Y-34298553D01*
X51272106Y-34273490D01*
X51265638Y-34247669D01*
X51261732Y-34221338D01*
X51260426Y-34194751D01*
X51260426Y-32885249D01*
X51261732Y-32858662D01*
X51265638Y-32832331D01*
X51272106Y-32806510D01*
X51281074Y-32781447D01*
X51292455Y-32757383D01*
X51306140Y-32734551D01*
X51321997Y-32713170D01*
X51339873Y-32693447D01*
X51359596Y-32675571D01*
X51380977Y-32659714D01*
X51403809Y-32646029D01*
X51427873Y-32634648D01*
X51452936Y-32625680D01*
X51478757Y-32619212D01*
X51505088Y-32615306D01*
X51531675Y-32614000D01*
X52291177Y-32614000D01*
X52317764Y-32615306D01*
G37*
D16*
X46742855Y-33540000D03*
D14*
G36*
X45149193Y-32615306D02*
G01*
X45175524Y-32619212D01*
X45201345Y-32625680D01*
X45226408Y-32634648D01*
X45250472Y-32646029D01*
X45273304Y-32659714D01*
X45294685Y-32675571D01*
X45314408Y-32693447D01*
X45332284Y-32713170D01*
X45348141Y-32734551D01*
X45361826Y-32757383D01*
X45373207Y-32781447D01*
X45382175Y-32806510D01*
X45388643Y-32832331D01*
X45392549Y-32858662D01*
X45393855Y-32885249D01*
X45393855Y-34194751D01*
X45392549Y-34221338D01*
X45388643Y-34247669D01*
X45382175Y-34273490D01*
X45373207Y-34298553D01*
X45361826Y-34322617D01*
X45348141Y-34345449D01*
X45332284Y-34366830D01*
X45314408Y-34386553D01*
X45294685Y-34404429D01*
X45273304Y-34420286D01*
X45250472Y-34433971D01*
X45226408Y-34445352D01*
X45201345Y-34454320D01*
X45175524Y-34460788D01*
X45149193Y-34464694D01*
X45122606Y-34466000D01*
X44363104Y-34466000D01*
X44336517Y-34464694D01*
X44310186Y-34460788D01*
X44284365Y-34454320D01*
X44259302Y-34445352D01*
X44235238Y-34433971D01*
X44212406Y-34420286D01*
X44191025Y-34404429D01*
X44171302Y-34386553D01*
X44153426Y-34366830D01*
X44137569Y-34345449D01*
X44123884Y-34322617D01*
X44112503Y-34298553D01*
X44103535Y-34273490D01*
X44097067Y-34247669D01*
X44093161Y-34221338D01*
X44091855Y-34194751D01*
X44091855Y-32885249D01*
X44093161Y-32858662D01*
X44097067Y-32832331D01*
X44103535Y-32806510D01*
X44112503Y-32781447D01*
X44123884Y-32757383D01*
X44137569Y-32734551D01*
X44153426Y-32713170D01*
X44171302Y-32693447D01*
X44191025Y-32675571D01*
X44212406Y-32659714D01*
X44235238Y-32646029D01*
X44259302Y-32634648D01*
X44284365Y-32625680D01*
X44310186Y-32619212D01*
X44336517Y-32615306D01*
X44363104Y-32614000D01*
X45122606Y-32614000D01*
X45149193Y-32615306D01*
G37*
D16*
X39574284Y-33540000D03*
D14*
G36*
X37980622Y-32615306D02*
G01*
X38006953Y-32619212D01*
X38032774Y-32625680D01*
X38057837Y-32634648D01*
X38081901Y-32646029D01*
X38104733Y-32659714D01*
X38126114Y-32675571D01*
X38145837Y-32693447D01*
X38163713Y-32713170D01*
X38179570Y-32734551D01*
X38193255Y-32757383D01*
X38204636Y-32781447D01*
X38213604Y-32806510D01*
X38220072Y-32832331D01*
X38223978Y-32858662D01*
X38225284Y-32885249D01*
X38225284Y-34194751D01*
X38223978Y-34221338D01*
X38220072Y-34247669D01*
X38213604Y-34273490D01*
X38204636Y-34298553D01*
X38193255Y-34322617D01*
X38179570Y-34345449D01*
X38163713Y-34366830D01*
X38145837Y-34386553D01*
X38126114Y-34404429D01*
X38104733Y-34420286D01*
X38081901Y-34433971D01*
X38057837Y-34445352D01*
X38032774Y-34454320D01*
X38006953Y-34460788D01*
X37980622Y-34464694D01*
X37954035Y-34466000D01*
X37194533Y-34466000D01*
X37167946Y-34464694D01*
X37141615Y-34460788D01*
X37115794Y-34454320D01*
X37090731Y-34445352D01*
X37066667Y-34433971D01*
X37043835Y-34420286D01*
X37022454Y-34404429D01*
X37002731Y-34386553D01*
X36984855Y-34366830D01*
X36968998Y-34345449D01*
X36955313Y-34322617D01*
X36943932Y-34298553D01*
X36934964Y-34273490D01*
X36928496Y-34247669D01*
X36924590Y-34221338D01*
X36923284Y-34194751D01*
X36923284Y-32885249D01*
X36924590Y-32858662D01*
X36928496Y-32832331D01*
X36934964Y-32806510D01*
X36943932Y-32781447D01*
X36955313Y-32757383D01*
X36968998Y-32734551D01*
X36984855Y-32713170D01*
X37002731Y-32693447D01*
X37022454Y-32675571D01*
X37043835Y-32659714D01*
X37066667Y-32646029D01*
X37090731Y-32634648D01*
X37115794Y-32625680D01*
X37141615Y-32619212D01*
X37167946Y-32615306D01*
X37194533Y-32614000D01*
X37954035Y-32614000D01*
X37980622Y-32615306D01*
G37*
D16*
X32405713Y-33540000D03*
D14*
G36*
X30812051Y-32615306D02*
G01*
X30838382Y-32619212D01*
X30864203Y-32625680D01*
X30889266Y-32634648D01*
X30913330Y-32646029D01*
X30936162Y-32659714D01*
X30957543Y-32675571D01*
X30977266Y-32693447D01*
X30995142Y-32713170D01*
X31010999Y-32734551D01*
X31024684Y-32757383D01*
X31036065Y-32781447D01*
X31045033Y-32806510D01*
X31051501Y-32832331D01*
X31055407Y-32858662D01*
X31056713Y-32885249D01*
X31056713Y-34194751D01*
X31055407Y-34221338D01*
X31051501Y-34247669D01*
X31045033Y-34273490D01*
X31036065Y-34298553D01*
X31024684Y-34322617D01*
X31010999Y-34345449D01*
X30995142Y-34366830D01*
X30977266Y-34386553D01*
X30957543Y-34404429D01*
X30936162Y-34420286D01*
X30913330Y-34433971D01*
X30889266Y-34445352D01*
X30864203Y-34454320D01*
X30838382Y-34460788D01*
X30812051Y-34464694D01*
X30785464Y-34466000D01*
X30025962Y-34466000D01*
X29999375Y-34464694D01*
X29973044Y-34460788D01*
X29947223Y-34454320D01*
X29922160Y-34445352D01*
X29898096Y-34433971D01*
X29875264Y-34420286D01*
X29853883Y-34404429D01*
X29834160Y-34386553D01*
X29816284Y-34366830D01*
X29800427Y-34345449D01*
X29786742Y-34322617D01*
X29775361Y-34298553D01*
X29766393Y-34273490D01*
X29759925Y-34247669D01*
X29756019Y-34221338D01*
X29754713Y-34194751D01*
X29754713Y-32885249D01*
X29756019Y-32858662D01*
X29759925Y-32832331D01*
X29766393Y-32806510D01*
X29775361Y-32781447D01*
X29786742Y-32757383D01*
X29800427Y-32734551D01*
X29816284Y-32713170D01*
X29834160Y-32693447D01*
X29853883Y-32675571D01*
X29875264Y-32659714D01*
X29898096Y-32646029D01*
X29922160Y-32634648D01*
X29947223Y-32625680D01*
X29973044Y-32619212D01*
X29999375Y-32615306D01*
X30025962Y-32614000D01*
X30785464Y-32614000D01*
X30812051Y-32615306D01*
G37*
D16*
X25237142Y-33540000D03*
D14*
G36*
X23643480Y-32615306D02*
G01*
X23669811Y-32619212D01*
X23695632Y-32625680D01*
X23720695Y-32634648D01*
X23744759Y-32646029D01*
X23767591Y-32659714D01*
X23788972Y-32675571D01*
X23808695Y-32693447D01*
X23826571Y-32713170D01*
X23842428Y-32734551D01*
X23856113Y-32757383D01*
X23867494Y-32781447D01*
X23876462Y-32806510D01*
X23882930Y-32832331D01*
X23886836Y-32858662D01*
X23888142Y-32885249D01*
X23888142Y-34194751D01*
X23886836Y-34221338D01*
X23882930Y-34247669D01*
X23876462Y-34273490D01*
X23867494Y-34298553D01*
X23856113Y-34322617D01*
X23842428Y-34345449D01*
X23826571Y-34366830D01*
X23808695Y-34386553D01*
X23788972Y-34404429D01*
X23767591Y-34420286D01*
X23744759Y-34433971D01*
X23720695Y-34445352D01*
X23695632Y-34454320D01*
X23669811Y-34460788D01*
X23643480Y-34464694D01*
X23616893Y-34466000D01*
X22857391Y-34466000D01*
X22830804Y-34464694D01*
X22804473Y-34460788D01*
X22778652Y-34454320D01*
X22753589Y-34445352D01*
X22729525Y-34433971D01*
X22706693Y-34420286D01*
X22685312Y-34404429D01*
X22665589Y-34386553D01*
X22647713Y-34366830D01*
X22631856Y-34345449D01*
X22618171Y-34322617D01*
X22606790Y-34298553D01*
X22597822Y-34273490D01*
X22591354Y-34247669D01*
X22587448Y-34221338D01*
X22586142Y-34194751D01*
X22586142Y-32885249D01*
X22587448Y-32858662D01*
X22591354Y-32832331D01*
X22597822Y-32806510D01*
X22606790Y-32781447D01*
X22618171Y-32757383D01*
X22631856Y-32734551D01*
X22647713Y-32713170D01*
X22665589Y-32693447D01*
X22685312Y-32675571D01*
X22706693Y-32659714D01*
X22729525Y-32646029D01*
X22753589Y-32634648D01*
X22778652Y-32625680D01*
X22804473Y-32619212D01*
X22830804Y-32615306D01*
X22857391Y-32614000D01*
X23616893Y-32614000D01*
X23643480Y-32615306D01*
G37*
D16*
X18068571Y-33540000D03*
D14*
G36*
X16474909Y-32615306D02*
G01*
X16501240Y-32619212D01*
X16527061Y-32625680D01*
X16552124Y-32634648D01*
X16576188Y-32646029D01*
X16599020Y-32659714D01*
X16620401Y-32675571D01*
X16640124Y-32693447D01*
X16658000Y-32713170D01*
X16673857Y-32734551D01*
X16687542Y-32757383D01*
X16698923Y-32781447D01*
X16707891Y-32806510D01*
X16714359Y-32832331D01*
X16718265Y-32858662D01*
X16719571Y-32885249D01*
X16719571Y-34194751D01*
X16718265Y-34221338D01*
X16714359Y-34247669D01*
X16707891Y-34273490D01*
X16698923Y-34298553D01*
X16687542Y-34322617D01*
X16673857Y-34345449D01*
X16658000Y-34366830D01*
X16640124Y-34386553D01*
X16620401Y-34404429D01*
X16599020Y-34420286D01*
X16576188Y-34433971D01*
X16552124Y-34445352D01*
X16527061Y-34454320D01*
X16501240Y-34460788D01*
X16474909Y-34464694D01*
X16448322Y-34466000D01*
X15688820Y-34466000D01*
X15662233Y-34464694D01*
X15635902Y-34460788D01*
X15610081Y-34454320D01*
X15585018Y-34445352D01*
X15560954Y-34433971D01*
X15538122Y-34420286D01*
X15516741Y-34404429D01*
X15497018Y-34386553D01*
X15479142Y-34366830D01*
X15463285Y-34345449D01*
X15449600Y-34322617D01*
X15438219Y-34298553D01*
X15429251Y-34273490D01*
X15422783Y-34247669D01*
X15418877Y-34221338D01*
X15417571Y-34194751D01*
X15417571Y-32885249D01*
X15418877Y-32858662D01*
X15422783Y-32832331D01*
X15429251Y-32806510D01*
X15438219Y-32781447D01*
X15449600Y-32757383D01*
X15463285Y-32734551D01*
X15479142Y-32713170D01*
X15497018Y-32693447D01*
X15516741Y-32675571D01*
X15538122Y-32659714D01*
X15560954Y-32646029D01*
X15585018Y-32634648D01*
X15610081Y-32625680D01*
X15635902Y-32619212D01*
X15662233Y-32615306D01*
X15688820Y-32614000D01*
X16448322Y-32614000D01*
X16474909Y-32615306D01*
G37*
D16*
X10900000Y-33540000D03*
D14*
G36*
X9306338Y-32615306D02*
G01*
X9332669Y-32619212D01*
X9358490Y-32625680D01*
X9383553Y-32634648D01*
X9407617Y-32646029D01*
X9430449Y-32659714D01*
X9451830Y-32675571D01*
X9471553Y-32693447D01*
X9489429Y-32713170D01*
X9505286Y-32734551D01*
X9518971Y-32757383D01*
X9530352Y-32781447D01*
X9539320Y-32806510D01*
X9545788Y-32832331D01*
X9549694Y-32858662D01*
X9551000Y-32885249D01*
X9551000Y-34194751D01*
X9549694Y-34221338D01*
X9545788Y-34247669D01*
X9539320Y-34273490D01*
X9530352Y-34298553D01*
X9518971Y-34322617D01*
X9505286Y-34345449D01*
X9489429Y-34366830D01*
X9471553Y-34386553D01*
X9451830Y-34404429D01*
X9430449Y-34420286D01*
X9407617Y-34433971D01*
X9383553Y-34445352D01*
X9358490Y-34454320D01*
X9332669Y-34460788D01*
X9306338Y-34464694D01*
X9279751Y-34466000D01*
X8520249Y-34466000D01*
X8493662Y-34464694D01*
X8467331Y-34460788D01*
X8441510Y-34454320D01*
X8416447Y-34445352D01*
X8392383Y-34433971D01*
X8369551Y-34420286D01*
X8348170Y-34404429D01*
X8328447Y-34386553D01*
X8310571Y-34366830D01*
X8294714Y-34345449D01*
X8281029Y-34322617D01*
X8269648Y-34298553D01*
X8260680Y-34273490D01*
X8254212Y-34247669D01*
X8250306Y-34221338D01*
X8249000Y-34194751D01*
X8249000Y-32885249D01*
X8250306Y-32858662D01*
X8254212Y-32832331D01*
X8260680Y-32806510D01*
X8269648Y-32781447D01*
X8281029Y-32757383D01*
X8294714Y-32734551D01*
X8310571Y-32713170D01*
X8328447Y-32693447D01*
X8348170Y-32675571D01*
X8369551Y-32659714D01*
X8392383Y-32646029D01*
X8416447Y-32634648D01*
X8441510Y-32625680D01*
X8467331Y-32619212D01*
X8493662Y-32615306D01*
X8520249Y-32614000D01*
X9279751Y-32614000D01*
X9306338Y-32615306D01*
G37*
D17*
X57959375Y-30520000D03*
X55419375Y-22900000D03*
X55419375Y-30520000D03*
D18*
X57959375Y-22900000D03*
D17*
X51893750Y-30520000D03*
X49353750Y-22900000D03*
X49353750Y-30520000D03*
D18*
X51893750Y-22900000D03*
D17*
X45828125Y-30520000D03*
X43288125Y-22900000D03*
X43288125Y-30520000D03*
D18*
X45828125Y-22900000D03*
D17*
X39762500Y-30520000D03*
X37222500Y-22900000D03*
X37222500Y-30520000D03*
D18*
X39762500Y-22900000D03*
D17*
X33696875Y-30520000D03*
X31156875Y-22900000D03*
X31156875Y-30520000D03*
D18*
X33696875Y-22900000D03*
D17*
X27631250Y-30520000D03*
X25091250Y-22900000D03*
X25091250Y-30520000D03*
D18*
X27631250Y-22900000D03*
D17*
X21565625Y-30520000D03*
X19025625Y-22900000D03*
X19025625Y-30520000D03*
D18*
X21565625Y-22900000D03*
D17*
X15500000Y-30520000D03*
X12960000Y-22900000D03*
X12960000Y-30520000D03*
D18*
X15500000Y-22900000D03*
D19*
X3000000Y-3000000D03*
X3000000Y-37000000D03*
X67000000Y-37000000D03*
X67000000Y-3000000D03*
D20*
X4000000Y-10300000D03*
X2800000Y-15400000D03*
D21*
X31880000Y-1515000D03*
X33150000Y-1515000D03*
X34420000Y-1515000D03*
X35690000Y-1515000D03*
X61725000Y-1515000D03*
X60455000Y-1515000D03*
X60455000Y-15485000D03*
X61725000Y-15485000D03*
X36960000Y-1515000D03*
X38230000Y-1515000D03*
X39500000Y-1515000D03*
X45850000Y-15485000D03*
X44580000Y-15485000D03*
X43310000Y-15485000D03*
X42040000Y-15485000D03*
X40770000Y-15485000D03*
X39500000Y-15485000D03*
X38230000Y-15485000D03*
X36960000Y-15485000D03*
X35690000Y-15485000D03*
X34420000Y-15485000D03*
X33150000Y-15485000D03*
X31880000Y-15485000D03*
X30610000Y-15485000D03*
D22*
X11200000Y-13300000D03*
D23*
X16200000Y-13300000D03*
D24*
X8200000Y-3300000D03*
X19200000Y-3300000D03*
D25*
X8772144Y-26700000D03*
D26*
X2427856Y-22700000D03*
D25*
X8100000Y-24700000D03*
D26*
X3100000Y-24700000D03*
M02*
