M48
; DRILL file {KiCad (5.1.5)-3} date 2020/11/15 0:32:07
; FORMAT={-:-/ absolute / metric / decimal}
; #@! TF.CreationDate,2020-11-15T00:32:07+09:00
; #@! TF.GenerationSoftware,Kicad,Pcbnew,(5.1.5)-3
; #@! TF.FileFunction,Plated,1,2,PTH
FMAT,2
METRIC
T1C0.650
T2C0.750
T3C0.800
T4C1.000
T5C1.010
T6C1.900
%
G90
G05
T1
X30.61Y-15.485
X31.88Y-1.515
X31.88Y-15.485
X33.15Y-1.515
X33.15Y-15.485
X34.42Y-1.515
X34.42Y-15.485
X35.69Y-1.515
X35.69Y-15.485
X36.96Y-1.515
X36.96Y-15.485
X38.23Y-1.515
X38.23Y-15.485
X39.5Y-1.515
X39.5Y-15.485
X40.77Y-15.485
X42.04Y-15.485
X43.31Y-15.485
X44.58Y-15.485
X45.85Y-15.485
X60.455Y-1.515
X60.455Y-15.485
X61.725Y-1.515
X61.725Y-15.485
T2
X51.911Y-33.54
X53.911Y-33.54
X59.08Y-33.54
X61.08Y-33.54
X8.9Y-33.54
X10.9Y-33.54
X37.574Y-33.54
X39.574Y-33.54
X23.237Y-33.54
X25.237Y-33.54
X16.069Y-33.54
X18.069Y-33.54
X44.743Y-33.54
X46.743Y-33.54
X30.406Y-33.54
X32.406Y-33.54
T3
X37.222Y-22.9
X37.222Y-30.52
X39.762Y-22.9
X39.762Y-30.52
X19.026Y-22.9
X19.026Y-30.52
X21.566Y-22.9
X21.566Y-30.52
X43.288Y-22.9
X43.288Y-30.52
X45.828Y-22.9
X45.828Y-30.52
X49.354Y-22.9
X49.354Y-30.52
X51.894Y-22.9
X51.894Y-30.52
X25.091Y-22.9
X25.091Y-30.52
X27.631Y-22.9
X27.631Y-30.52
X55.419Y-22.9
X55.419Y-30.52
X57.959Y-22.9
X57.959Y-30.52
X12.96Y-22.9
X12.96Y-30.52
X15.5Y-22.9
X15.5Y-30.52
X31.157Y-22.9
X31.157Y-30.52
X33.697Y-22.9
X33.697Y-30.52
T4
X22.86Y-2.54
X22.86Y-5.08
X22.86Y-7.62
X22.86Y-10.16
X22.86Y-12.7
X22.86Y-15.24
X22.86Y-17.78
X25.4Y-2.54
X25.4Y-5.08
X25.4Y-7.62
X25.4Y-10.16
X25.4Y-12.7
X25.4Y-15.24
X25.4Y-17.78
X27.94Y-2.54
X27.94Y-5.08
X27.94Y-7.62
X27.94Y-10.16
X27.94Y-12.7
X27.94Y-15.24
X27.94Y-17.78
X30.48Y-5.08
X30.48Y-7.62
X30.48Y-10.16
X33.02Y-7.62
X33.02Y-10.16
X35.56Y-7.62
X35.56Y-10.16
X38.1Y-7.62
X38.1Y-10.16
X40.64Y-7.62
X40.64Y-10.16
X43.18Y-2.54
X43.18Y-5.08
X43.18Y-7.62
X43.18Y-10.16
X45.72Y-2.54
X45.72Y-5.08
X45.72Y-7.62
X45.72Y-10.16
X48.26Y-2.54
X48.26Y-5.08
X48.26Y-7.62
X48.26Y-10.16
X48.26Y-12.7
X48.26Y-15.24
X48.26Y-17.78
X50.8Y-2.54
X50.8Y-5.08
X50.8Y-7.62
X50.8Y-10.16
X50.8Y-12.7
X50.8Y-15.24
X50.8Y-17.78
X53.34Y-2.54
X53.34Y-5.08
X53.34Y-7.62
X53.34Y-7.62
X53.34Y-10.16
X53.34Y-12.7
X53.34Y-15.24
X53.34Y-17.78
X55.88Y-2.54
X55.88Y-5.08
X55.88Y-7.62
X55.88Y-10.16
X55.88Y-12.7
X55.88Y-15.24
X55.88Y-17.78
X58.42Y-2.54
X58.42Y-5.08
X58.42Y-7.62
X58.42Y-10.16
X58.42Y-12.7
X58.42Y-15.24
X58.42Y-17.78
X60.96Y-5.08
X60.96Y-7.62
X60.96Y-10.16
X60.96Y-12.7
X63.5Y-7.62
X63.5Y-10.16
X63.5Y-12.7
X63.5Y-15.24
X63.5Y-17.78
X63.5Y-20.32
X63.5Y-22.86
X63.5Y-25.4
X63.5Y-27.94
X66.04Y-7.62
X66.04Y-10.16
X66.04Y-12.7
X66.04Y-15.24
X66.04Y-17.78
X66.04Y-20.32
X66.04Y-22.86
X66.04Y-25.4
X66.04Y-27.94
X68.58Y-7.62
X68.58Y-10.16
X68.58Y-12.7
X68.58Y-15.24
X68.58Y-17.78
X68.58Y-20.32
X68.58Y-22.86
X68.58Y-25.4
X68.58Y-27.94
X2.428Y-22.7
X3.1Y-24.7
X8.1Y-24.7
X8.772Y-26.7
X8.2Y-3.3
X19.2Y-3.3
T5
X2.8Y-15.4
X4.0Y-10.3
T6
X11.2Y-13.3
X16.2Y-13.3
T0
M30
