G04 #@! TF.GenerationSoftware,KiCad,Pcbnew,(5.1.5)-3*
G04 #@! TF.CreationDate,2020-11-15T00:32:02+09:00*
G04 #@! TF.ProjectId,shield_servo_adc_sw_gpio_led,73686965-6c64-45f7-9365-72766f5f6164,rev?*
G04 #@! TF.SameCoordinates,PXb532b80PY717cbc0*
G04 #@! TF.FileFunction,Legend,Bot*
G04 #@! TF.FilePolarity,Positive*
%FSLAX46Y46*%
G04 Gerber Fmt 4.6, Leading zero omitted, Abs format (unit mm)*
G04 Created by KiCad (PCBNEW (5.1.5)-3) date 2020-11-15 00:32:02*
%MOMM*%
%LPD*%
G04 APERTURE LIST*
%ADD10O,1.302000X1.852000*%
%ADD11C,0.100000*%
%ADD12O,1.702000X1.702000*%
%ADD13R,1.702000X1.702000*%
%ADD14C,3.302000*%
%ADD15C,2.112000*%
%ADD16C,1.102000*%
%ADD17C,3.602000*%
%ADD18R,3.602000X3.602000*%
%ADD19C,1.502000*%
%ADD20C,2.102000*%
%ADD21R,2.102000X2.102000*%
%ADD22C,0.254000*%
G04 APERTURE END LIST*
%LPC*%
D10*
X61080000Y-33540000D03*
D11*
G36*
X59486338Y-32615306D02*
G01*
X59512669Y-32619212D01*
X59538490Y-32625680D01*
X59563553Y-32634648D01*
X59587617Y-32646029D01*
X59610449Y-32659714D01*
X59631830Y-32675571D01*
X59651553Y-32693447D01*
X59669429Y-32713170D01*
X59685286Y-32734551D01*
X59698971Y-32757383D01*
X59710352Y-32781447D01*
X59719320Y-32806510D01*
X59725788Y-32832331D01*
X59729694Y-32858662D01*
X59731000Y-32885249D01*
X59731000Y-34194751D01*
X59729694Y-34221338D01*
X59725788Y-34247669D01*
X59719320Y-34273490D01*
X59710352Y-34298553D01*
X59698971Y-34322617D01*
X59685286Y-34345449D01*
X59669429Y-34366830D01*
X59651553Y-34386553D01*
X59631830Y-34404429D01*
X59610449Y-34420286D01*
X59587617Y-34433971D01*
X59563553Y-34445352D01*
X59538490Y-34454320D01*
X59512669Y-34460788D01*
X59486338Y-34464694D01*
X59459751Y-34466000D01*
X58700249Y-34466000D01*
X58673662Y-34464694D01*
X58647331Y-34460788D01*
X58621510Y-34454320D01*
X58596447Y-34445352D01*
X58572383Y-34433971D01*
X58549551Y-34420286D01*
X58528170Y-34404429D01*
X58508447Y-34386553D01*
X58490571Y-34366830D01*
X58474714Y-34345449D01*
X58461029Y-34322617D01*
X58449648Y-34298553D01*
X58440680Y-34273490D01*
X58434212Y-34247669D01*
X58430306Y-34221338D01*
X58429000Y-34194751D01*
X58429000Y-32885249D01*
X58430306Y-32858662D01*
X58434212Y-32832331D01*
X58440680Y-32806510D01*
X58449648Y-32781447D01*
X58461029Y-32757383D01*
X58474714Y-32734551D01*
X58490571Y-32713170D01*
X58508447Y-32693447D01*
X58528170Y-32675571D01*
X58549551Y-32659714D01*
X58572383Y-32646029D01*
X58596447Y-32634648D01*
X58621510Y-32625680D01*
X58647331Y-32619212D01*
X58673662Y-32615306D01*
X58700249Y-32614000D01*
X59459751Y-32614000D01*
X59486338Y-32615306D01*
G37*
D10*
X53911426Y-33540000D03*
D11*
G36*
X52317764Y-32615306D02*
G01*
X52344095Y-32619212D01*
X52369916Y-32625680D01*
X52394979Y-32634648D01*
X52419043Y-32646029D01*
X52441875Y-32659714D01*
X52463256Y-32675571D01*
X52482979Y-32693447D01*
X52500855Y-32713170D01*
X52516712Y-32734551D01*
X52530397Y-32757383D01*
X52541778Y-32781447D01*
X52550746Y-32806510D01*
X52557214Y-32832331D01*
X52561120Y-32858662D01*
X52562426Y-32885249D01*
X52562426Y-34194751D01*
X52561120Y-34221338D01*
X52557214Y-34247669D01*
X52550746Y-34273490D01*
X52541778Y-34298553D01*
X52530397Y-34322617D01*
X52516712Y-34345449D01*
X52500855Y-34366830D01*
X52482979Y-34386553D01*
X52463256Y-34404429D01*
X52441875Y-34420286D01*
X52419043Y-34433971D01*
X52394979Y-34445352D01*
X52369916Y-34454320D01*
X52344095Y-34460788D01*
X52317764Y-34464694D01*
X52291177Y-34466000D01*
X51531675Y-34466000D01*
X51505088Y-34464694D01*
X51478757Y-34460788D01*
X51452936Y-34454320D01*
X51427873Y-34445352D01*
X51403809Y-34433971D01*
X51380977Y-34420286D01*
X51359596Y-34404429D01*
X51339873Y-34386553D01*
X51321997Y-34366830D01*
X51306140Y-34345449D01*
X51292455Y-34322617D01*
X51281074Y-34298553D01*
X51272106Y-34273490D01*
X51265638Y-34247669D01*
X51261732Y-34221338D01*
X51260426Y-34194751D01*
X51260426Y-32885249D01*
X51261732Y-32858662D01*
X51265638Y-32832331D01*
X51272106Y-32806510D01*
X51281074Y-32781447D01*
X51292455Y-32757383D01*
X51306140Y-32734551D01*
X51321997Y-32713170D01*
X51339873Y-32693447D01*
X51359596Y-32675571D01*
X51380977Y-32659714D01*
X51403809Y-32646029D01*
X51427873Y-32634648D01*
X51452936Y-32625680D01*
X51478757Y-32619212D01*
X51505088Y-32615306D01*
X51531675Y-32614000D01*
X52291177Y-32614000D01*
X52317764Y-32615306D01*
G37*
D10*
X46742855Y-33540000D03*
D11*
G36*
X45149193Y-32615306D02*
G01*
X45175524Y-32619212D01*
X45201345Y-32625680D01*
X45226408Y-32634648D01*
X45250472Y-32646029D01*
X45273304Y-32659714D01*
X45294685Y-32675571D01*
X45314408Y-32693447D01*
X45332284Y-32713170D01*
X45348141Y-32734551D01*
X45361826Y-32757383D01*
X45373207Y-32781447D01*
X45382175Y-32806510D01*
X45388643Y-32832331D01*
X45392549Y-32858662D01*
X45393855Y-32885249D01*
X45393855Y-34194751D01*
X45392549Y-34221338D01*
X45388643Y-34247669D01*
X45382175Y-34273490D01*
X45373207Y-34298553D01*
X45361826Y-34322617D01*
X45348141Y-34345449D01*
X45332284Y-34366830D01*
X45314408Y-34386553D01*
X45294685Y-34404429D01*
X45273304Y-34420286D01*
X45250472Y-34433971D01*
X45226408Y-34445352D01*
X45201345Y-34454320D01*
X45175524Y-34460788D01*
X45149193Y-34464694D01*
X45122606Y-34466000D01*
X44363104Y-34466000D01*
X44336517Y-34464694D01*
X44310186Y-34460788D01*
X44284365Y-34454320D01*
X44259302Y-34445352D01*
X44235238Y-34433971D01*
X44212406Y-34420286D01*
X44191025Y-34404429D01*
X44171302Y-34386553D01*
X44153426Y-34366830D01*
X44137569Y-34345449D01*
X44123884Y-34322617D01*
X44112503Y-34298553D01*
X44103535Y-34273490D01*
X44097067Y-34247669D01*
X44093161Y-34221338D01*
X44091855Y-34194751D01*
X44091855Y-32885249D01*
X44093161Y-32858662D01*
X44097067Y-32832331D01*
X44103535Y-32806510D01*
X44112503Y-32781447D01*
X44123884Y-32757383D01*
X44137569Y-32734551D01*
X44153426Y-32713170D01*
X44171302Y-32693447D01*
X44191025Y-32675571D01*
X44212406Y-32659714D01*
X44235238Y-32646029D01*
X44259302Y-32634648D01*
X44284365Y-32625680D01*
X44310186Y-32619212D01*
X44336517Y-32615306D01*
X44363104Y-32614000D01*
X45122606Y-32614000D01*
X45149193Y-32615306D01*
G37*
D10*
X39574284Y-33540000D03*
D11*
G36*
X37980622Y-32615306D02*
G01*
X38006953Y-32619212D01*
X38032774Y-32625680D01*
X38057837Y-32634648D01*
X38081901Y-32646029D01*
X38104733Y-32659714D01*
X38126114Y-32675571D01*
X38145837Y-32693447D01*
X38163713Y-32713170D01*
X38179570Y-32734551D01*
X38193255Y-32757383D01*
X38204636Y-32781447D01*
X38213604Y-32806510D01*
X38220072Y-32832331D01*
X38223978Y-32858662D01*
X38225284Y-32885249D01*
X38225284Y-34194751D01*
X38223978Y-34221338D01*
X38220072Y-34247669D01*
X38213604Y-34273490D01*
X38204636Y-34298553D01*
X38193255Y-34322617D01*
X38179570Y-34345449D01*
X38163713Y-34366830D01*
X38145837Y-34386553D01*
X38126114Y-34404429D01*
X38104733Y-34420286D01*
X38081901Y-34433971D01*
X38057837Y-34445352D01*
X38032774Y-34454320D01*
X38006953Y-34460788D01*
X37980622Y-34464694D01*
X37954035Y-34466000D01*
X37194533Y-34466000D01*
X37167946Y-34464694D01*
X37141615Y-34460788D01*
X37115794Y-34454320D01*
X37090731Y-34445352D01*
X37066667Y-34433971D01*
X37043835Y-34420286D01*
X37022454Y-34404429D01*
X37002731Y-34386553D01*
X36984855Y-34366830D01*
X36968998Y-34345449D01*
X36955313Y-34322617D01*
X36943932Y-34298553D01*
X36934964Y-34273490D01*
X36928496Y-34247669D01*
X36924590Y-34221338D01*
X36923284Y-34194751D01*
X36923284Y-32885249D01*
X36924590Y-32858662D01*
X36928496Y-32832331D01*
X36934964Y-32806510D01*
X36943932Y-32781447D01*
X36955313Y-32757383D01*
X36968998Y-32734551D01*
X36984855Y-32713170D01*
X37002731Y-32693447D01*
X37022454Y-32675571D01*
X37043835Y-32659714D01*
X37066667Y-32646029D01*
X37090731Y-32634648D01*
X37115794Y-32625680D01*
X37141615Y-32619212D01*
X37167946Y-32615306D01*
X37194533Y-32614000D01*
X37954035Y-32614000D01*
X37980622Y-32615306D01*
G37*
D10*
X32405713Y-33540000D03*
D11*
G36*
X30812051Y-32615306D02*
G01*
X30838382Y-32619212D01*
X30864203Y-32625680D01*
X30889266Y-32634648D01*
X30913330Y-32646029D01*
X30936162Y-32659714D01*
X30957543Y-32675571D01*
X30977266Y-32693447D01*
X30995142Y-32713170D01*
X31010999Y-32734551D01*
X31024684Y-32757383D01*
X31036065Y-32781447D01*
X31045033Y-32806510D01*
X31051501Y-32832331D01*
X31055407Y-32858662D01*
X31056713Y-32885249D01*
X31056713Y-34194751D01*
X31055407Y-34221338D01*
X31051501Y-34247669D01*
X31045033Y-34273490D01*
X31036065Y-34298553D01*
X31024684Y-34322617D01*
X31010999Y-34345449D01*
X30995142Y-34366830D01*
X30977266Y-34386553D01*
X30957543Y-34404429D01*
X30936162Y-34420286D01*
X30913330Y-34433971D01*
X30889266Y-34445352D01*
X30864203Y-34454320D01*
X30838382Y-34460788D01*
X30812051Y-34464694D01*
X30785464Y-34466000D01*
X30025962Y-34466000D01*
X29999375Y-34464694D01*
X29973044Y-34460788D01*
X29947223Y-34454320D01*
X29922160Y-34445352D01*
X29898096Y-34433971D01*
X29875264Y-34420286D01*
X29853883Y-34404429D01*
X29834160Y-34386553D01*
X29816284Y-34366830D01*
X29800427Y-34345449D01*
X29786742Y-34322617D01*
X29775361Y-34298553D01*
X29766393Y-34273490D01*
X29759925Y-34247669D01*
X29756019Y-34221338D01*
X29754713Y-34194751D01*
X29754713Y-32885249D01*
X29756019Y-32858662D01*
X29759925Y-32832331D01*
X29766393Y-32806510D01*
X29775361Y-32781447D01*
X29786742Y-32757383D01*
X29800427Y-32734551D01*
X29816284Y-32713170D01*
X29834160Y-32693447D01*
X29853883Y-32675571D01*
X29875264Y-32659714D01*
X29898096Y-32646029D01*
X29922160Y-32634648D01*
X29947223Y-32625680D01*
X29973044Y-32619212D01*
X29999375Y-32615306D01*
X30025962Y-32614000D01*
X30785464Y-32614000D01*
X30812051Y-32615306D01*
G37*
D10*
X25237142Y-33540000D03*
D11*
G36*
X23643480Y-32615306D02*
G01*
X23669811Y-32619212D01*
X23695632Y-32625680D01*
X23720695Y-32634648D01*
X23744759Y-32646029D01*
X23767591Y-32659714D01*
X23788972Y-32675571D01*
X23808695Y-32693447D01*
X23826571Y-32713170D01*
X23842428Y-32734551D01*
X23856113Y-32757383D01*
X23867494Y-32781447D01*
X23876462Y-32806510D01*
X23882930Y-32832331D01*
X23886836Y-32858662D01*
X23888142Y-32885249D01*
X23888142Y-34194751D01*
X23886836Y-34221338D01*
X23882930Y-34247669D01*
X23876462Y-34273490D01*
X23867494Y-34298553D01*
X23856113Y-34322617D01*
X23842428Y-34345449D01*
X23826571Y-34366830D01*
X23808695Y-34386553D01*
X23788972Y-34404429D01*
X23767591Y-34420286D01*
X23744759Y-34433971D01*
X23720695Y-34445352D01*
X23695632Y-34454320D01*
X23669811Y-34460788D01*
X23643480Y-34464694D01*
X23616893Y-34466000D01*
X22857391Y-34466000D01*
X22830804Y-34464694D01*
X22804473Y-34460788D01*
X22778652Y-34454320D01*
X22753589Y-34445352D01*
X22729525Y-34433971D01*
X22706693Y-34420286D01*
X22685312Y-34404429D01*
X22665589Y-34386553D01*
X22647713Y-34366830D01*
X22631856Y-34345449D01*
X22618171Y-34322617D01*
X22606790Y-34298553D01*
X22597822Y-34273490D01*
X22591354Y-34247669D01*
X22587448Y-34221338D01*
X22586142Y-34194751D01*
X22586142Y-32885249D01*
X22587448Y-32858662D01*
X22591354Y-32832331D01*
X22597822Y-32806510D01*
X22606790Y-32781447D01*
X22618171Y-32757383D01*
X22631856Y-32734551D01*
X22647713Y-32713170D01*
X22665589Y-32693447D01*
X22685312Y-32675571D01*
X22706693Y-32659714D01*
X22729525Y-32646029D01*
X22753589Y-32634648D01*
X22778652Y-32625680D01*
X22804473Y-32619212D01*
X22830804Y-32615306D01*
X22857391Y-32614000D01*
X23616893Y-32614000D01*
X23643480Y-32615306D01*
G37*
D10*
X18068571Y-33540000D03*
D11*
G36*
X16474909Y-32615306D02*
G01*
X16501240Y-32619212D01*
X16527061Y-32625680D01*
X16552124Y-32634648D01*
X16576188Y-32646029D01*
X16599020Y-32659714D01*
X16620401Y-32675571D01*
X16640124Y-32693447D01*
X16658000Y-32713170D01*
X16673857Y-32734551D01*
X16687542Y-32757383D01*
X16698923Y-32781447D01*
X16707891Y-32806510D01*
X16714359Y-32832331D01*
X16718265Y-32858662D01*
X16719571Y-32885249D01*
X16719571Y-34194751D01*
X16718265Y-34221338D01*
X16714359Y-34247669D01*
X16707891Y-34273490D01*
X16698923Y-34298553D01*
X16687542Y-34322617D01*
X16673857Y-34345449D01*
X16658000Y-34366830D01*
X16640124Y-34386553D01*
X16620401Y-34404429D01*
X16599020Y-34420286D01*
X16576188Y-34433971D01*
X16552124Y-34445352D01*
X16527061Y-34454320D01*
X16501240Y-34460788D01*
X16474909Y-34464694D01*
X16448322Y-34466000D01*
X15688820Y-34466000D01*
X15662233Y-34464694D01*
X15635902Y-34460788D01*
X15610081Y-34454320D01*
X15585018Y-34445352D01*
X15560954Y-34433971D01*
X15538122Y-34420286D01*
X15516741Y-34404429D01*
X15497018Y-34386553D01*
X15479142Y-34366830D01*
X15463285Y-34345449D01*
X15449600Y-34322617D01*
X15438219Y-34298553D01*
X15429251Y-34273490D01*
X15422783Y-34247669D01*
X15418877Y-34221338D01*
X15417571Y-34194751D01*
X15417571Y-32885249D01*
X15418877Y-32858662D01*
X15422783Y-32832331D01*
X15429251Y-32806510D01*
X15438219Y-32781447D01*
X15449600Y-32757383D01*
X15463285Y-32734551D01*
X15479142Y-32713170D01*
X15497018Y-32693447D01*
X15516741Y-32675571D01*
X15538122Y-32659714D01*
X15560954Y-32646029D01*
X15585018Y-32634648D01*
X15610081Y-32625680D01*
X15635902Y-32619212D01*
X15662233Y-32615306D01*
X15688820Y-32614000D01*
X16448322Y-32614000D01*
X16474909Y-32615306D01*
G37*
D10*
X10900000Y-33540000D03*
D11*
G36*
X9306338Y-32615306D02*
G01*
X9332669Y-32619212D01*
X9358490Y-32625680D01*
X9383553Y-32634648D01*
X9407617Y-32646029D01*
X9430449Y-32659714D01*
X9451830Y-32675571D01*
X9471553Y-32693447D01*
X9489429Y-32713170D01*
X9505286Y-32734551D01*
X9518971Y-32757383D01*
X9530352Y-32781447D01*
X9539320Y-32806510D01*
X9545788Y-32832331D01*
X9549694Y-32858662D01*
X9551000Y-32885249D01*
X9551000Y-34194751D01*
X9549694Y-34221338D01*
X9545788Y-34247669D01*
X9539320Y-34273490D01*
X9530352Y-34298553D01*
X9518971Y-34322617D01*
X9505286Y-34345449D01*
X9489429Y-34366830D01*
X9471553Y-34386553D01*
X9451830Y-34404429D01*
X9430449Y-34420286D01*
X9407617Y-34433971D01*
X9383553Y-34445352D01*
X9358490Y-34454320D01*
X9332669Y-34460788D01*
X9306338Y-34464694D01*
X9279751Y-34466000D01*
X8520249Y-34466000D01*
X8493662Y-34464694D01*
X8467331Y-34460788D01*
X8441510Y-34454320D01*
X8416447Y-34445352D01*
X8392383Y-34433971D01*
X8369551Y-34420286D01*
X8348170Y-34404429D01*
X8328447Y-34386553D01*
X8310571Y-34366830D01*
X8294714Y-34345449D01*
X8281029Y-34322617D01*
X8269648Y-34298553D01*
X8260680Y-34273490D01*
X8254212Y-34247669D01*
X8250306Y-34221338D01*
X8249000Y-34194751D01*
X8249000Y-32885249D01*
X8250306Y-32858662D01*
X8254212Y-32832331D01*
X8260680Y-32806510D01*
X8269648Y-32781447D01*
X8281029Y-32757383D01*
X8294714Y-32734551D01*
X8310571Y-32713170D01*
X8328447Y-32693447D01*
X8348170Y-32675571D01*
X8369551Y-32659714D01*
X8392383Y-32646029D01*
X8416447Y-32634648D01*
X8441510Y-32625680D01*
X8467331Y-32619212D01*
X8493662Y-32615306D01*
X8520249Y-32614000D01*
X9279751Y-32614000D01*
X9306338Y-32615306D01*
G37*
D12*
X57959375Y-30520000D03*
X55419375Y-22900000D03*
X55419375Y-30520000D03*
D13*
X57959375Y-22900000D03*
D12*
X51893750Y-30520000D03*
X49353750Y-22900000D03*
X49353750Y-30520000D03*
D13*
X51893750Y-22900000D03*
D12*
X45828125Y-30520000D03*
X43288125Y-22900000D03*
X43288125Y-30520000D03*
D13*
X45828125Y-22900000D03*
D12*
X39762500Y-30520000D03*
X37222500Y-22900000D03*
X37222500Y-30520000D03*
D13*
X39762500Y-22900000D03*
D12*
X33696875Y-30520000D03*
X31156875Y-22900000D03*
X31156875Y-30520000D03*
D13*
X33696875Y-22900000D03*
D12*
X27631250Y-30520000D03*
X25091250Y-22900000D03*
X25091250Y-30520000D03*
D13*
X27631250Y-22900000D03*
D12*
X21565625Y-30520000D03*
X19025625Y-22900000D03*
X19025625Y-30520000D03*
D13*
X21565625Y-22900000D03*
D12*
X15500000Y-30520000D03*
X12960000Y-22900000D03*
X12960000Y-30520000D03*
D13*
X15500000Y-22900000D03*
D14*
X3000000Y-3000000D03*
X3000000Y-37000000D03*
X67000000Y-37000000D03*
X67000000Y-3000000D03*
D15*
X4000000Y-10300000D03*
X2800000Y-15400000D03*
D16*
X31880000Y-1515000D03*
X33150000Y-1515000D03*
X34420000Y-1515000D03*
X35690000Y-1515000D03*
X61725000Y-1515000D03*
X60455000Y-1515000D03*
X60455000Y-15485000D03*
X61725000Y-15485000D03*
X36960000Y-1515000D03*
X38230000Y-1515000D03*
X39500000Y-1515000D03*
X45850000Y-15485000D03*
X44580000Y-15485000D03*
X43310000Y-15485000D03*
X42040000Y-15485000D03*
X40770000Y-15485000D03*
X39500000Y-15485000D03*
X38230000Y-15485000D03*
X36960000Y-15485000D03*
X35690000Y-15485000D03*
X34420000Y-15485000D03*
X33150000Y-15485000D03*
X31880000Y-15485000D03*
X30610000Y-15485000D03*
D17*
X11200000Y-13300000D03*
D18*
X16200000Y-13300000D03*
D19*
X8200000Y-3300000D03*
X19200000Y-3300000D03*
D20*
X8772144Y-26700000D03*
D21*
X2427856Y-22700000D03*
D20*
X8100000Y-24700000D03*
D21*
X3100000Y-24700000D03*
D22*
G36*
X29083000Y-3810000D02*
G01*
X29085440Y-3834776D01*
X29092667Y-3858601D01*
X29104403Y-3880557D01*
X29120197Y-3899803D01*
X29139443Y-3915597D01*
X29161399Y-3927333D01*
X29185224Y-3934560D01*
X29210000Y-3937000D01*
X31623000Y-3937000D01*
X31623000Y-6350000D01*
X31625440Y-6374776D01*
X31632667Y-6398601D01*
X31644403Y-6420557D01*
X31660197Y-6439803D01*
X31679443Y-6455597D01*
X31701399Y-6467333D01*
X31725224Y-6474560D01*
X31750000Y-6477000D01*
X41910000Y-6477000D01*
X41934776Y-6474560D01*
X41958601Y-6467333D01*
X41980557Y-6455597D01*
X41999803Y-6439803D01*
X42015597Y-6420557D01*
X42027333Y-6398601D01*
X42034560Y-6374776D01*
X42037000Y-6350000D01*
X42037000Y-1397000D01*
X59563000Y-1397000D01*
X59563000Y-3810000D01*
X59565440Y-3834776D01*
X59572667Y-3858601D01*
X59584403Y-3880557D01*
X59600197Y-3899803D01*
X59619443Y-3915597D01*
X59641399Y-3927333D01*
X59665224Y-3934560D01*
X59690000Y-3937000D01*
X62103000Y-3937000D01*
X62103000Y-6350000D01*
X62105440Y-6374776D01*
X62112667Y-6398601D01*
X62124403Y-6420557D01*
X62140197Y-6439803D01*
X62159443Y-6455597D01*
X62181399Y-6467333D01*
X62205224Y-6474560D01*
X62230000Y-6477000D01*
X69723000Y-6477000D01*
X69723000Y-29083000D01*
X62357000Y-29083000D01*
X62357000Y-13970000D01*
X62354560Y-13945224D01*
X62347333Y-13921399D01*
X62335597Y-13899443D01*
X62319803Y-13880197D01*
X62300557Y-13864403D01*
X62278601Y-13852667D01*
X62254776Y-13845440D01*
X62230000Y-13843000D01*
X59690000Y-13843000D01*
X59665224Y-13845440D01*
X59641399Y-13852667D01*
X59619443Y-13864403D01*
X59600197Y-13880197D01*
X59584403Y-13899443D01*
X59572667Y-13921399D01*
X59565440Y-13945224D01*
X59563000Y-13970000D01*
X59563000Y-18923000D01*
X47117000Y-18923000D01*
X47117000Y-11430000D01*
X47114560Y-11405224D01*
X47107333Y-11381399D01*
X47095597Y-11359443D01*
X47079803Y-11340197D01*
X47060557Y-11324403D01*
X47038601Y-11312667D01*
X47014776Y-11305440D01*
X46990000Y-11303000D01*
X29210000Y-11303000D01*
X29185224Y-11305440D01*
X29161399Y-11312667D01*
X29139443Y-11324403D01*
X29120197Y-11340197D01*
X29104403Y-11359443D01*
X29092667Y-11381399D01*
X29085440Y-11405224D01*
X29083000Y-11430000D01*
X29083000Y-18923000D01*
X21717000Y-18923000D01*
X21717000Y-1397000D01*
X29083000Y-1397000D01*
X29083000Y-3810000D01*
G37*
X29083000Y-3810000D02*
X29085440Y-3834776D01*
X29092667Y-3858601D01*
X29104403Y-3880557D01*
X29120197Y-3899803D01*
X29139443Y-3915597D01*
X29161399Y-3927333D01*
X29185224Y-3934560D01*
X29210000Y-3937000D01*
X31623000Y-3937000D01*
X31623000Y-6350000D01*
X31625440Y-6374776D01*
X31632667Y-6398601D01*
X31644403Y-6420557D01*
X31660197Y-6439803D01*
X31679443Y-6455597D01*
X31701399Y-6467333D01*
X31725224Y-6474560D01*
X31750000Y-6477000D01*
X41910000Y-6477000D01*
X41934776Y-6474560D01*
X41958601Y-6467333D01*
X41980557Y-6455597D01*
X41999803Y-6439803D01*
X42015597Y-6420557D01*
X42027333Y-6398601D01*
X42034560Y-6374776D01*
X42037000Y-6350000D01*
X42037000Y-1397000D01*
X59563000Y-1397000D01*
X59563000Y-3810000D01*
X59565440Y-3834776D01*
X59572667Y-3858601D01*
X59584403Y-3880557D01*
X59600197Y-3899803D01*
X59619443Y-3915597D01*
X59641399Y-3927333D01*
X59665224Y-3934560D01*
X59690000Y-3937000D01*
X62103000Y-3937000D01*
X62103000Y-6350000D01*
X62105440Y-6374776D01*
X62112667Y-6398601D01*
X62124403Y-6420557D01*
X62140197Y-6439803D01*
X62159443Y-6455597D01*
X62181399Y-6467333D01*
X62205224Y-6474560D01*
X62230000Y-6477000D01*
X69723000Y-6477000D01*
X69723000Y-29083000D01*
X62357000Y-29083000D01*
X62357000Y-13970000D01*
X62354560Y-13945224D01*
X62347333Y-13921399D01*
X62335597Y-13899443D01*
X62319803Y-13880197D01*
X62300557Y-13864403D01*
X62278601Y-13852667D01*
X62254776Y-13845440D01*
X62230000Y-13843000D01*
X59690000Y-13843000D01*
X59665224Y-13845440D01*
X59641399Y-13852667D01*
X59619443Y-13864403D01*
X59600197Y-13880197D01*
X59584403Y-13899443D01*
X59572667Y-13921399D01*
X59565440Y-13945224D01*
X59563000Y-13970000D01*
X59563000Y-18923000D01*
X47117000Y-18923000D01*
X47117000Y-11430000D01*
X47114560Y-11405224D01*
X47107333Y-11381399D01*
X47095597Y-11359443D01*
X47079803Y-11340197D01*
X47060557Y-11324403D01*
X47038601Y-11312667D01*
X47014776Y-11305440D01*
X46990000Y-11303000D01*
X29210000Y-11303000D01*
X29185224Y-11305440D01*
X29161399Y-11312667D01*
X29139443Y-11324403D01*
X29120197Y-11340197D01*
X29104403Y-11359443D01*
X29092667Y-11381399D01*
X29085440Y-11405224D01*
X29083000Y-11430000D01*
X29083000Y-18923000D01*
X21717000Y-18923000D01*
X21717000Y-1397000D01*
X29083000Y-1397000D01*
X29083000Y-3810000D01*
M02*
